<svg width="130" height="104" xmlns="http://www.w3.org/2000/svg" xmlns:xlink="http://www.w3.org/1999/xlink" xml:space="preserve" overflow="hidden"><defs><clipPath id="clip0"><rect x="243" y="460" width="130" height="104"/></clipPath></defs><g clip-path="url(#clip0)" transform="translate(-243 -460)"><path d="M0 0 130 0 130 103.913 0 103.913Z" fill="#FFFFFF" transform="matrix(1 0 0 1.00083 243 460)"/><path d="M0 0 130 0 130 103.913 0 103.913Z" fill="#FFFFFF" transform="matrix(1 0 0 1.00083 243 460)"/><path d="M16.8859 88.0017 117.66 88.0017 117.66 7.79351 16.8859 7.79351Z" fill="#FFFFFF" transform="matrix(1 0 0 1.00083 243 460)"/><path d="M16.8859 88.0017 117.66 88.0017" stroke="#262626" stroke-width="0.108243" stroke-linecap="square" stroke-linejoin="round" stroke-miterlimit="10" fill="none" transform="matrix(1 0 0 1.00083 243 460)"/><path d="M16.8859 88.0017 16.8859 86.9939" stroke="#262626" stroke-width="0.108243" stroke-linecap="square" stroke-linejoin="round" stroke-miterlimit="10" fill="none" transform="matrix(1 0 0 1.00083 243 460)"/><path d="M42.0795 88.0017 42.0795 86.9939" stroke="#262626" stroke-width="0.108243" stroke-linecap="square" stroke-linejoin="round" stroke-miterlimit="10" fill="none" transform="matrix(1 0 0 1.00083 243 460)"/><path d="M67.2731 88.0017 67.2731 86.9939" stroke="#262626" stroke-width="0.108243" stroke-linecap="square" stroke-linejoin="round" stroke-miterlimit="10" fill="none" transform="matrix(1 0 0 1.00083 243 460)"/><path d="M92.4667 88.0017 92.4667 86.9939" stroke="#262626" stroke-width="0.108243" stroke-linecap="square" stroke-linejoin="round" stroke-miterlimit="10" fill="none" transform="matrix(1 0 0 1.00083 243 460)"/><path d="M117.66 88.0017 117.66 86.9939" stroke="#262626" stroke-width="0.108243" stroke-linecap="square" stroke-linejoin="round" stroke-miterlimit="10" fill="none" transform="matrix(1 0 0 1.00083 243 460)"/><text fill="#262626" font-family="CMU Sans Serif,CMU Sans Serif_MSFontService,sans-serif" font-weight="500" font-size="96" transform="matrix(0.108243 0 0 0.108333 257.288 560)">0</text><text fill="#262626" font-family="CMU Sans Serif,CMU Sans Serif_MSFontService,sans-serif" font-weight="500" font-size="96" transform="matrix(0.108243 0 0 0.108333 282.482 560)">2</text><text fill="#262626" font-family="CMU Sans Serif,CMU Sans Serif_MSFontService,sans-serif" font-weight="500" font-size="96" transform="matrix(0.108243 0 0 0.108333 307.675 560)">4</text><text fill="#262626" font-family="CMU Sans Serif,CMU Sans Serif_MSFontService,sans-serif" font-weight="500" font-size="96" transform="matrix(0.108243 0 0 0.108333 332.869 560)">6</text><text fill="#262626" font-family="CMU Sans Serif,CMU Sans Serif_MSFontService,sans-serif" font-weight="500" font-size="96" transform="matrix(0.108243 0 0 0.108333 358.062 560)">8</text><path d="M16.8859 88.0017 16.8859 7.79351" stroke="#262626" stroke-width="0.108243" stroke-linecap="square" stroke-linejoin="round" stroke-miterlimit="10" fill="none" transform="matrix(1 0 0 1.00083 243 460)"/><path d="M16.8859 87.0922 17.8937 87.0922" stroke="#262626" stroke-width="0.108243" stroke-linecap="square" stroke-linejoin="round" stroke-miterlimit="10" fill="none" transform="matrix(1 0 0 1.00083 243 460)"/><path d="M16.8859 61.2783 17.8937 61.2783" stroke="#262626" stroke-width="0.108243" stroke-linecap="square" stroke-linejoin="round" stroke-miterlimit="10" fill="none" transform="matrix(1 0 0 1.00083 243 460)"/><path d="M16.8859 35.4643 17.8937 35.4643" stroke="#262626" stroke-width="0.108243" stroke-linecap="square" stroke-linejoin="round" stroke-miterlimit="10" fill="none" transform="matrix(1 0 0 1.00083 243 460)"/><path d="M16.8859 9.65036 17.8937 9.65036" stroke="#262626" stroke-width="0.108243" stroke-linecap="square" stroke-linejoin="round" stroke-miterlimit="10" fill="none" transform="matrix(1 0 0 1.00083 243 460)"/><text fill="#262626" font-family="CMU Sans Serif,CMU Sans Serif_MSFontService,sans-serif" font-weight="500" font-size="96" transform="matrix(0.108243 0 0 0.108333 252.179 550)">0</text><text fill="#262626" font-family="CMU Sans Serif,CMU Sans Serif_MSFontService,sans-serif" font-weight="500" font-size="96" transform="matrix(0.108243 0 0 0.108333 252.179 524)">2</text><text fill="#262626" font-family="CMU Sans Serif,CMU Sans Serif_MSFontService,sans-serif" font-weight="500" font-size="96" transform="matrix(0.108243 0 0 0.108333 252.179 498)">4</text><text fill="#262626" font-family="CMU Sans Serif,CMU Sans Serif_MSFontService,sans-serif" font-weight="500" font-size="96" transform="matrix(0.108243 0 0 0.108333 252.179 472)">6</text><path d="M21.9015 86.764 22.3194 86.6037 22.7373 86.4172 23.1554 86.3699 23.5733 86.2573 23.9912 86.0941 24.4092 85.9367 24.8272 85.7968 25.2451 85.6697 25.663 85.9378 26.0811 85.7263 26.499 85.6191 26.9169 85.4818 27.335 85.304 27.7529 85.2066 28.1708 85.0269 28.5889 84.8428 29.0068 84.6953 29.4247 84.5529 29.8427 84.7989 30.2607 84.6538 30.6786 84.4818 31.0965 84.3789 31.5146 84.2639 31.9325 84.0557 32.3504 83.9274 32.7684 83.7155 33.1864 83.5196 33.6043 83.3866 34.0223 83.6213 34.4403 83.4769 34.8582 83.2806 35.2762 83.1965 35.6941 83.0193 36.1121 82.811 36.5301 82.5995 36.948 82.4398 37.366 82.2662 37.7839 82.093 38.2019 81.9707 38.6199 82.2215 39.0378 81.9851 39.4558 81.7756 39.8737 81.7045 40.2917 81.4303 40.7097 81.2236 41.1276 81.0822 41.5456 80.8862 41.9635 80.6439 42.3815 80.5012 42.7994 80.7608 43.2174 80.5451 43.6354 80.3768 44.0533 80.1503 44.4713 79.907 44.8893 79.6653 45.3072 79.4707 45.7251 79.2554 46.1432 79.0147 46.5611 78.8935 46.979 79.013 47.397 78.8664 47.815 78.7287 48.2329 78.4041 48.6509 78.2181 49.0689 78.0058 49.4868 77.7415 49.9047 77.4781 50.3228 77.2354 50.7407 77.0059 51.1586 77.2333 51.5767 77.0429 51.9946 76.8011 52.4125 76.5405 52.8305 76.246 53.2485 76.0972 53.6664 75.8382 54.0843 75.4962 54.5024 75.2824 54.9203 75.072 55.3382 75.0824 55.7563 75.0525 56.1742 74.7422 56.5921 74.4718 57.0101 74.2713 57.4281 74.0039 57.846 73.6629 58.2639 73.4399 58.682 73.1224 59.0999 72.8831 59.5178 72.8126 59.9358 72.7397 60.3538 72.4809 60.7717 72.1949 61.1897 71.9019 61.6077 71.5472 62.0256 71.2403 62.4436 70.994 62.8615 70.6932 63.2795 70.3869 63.6974 70.3372 64.1154 70.3383 64.5334 69.9219 64.9513 69.6118 65.3693 69.3569 65.7873 68.968 66.2052 68.6961 66.6232 68.3404 67.0411 68.0364 67.4591 67.7452 67.8771 67.5699 68.295 67.5437 68.713 67.1987 69.131 66.9476 69.5489 66.5243 69.9668 66.1927 70.3848 65.8533 70.8028 65.5011 71.2207 65.2321 71.6387 64.7987 72.0567 64.7071 72.4746 64.609 72.8925 64.2756 73.3106 63.8696 73.7285 63.5196 74.1464 63.1795 74.5644 62.8112 74.9824 62.4184 75.4003 62.0456 75.8182 61.6405 76.2363 61.3963 76.6542 61.3979 77.0721 61.0526 77.4902 60.6315 77.9081 60.2527 78.326 59.7713 78.7441 59.4759 79.162 59.0517 79.5799 58.6004 79.9979 58.2246 80.4159 57.87 80.8338 57.9175 81.2517 57.5093 81.6698 57.1276 82.0877 56.7024 82.5056 56.28 82.9237 55.8737 83.3416 55.3697 83.7595 54.9617 84.1775 54.4858 84.5955 54.1025 85.0134 54.2142 85.4314 53.7137 85.8494 53.3047 86.2673 52.8494 86.6852 52.382 87.1032 51.885 87.5212 51.3676 87.9391 50.976 88.3571 50.4651 88.7751 50.0787 89.193 50.0302 89.611 49.5675 90.029 49.1517 90.4469 48.6967 90.8648 48.2208 91.2828 47.618 91.7008 47.1646 92.1188 46.6616 92.5367 46.1682 92.9547 45.6805 93.3726 45.6207 93.7906 45.1904 94.2085 44.6938 94.6265 44.1301 95.0445 43.6196 95.4624 43.063 95.8804 42.5307 96.2983 42.0193 96.7163 41.5094 97.1342 40.9732 97.5522 40.8622 97.9702 40.3901 98.3881 39.8518 98.8061 39.2917 99.2241 38.6708 99.642 38.0963 100.06 37.5983 100.478 36.9814 100.896 36.395 101.314 35.8359 101.732 35.7674 102.15 35.1544 102.568 34.5792 102.986 33.9363 103.404 33.3948 103.822 32.7497 104.24 32.1821 104.658 31.6016 105.076 30.912 105.493 30.3749 105.911 29.7938 106.329 29.536 106.747 28.9805 107.165 28.3234 107.583 27.644 108.001 27.0845 108.42 26.3862 108.837 25.7463 109.255 25.1479 109.673 24.3811 110.091 23.776 110.509 23.3364 110.926 22.832 111.345 22.2176 111.763 21.5519 112.181 20.8402 112.599 20.1027 113.017 19.4684 113.434 18.7465 113.852 17.9819 114.27 17.3375 114.689 16.5885 115.107 16.1549 115.525 15.6581 115.942 14.9435 116.36 14.2068 116.778 13.3882 117.196 12.6421 117.615 12.6281 117.615 7.79351 117.196 7.79842 116.778 8.27112 116.36 8.90004 115.942 9.62974 115.525 10.3937 115.107 11.0403 114.689 11.7331 114.27 12.5318 113.852 13.2428 113.434 13.9604 113.017 14.3276 112.599 14.8532 112.181 15.4691 111.763 16.1667 111.345 16.8467 110.926 17.5193 110.509 18.2103 110.091 18.8603 109.673 19.5841 109.255 20.1245 108.837 20.3816 108.42 21.0655 108.001 21.6893 107.583 22.2437 107.165 22.9349 106.747 23.5735 106.329 24.2504 105.911 24.8129 105.493 25.418 105.076 25.6681 104.658 26.1302 104.24 26.7908 103.822 27.3722 103.404 27.9553 102.986 28.5123 102.568 29.1396 102.15 29.8108 101.732 30.3781 101.314 30.8888 100.896 31.0175 100.478 31.5905 100.06 32.1616 99.642 32.6618 99.2241 33.2604 98.8061 33.8442 98.3881 34.3739 97.9702 34.97 97.5522 35.5039 97.1342 35.6909 96.7163 36.0751 96.2983 36.6319 95.8804 37.0867 95.4624 37.5677 95.0445 38.1362 94.6265 38.6817 94.2085 39.2066 93.7906 39.7332 93.3726 40.2423 92.9547 40.2706 92.5367 40.7497 92.1188 41.267 91.7008 41.7143 91.2828 42.1804 90.8648 42.7136 90.4469 43.1611 90.029 43.6868 89.611 44.1268 89.193 44.5614 88.7751 44.667 88.3571 45.0055 87.9391 45.4453 87.5212 45.956 87.1032 46.4097 86.6852 46.8903 86.2673 47.3931 85.8494 47.8359 85.4314 48.2707 85.0134 48.6481 84.5955 48.6573 84.1775 49.0452 83.7595 49.475 83.3416 49.8697 82.9237 50.4972 82.5056 50.8039 82.0877 51.238 81.6698 51.7042 81.2517 52.0903 80.8338 52.3808 80.4159 52.4166 79.9979 52.843 79.5799 53.1659 79.162 53.6032 78.7441 54.0756 78.326 54.4754 77.9081 54.9449 77.4902 55.3234 77.0721 55.7153 76.6542 55.6453 76.2363 55.9365 75.8182 56.278 75.4003 56.7334 74.9824 57.1498 74.5644 57.4767 74.1464 57.8592 73.7285 58.2579 73.3106 58.5686 72.8925 58.9147 72.4746 58.8189 72.0567 59.1277 71.6387 59.5512 71.2207 59.9385 70.8028 60.3463 70.3848 60.681 69.9668 60.9865 69.5489 61.279 69.131 61.7671 68.713 61.5932 68.295 61.8602 67.8771 62.1996 67.4591 62.5807 67.0411 62.9405 66.6232 63.3087 66.2052 63.5908 65.7873 63.8266 65.3693 64.2641 64.9513 64.4827 64.5334 64.3582 64.1154 64.6772 63.6974 65.0529 63.2795 65.4034 62.8615 65.6053 62.4436 65.9649 62.0256 66.3107 61.6077 66.5973 61.1897 66.872 60.7717 66.7339 60.3538 66.9962 59.9358 67.2643 59.5178 67.6368 59.0999 67.9124 58.682 68.1764 58.2639 68.4995 57.846 68.7624 57.4281 69.0574 57.0101 69.275 56.5921 69.1255 56.1742 69.4576 55.7563 69.6696 55.3382 70.0128 54.9203 70.2533 54.5024 70.5376 54.0843 70.7944 53.6664 71.1196 53.2485 71.4238 52.8305 71.5311 52.4125 71.3508 51.9946 71.6056 51.5767 71.9711 51.1586 72.1583 50.7407 72.416 50.3228 72.6888 49.9047 72.9394 49.4868 73.2063 49.0689 73.459 48.6509 73.6569 48.2329 73.4079 47.815 73.7082 47.397 73.9626 46.979 74.1486 46.5611 74.38 46.1432 74.6294 45.7251 74.9404 45.3072 75.1556 44.8893 75.339 44.4713 75.592 44.0533 75.5651 43.6354 75.5704 43.2174 75.8131 42.7994 76.0115 42.3815 76.233 41.9635 76.4417 41.5456 76.7293 41.1276 76.9755 40.7097 77.1671 40.2917 77.3561 39.8737 77.2783 39.4558 77.3422 39.0378 77.5218 38.6199 77.8307 38.2019 77.9359 37.7839 78.1765 37.366 78.4283 36.948 78.5786 36.5301 78.8533 36.1121 78.9861 35.6941 78.7891 35.2762 79.1018 34.8582 79.2417 34.4403 79.3733 34.0223 79.6508 33.6043 79.8913 33.1864 80.0472 32.7684 80.2885 32.3504 80.4913 31.9325 80.5901 31.5146 80.3572 31.0965 80.5916 30.6786 80.8064 30.2607 80.9701 29.8427 81.2141 29.4247 81.4421 29.0068 81.5643 28.5889 81.7918 28.1708 82.0148 27.7529 81.8215 27.335 81.9511 26.9169 82.1112 26.499 82.2691 26.0811 82.5591 25.663 82.6953 25.2451 82.9187 24.8272 83.1128 24.4092 83.3237 23.9912 83.5479 23.5733 83.3041 23.1554 83.4067 22.7373 83.5928 22.3194 83.8036 21.9015 84.0584 21.4834 84.1779 21.0655 84.358 20.6476 84.6113 20.2297 84.8125 19.8116 85.0563 19.3937 84.7927 18.9758 84.9716 18.5577 85.1194 18.1398 85.3538 17.7219 85.4993 17.3039 85.7685 16.8859 85.8979 16.8859 88.0017 17.3039 87.8566 17.7219 87.7386 18.1398 87.5932 18.5577 87.4016 18.9758 87.4253 19.3937 87.2882 19.8116 87.1037 20.2297 86.954 20.6476 86.7832 21.0655 86.9608 21.4834 86.8657Z" fill="#4DAF4A" fill-opacity="0.2" transform="matrix(1 0 0 1.00083 243 460)"/><path d="M16.8859 88.0017 17.3039 87.8566 17.7219 87.7386 18.1398 87.5932 18.5577 87.4016 18.9758 87.4253 19.3937 87.2882 19.8116 87.1037 20.2297 86.954 20.6476 86.7832 21.0655 86.9608 21.4834 86.8657 21.9015 86.764 22.3194 86.6037 22.7373 86.4172 23.1554 86.3699 23.5733 86.2573 23.9912 86.0941 24.4092 85.9367 24.8272 85.7968 25.2451 85.6697 25.663 85.9378 26.0811 85.7263 26.499 85.6191 26.9169 85.4818 27.335 85.304 27.7529 85.2066 28.1708 85.0269 28.5889 84.8428 29.0068 84.6953 29.4247 84.5529 29.8427 84.7989 30.2607 84.6538 30.6786 84.4818 31.0965 84.3789 31.5146 84.2639 31.9325 84.0557 32.3504 83.9274 32.7684 83.7155 33.1864 83.5196 33.6043 83.3866 34.0223 83.6213 34.4403 83.4769 34.8582 83.2806 35.2762 83.1965 35.6941 83.0193 36.1121 82.811 36.5301 82.5995 36.948 82.4398 37.366 82.2662 37.7839 82.093 38.2019 81.9707 38.6199 82.2215 39.0378 81.9851 39.4558 81.7756 39.8737 81.7045 40.2917 81.4303 40.7097 81.2236 41.1276 81.0822 41.5456 80.8862 41.9635 80.6439 42.3815 80.5012 42.7994 80.7608 43.2174 80.5451 43.6354 80.3768 44.0533 80.1503 44.4713 79.907 44.8893 79.6653 45.3072 79.4707 45.7251 79.2554 46.1432 79.0147 46.5611 78.8935 46.979 79.013 47.397 78.8664 47.815 78.7287 48.2329 78.4041 48.6509 78.2181 49.0689 78.0058 49.4868 77.7415 49.9047 77.4781 50.3228 77.2354 50.7407 77.0059 51.1586 77.2333 51.5767 77.0429 51.9946 76.8011 52.4125 76.5405 52.8305 76.246 53.2485 76.0972 53.6664 75.8382 54.0843 75.4962 54.5024 75.2824 54.9203 75.072 55.3382 75.0824 55.7563 75.0525 56.1742 74.7422 56.5921 74.4718 57.0101 74.2713 57.4281 74.0039 57.846 73.6629 58.2639 73.4399 58.682 73.1224 59.0999 72.8831 59.5178 72.8126 59.9358 72.7397 60.3538 72.4809 60.7717 72.1949 61.1897 71.9019 61.6077 71.5472 62.0256 71.2403 62.4436 70.994 62.8615 70.6932 63.2795 70.3869 63.6974 70.3372 64.1154 70.3383 64.5334 69.9219 64.9513 69.6118 65.3693 69.3569 65.7873 68.968 66.2052 68.6961 66.6232 68.3404 67.0411 68.0364 67.4591 67.7452 67.8771 67.5699 68.295 67.5437 68.713 67.1987 69.131 66.9476 69.5489 66.5243 69.9668 66.1927 70.3848 65.8533 70.8028 65.5011 71.2207 65.2321 71.6387 64.7987 72.0567 64.7071 72.4746 64.609 72.8925 64.2756 73.3106 63.8696 73.7285 63.5196 74.1464 63.1795 74.5644 62.8112 74.9824 62.4184 75.4003 62.0456 75.8182 61.6405 76.2363 61.3963 76.6542 61.3979 77.0721 61.0526 77.4902 60.6315 77.9081 60.2527 78.326 59.7713 78.7441 59.4759 79.162 59.0517 79.5799 58.6004 79.9979 58.2246 80.4159 57.87 80.8338 57.9175 81.2517 57.5093 81.6698 57.1276 82.0877 56.7024 82.5056 56.28 82.9237 55.8737 83.3416 55.3697 83.7595 54.9617 84.1775 54.4858 84.5955 54.1025 85.0134 54.2142 85.4314 53.7137 85.8494 53.3047 86.2673 52.8494 86.6852 52.382 87.1032 51.885 87.5212 51.3676 87.9391 50.976 88.3571 50.4651 88.7751 50.0787 89.193 50.0302 89.611 49.5675 90.029 49.1517 90.4469 48.6967 90.8648 48.2208 91.2828 47.618 91.7008 47.1646 92.1188 46.6616 92.5367 46.1682 92.9547 45.6805 93.3726 45.6207 93.7906 45.1904 94.2085 44.6938 94.6265 44.1301 95.0445 43.6196 95.4624 43.063 95.8804 42.5307 96.2983 42.0193 96.7163 41.5094 97.1342 40.9732 97.5522 40.8622 97.9702 40.3901 98.3881 39.8518 98.8061 39.2917 99.2241 38.6708 99.642 38.0963 100.06 37.5983 100.478 36.9814 100.896 36.395 101.314 35.8359 101.732 35.7674 102.15 35.1544 102.568 34.5792 102.986 33.9363 103.404 33.3948 103.822 32.7497 104.24 32.1821 104.658 31.6016 105.076 30.912 105.493 30.3749 105.911 29.7938 106.329 29.536 106.747 28.9805 107.165 28.3234 107.583 27.644 108.001 27.0845 108.42 26.3862 108.837 25.7463 109.255 25.1479 109.673 24.3811 110.091 23.776 110.509 23.3364 110.926 22.832 111.345 22.2176 111.763 21.5519 112.181 20.8402 112.599 20.1027 113.017 19.4684 113.434 18.7465 113.852 17.9819 114.27 17.3375 114.689 16.5885 115.107 16.1549 115.525 15.6581 115.942 14.9435 116.36 14.2068 116.778 13.3882 117.196 12.6421 117.615 12.6281" stroke="#AFDBAE" stroke-width="0.108243" stroke-linejoin="round" stroke-miterlimit="10" fill="none" fill-rule="evenodd" transform="matrix(1 0 0 1.00083 243 460)"/><path d="M16.8859 85.8979 17.3039 85.7685 17.7219 85.4993 18.1398 85.3538 18.5577 85.1194 18.9758 84.9716 19.3937 84.7927 19.8116 85.0563 20.2297 84.8125 20.6476 84.6113 21.0655 84.358 21.4834 84.1779 21.9015 84.0584 22.3194 83.8036 22.7373 83.5928 23.1554 83.4067 23.5733 83.3041 23.9912 83.5479 24.4092 83.3237 24.8272 83.1128 25.2451 82.9187 25.663 82.6953 26.0811 82.5591 26.499 82.2691 26.9169 82.1112 27.335 81.9511 27.7529 81.8215 28.1708 82.0148 28.5889 81.7918 29.0068 81.5643 29.4247 81.4421 29.8427 81.2141 30.2607 80.9701 30.6786 80.8064 31.0965 80.5916 31.5146 80.3572 31.9325 80.5901 32.3504 80.4913 32.7684 80.2885 33.1864 80.0472 33.6043 79.8913 34.0223 79.6508 34.4403 79.3733 34.8582 79.2417 35.2762 79.1018 35.6941 78.7891 36.1121 78.9861 36.5301 78.8533 36.948 78.5786 37.366 78.4283 37.7839 78.1765 38.2019 77.9359 38.6199 77.8307 39.0378 77.5218 39.4558 77.3422 39.8737 77.2783 40.2917 77.3561 40.7097 77.1671 41.1276 76.9755 41.5456 76.7293 41.9635 76.4417 42.3815 76.233 42.7994 76.0115 43.2174 75.8131 43.6354 75.5704 44.0533 75.5651 44.4713 75.592 44.8893 75.339 45.3072 75.1556 45.7251 74.9404 46.1432 74.6294 46.5611 74.38 46.979 74.1486 47.397 73.9626 47.815 73.7082 48.2329 73.4079 48.6509 73.6569 49.0689 73.459 49.4868 73.2063 49.9047 72.9394 50.3228 72.6888 50.7407 72.416 51.1586 72.1583 51.5767 71.9711 51.9946 71.6056 52.4125 71.3508 52.8305 71.5311 53.2485 71.4238 53.6664 71.1196 54.0843 70.7944 54.5024 70.5376 54.9203 70.2533 55.3382 70.0128 55.7563 69.6696 56.1742 69.4576 56.5921 69.1255 57.0101 69.275 57.4281 69.0574 57.846 68.7624 58.2639 68.4995 58.682 68.1764 59.0999 67.9124 59.5178 67.6368 59.9358 67.2643 60.3538 66.9962 60.7717 66.7339 61.1897 66.872 61.6077 66.5973 62.0256 66.3107 62.4436 65.9649 62.8615 65.6053 63.2795 65.4034 63.6974 65.0529 64.1154 64.6772 64.5334 64.3582 64.9513 64.4827 65.3693 64.2641 65.7873 63.8266 66.2052 63.5908 66.6232 63.3087 67.0411 62.9405 67.4591 62.5807 67.8771 62.1996 68.295 61.8602 68.713 61.5932 69.131 61.7671 69.5489 61.279 69.9668 60.9865 70.3848 60.681 70.8028 60.3463 71.2207 59.9385 71.6387 59.5512 72.0567 59.1277 72.4746 58.8189 72.8925 58.9147 73.3106 58.5686 73.7285 58.2579 74.1464 57.8592 74.5644 57.4767 74.9824 57.1498 75.4003 56.7334 75.8182 56.278 76.2363 55.9365 76.6542 55.6453 77.0721 55.7153 77.4902 55.3234 77.9081 54.9449 78.326 54.4754 78.7441 54.0756 79.162 53.6032 79.5799 53.1659 79.9979 52.843 80.4159 52.4166 80.8338 52.3808 81.2517 52.0903 81.6698 51.7042 82.0877 51.238 82.5056 50.8039 82.9237 50.4972 83.3416 49.8697 83.7595 49.475 84.1775 49.0452 84.5955 48.6573 85.0134 48.6481 85.4314 48.2707 85.8494 47.8359 86.2673 47.3931 86.6852 46.8903 87.1032 46.4097 87.5212 45.956 87.9391 45.4453 88.3571 45.0055 88.7751 44.667 89.193 44.5614 89.611 44.1268 90.029 43.6868 90.4469 43.1611 90.8648 42.7136 91.2828 42.1804 91.7008 41.7143 92.1188 41.267 92.5367 40.7497 92.9547 40.2706 93.3726 40.2423 93.7906 39.7332 94.2085 39.2066 94.6265 38.6817 95.0445 38.1362 95.4624 37.5677 95.8804 37.0867 96.2983 36.6319 96.7163 36.0751 97.1342 35.6909 97.5522 35.5039 97.9702 34.97 98.3881 34.3739 98.8061 33.8442 99.2241 33.2604 99.642 32.6618 100.06 32.1616 100.478 31.5905 100.896 31.0175 101.314 30.8888 101.732 30.3781 102.15 29.8108 102.568 29.1396 102.986 28.5123 103.404 27.9553 103.822 27.3722 104.24 26.7908 104.658 26.1302 105.076 25.6681 105.493 25.418 105.911 24.8129 106.329 24.2504 106.747 23.5735 107.165 22.9349 107.583 22.2437 108.001 21.6893 108.42 21.0655 108.837 20.3816 109.255 20.1245 109.673 19.5841 110.091 18.8603 110.509 18.2103 110.926 17.5193 111.345 16.8467 111.763 16.1667 112.181 15.4691 112.599 14.8532 113.017 14.3276 113.434 13.9604 113.852 13.2428 114.27 12.5318 114.689 11.7331 115.107 11.0403 115.525 10.3937 115.942 9.62974 116.36 8.90004 116.778 8.27112 117.196 7.79842 117.615 7.79351" stroke="#AFDBAE" stroke-width="0.108243" stroke-linejoin="round" stroke-miterlimit="10" fill="none" fill-rule="evenodd" transform="matrix(1 0 0 1.00083 243 460)"/><path d="M16.8859 87.0923 17.3039 86.9854 17.7219 86.9254 18.1398 86.7516 18.5577 86.5778 18.9758 86.5359 19.3937 86.3686 19.8116 86.2585 20.2297 86.1208 20.6476 85.9715 21.0655 86.0022 21.4834 85.8625 21.9015 85.8505 22.3194 85.6824 22.7373 85.4819 23.1554 85.3983 23.5733 85.3146 23.9912 85.188 24.4092 84.9949 24.8272 84.9241 25.2451 84.8929 25.663 84.789 26.0811 84.7341 26.499 84.5607 26.9169 84.4084 27.335 84.2933 27.7529 84.1931 28.1708 84.0839 28.5889 83.8787 29.0068 83.8193 29.4247 83.776 29.8427 83.6513 30.2607 83.5612 30.6786 83.4049 31.0965 83.2364 31.5146 83.1065 31.9325 83.0291 32.3504 82.8688 32.7684 82.7143 33.1864 82.6064 33.6043 82.5556 34.0223 82.4515 34.4403 82.275 34.8582 82.1483 35.2762 81.9925 35.6941 81.8298 36.1121 81.7308 36.5301 81.548 36.948 81.3967 37.366 81.3221 37.7839 81.2004 38.2019 81.0264 38.6199 80.9324 39.0378 80.7472 39.4558 80.5787 39.8737 80.4582 40.2917 80.2567 40.7097 80.1151 41.1276 79.9745 41.5456 79.86 41.9635 79.6917 42.3815 79.5464 42.7994 79.3972 43.2174 79.2358 43.6354 79.0422 44.0533 78.8874 44.4713 78.6895 44.8893 78.5168 45.3072 78.3736 45.7251 78.2192 46.1432 78.0309 46.5611 77.8816 46.979 77.7109 47.397 77.5446 47.815 77.3459 48.2329 77.0705 48.6509 76.9329 49.0689 76.8176 49.4868 76.6014 49.9047 76.3896 50.3228 76.1987 50.7407 76.0051 51.1586 75.8415 51.5767 75.681 51.9946 75.3822 52.4125 75.1463 52.8305 74.9767 53.2485 74.8195 53.6664 74.635 54.0843 74.3678 54.5024 74.1512 54.9203 74.0172 55.3382 73.7774 55.7563 73.5421 56.1742 73.3205 56.5921 73.0343 57.0101 72.8422 57.4281 72.6615 57.846 72.4117 58.2639 72.1843 58.682 71.9254 59.0999 71.7299 59.5178 71.5127 59.9358 71.2355 60.3538 70.9724 60.7717 70.7355 61.1897 70.5195 61.6077 70.2423 62.0256 70.0293 62.4436 69.7642 62.8615 69.4577 63.2795 69.2326 63.6974 68.996 64.1154 68.7487 64.5334 68.4224 64.9513 68.2124 65.3693 67.9634 65.7873 67.5863 66.2052 67.3962 66.6232 67.1251 67.0411 66.7835 67.4591 66.5111 67.8771 66.2391 68.295 65.9401 68.713 65.6499 69.131 65.4441 69.5489 65.1017 69.9668 64.7934 70.3848 64.5199 70.8028 64.2206 71.2207 63.9022 71.6387 63.564 72.0567 63.2495 72.4746 63.0006 72.8925 62.713 73.3106 62.3628 73.7285 62.0433 74.1464 61.7113 74.5644 61.4151 74.9824 61.0939 75.4003 60.7069 75.8182 60.3751 76.2363 60.0598 76.6542 59.784 77.0721 59.4554 77.4902 59.1212 77.9081 58.7562 78.326 58.3131 78.7441 58.0511 79.162 57.6624 79.5799 57.2231 79.9979 56.9255 80.4159 56.5916 80.8338 56.2638 81.2517 55.8618 81.6698 55.5736 82.0877 55.0973 82.5056 54.6997 82.9237 54.3625 83.3416 53.9761 83.7595 53.5307 84.1775 53.1795 84.5955 52.7887 85.0134 52.5236 85.4314 52.0491 85.8494 51.6839 86.2673 51.2663 86.6852 50.8045 87.1032 50.3247 87.5212 50.0043 87.9391 49.52 88.3571 49.1271 88.7751 48.7477 89.193 48.3724 89.611 47.927 90.029 47.4893 90.4469 47.0582 90.8648 46.5752 91.2828 46.0926 91.7008 45.706 92.1188 45.2263 92.5367 44.7952 92.9547 44.3276 93.3726 43.9403 93.7906 43.4894 94.2085 43.001 94.6265 42.5042 95.0445 41.9838 95.4624 41.4979 95.8804 41.0444 96.2983 40.5772 96.7163 40.1275 97.1342 39.5685 97.5522 39.1484 97.9702 38.6774 98.3881 38.1286 98.8061 37.5948 99.2241 37.0267 99.642 36.5198 100.06 36.0516 100.478 35.5277 100.896 35.003 101.314 34.5052 101.732 33.9864 102.15 33.4206 102.568 32.9123 102.986 32.2644 103.404 31.6857 103.822 31.1748 104.24 30.668 104.658 30.0585 105.076 29.5138 105.493 28.9598 105.911 28.3834 106.329 27.8145 106.747 27.2039 107.165 26.6291 107.583 25.9344 108.001 25.4289 108.42 24.8363 108.837 24.2097 109.255 23.6374 109.673 22.9983 110.091 22.3954 110.509 21.7506 110.926 21.0786 111.345 20.4515 111.763 19.8069 112.181 19.1905 112.599 18.5441 113.017 17.9511 113.434 17.2603 113.852 16.5592 114.27 15.9286 114.689 15.1756 115.107 14.5091 115.525 13.8367 115.942 13.1499 116.36 12.509 116.778 11.7967 117.196 11.113 117.615 11.0994" stroke="#4DAF4A" stroke-width="1.29892" stroke-linejoin="round" stroke-miterlimit="10" fill="none" fill-rule="evenodd" transform="matrix(1 0 0 1.00083 243 460)"/></g></svg>