<svg width="144" height="115" xmlns="http://www.w3.org/2000/svg" xmlns:xlink="http://www.w3.org/1999/xlink" xml:space="preserve" overflow="hidden"><defs><clipPath id="clip0"><rect x="68" y="456" width="144" height="115"/></clipPath></defs><g clip-path="url(#clip0)" transform="translate(-68 -456)"><path d="M0 0 143.75 0 143.75 115 0 115Z" fill="#FFFFFF" transform="matrix(1.00174 0 0 1 68 456)"/><path d="M0 0 143.75 0 143.75 115 0 115Z" fill="#FFFFFF" transform="matrix(1.00174 0 0 1 68 456)"/><path d="M18.6875 97.4625 130.094 97.4625 130.094 8.625 18.6875 8.625Z" fill="#FFFFFF" transform="matrix(1.00174 0 0 1 68 456)"/><path d="M18.6875 97.4625 130.094 97.4625" stroke="#262626" stroke-width="0.119787" stroke-linecap="square" stroke-linejoin="round" stroke-miterlimit="10" fill="none" transform="matrix(1.00174 0 0 1 68 456)"/><path d="M18.6875 97.4625 18.6875 96.3484" stroke="#262626" stroke-width="0.119787" stroke-linecap="square" stroke-linejoin="round" stroke-miterlimit="10" fill="none" transform="matrix(1.00174 0 0 1 68 456)"/><path d="M50.5179 97.4625 50.5179 96.3484" stroke="#262626" stroke-width="0.119787" stroke-linecap="square" stroke-linejoin="round" stroke-miterlimit="10" fill="none" transform="matrix(1.00174 0 0 1 68 456)"/><path d="M82.3482 97.4625 82.3482 96.3484" stroke="#262626" stroke-width="0.119787" stroke-linecap="square" stroke-linejoin="round" stroke-miterlimit="10" fill="none" transform="matrix(1.00174 0 0 1 68 456)"/><path d="M114.179 97.4625 114.179 96.3484" stroke="#262626" stroke-width="0.119787" stroke-linecap="square" stroke-linejoin="round" stroke-miterlimit="10" fill="none" transform="matrix(1.00174 0 0 1 68 456)"/><path d="M-2.40333 6.92695-2.40333 6.73154C-2.40333 6.43207-2.39771 6.17189-2.38648 5.95102-2.37525 5.73016-2.33855 5.43704-2.27641 5.07167-2.21427 4.70632-2.13004 4.39562-2.02373 4.13955-1.91742 3.88349-1.7527 3.63081-1.52959 3.38149-1.30648 3.13218-1.04144 2.94988-0.734476 2.83458-0.499377 2.74023-0.258294 2.69307-0.0112269 2.69307 0.202893 2.69307 0.409907 2.72227 0.609816 2.78067 0.809715 2.83906 1.02122 2.95436 1.24433 3.12656 1.46744 3.29876 1.66136 3.51963 1.82607 3.78916 1.99079 4.05869 2.12631 4.4293 2.23261 4.90098 2.33893 5.37266 2.39209 5.91321 2.39209 6.52266L2.39209 6.76523C2.39209 7.05723 2.38647 7.31815 2.37524 7.548 2.36401 7.77784 2.3277 8.06984 2.2663 8.42398 2.20491 8.77811 2.11882 9.0832 2.00801 9.33926 1.8972 9.59531 1.73062 9.84426 1.50825 10.0861 1.28589 10.3279 1.02123 10.5072 0.714265 10.624 0.459702 10.7094 0.217872 10.7506-0.0112269 10.7476-0.223862 10.7476-0.428634 10.7202-0.625543 10.6656-0.822441 10.6109-1.03395 10.5012-1.26005 10.3365-1.48616 10.1718-1.6797 9.95543-1.84068 9.6874-2.00165 9.41938-2.13566 9.04764-2.24273 8.57222-2.34979 8.09679-2.40333 7.54837-2.40333 6.92695ZM-1.50489 6.92695C-1.50489 7.44056-1.47007 7.8909-1.40044 8.27797-1.33081 8.66505-1.24658 8.96828-1.14776 9.18765-1.04893 9.40701-0.928385 9.58409-0.78614 9.71885-0.643885 9.85362-0.511736 9.94158-0.389692 9.98276-0.267658 10.0239-0.13776 10.0445 0 10.0445 0.176697 10.0445 0.341784 10.0041 0.495262 9.92323 0.648748 9.84237 0.805978 9.70088 0.966949 9.49873 1.12791 9.29659 1.25593 8.97464 1.35102 8.53291 1.44611 8.09118 1.49365 7.55212 1.49365 6.91573L1.49365 6.2374C1.49365 5.65341 1.44611 5.16303 1.35102 4.7662 1.25593 4.3694 1.12604 4.07816 0.961328 3.89248 0.796619 3.70679 0.637521 3.57952 0.484035 3.51065 0.330549 3.44176 0.165834 3.40732-0.0101056 3.40732-0.186046 3.40732-0.35076 3.44176-0.504246 3.51065-0.657732 3.57952-0.814962 3.70679-0.975933 3.89248-1.1369 4.07816-1.26531 4.37201-1.36114 4.77407-1.45698 5.17612-1.50489 5.66389-1.50489 6.2374L-1.50489 6.92695Z" fill="#262626" transform="matrix(1.00174 0 0 1 86.72 556.242)"/><path d="M-6.93145 6.92695-6.93145 6.73154C-6.93145 6.43207-6.92583 6.17189-6.91461 5.95102-6.90338 5.73016-6.86668 5.43704-6.80454 5.07167-6.74239 4.70632-6.65817 4.39562-6.55185 4.13955-6.44555 3.88349-6.28083 3.63081-6.05771 3.38149-5.8346 3.13218-5.56956 2.94988-5.2626 2.83458-5.0275 2.74023-4.78641 2.69307-4.53935 2.69307-4.32524 2.69307-4.11822 2.72227-3.91831 2.78067-3.71841 2.83906-3.50691 2.95436-3.2838 3.12656-3.06068 3.29876-2.86676 3.51963-2.70205 3.78916-2.53733 4.05869-2.40182 4.4293-2.29551 4.90098-2.1892 5.37266-2.13604 5.91321-2.13604 6.52266L-2.13604 6.76523C-2.13604 7.05723-2.14166 7.31815-2.15289 7.548-2.16411 7.77784-2.20042 8.06984-2.26182 8.42398-2.32322 8.77811-2.40931 9.0832-2.52011 9.33926-2.63093 9.59531-2.7975 9.84426-3.01987 10.0861-3.24224 10.3279-3.5069 10.5072-3.81386 10.624-4.06843 10.7094-4.31026 10.7506-4.53935 10.7476-4.75199 10.7476-4.95676 10.7202-5.15367 10.6656-5.35056 10.6109-5.56208 10.5012-5.78818 10.3365-6.01428 10.1718-6.20783 9.95543-6.3688 9.6874-6.52977 9.41938-6.66379 9.04764-6.77085 8.57222-6.87792 8.09679-6.93145 7.54837-6.93145 6.92695ZM-6.03301 6.92695C-6.03301 7.44056-5.9982 7.8909-5.92857 8.27797-5.85893 8.66505-5.77471 8.96828-5.67588 9.18765-5.57705 9.40701-5.45651 9.58409-5.31426 9.71885-5.17201 9.85362-5.03986 9.94158-4.91782 9.98276-4.79579 10.0239-4.66588 10.0445-4.52812 10.0445-4.35143 10.0445-4.18635 10.0041-4.03286 9.92323-3.87938 9.84237-3.72215 9.70088-3.56118 9.49873-3.40022 9.29659-3.2722 8.97464-3.1771 8.53291-3.08201 8.09118-3.03448 7.55212-3.03448 6.91573L-3.03448 6.2374C-3.03448 5.65341-3.08201 5.16303-3.1771 4.7662-3.2722 4.3694-3.40209 4.07816-3.5668 3.89248-3.73151 3.70679-3.89061 3.57952-4.04409 3.51065-4.19757 3.44176-4.36229 3.40732-4.53823 3.40732-4.71417 3.40732-4.87889 3.44176-5.03237 3.51065-5.18585 3.57952-5.34309 3.70679-5.50406 3.89248-5.66503 4.07816-5.79343 4.37201-5.88926 4.77407-5.9851 5.17612-6.03301 5.66389-6.03301 6.2374L-6.03301 6.92695ZM-0.545804 10.4937-0.545804 9.52792 0.420023 9.52792 0.420023 10.4937-0.545804 10.4937ZM2.57515 4.11933 2.57515 3.45674C3.49604 3.45674 4.22826 3.20219 4.77182 2.69307L4.98969 2.69307 4.98969 9.81318 6.42719 9.81318 6.42719 10.4937 2.63804 10.4937 2.63804 9.81318 4.07554 9.81318 4.07554 3.85654C3.61883 4.03173 3.1187 4.11933 2.57515 4.11933Z" fill="#262626" transform="matrix(1.00174 0 0 1 118.606 556.242)"/><path d="M-6.93145 6.92695-6.93145 6.73154C-6.93145 6.43207-6.92583 6.17189-6.91461 5.95102-6.90338 5.73016-6.86668 5.43704-6.80454 5.07167-6.74239 4.70632-6.65817 4.39562-6.55185 4.13955-6.44555 3.88349-6.28083 3.63081-6.05771 3.38149-5.8346 3.13218-5.56956 2.94988-5.2626 2.83458-5.0275 2.74023-4.78641 2.69307-4.53935 2.69307-4.32524 2.69307-4.11822 2.72227-3.91831 2.78067-3.71841 2.83906-3.50691 2.95436-3.2838 3.12656-3.06068 3.29876-2.86676 3.51963-2.70205 3.78916-2.53733 4.05869-2.40182 4.4293-2.29551 4.90098-2.1892 5.37266-2.13604 5.91321-2.13604 6.52266L-2.13604 6.76523C-2.13604 7.05723-2.14166 7.31815-2.15289 7.548-2.16411 7.77784-2.20042 8.06984-2.26182 8.42398-2.32322 8.77811-2.40931 9.0832-2.52011 9.33926-2.63093 9.59531-2.7975 9.84426-3.01987 10.0861-3.24224 10.3279-3.5069 10.5072-3.81386 10.624-4.06843 10.7094-4.31026 10.7506-4.53935 10.7476-4.75199 10.7476-4.95676 10.7202-5.15367 10.6656-5.35056 10.6109-5.56208 10.5012-5.78818 10.3365-6.01428 10.1718-6.20783 9.95543-6.3688 9.6874-6.52977 9.41938-6.66379 9.04764-6.77085 8.57222-6.87792 8.09679-6.93145 7.54837-6.93145 6.92695ZM-6.03301 6.92695C-6.03301 7.44056-5.9982 7.8909-5.92857 8.27797-5.85893 8.66505-5.77471 8.96828-5.67588 9.18765-5.57705 9.40701-5.45651 9.58409-5.31426 9.71885-5.17201 9.85362-5.03986 9.94158-4.91782 9.98276-4.79579 10.0239-4.66588 10.0445-4.52812 10.0445-4.35143 10.0445-4.18635 10.0041-4.03286 9.92323-3.87938 9.84237-3.72215 9.70088-3.56118 9.49873-3.40022 9.29659-3.2722 8.97464-3.1771 8.53291-3.08201 8.09118-3.03448 7.55212-3.03448 6.91573L-3.03448 6.2374C-3.03448 5.65341-3.08201 5.16303-3.1771 4.7662-3.2722 4.3694-3.40209 4.07816-3.5668 3.89248-3.73151 3.70679-3.89061 3.57952-4.04409 3.51065-4.19757 3.44176-4.36229 3.40732-4.53823 3.40732-4.71417 3.40732-4.87889 3.44176-5.03237 3.51065-5.18585 3.57952-5.34309 3.70679-5.50406 3.89248-5.66503 4.07816-5.79343 4.37201-5.88926 4.77407-5.9851 5.17612-6.03301 5.66389-6.03301 6.2374L-6.03301 6.92695ZM-0.545804 10.4937-0.545804 9.52792 0.420023 9.52792 0.420023 10.4937-0.545804 10.4937ZM2.01362 4.57979C2.38797 3.32198 3.13144 2.69307 4.24399 2.69307 4.98071 2.69307 5.57554 2.93565 6.02852 3.4208 6.48149 3.90596 6.70796 4.48545 6.70796 5.15927 6.70796 5.4288 6.67165 5.674 6.59902 5.89487 6.52639 6.11574 6.38414 6.35046 6.17227 6.59902 5.96039 6.84759 5.77396 7.04862 5.61299 7.20211 5.45202 7.35559 5.17687 7.60452 4.78755 7.94893 4.58241 8.13312 3.96474 8.71335 2.93453 9.68964L6.70796 9.67841 6.70796 10.4937 2.10347 10.4937 2.10347 9.7458 3.60386 8.26338C3.66376 8.20348 3.79552 8.08108 3.99917 7.89614 4.20282 7.71121 4.33833 7.5858 4.40571 7.51992 4.4731 7.45404 4.58915 7.33874 4.75386 7.17402 4.91858 7.00931 5.032 6.88315 5.09414 6.79555 5.15628 6.70796 5.2435 6.5893 5.35581 6.43955 5.46812 6.28981 5.54299 6.15767 5.58042 6.04312 5.61785 5.92857 5.65603 5.79642 5.69497 5.64667 5.7339 5.49694 5.75336 5.3457 5.75336 5.19297 5.75336 4.70182 5.59801 4.28779 5.2873 3.95088 4.9766 3.61398 4.58016 3.44551 4.098 3.44551 3.83595 3.44551 3.60273 3.50465 3.39834 3.62295 3.19394 3.74124 3.04046 3.8865 2.93789 4.05869 2.83533 4.23089 2.75109 4.40309 2.68521 4.57529 2.61933 4.74749 2.57515 4.89499 2.55268 5.01777L2.50776 5.21542 2.01362 4.57979Z" fill="#262626" transform="matrix(1.00174 0 0 1 150.491 556.242)"/><path d="M-6.93145 6.92695-6.93145 6.73154C-6.93145 6.43207-6.92583 6.17189-6.91461 5.95102-6.90338 5.73016-6.86668 5.43704-6.80454 5.07167-6.74239 4.70632-6.65817 4.39562-6.55185 4.13955-6.44555 3.88349-6.28083 3.63081-6.05771 3.38149-5.8346 3.13218-5.56956 2.94988-5.2626 2.83458-5.0275 2.74023-4.78641 2.69307-4.53935 2.69307-4.32524 2.69307-4.11822 2.72227-3.91831 2.78067-3.71841 2.83906-3.50691 2.95436-3.2838 3.12656-3.06068 3.29876-2.86676 3.51963-2.70205 3.78916-2.53733 4.05869-2.40182 4.4293-2.29551 4.90098-2.1892 5.37266-2.13604 5.91321-2.13604 6.52266L-2.13604 6.76523C-2.13604 7.05723-2.14166 7.31815-2.15289 7.548-2.16411 7.77784-2.20042 8.06984-2.26182 8.42398-2.32322 8.77811-2.40931 9.0832-2.52011 9.33926-2.63093 9.59531-2.7975 9.84426-3.01987 10.0861-3.24224 10.3279-3.5069 10.5072-3.81386 10.624-4.06843 10.7094-4.31026 10.7506-4.53935 10.7476-4.75199 10.7476-4.95676 10.7202-5.15367 10.6656-5.35056 10.6109-5.56208 10.5012-5.78818 10.3365-6.01428 10.1718-6.20783 9.95543-6.3688 9.6874-6.52977 9.41938-6.66379 9.04764-6.77085 8.57222-6.87792 8.09679-6.93145 7.54837-6.93145 6.92695ZM-6.03301 6.92695C-6.03301 7.44056-5.9982 7.8909-5.92857 8.27797-5.85893 8.66505-5.77471 8.96828-5.67588 9.18765-5.57705 9.40701-5.45651 9.58409-5.31426 9.71885-5.17201 9.85362-5.03986 9.94158-4.91782 9.98276-4.79579 10.0239-4.66588 10.0445-4.52812 10.0445-4.35143 10.0445-4.18635 10.0041-4.03286 9.92323-3.87938 9.84237-3.72215 9.70088-3.56118 9.49873-3.40022 9.29659-3.2722 8.97464-3.1771 8.53291-3.08201 8.09118-3.03448 7.55212-3.03448 6.91573L-3.03448 6.2374C-3.03448 5.65341-3.08201 5.16303-3.1771 4.7662-3.2722 4.3694-3.40209 4.07816-3.5668 3.89248-3.73151 3.70679-3.89061 3.57952-4.04409 3.51065-4.19757 3.44176-4.36229 3.40732-4.53823 3.40732-4.71417 3.40732-4.87889 3.44176-5.03237 3.51065-5.18585 3.57952-5.34309 3.70679-5.50406 3.89248-5.66503 4.07816-5.79343 4.37201-5.88926 4.77407-5.9851 5.17612-6.03301 5.66389-6.03301 6.2374L-6.03301 6.92695ZM-0.545804 10.4937-0.545804 9.52792 0.420023 9.52792 0.420023 10.4937-0.545804 10.4937ZM2.01362 9.56162 2.13716 8.85859C2.38422 9.18803 2.67435 9.44932 3.00752 9.64248 3.34069 9.83565 3.60386 9.94908 3.79703 9.98276 3.99018 10.0165 4.17437 10.0333 4.34956 10.0333 4.77332 10.0333 5.1151 9.87982 5.3749 9.57286 5.6347 9.26588 5.76461 8.87432 5.76461 8.39815 5.76461 7.95341 5.6392 7.57194 5.38838 7.25375 5.13757 6.93556 4.77108 6.77646 4.28891 6.77646L3.45112 6.77646 3.45112 6.06895C3.63531 6.05397 3.79477 6.03974 3.92954 6.02627 4.0643 6.01279 4.15041 6.00418 4.18784 6.00044 4.22527 5.99669 4.25522 5.99482 4.27768 5.99482 4.64455 5.92744 4.94589 5.74401 5.18174 5.44453 5.41758 5.14506 5.5355 4.81562 5.5355 4.45625 5.5355 4.13431 5.42768 3.87526 5.21206 3.67911 4.99643 3.48295 4.71642 3.38487 4.37203 3.38487 3.6982 3.38487 3.16512 3.67311 2.77281 4.24961 2.72789 4.31699 2.66574 4.42705 2.58638 4.57979L2.17758 3.95088C2.70467 3.11683 3.44363 2.69756 4.39448 2.69307 4.97847 2.69307 5.47186 2.86639 5.87466 3.21304 6.27746 3.5597 6.47886 3.9741 6.47886 4.45625 6.47886 5.28431 6.0521 5.93942 5.19859 6.42159 5.72568 6.60577 6.12398 6.87829 6.39351 7.23916 6.66304 7.60003 6.79781 7.99385 6.79781 8.4206 6.79781 9.04202 6.56571 9.58521 6.10151 10.0502 5.63733 10.5151 5.05708 10.7476 4.36079 10.7476 3.41743 10.7476 2.63504 10.3522 2.01362 9.56162Z" fill="#262626" transform="matrix(1.00174 0 0 1 182.377 556.242)"/><path d="M18.6875 97.4625 18.6875 8.625" stroke="#262626" stroke-width="0.119787" stroke-linecap="square" stroke-linejoin="round" stroke-miterlimit="10" fill="none" transform="matrix(1.00174 0 0 1 68 456)"/><path d="M18.6875 94.7502 19.8016 94.7502" stroke="#262626" stroke-width="0.119787" stroke-linecap="square" stroke-linejoin="round" stroke-miterlimit="10" fill="none" transform="matrix(1.00174 0 0 1 68 456)"/><path d="M18.6875 54.7736 19.8016 54.7736" stroke="#262626" stroke-width="0.119787" stroke-linecap="square" stroke-linejoin="round" stroke-miterlimit="10" fill="none" transform="matrix(1.00174 0 0 1 68 456)"/><path d="M18.6875 14.797 19.8016 14.797" stroke="#262626" stroke-width="0.119787" stroke-linecap="square" stroke-linejoin="round" stroke-miterlimit="10" fill="none" transform="matrix(1.00174 0 0 1 68 456)"/><path d="M-5.27833-0.476172-5.27833-0.671586C-5.27833-0.971064-5.27271-1.23124-5.26148-1.4521-5.25025-1.67296-5.21355-1.96608-5.15141-2.33145-5.08927-2.69681-5.00504-3.00751-4.89873-3.26357-4.79242-3.51963-4.6277-3.77232-4.40459-4.02164-4.18147-4.27094-3.91644-4.45325-3.60948-4.56855-3.37437-4.66289-3.13329-4.71005-2.88623-4.71005-2.67211-4.71005-2.4651-4.68086-2.26518-4.62245-2.06528-4.56406-1.85379-4.44876-1.63067-4.27656-1.40755-4.10436-1.21364-3.88349-1.04893-3.61396-0.884211-3.34443-0.748697-2.97383-0.64239-2.50214-0.536072-2.03047-0.482914-1.48991-0.482914-0.880469L-0.482914-0.637891C-0.482914-0.345896-0.48853-0.0849754-0.499761 0.144871-0.510992 0.374717-0.547304 0.666712-0.608695 1.02085-0.670086 1.37499-0.756182 1.68008-0.866985 1.93614-0.977798 2.19219-1.14438 2.44113-1.36675 2.68296-1.58911 2.92479-1.85377 3.10409-2.16074 3.22089-2.4153 3.30625-2.65713 3.34743-2.88623 3.34443-3.09886 3.34443-3.30363 3.3171-3.50054 3.26245-3.69744 3.2078-3.90895 3.09811-4.13506 2.93339-4.36116 2.76868-4.5547 2.55231-4.71568 2.28427-4.87665 2.01625-5.01066 1.64451-5.11773 1.16909-5.22479 0.69367-5.27833 0.145249-5.27833-0.476172ZM-4.37989-0.476172C-4.37989 0.0374372-4.34507 0.487777-4.27544 0.874848-4.20581 1.26193-4.12159 1.56515-4.02276 1.78453-3.92393 2.00389-3.80338 2.18096-3.66114 2.31573-3.51888 2.45049-3.38674 2.53845-3.26469 2.57964-3.14266 2.62082-3.01276 2.64141-2.875 2.64141-2.6983 2.64141-2.53322 2.60097-2.37974 2.52011-2.22626 2.43925-2.06902 2.29776-1.90805 2.0956-1.74709 1.89346-1.61907 1.57152-1.52398 1.12979-1.42889 0.688055-1.38135 0.148993-1.38135-0.487399L-1.38135-1.16573C-1.38135-1.74971-1.42889-2.2401-1.52398-2.63692-1.61907-3.03373-1.74896-3.32497-1.91367-3.51065-2.07838-3.69633-2.23748-3.82361-2.39096-3.89248-2.54445-3.96136-2.70917-3.9958-2.88511-3.9958-3.06104-3.9958-3.22576-3.96136-3.37925-3.89248-3.53273-3.82361-3.68996-3.69633-3.85093-3.51065-4.0119-3.32497-4.1403-3.03111-4.23614-2.62906-4.33198-2.227-4.37989-1.73923-4.37989-1.16573L-4.37989-0.476172Z" fill="#262626" transform="matrix(1.00174 0 0 1 83.9361 550.75)"/><path d="M-11.0283-2.82334C-10.654-4.08115-9.91051-4.71005-8.79795-4.71005-8.06123-4.71005-7.46639-4.46748-7.01343-3.98232-6.56046-3.49716-6.33398-2.91768-6.33398-2.24385-6.33398-1.97432-6.3703-1.72913-6.44292-1.50825-6.51554-1.28739-6.6578-1.05267-6.86968-0.804109-7.08156-0.555536-7.26799-0.354506-7.42896-0.20102-7.58993-0.0475429-7.86508 0.201398-8.2544 0.545804-8.45954 0.729987-9.07721 1.31022-10.1074 2.28652L-6.33398 2.27529-6.33398 3.09063-10.9385 3.09063-10.9385 2.34268-9.43808 0.860257C-9.37818 0.800361-9.24642 0.677949-9.04277 0.493019-8.83912 0.308089-8.7036 0.182682-8.63623 0.116797-8.56885 0.0509115-8.4528-0.0643904-8.28808-0.229109-8.12337-0.393817-8.00995-0.519973-7.94781-0.607574-7.88566-0.695165-7.79844-0.813831-7.68614-0.963571-7.57383-1.11331-7.49896-1.24545-7.46152-1.36-7.42408-1.47456-7.3859-1.60671-7.34698-1.75645-7.30803-1.90618-7.28857-2.05742-7.28857-2.21016-7.28857-2.70131-7.44392-3.11534-7.75464-3.45224-8.06535-3.78915-8.46179-3.95761-8.94395-3.95761-9.20599-3.95761-9.4392-3.89847-9.6436-3.78018-9.848-3.66189-10.0015-3.51663-10.1041-3.34443-10.2066-3.17223-10.2909-3.00003-10.3567-2.82784-10.4226-2.65564-10.4668-2.50814-10.4893-2.38536L-10.5342-2.1877-11.0283-2.82334ZM-5.27833-0.476172-5.27833-0.671586C-5.27833-0.971064-5.27271-1.23124-5.26148-1.4521-5.25025-1.67296-5.21355-1.96608-5.15141-2.33145-5.08927-2.69681-5.00504-3.00751-4.89873-3.26357-4.79242-3.51963-4.6277-3.77232-4.40459-4.02164-4.18147-4.27094-3.91644-4.45325-3.60948-4.56855-3.37437-4.66289-3.13329-4.71005-2.88623-4.71005-2.67211-4.71005-2.4651-4.68086-2.26518-4.62245-2.06528-4.56406-1.85379-4.44876-1.63067-4.27656-1.40755-4.10436-1.21364-3.88349-1.04893-3.61396-0.884211-3.34443-0.748697-2.97383-0.64239-2.50214-0.536072-2.03047-0.482914-1.48991-0.482914-0.880469L-0.482914-0.637891C-0.482914-0.345896-0.48853-0.0849754-0.499761 0.144871-0.510992 0.374717-0.547304 0.666712-0.608695 1.02085-0.670086 1.37499-0.756182 1.68008-0.866985 1.93614-0.977798 2.19219-1.14438 2.44113-1.36675 2.68296-1.58911 2.92479-1.85377 3.10409-2.16074 3.22089-2.4153 3.30625-2.65713 3.34743-2.88623 3.34443-3.09886 3.34443-3.30363 3.3171-3.50054 3.26245-3.69744 3.2078-3.90895 3.09811-4.13506 2.93339-4.36116 2.76868-4.5547 2.55231-4.71568 2.28427-4.87665 2.01625-5.01066 1.64451-5.11773 1.16909-5.22479 0.69367-5.27833 0.145249-5.27833-0.476172ZM-4.37989-0.476172C-4.37989 0.0374372-4.34507 0.487777-4.27544 0.874848-4.20581 1.26193-4.12159 1.56515-4.02276 1.78453-3.92393 2.00389-3.80338 2.18096-3.66114 2.31573-3.51888 2.45049-3.38674 2.53845-3.26469 2.57964-3.14266 2.62082-3.01276 2.64141-2.875 2.64141-2.6983 2.64141-2.53322 2.60097-2.37974 2.52011-2.22626 2.43925-2.06902 2.29776-1.90805 2.0956-1.74709 1.89346-1.61907 1.57152-1.52398 1.12979-1.42889 0.688055-1.38135 0.148993-1.38135-0.487399L-1.38135-1.16573C-1.38135-1.74971-1.42889-2.2401-1.52398-2.63692-1.61907-3.03373-1.74896-3.32497-1.91367-3.51065-2.07838-3.69633-2.23748-3.82361-2.39096-3.89248-2.54445-3.96136-2.70917-3.9958-2.88511-3.9958-3.06104-3.9958-3.22576-3.96136-3.37925-3.89248-3.53273-3.82361-3.68996-3.69633-3.85093-3.51065-4.0119-3.32497-4.1403-3.03111-4.23614-2.62906-4.33198-2.227-4.37989-1.73923-4.37989-1.16573L-4.37989-0.476172Z" fill="#262626" transform="matrix(1.00174 0 0 1 83.9361 510.774)"/><path d="M-11.19 1.12529C-11.19 1.12529-11.19 0.939612-11.19 0.568258-11.19 0.475424-11.1474 0.35788-11.062 0.215625L-8.28135-4.44052-7.2212-4.44052-7.2212 0.422266-6.08018 0.422266-6.08018 1.12529-7.2212 1.12529-7.2212 3.09063-8.14209 3.09063-8.14209 1.12529-11.19 1.12529ZM-10.2916 0.422266-8.07471 0.422266-8.07471-4.01826C-8.11963-3.73376-8.22819-3.39609-8.40039-3.00527-8.57259-2.61445-8.73543-2.28315-8.88891-2.01138-9.04239-1.73959-9.37894-1.15448-9.89854-0.256047-10.0677 0.0359375-10.1988 0.262042-10.2916 0.422266ZM-5.27833-0.476172-5.27833-0.671586C-5.27833-0.971064-5.27271-1.23124-5.26148-1.4521-5.25025-1.67296-5.21355-1.96608-5.15141-2.33145-5.08927-2.69681-5.00504-3.00751-4.89873-3.26357-4.79242-3.51963-4.6277-3.77232-4.40459-4.02164-4.18147-4.27094-3.91644-4.45325-3.60948-4.56855-3.37437-4.66289-3.13329-4.71005-2.88623-4.71005-2.67211-4.71005-2.4651-4.68086-2.26518-4.62245-2.06528-4.56406-1.85379-4.44876-1.63067-4.27656-1.40755-4.10436-1.21364-3.88349-1.04893-3.61396-0.884211-3.34443-0.748697-2.97383-0.64239-2.50214-0.536072-2.03047-0.482914-1.48991-0.482914-0.880469L-0.482914-0.637891C-0.482914-0.345896-0.48853-0.0849754-0.499761 0.144871-0.510992 0.374717-0.547304 0.666712-0.608695 1.02085-0.670086 1.37499-0.756182 1.68008-0.866985 1.93614-0.977798 2.19219-1.14438 2.44113-1.36675 2.68296-1.58911 2.92479-1.85377 3.10409-2.16074 3.22089-2.4153 3.30625-2.65713 3.34743-2.88623 3.34443-3.09886 3.34443-3.30363 3.3171-3.50054 3.26245-3.69744 3.2078-3.90895 3.09811-4.13506 2.93339-4.36116 2.76868-4.5547 2.55231-4.71568 2.28427-4.87665 2.01625-5.01066 1.64451-5.11773 1.16909-5.22479 0.69367-5.27833 0.145249-5.27833-0.476172ZM-4.37989-0.476172C-4.37989 0.0374372-4.34507 0.487777-4.27544 0.874848-4.20581 1.26193-4.12159 1.56515-4.02276 1.78453-3.92393 2.00389-3.80338 2.18096-3.66114 2.31573-3.51888 2.45049-3.38674 2.53845-3.26469 2.57964-3.14266 2.62082-3.01276 2.64141-2.875 2.64141-2.6983 2.64141-2.53322 2.60097-2.37974 2.52011-2.22626 2.43925-2.06902 2.29776-1.90805 2.0956-1.74709 1.89346-1.61907 1.57152-1.52398 1.12979-1.42889 0.688055-1.38135 0.148993-1.38135-0.487399L-1.38135-1.16573C-1.38135-1.74971-1.42889-2.2401-1.52398-2.63692-1.61907-3.03373-1.74896-3.32497-1.91367-3.51065-2.07838-3.69633-2.23748-3.82361-2.39096-3.89248-2.54445-3.96136-2.70917-3.9958-2.88511-3.9958-3.06104-3.9958-3.22576-3.96136-3.37925-3.89248-3.53273-3.82361-3.68996-3.69633-3.85093-3.51065-4.0119-3.32497-4.1403-3.03111-4.23614-2.62906-4.33198-2.227-4.37989-1.73923-4.37989-1.16573L-4.37989-0.476172Z" fill="#262626" transform="matrix(1.00174 0 0 1 83.9361 470.797)"/><path d="M20.3327 92.6844 19.7843 92.8484 19.2359 93.157 18.6875 93.2236 18.6875 96.1476 19.2359 96.0246 19.7843 95.6025 20.3327 95.2052 20.8813 94.7609 21.4297 94.4328 21.9781 94.0229 22.5265 93.6316 23.0749 93.3984 23.6233 93.0225 24.1717 92.5983 24.7203 92.3117 25.2687 91.777 25.8171 91.5462 26.3655 91.0678 26.9139 90.8415 27.4623 90.6965 28.0107 90.2599 28.5592 89.7285 29.1077 89.4182 29.6561 89.19 30.2045 88.8967 30.7529 88.39 31.3013 88.1274 31.8497 88.0246 32.3981 87.3996 32.9466 87.0738 33.495 86.8662 34.0434 86.6394 34.5919 86.3248 35.1403 85.881 35.6887 85.7804 36.2371 85.3593 36.7856 85.0178 37.334 84.6979 37.8824 84.485 38.4308 84.1768 38.9792 83.9144 39.5277 83.5448 40.0761 83.5554 40.6246 82.9928 41.173 82.8172 41.7214 82.435 42.2698 82.0058 42.8182 81.8993 43.3666 81.7771 43.9151 81.3399 44.4635 81.0553 45.012 80.6817 45.5604 80.6905 46.1088 80.3896 46.6572 79.9834 47.2056 79.6678 47.754 79.4242 48.3024 79.3251 48.851 78.9696 49.3994 78.9116 49.9478 78.5165 50.4962 78.3906 51.0446 77.8859 51.593 77.7752 52.1416 77.4076 52.69 77.3313 53.2384 77.1334 53.7868 76.8374 54.3352 76.4981 54.8836 76.2857 55.432 76.3941 55.9804 75.8746 56.529 75.5168 57.0774 75.5569 57.6258 75.1922 58.1742 74.9599 58.7226 74.746 59.271 74.591 59.8194 74.2587 60.368 74.1102 60.9164 73.9868 61.4648 73.6765 62.0132 73.5183 62.5616 73.1386 63.11 73.0594 63.6584 72.7471 64.2068 72.6271 64.7553 72.379 65.3038 72.2578 65.8522 72.0157 66.4006 71.8253 66.949 71.5866 67.4974 71.3236 68.0458 71.2021 68.5943 71.0599 69.1427 70.7493 69.6911 70.6623 70.2396 70.3432 70.788 70.2424 71.3364 70.0198 71.8849 69.7326 72.4333 69.6972 72.9817 69.4729 73.5301 69.3385 74.0785 69.2243 74.6269 68.8072 75.1754 68.6468 75.7238 68.4693 76.2723 68.3781 76.8207 68.1444 77.3691 67.9364 77.9175 67.7957 78.4659 67.603 79.0143 67.4589 79.5627 67.2434 80.1112 67.2117 80.6597 66.9797 81.2081 66.7155 81.7565 66.6149 82.3049 66.5074 82.8533 66.2332 83.4017 65.9387 83.9503 65.8286 84.4987 65.6391 85.0471 65.5799 85.5955 65.3022 86.1439 65.2496 86.6923 64.8571 87.2407 64.932 87.7893 64.8151 88.3377 64.3823 88.8861 64.1619 89.4345 64.1845 89.9829 64.2209 90.5313 63.8694 91.0797 63.5729 91.6283 63.5547 92.1767 63.3171 92.7251 63.2181 93.2735 62.8301 93.8219 62.667 94.3703 62.5898 94.9187 62.3369 95.4671 62.1507 96.0157 62.0135 96.5641 61.8722 97.1125 61.6512 97.6609 61.4751 98.2093 61.3531 98.7577 61.1754 99.3061 61.0078 99.8546 60.875 100.403 60.6776 100.951 60.4625 101.5 60.3047 102.048 60.2435 102.597 60.1871 103.145 59.8456 103.693 59.5911 104.242 59.6659 104.79 59.3698 105.339 59.2155 105.887 59.0958 106.436 58.8587 106.984 58.7324 107.533 58.653 108.081 58.3737 108.629 58.2221 109.178 57.9682 109.726 57.757 110.275 57.6757 110.823 57.427 111.371 57.611 111.92 57.3215 112.468 57.1636 113.017 56.8537 113.565 56.899 114.114 56.4674 114.662 56.6036 115.21 56.2442 115.759 56.1498 116.307 56.0031 116.856 55.8853 117.404 55.5986 117.953 55.5772 118.501 55.4467 119.049 55.2522 119.598 55.1104 120.146 54.9234 120.695 54.9121 121.243 54.6205 121.792 54.5714 122.34 54.3992 122.888 54.1265 123.437 54.0524 123.985 53.8535 124.534 53.7744 125.082 53.7011 125.631 53.454 126.179 53.3433 126.727 53.2911 127.276 52.9559 127.824 52.8917 128.373 52.8212 128.921 52.8283 128.921 51.2799 128.373 51.2753 127.824 51.2588 127.276 51.4099 126.727 51.5726 126.179 51.6982 125.631 51.8779 125.082 52.1679 124.534 52.1019 123.985 52.3374 123.437 52.5182 122.888 52.7676 122.34 52.7332 121.792 52.7981 121.243 53.0012 120.695 53.1606 120.146 53.315 119.598 53.5313 119.049 53.7422 118.501 53.9165 117.953 53.9847 117.404 54.3293 116.856 54.3871 116.307 54.4015 115.759 54.447 115.21 54.9098 114.662 54.9384 114.114 55.1583 113.565 55.3062 113.017 55.4138 112.468 55.5444 111.92 55.7195 111.371 55.9062 110.823 56.0409 110.275 56.1818 109.726 56.1943 109.178 56.3645 108.629 56.3934 108.081 56.7207 107.533 56.6993 106.984 56.9847 106.436 57.0716 105.887 57.1833 105.339 57.2063 104.79 57.5137 104.242 57.4807 103.693 57.619 103.145 57.7668 102.597 58.0865 102.048 58.0763 101.5 58.1919 100.951 58.5311 100.403 58.6592 99.8546 58.5547 99.3061 58.7184 98.7577 58.5932 98.2093 59.2057 97.6609 59.2848 97.1125 59.4566 96.5641 59.5032 96.0157 59.6834 95.4671 59.8729 94.9187 59.9426 94.3703 60.0074 93.8219 60.2729 93.2735 60.5567 92.7251 60.3304 92.1767 60.4575 91.6283 60.7614 91.0797 60.854 90.5313 61.0312 89.9829 61.1029 89.4345 61.2543 88.8861 61.3794 88.3377 61.6864 87.7893 61.9575 87.2407 61.8503 86.6923 61.9859 86.1439 62.2238 85.5955 62.3437 85.0471 62.3754 84.4987 62.4311 83.9503 62.6852 83.4017 62.8969 82.8533 63.0986 82.3049 63.1886 81.7565 63.3542 81.2081 63.6413 80.6597 63.6319 80.1112 64.0119 79.5627 63.9505 79.0143 64.121 78.4659 64.4634 77.9175 64.841 77.3691 65.0539 76.8207 65.0223 76.2723 65.3079 75.7238 65.2329 75.1754 65.4324 74.6269 65.7005 74.0785 65.9695 73.5301 66.0275 72.9817 66.3205 72.4333 66.3178 71.8849 66.6362 71.3364 67.0073 70.788 67.1425 70.2396 67.0354 69.6911 67.4988 69.1427 67.7035 68.5943 67.8115 68.0458 68.1716 67.4974 68.3791 66.949 68.4315 66.4006 68.7338 65.8522 69.0949 65.3038 69.231 64.7553 69.252 64.2068 69.4594 63.6584 69.8329 63.11 70.2414 62.5616 70.1993 62.0132 70.4586 61.4648 70.8125 60.9164 70.9012 60.368 71.1396 59.8194 71.3727 59.271 71.8113 58.7226 71.7719 58.1742 72.2669 57.6258 72.3837 57.0774 72.7296 56.529 72.8595 55.9804 73.3736 55.432 73.2928 54.8836 73.7558 54.3352 73.7028 53.7868 74.1635 53.2384 74.5151 52.69 74.9698 52.1416 75.0547 51.593 75.4371 51.0446 75.6213 50.4962 75.9321 49.9478 76.3139 49.3994 76.4849 48.851 76.8168 48.3024 77.0017 47.754 77.3907 47.2056 77.7167 46.6572 77.9033 46.1088 78.1774 45.5604 78.6387 45.012 78.8824 44.4635 79.0904 43.9151 79.5646 43.3666 79.8024 42.8182 80.085 42.2698 80.2533 41.7214 80.7401 41.173 80.9777 40.6246 81.1889 40.0761 81.444 39.5277 82.0791 38.9792 82.088 38.4308 82.456 37.8824 82.5484 37.334 82.9896 36.7856 83.2472 36.2371 83.5783 35.6887 83.5298 35.1403 83.9737 34.5919 84.0046 34.0434 84.6374 33.495 84.9946 32.9466 85.07 32.3981 85.6106 31.8497 85.6465 31.3013 86.1577 30.7529 86.382 30.2045 86.7418 29.6561 86.7833 29.1077 87.0577 28.5592 87.6079 28.0107 87.8557 27.4623 88.1455 26.9139 88.6081 26.3655 88.7508 25.8171 89.0478 25.2687 89.4451 24.7203 89.6058 24.1717 90.0495 23.6233 90.5243 23.0749 90.799 22.5265 91.0983 21.9781 91.3002 21.4297 91.6961 20.8813 92.188Z" fill="#377EB8" fill-opacity="0.2" transform="matrix(1.00174 0 0 1 68 456)"/><path d="M18.6875 96.1476 19.2359 96.0246 19.7843 95.6025 20.3327 95.2052 20.8813 94.7609 21.4297 94.4328 21.9781 94.0229 22.5265 93.6316 23.0749 93.3984 23.6233 93.0225 24.1717 92.5983 24.7203 92.3117 25.2687 91.777 25.8171 91.5462 26.3655 91.0678 26.9139 90.8415 27.4623 90.6965 28.0107 90.2599 28.5592 89.7285 29.1077 89.4182 29.6561 89.19 30.2045 88.8967 30.7529 88.39 31.3013 88.1274 31.8497 88.0246 32.3981 87.3996 32.9466 87.0738 33.495 86.8662 34.0434 86.6394 34.5919 86.3248 35.1403 85.881 35.6887 85.7804 36.2371 85.3593 36.7856 85.0178 37.334 84.6979 37.8824 84.485 38.4308 84.1768 38.9792 83.9144 39.5277 83.5448 40.0761 83.5554 40.6246 82.9928 41.173 82.8172 41.7214 82.435 42.2698 82.0058 42.8182 81.8993 43.3666 81.7771 43.9151 81.3399 44.4635 81.0553 45.012 80.6817 45.5604 80.6905 46.1088 80.3896 46.6572 79.9834 47.2056 79.6678 47.754 79.4242 48.3024 79.3251 48.851 78.9696 49.3994 78.9116 49.9478 78.5165 50.4962 78.3906 51.0446 77.8859 51.593 77.7752 52.1416 77.4076 52.69 77.3313 53.2384 77.1334 53.7868 76.8374 54.3352 76.4981 54.8836 76.2857 55.432 76.3941 55.9804 75.8746 56.529 75.5168 57.0774 75.5569 57.6258 75.1922 58.1742 74.9599 58.7226 74.746 59.271 74.591 59.8194 74.2587 60.368 74.1102 60.9164 73.9868 61.4648 73.6765 62.0132 73.5183 62.5616 73.1386 63.11 73.0594 63.6584 72.7471 64.2068 72.6271 64.7553 72.379 65.3038 72.2578 65.8522 72.0157 66.4006 71.8253 66.949 71.5866 67.4974 71.3236 68.0458 71.2021 68.5943 71.0599 69.1427 70.7493 69.6911 70.6623 70.2396 70.3432 70.788 70.2424 71.3364 70.0198 71.8849 69.7326 72.4333 69.6972 72.9817 69.4729 73.5301 69.3385 74.0785 69.2243 74.6269 68.8072 75.1754 68.6468 75.7238 68.4693 76.2723 68.3781 76.8207 68.1444 77.3691 67.9364 77.9175 67.7957 78.4659 67.603 79.0143 67.4589 79.5627 67.2434 80.1112 67.2117 80.6597 66.9797 81.2081 66.7155 81.7565 66.6149 82.3049 66.5074 82.8533 66.2332 83.4017 65.9387 83.9503 65.8286 84.4987 65.6391 85.0471 65.5799 85.5955 65.3022 86.1439 65.2496 86.6923 64.8571 87.2407 64.932 87.7893 64.8151 88.3377 64.3823 88.8861 64.1619 89.4345 64.1845 89.9829 64.2209 90.5313 63.8694 91.0797 63.5729 91.6283 63.5547 92.1767 63.3171 92.7251 63.2181 93.2735 62.8301 93.8219 62.667 94.3703 62.5898 94.9187 62.3369 95.4671 62.1507 96.0157 62.0135 96.5641 61.8722 97.1125 61.6512 97.6609 61.4751 98.2093 61.3531 98.7577 61.1754 99.3061 61.0078 99.8546 60.875 100.403 60.6776 100.951 60.4625 101.5 60.3047 102.048 60.2435 102.597 60.1871 103.145 59.8456 103.693 59.5911 104.242 59.6659 104.79 59.3698 105.339 59.2155 105.887 59.0958 106.436 58.8587 106.984 58.7324 107.533 58.653 108.081 58.3737 108.629 58.2221 109.178 57.9682 109.726 57.757 110.275 57.6757 110.823 57.427 111.371 57.611 111.92 57.3215 112.468 57.1636 113.017 56.8537 113.565 56.899 114.114 56.4674 114.662 56.6036 115.21 56.2442 115.759 56.1498 116.307 56.0031 116.856 55.8853 117.404 55.5986 117.953 55.5772 118.501 55.4467 119.049 55.2522 119.598 55.1104 120.146 54.9234 120.695 54.9121 121.243 54.6205 121.792 54.5714 122.34 54.3992 122.888 54.1265 123.437 54.0524 123.985 53.8535 124.534 53.7744 125.082 53.7011 125.631 53.454 126.179 53.3433 126.727 53.2911 127.276 52.9559 127.824 52.8917 128.373 52.8212 128.921 52.8283" stroke="#A5C5DF" stroke-width="0.119787" stroke-linejoin="round" stroke-miterlimit="10" fill="none" fill-rule="evenodd" transform="matrix(1.00174 0 0 1 68 456)"/><path d="M18.6875 93.2236 19.2359 93.157 19.7843 92.8484 20.3327 92.6844 20.8813 92.188 21.4297 91.6961 21.9781 91.3002 22.5265 91.0983 23.0749 90.799 23.6233 90.5243 24.1717 90.0495 24.7203 89.6058 25.2687 89.4451 25.8171 89.0478 26.3655 88.7508 26.9139 88.6081 27.4623 88.1455 28.0107 87.8557 28.5592 87.6079 29.1077 87.0577 29.6561 86.7833 30.2045 86.7418 30.7529 86.382 31.3013 86.1577 31.8497 85.6465 32.3981 85.6106 32.9466 85.07 33.495 84.9946 34.0434 84.6374 34.5919 84.0046 35.1403 83.9737 35.6887 83.5298 36.2371 83.5783 36.7856 83.2472 37.334 82.9896 37.8824 82.5484 38.4308 82.456 38.9792 82.088 39.5277 82.0791 40.0761 81.444 40.6246 81.1889 41.173 80.9777 41.7214 80.7401 42.2698 80.2533 42.8182 80.085 43.3666 79.8024 43.9151 79.5646 44.4635 79.0904 45.012 78.8824 45.5604 78.6387 46.1088 78.1774 46.6572 77.9033 47.2056 77.7167 47.754 77.3907 48.3024 77.0017 48.851 76.8168 49.3994 76.4849 49.9478 76.3139 50.4962 75.9321 51.0446 75.6213 51.593 75.4371 52.1416 75.0547 52.69 74.9698 53.2384 74.5151 53.7868 74.1635 54.3352 73.7028 54.8836 73.7558 55.432 73.2928 55.9804 73.3736 56.529 72.8595 57.0774 72.7296 57.6258 72.3837 58.1742 72.2669 58.7226 71.7719 59.271 71.8113 59.8194 71.3727 60.368 71.1396 60.9164 70.9012 61.4648 70.8125 62.0132 70.4586 62.5616 70.1993 63.11 70.2414 63.6584 69.8329 64.2068 69.4594 64.7553 69.252 65.3038 69.231 65.8522 69.0949 66.4006 68.7338 66.949 68.4315 67.4974 68.3791 68.0458 68.1716 68.5943 67.8115 69.1427 67.7035 69.6911 67.4988 70.2396 67.0354 70.788 67.1425 71.3364 67.0073 71.8849 66.6362 72.4333 66.3178 72.9817 66.3205 73.5301 66.0275 74.0785 65.9695 74.6269 65.7005 75.1754 65.4324 75.7238 65.2329 76.2723 65.3079 76.8207 65.0223 77.3691 65.0539 77.9175 64.841 78.4659 64.4634 79.0143 64.121 79.5627 63.9505 80.1112 64.0119 80.6597 63.6319 81.2081 63.6413 81.7565 63.3542 82.3049 63.1886 82.8533 63.0986 83.4017 62.8969 83.9503 62.6852 84.4987 62.4311 85.0471 62.3754 85.5955 62.3437 86.1439 62.2238 86.6923 61.9859 87.2407 61.8503 87.7893 61.9575 88.3377 61.6864 88.8861 61.3794 89.4345 61.2543 89.9829 61.1029 90.5313 61.0312 91.0797 60.854 91.6283 60.7614 92.1767 60.4575 92.7251 60.3304 93.2735 60.5567 93.8219 60.2729 94.3703 60.0074 94.9187 59.9426 95.4671 59.8729 96.0157 59.6834 96.5641 59.5032 97.1125 59.4566 97.6609 59.2848 98.2093 59.2057 98.7577 58.5932 99.3061 58.7184 99.8546 58.5547 100.403 58.6592 100.951 58.5311 101.5 58.1919 102.048 58.0763 102.597 58.0865 103.145 57.7668 103.693 57.619 104.242 57.4807 104.79 57.5137 105.339 57.2063 105.887 57.1833 106.436 57.0716 106.984 56.9847 107.533 56.6993 108.081 56.7207 108.629 56.3934 109.178 56.3645 109.726 56.1943 110.275 56.1818 110.823 56.0409 111.371 55.9062 111.92 55.7195 112.468 55.5444 113.017 55.4138 113.565 55.3062 114.114 55.1583 114.662 54.9384 115.21 54.9098 115.759 54.447 116.307 54.4015 116.856 54.3871 117.404 54.3293 117.953 53.9847 118.501 53.9165 119.049 53.7422 119.598 53.5313 120.146 53.315 120.695 53.1606 121.243 53.0012 121.792 52.7981 122.34 52.7332 122.888 52.7676 123.437 52.5182 123.985 52.3374 124.534 52.1019 125.082 52.1679 125.631 51.8779 126.179 51.6982 126.727 51.5726 127.276 51.4099 127.824 51.2588 128.373 51.2753 128.921 51.2799" stroke="#A5C5DF" stroke-width="0.119787" stroke-linejoin="round" stroke-miterlimit="10" fill="none" fill-rule="evenodd" transform="matrix(1.00174 0 0 1 68 456)"/><path d="M18.6875 94.7502 19.2359 94.8054 19.7843 94.5093 20.3327 94.1384 20.8813 93.6557 21.4297 93.3032 21.9781 92.915 22.5265 92.5524 23.0749 92.1623 23.6233 91.891 24.1717 91.4914 24.7203 91.1243 25.2687 90.8007 25.8171 90.4392 26.3655 90.1509 26.9139 89.7917 27.4623 89.4461 28.0107 89.1276 28.5592 88.7732 29.1077 88.4579 29.6561 88.1238 30.2045 87.8813 30.7529 87.4727 31.3013 87.1783 31.8497 86.8865 32.3981 86.5612 32.9466 86.2616 33.495 85.9793 34.0434 85.6973 34.5919 85.3599 35.1403 85.0641 35.6887 84.7783 36.2371 84.471 36.7856 84.1511 37.334 83.9136 37.8824 83.6175 38.4308 83.3563 38.9792 83.0642 39.5277 82.8108 40.0761 82.4843 40.6246 82.2496 41.173 81.9526 41.7214 81.6951 42.2698 81.3993 42.8182 81.115 43.3666 80.8588 43.9151 80.6295 44.4635 80.3693 45.012 80.0673 45.5604 79.8748 46.1088 79.5297 46.6572 79.2699 47.2056 79.0626 47.754 78.8086 48.3024 78.5829 48.851 78.2982 49.3994 78.0494 49.9478 77.8464 50.4962 77.5502 51.0446 77.3333 51.593 77.1109 52.1416 76.8168 52.69 76.5924 53.2384 76.425 53.7868 76.1366 54.3352 75.8866 54.8836 75.6532 55.432 75.4557 55.9804 75.2304 56.529 74.9681 57.0774 74.8058 57.6258 74.5571 58.1742 74.3609 58.7226 74.1059 59.271 73.9025 59.8194 73.6763 60.368 73.4499 60.9164 73.2622 61.4648 73.0842 62.0132 72.8661 62.5616 72.5841 63.11 72.403 63.6584 72.1245 64.2068 71.9509 64.7553 71.71 65.3038 71.526 65.8522 71.4051 66.4006 71.1997 66.949 70.9918 67.4974 70.7776 68.0458 70.5209 68.5943 70.3475 69.1427 70.1434 69.6911 69.9999 70.2396 69.7798 70.788 69.5833 71.3364 69.4442 71.8849 69.207 72.4333 69.0149 72.9817 68.8557 73.5301 68.6945 74.0785 68.4555 74.6269 68.2679 75.1754 68.0731 75.7238 67.8563 76.2723 67.7277 76.8207 67.5494 77.3691 67.4134 77.9175 67.2084 78.4659 66.9856 79.0143 66.8311 79.5627 66.6215 80.1112 66.4471 80.6597 66.2849 81.2081 66.1512 81.7565 65.8982 82.3049 65.7725 82.8533 65.5294 83.4017 65.3096 83.9503 65.1356 84.4987 64.972 85.0471 64.8563 85.5955 64.656 86.1439 64.5308 86.6923 64.2975 87.2407 64.1684 87.7893 64.0234 88.3377 63.7836 88.8861 63.5236 89.4345 63.5095 89.9829 63.2947 90.5313 63.0625 91.0797 62.9074 91.6283 62.7276 92.1767 62.5892 92.7251 62.3794 93.2735 62.2429 93.8219 62.0721 94.3703 61.8506 94.9187 61.6771 95.4671 61.5231 96.0157 61.3754 96.5641 61.1704 97.1125 60.9805 97.6609 60.8284 98.2093 60.6838 98.7577 60.4742 99.3061 60.347 99.8546 60.1358 100.403 59.9859 100.951 59.8237 101.5 59.6397 102.048 59.4771 102.597 59.3528 103.145 59.1548 103.693 58.9602 104.242 58.8231 104.79 58.7095 105.339 58.564 105.887 58.3421 106.436 58.1562 106.984 57.9803 107.533 57.8428 108.081 57.657 108.629 57.4596 109.178 57.319 109.726 57.1892 110.275 57.023 110.823 56.8212 111.371 56.7557 111.92 56.5698 112.468 56.423 113.017 56.2438 113.565 56.1291 114.114 55.9282 114.662 55.7586 115.21 55.6072 115.759 55.406 116.307 55.2701 116.856 55.1263 117.404 54.9904 117.953 54.855 118.501 54.6746 119.049 54.5856 119.598 54.3834 120.146 54.1781 120.695 54.0575 121.243 53.9129 121.792 53.8003 122.34 53.5848 122.888 53.4756 123.437 53.3189 123.985 53.1639 124.534 53.1 125.082 52.9056 125.631 52.7761 126.179 52.6095 126.727 52.4907 127.276 52.3065 127.824 52.1969 128.373 52.092 128.921 52.0888" stroke="#377EB8" stroke-width="1.4375" stroke-linejoin="round" stroke-miterlimit="10" fill="none" fill-rule="evenodd" transform="matrix(1.00174 0 0 1 68 456)"/><path d="M22.5256 94.4801 23.0739 94.0658 23.6222 93.584 24.1706 93.0328 24.7188 92.3063 25.2671 91.8493 25.8153 91.3337 26.3637 90.8997 26.912 90.3802 27.4603 89.7742 28.0085 89.3419 28.5568 88.7015 29.1052 88.3557 29.6535 87.7026 30.2017 87.2664 30.75 86.8861 31.2984 86.3952 31.8467 85.9543 32.3949 85.425 32.9432 85.061 33.4916 84.3713 34.0399 84.082 34.5881 83.4939 35.1364 83.0168 35.6848 82.5157 36.233 81.9466 36.7813 81.5281 37.3296 80.8822 37.878 80.5737 38.4262 80.2297 38.9745 79.6691 39.5228 79.1288 40.0712 78.9669 40.6194 78.3095 41.1677 77.7873 41.716 77.2954 42.2644 76.7726 42.8126 76.4316 43.3609 75.9349 43.9092 75.4664 44.4576 74.9967 45.0058 74.4618 45.5541 74.0189 46.1023 73.552 46.6508 73.0996 47.199 72.4648 47.7473 72.2084 48.2955 71.7098 48.8439 71.3056 49.3922 70.6698 49.9405 70.3382 50.4887 69.8727 51.0371 69.4341 51.5854 68.7691 52.1337 68.4093 52.6819 68.1685 53.2303 67.6301 53.7786 67.0814 54.3269 66.6672 54.8751 66.1648 55.4235 65.8014 55.9718 65.4249 56.5201 64.9635 57.0683 64.4438 57.6167 64.0815 58.165 63.4921 58.7132 63.2118 59.2615 62.7089 59.8099 62.4325 60.3582 61.7691 60.9064 61.5592 61.4547 60.9256 62.0031 60.4855 62.5514 60.0149 63.0996 59.6792 63.6479 59.1684 64.1963 58.827 64.7446 58.2311 65.2928 57.9771 65.8411 57.4746 66.3895 57.0864 66.9378 56.5124 67.486 56.0634 68.0343 55.6932 68.5826 55.2479 69.131 54.858 69.6792 54.3884 70.2275 54.1638 70.7757 53.663 71.3242 53.1989 71.8724 52.8574 72.4207 52.3394 72.9691 52.0355 73.5173 51.6967 74.0656 51.2587 74.6139 50.6139 75.1621 50.4593 75.7105 49.9847 76.2588 49.6275 76.8071 49.0367 77.3555 48.5921 77.9037 48.2606 78.452 47.8388 79.0003 47.5391 79.5485 47.0636 80.0969 46.7251 80.6452 46.2963 81.1934 45.8446 81.7417 45.3906 82.2901 45.1169 82.8384 44.6193 83.3866 44.1942 83.9349 43.8851 84.4833 43.5669 85.0316 43.1701 85.5798 42.5708 86.1282 42.2457 86.6765 41.8018 87.2248 41.4637 87.773 41.0735 88.3213 40.8171 88.8697 40.3575 89.418 40.0355 89.9662 39.3747 90.5145 39.2642 91.0629 38.8057 91.6112 38.5069 92.1594 37.9484 92.7077 37.6158 93.2561 37.3271 93.8044 37.0743 94.3526 36.5473 94.9009 36.1452 95.4493 35.7907 95.9975 35.3733 96.5458 34.9167 97.0941 34.6859 97.6425 34.5604 98.1907 34.0495 98.739 33.5883 99.2873 33.1351 99.8357 32.9515 100.384 32.407 100.932 32.0864 101.48 31.7215 102.029 31.5071 102.577 31.075 103.125 30.6794 103.674 30.2888 104.222 29.9758 104.77 29.5901 105.319 29.102 105.867 28.8876 106.415 28.4694 106.964 27.976 107.512 27.9851 108.06 27.2737 108.608 26.9353 109.157 26.5525 109.705 26.1519 110.253 26.039 110.802 25.5043 111.35 25.0368 111.898 24.7451 112.446 24.4374 112.995 23.9664 113.543 23.5838 114.091 23.1269 114.64 22.8578 115.188 22.4533 115.736 22.2337 116.285 21.5484 116.833 21.4702 117.381 21.0032 117.929 20.5897 118.478 20.4762 119.026 19.9062 119.574 19.642 120.123 19.2152 120.671 18.9481 121.219 18.4125 121.768 18.2146 122.316 17.6915 122.864 17.3907 123.412 16.9145 123.961 16.7217 124.509 16.3359 125.057 15.9228 125.606 15.7294 126.154 15.4295 126.702 14.7986 127.251 14.47 127.799 14.3812 128.347 14.0802 128.895 14.084 128.895 8.625 128.347 8.63559 127.799 8.86646 127.251 9.26842 126.702 9.23904 126.154 9.87567 125.606 10.0959 125.057 10.5453 124.509 10.8279 123.961 11.1427 123.412 11.6156 122.864 11.7811 122.316 12.2879 121.768 12.675 121.219 12.9247 120.671 13.1482 120.123 13.6716 119.574 13.9365 119.026 14.2145 118.478 14.6268 117.929 14.9921 117.381 15.2309 116.833 15.6916 116.285 16.1464 115.736 16.5673 115.188 16.8541 114.64 16.9553 114.091 17.566 113.543 18.0411 112.995 18.3769 112.446 18.4949 111.898 19.0203 111.35 19.5688 110.802 19.6177 110.253 20.084 109.705 20.5381 109.157 20.8364 108.608 21.2182 108.06 21.8694 107.512 22.0413 106.964 22.5112 106.415 22.7706 105.867 23.2286 105.319 23.3411 104.77 23.8693 104.222 24.2768 103.674 24.8777 103.125 25.1061 102.577 25.255 102.029 25.8465 101.48 26.2561 100.932 26.9324 100.384 26.9124 99.8357 27.2833 99.2873 27.9796 98.739 28.2083 98.1907 28.6081 97.6425 29.0624 97.0941 29.3267 96.5458 29.6254 95.9975 30.0834 95.4493 30.4365 94.9009 30.6801 94.3526 30.9833 93.8044 31.5104 93.2561 31.7072 92.7077 32.2118 92.1594 32.3458 91.6112 33.077 91.0629 33.3309 90.5145 33.5114 89.9662 33.9526 89.418 34.3427 88.8697 34.7083 88.3213 34.8102 87.773 35.3943 87.2248 35.8156 86.6765 36.2167 86.1282 36.5207 85.5798 36.8516 85.0316 37.348 84.4833 37.8554 83.9349 38.0104 83.3866 38.7245 82.8384 38.85 82.2901 39.2426 81.7417 39.7257 81.1934 40.1558 80.6452 40.4561 80.0969 40.8993 79.5485 41.2279 79.0003 41.6084 78.452 41.9872 77.9037 42.4025 77.3555 42.7781 76.8071 43.2435 76.2588 43.5355 75.7105 44.053 75.1621 44.4166 74.6139 44.6227 74.0656 45.3129 73.5173 45.5453 72.9691 45.7901 72.4207 46.2385 71.8724 46.7741 71.3242 47.1603 70.7757 47.5916 70.2275 47.9195 69.6792 48.4338 69.131 48.7117 68.5826 49.158 68.0343 49.6929 67.486 49.9879 66.9378 50.5853 66.3895 50.9676 65.8411 51.5061 65.2928 51.6836 64.7446 52.2196 64.1963 52.576 63.6479 52.9298 63.0996 53.3626 62.5514 53.7966 62.0031 54.2574 61.4547 54.5626 60.9064 55.1445 60.3582 55.5809 59.8099 56.0084 59.2615 56.2373 58.7132 56.8523 58.165 57.2674 57.6167 57.7514 57.0683 58.207 56.5201 58.6928 55.9718 58.9095 55.4235 59.2177 54.8751 59.816 54.3269 60.3491 53.7786 60.9764 53.2303 61.3551 52.6819 61.6295 52.1337 61.9767 51.5854 62.5105 51.0371 62.8699 50.4887 63.4107 49.9405 63.9078 49.3922 64.3737 48.8439 64.624 48.2955 65.1928 47.7473 65.9248 47.199 66.2032 46.6508 66.472 46.1023 66.9756 45.5541 67.408 45.0058 67.9636 44.4576 68.31 43.9092 68.9536 43.3609 69.2727 42.8126 69.7052 42.2644 70.224 41.716 70.7083 41.1677 71.1519 40.6194 71.6086 40.0712 72.2857 39.5228 72.655 38.9745 73.0836 38.4262 73.5922 37.878 74.0084 37.3296 74.4698 36.7813 74.963 36.233 75.2745 35.6848 75.9354 35.1364 76.4332 34.5881 76.9672 34.0399 77.3803 33.4916 77.769 32.9432 78.3683 32.3949 78.7186 31.8467 79.3093 31.2984 79.7905 30.75 80.157 30.2017 80.8234 29.6535 81.192 29.1052 81.8579 28.5568 82.1123 28.0085 82.7419 27.4603 83.462 26.912 83.8635 26.3637 84.1761 25.8153 84.8379 25.2671 85.2322 24.7188 85.7122 24.1706 86.2579 23.6222 86.7826 23.0739 87.3746 22.5256 87.9641 21.9772 88.3522 21.429 88.9321 20.8807 89.5537 20.3324 89.9835 19.784 90.6516 19.2358 90.8004 18.6875 90.8993 18.6875 97.3958 19.2358 97.4625 19.784 97.245 20.3324 96.6441 20.8807 96.1174 21.429 95.5065 21.9772 94.9614Z" fill="#E41A1C" fill-opacity="0.2" transform="matrix(1.00174 0 0 1 68 456)"/><path d="M18.6875 97.3958 19.2358 97.4625 19.784 97.245 20.3324 96.6441 20.8807 96.1174 21.429 95.5065 21.9772 94.9614 22.5256 94.4801 23.0739 94.0658 23.6222 93.584 24.1706 93.0328 24.7188 92.3063 25.2671 91.8493 25.8153 91.3337 26.3637 90.8997 26.912 90.3802 27.4603 89.7742 28.0085 89.3419 28.5568 88.7015 29.1052 88.3557 29.6535 87.7026 30.2017 87.2664 30.75 86.8861 31.2984 86.3952 31.8467 85.9543 32.3949 85.425 32.9432 85.061 33.4916 84.3713 34.0399 84.082 34.5881 83.4939 35.1364 83.0168 35.6848 82.5157 36.233 81.9466 36.7813 81.5281 37.3296 80.8822 37.878 80.5737 38.4262 80.2297 38.9745 79.6691 39.5228 79.1288 40.0712 78.9669 40.6194 78.3095 41.1677 77.7873 41.716 77.2954 42.2644 76.7726 42.8126 76.4316 43.3609 75.9349 43.9092 75.4664 44.4576 74.9967 45.0058 74.4618 45.5541 74.0189 46.1023 73.552 46.6508 73.0996 47.199 72.4648 47.7473 72.2084 48.2955 71.7098 48.8439 71.3056 49.3922 70.6698 49.9405 70.3382 50.4887 69.8727 51.0371 69.4341 51.5854 68.7691 52.1337 68.4093 52.6819 68.1685 53.2303 67.6301 53.7786 67.0814 54.3269 66.6672 54.8751 66.1648 55.4235 65.8014 55.9718 65.4249 56.5201 64.9635 57.0683 64.4438 57.6167 64.0815 58.165 63.4921 58.7132 63.2118 59.2615 62.7089 59.8099 62.4325 60.3582 61.7691 60.9064 61.5592 61.4547 60.9256 62.0031 60.4855 62.5514 60.0149 63.0996 59.6792 63.6479 59.1684 64.1963 58.827 64.7446 58.2311 65.2928 57.9771 65.8411 57.4746 66.3895 57.0864 66.9378 56.5124 67.486 56.0634 68.0343 55.6932 68.5826 55.2479 69.131 54.858 69.6792 54.3884 70.2275 54.1638 70.7757 53.663 71.3242 53.1989 71.8724 52.8574 72.4207 52.3394 72.9691 52.0355 73.5173 51.6967 74.0656 51.2587 74.6139 50.6139 75.1621 50.4593 75.7105 49.9847 76.2588 49.6275 76.8071 49.0367 77.3555 48.5921 77.9037 48.2606 78.452 47.8388 79.0003 47.5391 79.5485 47.0636 80.0969 46.7251 80.6452 46.2963 81.1934 45.8446 81.7417 45.3906 82.2901 45.1169 82.8384 44.6193 83.3866 44.1942 83.9349 43.8851 84.4833 43.5669 85.0316 43.1701 85.5798 42.5708 86.1282 42.2457 86.6765 41.8018 87.2248 41.4637 87.773 41.0735 88.3213 40.8171 88.8697 40.3575 89.418 40.0355 89.9662 39.3747 90.5145 39.2642 91.0629 38.8057 91.6112 38.5069 92.1594 37.9484 92.7077 37.6158 93.2561 37.3271 93.8044 37.0743 94.3526 36.5473 94.9009 36.1452 95.4493 35.7907 95.9975 35.3733 96.5458 34.9167 97.0941 34.6859 97.6425 34.5604 98.1907 34.0495 98.739 33.5883 99.2873 33.1351 99.8357 32.9515 100.384 32.407 100.932 32.0864 101.48 31.7215 102.029 31.5071 102.577 31.075 103.125 30.6794 103.674 30.2888 104.222 29.9758 104.77 29.5901 105.319 29.102 105.867 28.8876 106.415 28.4694 106.964 27.976 107.512 27.9851 108.06 27.2737 108.608 26.9353 109.157 26.5525 109.705 26.1519 110.253 26.039 110.802 25.5043 111.35 25.0368 111.898 24.7451 112.446 24.4374 112.995 23.9664 113.543 23.5838 114.091 23.1269 114.64 22.8578 115.188 22.4533 115.736 22.2337 116.285 21.5484 116.833 21.4702 117.381 21.0032 117.929 20.5897 118.478 20.4762 119.026 19.9062 119.574 19.642 120.123 19.2152 120.671 18.9481 121.219 18.4125 121.768 18.2146 122.316 17.6915 122.864 17.3907 123.412 16.9145 123.961 16.7217 124.509 16.3359 125.057 15.9228 125.606 15.7294 126.154 15.4295 126.702 14.7986 127.251 14.47 127.799 14.3812 128.347 14.0802 128.895 14.084" stroke="#F39899" stroke-width="0.119787" stroke-linejoin="round" stroke-miterlimit="10" fill="none" fill-rule="evenodd" transform="matrix(1.00174 0 0 1 68 456)"/><path d="M18.6875 90.8993 19.2358 90.8004 19.784 90.6516 20.3324 89.9835 20.8807 89.5537 21.429 88.9321 21.9772 88.3522 22.5256 87.9641 23.0739 87.3746 23.6222 86.7826 24.1706 86.2579 24.7188 85.7122 25.2671 85.2322 25.8153 84.8379 26.3637 84.1761 26.912 83.8635 27.4603 83.462 28.0085 82.7419 28.5568 82.1123 29.1052 81.8579 29.6535 81.192 30.2017 80.8234 30.75 80.157 31.2984 79.7905 31.8467 79.3093 32.3949 78.7186 32.9432 78.3683 33.4916 77.769 34.0399 77.3803 34.5881 76.9672 35.1364 76.4332 35.6848 75.9354 36.233 75.2745 36.7813 74.963 37.3296 74.4698 37.878 74.0084 38.4262 73.5922 38.9745 73.0836 39.5228 72.655 40.0712 72.2857 40.6194 71.6086 41.1677 71.1519 41.716 70.7083 42.2644 70.224 42.8126 69.7052 43.3609 69.2727 43.9092 68.9536 44.4576 68.31 45.0058 67.9636 45.5541 67.408 46.1023 66.9756 46.6508 66.472 47.199 66.2032 47.7473 65.9248 48.2955 65.1928 48.8439 64.624 49.3922 64.3737 49.9405 63.9078 50.4887 63.4107 51.0371 62.8699 51.5854 62.5105 52.1337 61.9767 52.6819 61.6295 53.2303 61.3551 53.7786 60.9764 54.3269 60.3491 54.8751 59.816 55.4235 59.2177 55.9718 58.9095 56.5201 58.6928 57.0683 58.207 57.6167 57.7514 58.165 57.2674 58.7132 56.8523 59.2615 56.2373 59.8099 56.0084 60.3582 55.5809 60.9064 55.1445 61.4547 54.5626 62.0031 54.2574 62.5514 53.7966 63.0996 53.3626 63.6479 52.9298 64.1963 52.576 64.7446 52.2196 65.2928 51.6836 65.8411 51.5061 66.3895 50.9676 66.9378 50.5853 67.486 49.9879 68.0343 49.6929 68.5826 49.158 69.131 48.7117 69.6792 48.4338 70.2275 47.9195 70.7757 47.5916 71.3242 47.1603 71.8724 46.7741 72.4207 46.2385 72.9691 45.7901 73.5173 45.5453 74.0656 45.3129 74.6139 44.6227 75.1621 44.4166 75.7105 44.053 76.2588 43.5355 76.8071 43.2435 77.3555 42.7781 77.9037 42.4025 78.452 41.9872 79.0003 41.6084 79.5485 41.2279 80.0969 40.8993 80.6452 40.4561 81.1934 40.1558 81.7417 39.7257 82.2901 39.2426 82.8384 38.85 83.3866 38.7245 83.9349 38.0104 84.4833 37.8554 85.0316 37.348 85.5798 36.8516 86.1282 36.5207 86.6765 36.2167 87.2248 35.8156 87.773 35.3943 88.3213 34.8102 88.8697 34.7083 89.418 34.3427 89.9662 33.9526 90.5145 33.5114 91.0629 33.3309 91.6112 33.077 92.1594 32.3458 92.7077 32.2118 93.2561 31.7072 93.8044 31.5104 94.3526 30.9833 94.9009 30.6801 95.4493 30.4365 95.9975 30.0834 96.5458 29.6254 97.0941 29.3267 97.6425 29.0624 98.1907 28.6081 98.739 28.2083 99.2873 27.9796 99.8357 27.2833 100.384 26.9124 100.932 26.9324 101.48 26.2561 102.029 25.8465 102.577 25.255 103.125 25.1061 103.674 24.8777 104.222 24.2768 104.77 23.8693 105.319 23.3411 105.867 23.2286 106.415 22.7706 106.964 22.5112 107.512 22.0413 108.06 21.8694 108.608 21.2182 109.157 20.8364 109.705 20.5381 110.253 20.084 110.802 19.6177 111.35 19.5688 111.898 19.0203 112.446 18.4949 112.995 18.3769 113.543 18.0411 114.091 17.566 114.64 16.9553 115.188 16.8541 115.736 16.5673 116.285 16.1464 116.833 15.6916 117.381 15.2309 117.929 14.9921 118.478 14.6268 119.026 14.2145 119.574 13.9365 120.123 13.6716 120.671 13.1482 121.219 12.9247 121.768 12.675 122.316 12.2879 122.864 11.7811 123.412 11.6156 123.961 11.1427 124.509 10.8279 125.057 10.5453 125.606 10.0959 126.154 9.87567 126.702 9.23904 127.251 9.26842 127.799 8.86646 128.347 8.63559 128.895 8.625" stroke="#F39899" stroke-width="0.119787" stroke-linejoin="round" stroke-miterlimit="10" fill="none" fill-rule="evenodd" transform="matrix(1.00174 0 0 1 68 456)"/><path d="M18.6875 94.7502 19.2358 94.7432 19.784 94.4481 20.3324 93.8305 20.8807 93.3282 21.429 92.7632 21.9772 92.1685 22.5256 91.6958 23.0739 91.1708 23.6222 90.695 24.1706 90.1088 24.7188 89.6178 25.2671 89.0543 25.8153 88.5721 26.3637 88.0733 26.912 87.5913 27.4603 87.0866 28.0085 86.5719 28.5568 86.0285 29.1052 85.5949 29.6535 85.0615 30.2017 84.6108 30.75 84.0956 31.2984 83.647 31.8467 83.1348 32.3949 82.5956 32.9432 82.2167 33.4916 81.6665 34.0399 81.1896 34.5881 80.7323 35.1364 80.251 35.6848 79.7603 36.233 79.2316 36.7813 78.8387 37.3296 78.3157 37.878 77.8261 38.4262 77.3491 38.9745 76.8712 39.5228 76.4536 40.0712 75.985 40.6194 75.487 41.1677 75.0412 41.716 74.5581 42.2644 73.9743 42.8126 73.642 43.3609 73.1203 43.9092 72.7148 44.4576 72.1799 45.0058 71.7563 45.5541 71.2886 46.1023 70.8502 46.6508 70.3662 47.199 69.878 47.7473 69.4259 48.2955 69.0079 48.8439 68.5003 49.3922 68.0208 49.9405 67.6211 50.4887 67.1065 51.0371 66.725 51.5854 66.2472 52.1337 65.753 52.6819 65.3979 53.2303 64.8862 53.7786 64.4259 54.3269 63.9962 54.8751 63.52 55.4235 63.0578 55.9718 62.6428 56.5201 62.2492 57.0683 61.7589 57.6167 61.3831 58.165 60.9231 58.7132 60.4523 59.2615 60.0544 59.8099 59.6136 60.3582 59.1074 60.9064 58.7255 61.4547 58.2888 62.0031 57.8611 62.5514 57.3849 63.0996 56.9573 63.6479 56.5846 64.1963 56.1154 64.7446 55.7014 65.2928 55.263 65.8411 54.8507 66.3895 54.4439 66.9378 54.0024 67.486 53.5354 68.0343 53.1264 68.5826 52.7673 69.131 52.3391 69.6792 51.904 70.2275 51.4992 70.7757 51.1161 71.3242 50.6309 71.8724 50.3132 72.4207 49.8449 72.9691 49.476 73.5173 48.9782 74.0656 48.6469 74.6139 48.1583 75.1621 47.8092 75.7105 47.4655 76.2588 47.0255 76.8071 46.6229 77.3555 46.168 77.9037 45.7808 78.452 45.3748 79.0003 44.9883 79.5485 44.5897 80.0969 44.2043 80.6452 43.7773 81.1934 43.4171 81.7417 42.9501 82.2901 42.612 82.8384 42.1472 83.3866 41.821 83.9349 41.423 84.4833 41.0066 85.0316 40.6521 85.5798 40.2109 86.1282 39.8157 86.6765 39.4955 87.2248 39.0909 87.773 38.7261 88.3213 38.3463 88.8697 37.9447 89.418 37.5208 89.9662 37.1109 90.5145 36.8546 91.0629 36.4612 91.6112 36.0956 92.1594 35.6789 92.7077 35.3087 93.2561 34.91 93.8044 34.6351 94.3526 34.1761 94.9009 33.8071 95.4493 33.533 95.9975 33.0846 96.5458 32.7576 97.0941 32.3583 97.6425 32.1084 98.1907 31.6907 98.739 31.3154 99.2873 30.9665 99.8357 30.5411 100.384 30.1868 100.932 29.8367 101.48 29.4873 102.029 29.1512 102.577 28.7691 103.125 28.3855 103.674 28.0288 104.222 27.652 104.77 27.2204 105.319 26.8465 105.867 26.536 106.415 26.1174 106.964 25.755 107.512 25.4196 108.06 25.0365 108.608 24.6038 109.157 24.2332 109.705 23.8097 110.253 23.5153 110.802 23.1357 111.35 22.7474 111.898 22.3434 112.446 22.0055 112.995 21.6269 113.543 21.2616 114.091 20.8902 114.64 20.5186 115.188 20.2035 115.736 19.8647 116.285 19.4468 116.833 19.061 117.381 18.7183 117.929 18.307 118.478 18.0179 119.026 17.6664 119.574 17.2642 120.123 16.9317 120.671 16.5403 121.219 16.1825 121.768 15.8536 122.316 15.5138 122.864 15.1426 123.412 14.7854 123.961 14.4377 124.509 14.0601 125.057 13.7541 125.606 13.389 126.154 13.072 126.702 12.6862 127.251 12.3454 127.799 12.0461 128.347 11.7707 128.895 11.7623" stroke="#E41A1C" stroke-width="1.4375" stroke-linejoin="round" stroke-miterlimit="10" fill="none" fill-rule="evenodd" transform="matrix(1.00174 0 0 1 68 456)"/><path d="M21.2756 17.7669 28.4681 17.7669" stroke="#377EB8" stroke-width="1.4375" stroke-linejoin="round" stroke-miterlimit="10" fill="none" transform="matrix(1.00174 0 0 1 68 456)"/><path d="M21.2756 31.6831 28.4681 31.6831" stroke="#E41A1C" stroke-width="1.4375" stroke-linejoin="round" stroke-miterlimit="10" fill="none" transform="matrix(1.00174 0 0 1 68 456)"/></g></svg>