<svg width="144" height="115" xmlns="http://www.w3.org/2000/svg" xmlns:xlink="http://www.w3.org/1999/xlink" xml:space="preserve" overflow="hidden"><defs><clipPath id="clip0"><rect x="58" y="797" width="144" height="115"/></clipPath></defs><g clip-path="url(#clip0)" transform="translate(-58 -797)"><path d="M0 0 143.75 0 143.75 115 0 115Z" fill="#FFFFFF" transform="matrix(1.00174 0 0 1 58 797)"/><path d="M0 0 143.75 0 143.75 115 0 115Z" fill="#FFFFFF" transform="matrix(1.00174 0 0 1 58 797)"/><path d="M18.6875 97.4625 130.094 97.4625 130.094 8.625 18.6875 8.625Z" fill="#FFFFFF" transform="matrix(1.00174 0 0 1 58 797)"/><path d="M18.6875 97.4625 130.094 97.4625" stroke="#262626" stroke-width="0.119787" stroke-linecap="square" stroke-linejoin="round" stroke-miterlimit="10" fill="none" transform="matrix(1.00174 0 0 1 58 797)"/><path d="M18.6875 97.4625 18.6875 96.3484" stroke="#262626" stroke-width="0.119787" stroke-linecap="square" stroke-linejoin="round" stroke-miterlimit="10" fill="none" transform="matrix(1.00174 0 0 1 58 797)"/><path d="M50.5179 97.4625 50.5179 96.3484" stroke="#262626" stroke-width="0.119787" stroke-linecap="square" stroke-linejoin="round" stroke-miterlimit="10" fill="none" transform="matrix(1.00174 0 0 1 58 797)"/><path d="M82.3482 97.4625 82.3482 96.3484" stroke="#262626" stroke-width="0.119787" stroke-linecap="square" stroke-linejoin="round" stroke-miterlimit="10" fill="none" transform="matrix(1.00174 0 0 1 58 797)"/><path d="M114.179 97.4625 114.179 96.3484" stroke="#262626" stroke-width="0.119787" stroke-linecap="square" stroke-linejoin="round" stroke-miterlimit="10" fill="none" transform="matrix(1.00174 0 0 1 58 797)"/><path d="M-2.40333 6.92695-2.40333 6.73154C-2.40333 6.43207-2.39771 6.17189-2.38648 5.95102-2.37525 5.73016-2.33855 5.43704-2.27641 5.07167-2.21427 4.70632-2.13004 4.39562-2.02373 4.13955-1.91742 3.88349-1.7527 3.63081-1.52959 3.38149-1.30648 3.13218-1.04144 2.94988-0.734476 2.83458-0.499377 2.74023-0.258294 2.69307-0.0112269 2.69307 0.202893 2.69307 0.409907 2.72227 0.609816 2.78067 0.809715 2.83906 1.02122 2.95436 1.24433 3.12656 1.46744 3.29876 1.66136 3.51963 1.82607 3.78916 1.99079 4.05869 2.12631 4.4293 2.23261 4.90098 2.33893 5.37266 2.39209 5.91321 2.39209 6.52266L2.39209 6.76523C2.39209 7.05723 2.38647 7.31815 2.37524 7.548 2.36401 7.77784 2.3277 8.06984 2.2663 8.42398 2.20491 8.77811 2.11882 9.0832 2.00801 9.33926 1.8972 9.59531 1.73062 9.84426 1.50825 10.0861 1.28589 10.3279 1.02123 10.5072 0.714265 10.624 0.459702 10.7094 0.217872 10.7506-0.0112269 10.7476-0.223862 10.7476-0.428634 10.7202-0.625543 10.6656-0.822441 10.6109-1.03395 10.5012-1.26005 10.3365-1.48616 10.1718-1.6797 9.95543-1.84068 9.6874-2.00165 9.41938-2.13566 9.04764-2.24273 8.57222-2.34979 8.09679-2.40333 7.54837-2.40333 6.92695ZM-1.50489 6.92695C-1.50489 7.44056-1.47007 7.8909-1.40044 8.27797-1.33081 8.66505-1.24658 8.96828-1.14776 9.18765-1.04893 9.40701-0.928385 9.58409-0.78614 9.71885-0.643885 9.85362-0.511736 9.94158-0.389692 9.98276-0.267658 10.0239-0.13776 10.0445 0 10.0445 0.176697 10.0445 0.341784 10.0041 0.495262 9.92323 0.648748 9.84237 0.805978 9.70088 0.966949 9.49873 1.12791 9.29659 1.25593 8.97464 1.35102 8.53291 1.44611 8.09118 1.49365 7.55212 1.49365 6.91573L1.49365 6.2374C1.49365 5.65341 1.44611 5.16303 1.35102 4.7662 1.25593 4.3694 1.12604 4.07816 0.961328 3.89248 0.796619 3.70679 0.637521 3.57952 0.484035 3.51065 0.330549 3.44176 0.165834 3.40732-0.0101056 3.40732-0.186046 3.40732-0.35076 3.44176-0.504246 3.51065-0.657732 3.57952-0.814962 3.70679-0.975933 3.89248-1.1369 4.07816-1.26531 4.37201-1.36114 4.77407-1.45698 5.17612-1.50489 5.66389-1.50489 6.2374L-1.50489 6.92695Z" fill="#262626" transform="matrix(1.00174 0 0 1 76.72 897.242)"/><path d="M-6.93145 6.92695-6.93145 6.73154C-6.93145 6.43207-6.92583 6.17189-6.91461 5.95102-6.90338 5.73016-6.86668 5.43704-6.80454 5.07167-6.74239 4.70632-6.65817 4.39562-6.55185 4.13955-6.44555 3.88349-6.28083 3.63081-6.05771 3.38149-5.8346 3.13218-5.56956 2.94988-5.2626 2.83458-5.0275 2.74023-4.78641 2.69307-4.53935 2.69307-4.32524 2.69307-4.11822 2.72227-3.91831 2.78067-3.71841 2.83906-3.50691 2.95436-3.2838 3.12656-3.06068 3.29876-2.86676 3.51963-2.70205 3.78916-2.53733 4.05869-2.40182 4.4293-2.29551 4.90098-2.1892 5.37266-2.13604 5.91321-2.13604 6.52266L-2.13604 6.76523C-2.13604 7.05723-2.14166 7.31815-2.15289 7.548-2.16411 7.77784-2.20042 8.06984-2.26182 8.42398-2.32322 8.77811-2.40931 9.0832-2.52011 9.33926-2.63093 9.59531-2.7975 9.84426-3.01987 10.0861-3.24224 10.3279-3.5069 10.5072-3.81386 10.624-4.06843 10.7094-4.31026 10.7506-4.53935 10.7476-4.75199 10.7476-4.95676 10.7202-5.15367 10.6656-5.35056 10.6109-5.56208 10.5012-5.78818 10.3365-6.01428 10.1718-6.20783 9.95543-6.3688 9.6874-6.52977 9.41938-6.66379 9.04764-6.77085 8.57222-6.87792 8.09679-6.93145 7.54837-6.93145 6.92695ZM-6.03301 6.92695C-6.03301 7.44056-5.9982 7.8909-5.92857 8.27797-5.85893 8.66505-5.77471 8.96828-5.67588 9.18765-5.57705 9.40701-5.45651 9.58409-5.31426 9.71885-5.17201 9.85362-5.03986 9.94158-4.91782 9.98276-4.79579 10.0239-4.66588 10.0445-4.52812 10.0445-4.35143 10.0445-4.18635 10.0041-4.03286 9.92323-3.87938 9.84237-3.72215 9.70088-3.56118 9.49873-3.40022 9.29659-3.2722 8.97464-3.1771 8.53291-3.08201 8.09118-3.03448 7.55212-3.03448 6.91573L-3.03448 6.2374C-3.03448 5.65341-3.08201 5.16303-3.1771 4.7662-3.2722 4.3694-3.40209 4.07816-3.5668 3.89248-3.73151 3.70679-3.89061 3.57952-4.04409 3.51065-4.19757 3.44176-4.36229 3.40732-4.53823 3.40732-4.71417 3.40732-4.87889 3.44176-5.03237 3.51065-5.18585 3.57952-5.34309 3.70679-5.50406 3.89248-5.66503 4.07816-5.79343 4.37201-5.88926 4.77407-5.9851 5.17612-6.03301 5.66389-6.03301 6.2374L-6.03301 6.92695ZM-0.545804 10.4937-0.545804 9.52792 0.420023 9.52792 0.420023 10.4937-0.545804 10.4937ZM2.57515 4.11933 2.57515 3.45674C3.49604 3.45674 4.22826 3.20219 4.77182 2.69307L4.98969 2.69307 4.98969 9.81318 6.42719 9.81318 6.42719 10.4937 2.63804 10.4937 2.63804 9.81318 4.07554 9.81318 4.07554 3.85654C3.61883 4.03173 3.1187 4.11933 2.57515 4.11933Z" fill="#262626" transform="matrix(1.00174 0 0 1 108.606 897.242)"/><path d="M-6.93145 6.92695-6.93145 6.73154C-6.93145 6.43207-6.92583 6.17189-6.91461 5.95102-6.90338 5.73016-6.86668 5.43704-6.80454 5.07167-6.74239 4.70632-6.65817 4.39562-6.55185 4.13955-6.44555 3.88349-6.28083 3.63081-6.05771 3.38149-5.8346 3.13218-5.56956 2.94988-5.2626 2.83458-5.0275 2.74023-4.78641 2.69307-4.53935 2.69307-4.32524 2.69307-4.11822 2.72227-3.91831 2.78067-3.71841 2.83906-3.50691 2.95436-3.2838 3.12656-3.06068 3.29876-2.86676 3.51963-2.70205 3.78916-2.53733 4.05869-2.40182 4.4293-2.29551 4.90098-2.1892 5.37266-2.13604 5.91321-2.13604 6.52266L-2.13604 6.76523C-2.13604 7.05723-2.14166 7.31815-2.15289 7.548-2.16411 7.77784-2.20042 8.06984-2.26182 8.42398-2.32322 8.77811-2.40931 9.0832-2.52011 9.33926-2.63093 9.59531-2.7975 9.84426-3.01987 10.0861-3.24224 10.3279-3.5069 10.5072-3.81386 10.624-4.06843 10.7094-4.31026 10.7506-4.53935 10.7476-4.75199 10.7476-4.95676 10.7202-5.15367 10.6656-5.35056 10.6109-5.56208 10.5012-5.78818 10.3365-6.01428 10.1718-6.20783 9.95543-6.3688 9.6874-6.52977 9.41938-6.66379 9.04764-6.77085 8.57222-6.87792 8.09679-6.93145 7.54837-6.93145 6.92695ZM-6.03301 6.92695C-6.03301 7.44056-5.9982 7.8909-5.92857 8.27797-5.85893 8.66505-5.77471 8.96828-5.67588 9.18765-5.57705 9.40701-5.45651 9.58409-5.31426 9.71885-5.17201 9.85362-5.03986 9.94158-4.91782 9.98276-4.79579 10.0239-4.66588 10.0445-4.52812 10.0445-4.35143 10.0445-4.18635 10.0041-4.03286 9.92323-3.87938 9.84237-3.72215 9.70088-3.56118 9.49873-3.40022 9.29659-3.2722 8.97464-3.1771 8.53291-3.08201 8.09118-3.03448 7.55212-3.03448 6.91573L-3.03448 6.2374C-3.03448 5.65341-3.08201 5.16303-3.1771 4.7662-3.2722 4.3694-3.40209 4.07816-3.5668 3.89248-3.73151 3.70679-3.89061 3.57952-4.04409 3.51065-4.19757 3.44176-4.36229 3.40732-4.53823 3.40732-4.71417 3.40732-4.87889 3.44176-5.03237 3.51065-5.18585 3.57952-5.34309 3.70679-5.50406 3.89248-5.66503 4.07816-5.79343 4.37201-5.88926 4.77407-5.9851 5.17612-6.03301 5.66389-6.03301 6.2374L-6.03301 6.92695ZM-0.545804 10.4937-0.545804 9.52792 0.420023 9.52792 0.420023 10.4937-0.545804 10.4937ZM2.01362 4.57979C2.38797 3.32198 3.13144 2.69307 4.24399 2.69307 4.98071 2.69307 5.57554 2.93565 6.02852 3.4208 6.48149 3.90596 6.70796 4.48545 6.70796 5.15927 6.70796 5.4288 6.67165 5.674 6.59902 5.89487 6.52639 6.11574 6.38414 6.35046 6.17227 6.59902 5.96039 6.84759 5.77396 7.04862 5.61299 7.20211 5.45202 7.35559 5.17687 7.60452 4.78755 7.94893 4.58241 8.13312 3.96474 8.71335 2.93453 9.68964L6.70796 9.67841 6.70796 10.4937 2.10347 10.4937 2.10347 9.7458 3.60386 8.26338C3.66376 8.20348 3.79552 8.08108 3.99917 7.89614 4.20282 7.71121 4.33833 7.5858 4.40571 7.51992 4.4731 7.45404 4.58915 7.33874 4.75386 7.17402 4.91858 7.00931 5.032 6.88315 5.09414 6.79555 5.15628 6.70796 5.2435 6.5893 5.35581 6.43955 5.46812 6.28981 5.54299 6.15767 5.58042 6.04312 5.61785 5.92857 5.65603 5.79642 5.69497 5.64667 5.7339 5.49694 5.75336 5.3457 5.75336 5.19297 5.75336 4.70182 5.59801 4.28779 5.2873 3.95088 4.9766 3.61398 4.58016 3.44551 4.098 3.44551 3.83595 3.44551 3.60273 3.50465 3.39834 3.62295 3.19394 3.74124 3.04046 3.8865 2.93789 4.05869 2.83533 4.23089 2.75109 4.40309 2.68521 4.57529 2.61933 4.74749 2.57515 4.89499 2.55268 5.01777L2.50776 5.21542 2.01362 4.57979Z" fill="#262626" transform="matrix(1.00174 0 0 1 140.491 897.242)"/><path d="M-6.93145 6.92695-6.93145 6.73154C-6.93145 6.43207-6.92583 6.17189-6.91461 5.95102-6.90338 5.73016-6.86668 5.43704-6.80454 5.07167-6.74239 4.70632-6.65817 4.39562-6.55185 4.13955-6.44555 3.88349-6.28083 3.63081-6.05771 3.38149-5.8346 3.13218-5.56956 2.94988-5.2626 2.83458-5.0275 2.74023-4.78641 2.69307-4.53935 2.69307-4.32524 2.69307-4.11822 2.72227-3.91831 2.78067-3.71841 2.83906-3.50691 2.95436-3.2838 3.12656-3.06068 3.29876-2.86676 3.51963-2.70205 3.78916-2.53733 4.05869-2.40182 4.4293-2.29551 4.90098-2.1892 5.37266-2.13604 5.91321-2.13604 6.52266L-2.13604 6.76523C-2.13604 7.05723-2.14166 7.31815-2.15289 7.548-2.16411 7.77784-2.20042 8.06984-2.26182 8.42398-2.32322 8.77811-2.40931 9.0832-2.52011 9.33926-2.63093 9.59531-2.7975 9.84426-3.01987 10.0861-3.24224 10.3279-3.5069 10.5072-3.81386 10.624-4.06843 10.7094-4.31026 10.7506-4.53935 10.7476-4.75199 10.7476-4.95676 10.7202-5.15367 10.6656-5.35056 10.6109-5.56208 10.5012-5.78818 10.3365-6.01428 10.1718-6.20783 9.95543-6.3688 9.6874-6.52977 9.41938-6.66379 9.04764-6.77085 8.57222-6.87792 8.09679-6.93145 7.54837-6.93145 6.92695ZM-6.03301 6.92695C-6.03301 7.44056-5.9982 7.8909-5.92857 8.27797-5.85893 8.66505-5.77471 8.96828-5.67588 9.18765-5.57705 9.40701-5.45651 9.58409-5.31426 9.71885-5.17201 9.85362-5.03986 9.94158-4.91782 9.98276-4.79579 10.0239-4.66588 10.0445-4.52812 10.0445-4.35143 10.0445-4.18635 10.0041-4.03286 9.92323-3.87938 9.84237-3.72215 9.70088-3.56118 9.49873-3.40022 9.29659-3.2722 8.97464-3.1771 8.53291-3.08201 8.09118-3.03448 7.55212-3.03448 6.91573L-3.03448 6.2374C-3.03448 5.65341-3.08201 5.16303-3.1771 4.7662-3.2722 4.3694-3.40209 4.07816-3.5668 3.89248-3.73151 3.70679-3.89061 3.57952-4.04409 3.51065-4.19757 3.44176-4.36229 3.40732-4.53823 3.40732-4.71417 3.40732-4.87889 3.44176-5.03237 3.51065-5.18585 3.57952-5.34309 3.70679-5.50406 3.89248-5.66503 4.07816-5.79343 4.37201-5.88926 4.77407-5.9851 5.17612-6.03301 5.66389-6.03301 6.2374L-6.03301 6.92695ZM-0.545804 10.4937-0.545804 9.52792 0.420023 9.52792 0.420023 10.4937-0.545804 10.4937ZM2.01362 9.56162 2.13716 8.85859C2.38422 9.18803 2.67435 9.44932 3.00752 9.64248 3.34069 9.83565 3.60386 9.94908 3.79703 9.98276 3.99018 10.0165 4.17437 10.0333 4.34956 10.0333 4.77332 10.0333 5.1151 9.87982 5.3749 9.57286 5.6347 9.26588 5.76461 8.87432 5.76461 8.39815 5.76461 7.95341 5.6392 7.57194 5.38838 7.25375 5.13757 6.93556 4.77108 6.77646 4.28891 6.77646L3.45112 6.77646 3.45112 6.06895C3.63531 6.05397 3.79477 6.03974 3.92954 6.02627 4.0643 6.01279 4.15041 6.00418 4.18784 6.00044 4.22527 5.99669 4.25522 5.99482 4.27768 5.99482 4.64455 5.92744 4.94589 5.74401 5.18174 5.44453 5.41758 5.14506 5.5355 4.81562 5.5355 4.45625 5.5355 4.13431 5.42768 3.87526 5.21206 3.67911 4.99643 3.48295 4.71642 3.38487 4.37203 3.38487 3.6982 3.38487 3.16512 3.67311 2.77281 4.24961 2.72789 4.31699 2.66574 4.42705 2.58638 4.57979L2.17758 3.95088C2.70467 3.11683 3.44363 2.69756 4.39448 2.69307 4.97847 2.69307 5.47186 2.86639 5.87466 3.21304 6.27746 3.5597 6.47886 3.9741 6.47886 4.45625 6.47886 5.28431 6.0521 5.93942 5.19859 6.42159 5.72568 6.60577 6.12398 6.87829 6.39351 7.23916 6.66304 7.60003 6.79781 7.99385 6.79781 8.4206 6.79781 9.04202 6.56571 9.58521 6.10151 10.0502 5.63733 10.5151 5.05708 10.7476 4.36079 10.7476 3.41743 10.7476 2.63504 10.3522 2.01362 9.56162Z" fill="#262626" transform="matrix(1.00174 0 0 1 172.377 897.242)"/><path d="M18.6875 97.4625 18.6875 8.625" stroke="#262626" stroke-width="0.119787" stroke-linecap="square" stroke-linejoin="round" stroke-miterlimit="10" fill="none" transform="matrix(1.00174 0 0 1 58 797)"/><path d="M18.6875 91.2646 19.8016 91.2646" stroke="#262626" stroke-width="0.119787" stroke-linecap="square" stroke-linejoin="round" stroke-miterlimit="10" fill="none" transform="matrix(1.00174 0 0 1 58 797)"/><path d="M18.6875 49.9448 19.8016 49.9448" stroke="#262626" stroke-width="0.119787" stroke-linecap="square" stroke-linejoin="round" stroke-miterlimit="10" fill="none" transform="matrix(1.00174 0 0 1 58 797)"/><path d="M18.6875 8.625 19.8016 8.625" stroke="#262626" stroke-width="0.119787" stroke-linecap="square" stroke-linejoin="round" stroke-miterlimit="10" fill="none" transform="matrix(1.00174 0 0 1 58 797)"/><path d="M-5.27833-0.476172-5.27833-0.671586C-5.27833-0.971064-5.27271-1.23124-5.26148-1.4521-5.25025-1.67296-5.21355-1.96608-5.15141-2.33145-5.08927-2.69681-5.00504-3.00751-4.89873-3.26357-4.79242-3.51963-4.6277-3.77232-4.40459-4.02164-4.18147-4.27094-3.91644-4.45325-3.60948-4.56855-3.37437-4.66289-3.13329-4.71005-2.88623-4.71005-2.67211-4.71005-2.4651-4.68086-2.26518-4.62245-2.06528-4.56406-1.85379-4.44876-1.63067-4.27656-1.40755-4.10436-1.21364-3.88349-1.04893-3.61396-0.884211-3.34443-0.748697-2.97383-0.64239-2.50214-0.536072-2.03047-0.482914-1.48991-0.482914-0.880469L-0.482914-0.637891C-0.482914-0.345896-0.48853-0.0849754-0.499761 0.144871-0.510992 0.374717-0.547304 0.666712-0.608695 1.02085-0.670086 1.37499-0.756182 1.68008-0.866985 1.93614-0.977798 2.19219-1.14438 2.44113-1.36675 2.68296-1.58911 2.92479-1.85377 3.10409-2.16074 3.22089-2.4153 3.30625-2.65713 3.34743-2.88623 3.34443-3.09886 3.34443-3.30363 3.3171-3.50054 3.26245-3.69744 3.2078-3.90895 3.09811-4.13506 2.93339-4.36116 2.76868-4.5547 2.55231-4.71568 2.28427-4.87665 2.01625-5.01066 1.64451-5.11773 1.16909-5.22479 0.69367-5.27833 0.145249-5.27833-0.476172ZM-4.37989-0.476172C-4.37989 0.0374372-4.34507 0.487777-4.27544 0.874848-4.20581 1.26193-4.12159 1.56515-4.02276 1.78453-3.92393 2.00389-3.80338 2.18096-3.66114 2.31573-3.51888 2.45049-3.38674 2.53845-3.26469 2.57964-3.14266 2.62082-3.01276 2.64141-2.875 2.64141-2.6983 2.64141-2.53322 2.60097-2.37974 2.52011-2.22626 2.43925-2.06902 2.29776-1.90805 2.0956-1.74709 1.89346-1.61907 1.57152-1.52398 1.12979-1.42889 0.688055-1.38135 0.148993-1.38135-0.487399L-1.38135-1.16573C-1.38135-1.74971-1.42889-2.2401-1.52398-2.63692-1.61907-3.03373-1.74896-3.32497-1.91367-3.51065-2.07838-3.69633-2.23748-3.82361-2.39096-3.89248-2.54445-3.96136-2.70917-3.9958-2.88511-3.9958-3.06104-3.9958-3.22576-3.96136-3.37925-3.89248-3.53273-3.82361-3.68996-3.69633-3.85093-3.51065-4.0119-3.32497-4.1403-3.03111-4.23614-2.62906-4.33198-2.227-4.37989-1.73923-4.37989-1.16573L-4.37989-0.476172Z" fill="#262626" transform="matrix(1.00174 0 0 1 73.9361 888.265)"/><path d="M-11.0283-2.82334C-10.654-4.08115-9.91051-4.71005-8.79795-4.71005-8.06123-4.71005-7.46639-4.46748-7.01343-3.98232-6.56046-3.49716-6.33398-2.91768-6.33398-2.24385-6.33398-1.97432-6.3703-1.72913-6.44292-1.50825-6.51554-1.28739-6.6578-1.05267-6.86968-0.804109-7.08156-0.555536-7.26799-0.354506-7.42896-0.20102-7.58993-0.0475429-7.86508 0.201398-8.2544 0.545804-8.45954 0.729987-9.07721 1.31022-10.1074 2.28652L-6.33398 2.27529-6.33398 3.09063-10.9385 3.09063-10.9385 2.34268-9.43808 0.860257C-9.37818 0.800361-9.24642 0.677949-9.04277 0.493019-8.83912 0.308089-8.7036 0.182682-8.63623 0.116797-8.56885 0.0509115-8.4528-0.0643904-8.28808-0.229109-8.12337-0.393817-8.00995-0.519973-7.94781-0.607574-7.88566-0.695165-7.79844-0.813831-7.68614-0.963571-7.57383-1.11331-7.49896-1.24545-7.46152-1.36-7.42408-1.47456-7.3859-1.60671-7.34698-1.75645-7.30803-1.90618-7.28857-2.05742-7.28857-2.21016-7.28857-2.70131-7.44392-3.11534-7.75464-3.45224-8.06535-3.78915-8.46179-3.95761-8.94395-3.95761-9.20599-3.95761-9.4392-3.89847-9.6436-3.78018-9.848-3.66189-10.0015-3.51663-10.1041-3.34443-10.2066-3.17223-10.2909-3.00003-10.3567-2.82784-10.4226-2.65564-10.4668-2.50814-10.4893-2.38536L-10.5342-2.1877-11.0283-2.82334ZM-5.27833-0.476172-5.27833-0.671586C-5.27833-0.971064-5.27271-1.23124-5.26148-1.4521-5.25025-1.67296-5.21355-1.96608-5.15141-2.33145-5.08927-2.69681-5.00504-3.00751-4.89873-3.26357-4.79242-3.51963-4.6277-3.77232-4.40459-4.02164-4.18147-4.27094-3.91644-4.45325-3.60948-4.56855-3.37437-4.66289-3.13329-4.71005-2.88623-4.71005-2.67211-4.71005-2.4651-4.68086-2.26518-4.62245-2.06528-4.56406-1.85379-4.44876-1.63067-4.27656-1.40755-4.10436-1.21364-3.88349-1.04893-3.61396-0.884211-3.34443-0.748697-2.97383-0.64239-2.50214-0.536072-2.03047-0.482914-1.48991-0.482914-0.880469L-0.482914-0.637891C-0.482914-0.345896-0.48853-0.0849754-0.499761 0.144871-0.510992 0.374717-0.547304 0.666712-0.608695 1.02085-0.670086 1.37499-0.756182 1.68008-0.866985 1.93614-0.977798 2.19219-1.14438 2.44113-1.36675 2.68296-1.58911 2.92479-1.85377 3.10409-2.16074 3.22089-2.4153 3.30625-2.65713 3.34743-2.88623 3.34443-3.09886 3.34443-3.30363 3.3171-3.50054 3.26245-3.69744 3.2078-3.90895 3.09811-4.13506 2.93339-4.36116 2.76868-4.5547 2.55231-4.71568 2.28427-4.87665 2.01625-5.01066 1.64451-5.11773 1.16909-5.22479 0.69367-5.27833 0.145249-5.27833-0.476172ZM-4.37989-0.476172C-4.37989 0.0374372-4.34507 0.487777-4.27544 0.874848-4.20581 1.26193-4.12159 1.56515-4.02276 1.78453-3.92393 2.00389-3.80338 2.18096-3.66114 2.31573-3.51888 2.45049-3.38674 2.53845-3.26469 2.57964-3.14266 2.62082-3.01276 2.64141-2.875 2.64141-2.6983 2.64141-2.53322 2.60097-2.37974 2.52011-2.22626 2.43925-2.06902 2.29776-1.90805 2.0956-1.74709 1.89346-1.61907 1.57152-1.52398 1.12979-1.42889 0.688055-1.38135 0.148993-1.38135-0.487399L-1.38135-1.16573C-1.38135-1.74971-1.42889-2.2401-1.52398-2.63692-1.61907-3.03373-1.74896-3.32497-1.91367-3.51065-2.07838-3.69633-2.23748-3.82361-2.39096-3.89248-2.54445-3.96136-2.70917-3.9958-2.88511-3.9958-3.06104-3.9958-3.22576-3.96136-3.37925-3.89248-3.53273-3.82361-3.68996-3.69633-3.85093-3.51065-4.0119-3.32497-4.1403-3.03111-4.23614-2.62906-4.33198-2.227-4.37989-1.73923-4.37989-1.16573L-4.37989-0.476172Z" fill="#262626" transform="matrix(1.00174 0 0 1 73.9361 846.945)"/><path d="M-11.19 1.12529C-11.19 1.12529-11.19 0.939612-11.19 0.568258-11.19 0.475424-11.1474 0.35788-11.062 0.215625L-8.28135-4.44052-7.2212-4.44052-7.2212 0.422266-6.08018 0.422266-6.08018 1.12529-7.2212 1.12529-7.2212 3.09063-8.14209 3.09063-8.14209 1.12529-11.19 1.12529ZM-10.2916 0.422266-8.07471 0.422266-8.07471-4.01826C-8.11963-3.73376-8.22819-3.39609-8.40039-3.00527-8.57259-2.61445-8.73543-2.28315-8.88891-2.01138-9.04239-1.73959-9.37894-1.15448-9.89854-0.256047-10.0677 0.0359375-10.1988 0.262042-10.2916 0.422266ZM-5.27833-0.476172-5.27833-0.671586C-5.27833-0.971064-5.27271-1.23124-5.26148-1.4521-5.25025-1.67296-5.21355-1.96608-5.15141-2.33145-5.08927-2.69681-5.00504-3.00751-4.89873-3.26357-4.79242-3.51963-4.6277-3.77232-4.40459-4.02164-4.18147-4.27094-3.91644-4.45325-3.60948-4.56855-3.37437-4.66289-3.13329-4.71005-2.88623-4.71005-2.67211-4.71005-2.4651-4.68086-2.26518-4.62245-2.06528-4.56406-1.85379-4.44876-1.63067-4.27656-1.40755-4.10436-1.21364-3.88349-1.04893-3.61396-0.884211-3.34443-0.748697-2.97383-0.64239-2.50214-0.536072-2.03047-0.482914-1.48991-0.482914-0.880469L-0.482914-0.637891C-0.482914-0.345896-0.48853-0.0849754-0.499761 0.144871-0.510992 0.374717-0.547304 0.666712-0.608695 1.02085-0.670086 1.37499-0.756182 1.68008-0.866985 1.93614-0.977798 2.19219-1.14438 2.44113-1.36675 2.68296-1.58911 2.92479-1.85377 3.10409-2.16074 3.22089-2.4153 3.30625-2.65713 3.34743-2.88623 3.34443-3.09886 3.34443-3.30363 3.3171-3.50054 3.26245-3.69744 3.2078-3.90895 3.09811-4.13506 2.93339-4.36116 2.76868-4.5547 2.55231-4.71568 2.28427-4.87665 2.01625-5.01066 1.64451-5.11773 1.16909-5.22479 0.69367-5.27833 0.145249-5.27833-0.476172ZM-4.37989-0.476172C-4.37989 0.0374372-4.34507 0.487777-4.27544 0.874848-4.20581 1.26193-4.12159 1.56515-4.02276 1.78453-3.92393 2.00389-3.80338 2.18096-3.66114 2.31573-3.51888 2.45049-3.38674 2.53845-3.26469 2.57964-3.14266 2.62082-3.01276 2.64141-2.875 2.64141-2.6983 2.64141-2.53322 2.60097-2.37974 2.52011-2.22626 2.43925-2.06902 2.29776-1.90805 2.0956-1.74709 1.89346-1.61907 1.57152-1.52398 1.12979-1.42889 0.688055-1.38135 0.148993-1.38135-0.487399L-1.38135-1.16573C-1.38135-1.74971-1.42889-2.2401-1.52398-2.63692-1.61907-3.03373-1.74896-3.32497-1.91367-3.51065-2.07838-3.69633-2.23748-3.82361-2.39096-3.89248-2.54445-3.96136-2.70917-3.9958-2.88511-3.9958-3.06104-3.9958-3.22576-3.96136-3.37925-3.89248-3.53273-3.82361-3.68996-3.69633-3.85093-3.51065-4.0119-3.32497-4.1403-3.03111-4.23614-2.62906-4.33198-2.227-4.37989-1.73923-4.37989-1.16573L-4.37989-0.476172Z" fill="#262626" transform="matrix(1.00174 0 0 1 73.9361 805.625)"/><path d="M18.6875 92.2031 19.2383 92.3763 19.7891 92.0913 20.3399 91.9185 20.8908 91.5137 21.4415 91.5005 21.9923 91.1555 22.5432 90.7034 23.0939 90.5434 23.6447 90.3835 24.1954 90.2116 24.7463 89.9707 25.2971 89.7197 25.8478 89.4413 26.3987 89.3137 26.9495 89.1785 27.5002 88.8444 28.0511 88.5821 28.6019 88.507 29.1526 88.1428 29.7035 87.9723 30.2543 87.8775 30.805 87.5403 31.3559 87.21 31.9067 87.1707 32.4575 86.9746 33.0083 86.5739 33.559 86.3807 34.1099 86.177 34.6607 85.9342 35.2114 85.5912 35.7623 85.2972 36.3131 85.1913 36.8638 84.8814 37.4147 84.8525 37.9655 84.612 38.5162 84.2296 39.0671 84.2164 39.6179 83.9225 40.1686 83.5893 40.7195 83.3786 41.2702 83.2991 41.821 82.7996 42.3719 82.8405 42.9226 82.6938 43.4734 82.3961 44.0243 82.139 44.575 81.8883 45.1259 81.7732 45.6767 81.5091 46.2274 81.4012 46.7783 80.9116 47.3291 80.794 47.8798 80.7401 48.4307 80.4948 48.9815 80.1219 49.5322 80.1025 50.0831 79.8596 50.6338 79.5454 51.1846 79.3432 51.7355 79.2292 52.2862 79.2212 52.837 78.89 53.3879 78.7306 53.9386 78.4582 54.4894 78.39 55.0403 78.2427 55.591 78.3371 56.1418 77.7266 56.6927 77.5199 57.2434 77.3736 57.7943 77.2852 58.345 76.9546 58.8958 76.7346 59.4467 76.6908 59.9974 76.5464 60.5482 76.2769 61.0991 75.9857 61.6498 75.8227 62.2006 75.6776 62.7515 75.4417 63.3022 75.4488 63.853 75.1541 64.4039 75.0126 64.9546 74.7353 65.5054 74.6433 66.0563 74.4721 66.607 74.0984 67.1578 74.0639 67.7085 74.0675 68.2594 73.5531 68.8102 73.4987 69.361 73.4305 69.9118 73.2237 70.4627 73.1232 71.0134 72.6615 71.5642 72.6392 72.1151 72.4454 72.6658 72.2579 73.2166 72.0456 73.7675 71.9147 74.3182 71.8603 74.869 71.6401 75.4197 71.4442 75.9706 71.283 76.5214 71.1486 77.0721 70.9559 77.623 70.6017 78.1738 70.523 78.7245 70.3725 79.2754 69.9155 79.8262 69.6838 80.3769 69.7482 80.9278 69.3436 81.4786 69.184 82.0294 69.1189 82.5802 68.8995 83.1309 68.6435 83.6818 68.35 84.2326 68.0569 84.7833 68.0031 85.3342 67.6643 85.885 67.4152 86.4357 67.119 86.9866 67.119 87.5374 66.9011 88.0881 66.616 88.639 66.4532 89.1898 66.1389 89.7405 65.8297 90.2914 65.5874 90.8422 65.3394 91.3929 65.2215 91.9438 64.8154 92.4945 64.6652 93.0453 64.5006 93.5962 64.1963 94.1469 64.176 94.6978 63.6627 95.2486 63.4429 95.7993 63.5569 96.3502 63.0236 96.901 62.884 97.4517 62.6439 98.0026 62.4976 98.5534 62.2222 99.1041 61.9976 99.655 61.8644 100.206 61.5893 100.757 61.3053 101.307 61.0479 101.858 60.8285 102.409 60.5491 102.96 60.5453 103.51 60.0875 104.061 60.1588 104.612 59.7426 105.163 59.5423 105.714 59.4804 106.265 59.2733 106.815 58.902 107.366 58.6438 107.917 58.5121 108.468 58.4617 109.019 57.8907 109.569 57.8661 110.12 57.4053 110.671 57.3531 111.222 57.2316 111.773 56.9211 112.323 56.7879 112.874 56.5492 113.425 56.1452 113.976 56.1157 114.526 55.815 115.077 55.7713 115.628 55.4483 116.179 55.1454 116.73 54.6675 117.281 54.6398 117.831 54.503 118.382 54.2267 118.933 54.0368 119.484 53.7353 120.035 53.6397 120.585 53.4276 121.136 53.0969 121.687 52.8235 122.238 52.6194 122.789 52.2636 123.339 52.2651 123.89 52.1289 124.441 51.5256 124.992 51.5012 125.542 51.2762 126.093 50.8757 126.644 50.5876 127.195 50.5885 127.746 50.1915 128.296 49.7542 128.847 49.7918 129.398 49.6898 129.949 49.541 130.107 49.3971 130.107 49.0439 130.107 49.034 130.107 48.7146 130.107 48.6933 130.107 48.5629 130.107 48.5194 130.107 48.5162 130.107 48.3506 130.107 48.2309 130.107 47.8432 130.107 47.838 130.107 47.7254 130.107 47.4526 130.107 47.399 130.107 47.3497 130.107 47.1201 130.107 46.9942 130.107 46.9096 130.107 46.7728 130.107 46.6729 130.107 46.5838 130.107 46.3911 130.107 46.3529 130.107 46.3052 130.107 46.1545 130.107 46.0798 130.107 45.8437 130.107 45.8101 130.107 45.5334 130.107 45.4832 130.107 45.2174 130.107 45.2141 130.107 45.2006 130.107 44.947 130.107 44.9097 129.949 44.9452 129.398 45.2101 128.847 45.5065 128.296 45.8295 127.746 46.1301 127.195 46.064 126.644 46.3382 126.093 46.6423 125.542 46.8153 124.992 46.969 124.441 47.4536 123.89 47.5909 123.339 47.9342 122.789 47.959 122.238 48.4215 121.687 48.4308 121.136 48.66 120.585 48.8931 120.035 49.1483 119.484 49.5154 118.933 49.7726 118.382 49.823 117.831 50.1685 117.281 50.2796 116.73 50.6595 116.179 50.8048 115.628 51.112 115.077 51.2114 114.526 51.587 113.976 51.8702 113.425 52.0497 112.874 52.3039 112.323 52.7353 111.773 52.8099 111.222 52.9356 110.671 53.3246 110.12 53.5196 109.569 53.8459 109.019 54.0905 108.468 54.2416 107.917 54.4985 107.366 54.7357 106.815 54.8883 106.265 55.1367 105.714 55.4317 105.163 55.7859 104.612 55.9475 104.061 56.1466 103.51 56.61 102.96 56.7756 102.409 56.9441 101.858 57.2694 101.307 57.43 100.757 57.8299 100.206 57.8152 99.655 58.3902 99.1041 58.4132 98.5534 58.6192 98.0026 58.9503 97.4517 59.2123 96.901 59.3805 96.3502 59.7807 95.7993 59.8992 95.2486 60.1367 94.6978 60.3583 94.1469 60.6889 93.5962 61.0364 93.0453 61.1116 92.4945 61.3496 91.9438 61.6795 91.3929 61.6969 90.8422 62.0411 90.2914 62.3306 89.7405 62.7128 89.1898 62.8544 88.639 62.9309 88.0881 63.1048 87.5374 63.4648 86.9866 63.7369 86.4357 63.7511 85.885 64.1634 85.3342 64.4137 84.7833 64.726 84.2326 64.857 83.6818 64.9438 83.1309 65.3324 82.5802 65.5963 82.0294 65.9607 81.4786 65.8522 80.9278 66.4627 80.3769 66.4622 79.8262 66.7831 79.2754 67.2233 78.7245 67.6199 78.1738 67.5759 77.623 67.58 77.0721 68.1562 76.5214 68.2008 75.9706 68.2151 75.4197 68.4159 74.869 68.5565 74.3182 68.9194 73.7675 68.9721 73.2166 69.2063 72.6658 69.4609 72.1151 69.5567 71.5642 69.6975 71.0134 69.9316 70.4627 70.3951 69.9118 70.5624 69.361 70.7668 68.8102 70.7635 68.2594 70.9544 67.7085 70.9495 67.1578 71.4011 66.607 71.367 66.0563 71.6564 65.5054 72.0413 64.9546 72.3018 64.4039 72.4369 63.853 72.5876 63.3022 72.7394 62.7515 72.9557 62.2006 73.3453 61.6498 73.4259 61.0991 73.4095 60.5482 73.7542 59.9974 73.9558 59.4467 74.0505 58.8958 74.2454 58.345 74.6403 57.7943 74.8265 57.2434 74.9561 56.6927 74.9352 56.1418 75.3789 55.591 75.5334 55.0403 75.5817 54.4894 75.817 53.9386 76.0042 53.3879 76.4715 52.837 76.3807 52.2862 76.589 51.7355 76.8968 51.1846 77.1672 50.6338 77.3434 50.0831 77.6191 49.5322 77.8426 48.9815 77.9221 48.4307 78.1715 47.8798 78.432 47.3291 78.689 46.7783 78.9179 46.2274 78.985 45.6767 79.123 45.1259 79.3526 44.575 79.645 44.0243 79.79 43.4734 80.0949 42.9226 80.3046 42.3719 80.6895 41.821 80.7445 41.2702 80.8638 40.7195 81.2837 40.1686 81.4535 39.6179 81.702 39.0671 81.8707 38.5162 81.8947 37.9655 82.3502 37.4147 82.6718 36.8638 82.8109 36.3131 83.0744 35.7623 83.3989 35.2114 83.5965 34.6607 83.5705 34.1099 83.9389 33.559 84.2241 33.0083 84.5142 32.4575 84.6054 31.9067 85.0419 31.3559 85.2271 30.805 85.375 30.2543 85.6608 29.7035 86.0318 29.1526 86.0739 28.6019 86.3499 28.0511 86.824 27.5002 86.8793 26.9495 87.1286 26.3987 87.2935 25.8478 87.61 25.2971 87.7377 24.7463 88.0548 24.1954 88.321 23.6447 88.6176 23.0939 88.8609 22.5432 88.8453 21.9923 89.2351 21.4415 89.4043 20.8908 89.6171 20.3399 90.1075 19.7891 90.1001 19.2383 90.4781 18.6875 90.2451Z" fill="#377EB8" fill-opacity="0.2" transform="matrix(1.00174 0 0 1 58 797)"/><path d="M18.6875 92.2031 19.2383 92.3763 19.7891 92.0913 20.3399 91.9185 20.8908 91.5137 21.4415 91.5005 21.9923 91.1555 22.5432 90.7034 23.0939 90.5434 23.6447 90.3835 24.1954 90.2116 24.7463 89.9707 25.2971 89.7197 25.8478 89.4413 26.3987 89.3137 26.9495 89.1785 27.5002 88.8444 28.0511 88.5821 28.6019 88.507 29.1526 88.1428 29.7035 87.9723 30.2543 87.8775 30.805 87.5403 31.3559 87.21 31.9067 87.1707 32.4575 86.9746 33.0083 86.5739 33.559 86.3807 34.1099 86.177 34.6607 85.9342 35.2114 85.5912 35.7623 85.2972 36.3131 85.1913 36.8638 84.8814 37.4147 84.8525 37.9655 84.612 38.5162 84.2296 39.0671 84.2164 39.6179 83.9225 40.1686 83.5893 40.7195 83.3786 41.2702 83.2991 41.821 82.7996 42.3719 82.8405 42.9226 82.6938 43.4734 82.3961 44.0243 82.139 44.575 81.8883 45.1259 81.7732 45.6767 81.5091 46.2274 81.4012 46.7783 80.9116 47.3291 80.794 47.8798 80.7401 48.4307 80.4948 48.9815 80.1219 49.5322 80.1025 50.0831 79.8596 50.6338 79.5454 51.1846 79.3432 51.7355 79.2292 52.2862 79.2212 52.837 78.89 53.3879 78.7306 53.9386 78.4582 54.4894 78.39 55.0403 78.2427 55.591 78.3371 56.1418 77.7266 56.6927 77.5199 57.2434 77.3736 57.7943 77.2852 58.345 76.9546 58.8958 76.7346 59.4467 76.6908 59.9974 76.5464 60.5482 76.2769 61.0991 75.9857 61.6498 75.8227 62.2006 75.6776 62.7515 75.4417 63.3022 75.4488 63.853 75.1541 64.4039 75.0126 64.9546 74.7353 65.5054 74.6433 66.0563 74.4721 66.607 74.0984 67.1578 74.0639 67.7085 74.0675 68.2594 73.5531 68.8102 73.4987 69.361 73.4305 69.9118 73.2237 70.4627 73.1232 71.0134 72.6615 71.5642 72.6392 72.1151 72.4454 72.6658 72.2579 73.2166 72.0456 73.7675 71.9147 74.3182 71.8603 74.869 71.6401 75.4197 71.4442 75.9706 71.283 76.5214 71.1486 77.0721 70.9559 77.623 70.6017 78.1738 70.523 78.7245 70.3725 79.2754 69.9155 79.8262 69.6838 80.3769 69.7482 80.9278 69.3436 81.4786 69.184 82.0294 69.1189 82.5802 68.8995 83.1309 68.6435 83.6818 68.35 84.2326 68.0569 84.7833 68.0031 85.3342 67.6643 85.885 67.4152 86.4357 67.119 86.9866 67.119 87.5374 66.9011 88.0881 66.616 88.639 66.4532 89.1898 66.1389 89.7405 65.8297 90.2914 65.5874 90.8422 65.3394 91.3929 65.2215 91.9438 64.8154 92.4945 64.6652 93.0453 64.5006 93.5962 64.1963 94.1469 64.176 94.6978 63.6627 95.2486 63.4429 95.7993 63.5569 96.3502 63.0236 96.901 62.884 97.4517 62.6439 98.0026 62.4976 98.5534 62.2222 99.1041 61.9976 99.655 61.8644 100.206 61.5893 100.757 61.3053 101.307 61.0479 101.858 60.8285 102.409 60.5491 102.96 60.5453 103.51 60.0875 104.061 60.1588 104.612 59.7426 105.163 59.5423 105.714 59.4804 106.265 59.2733 106.815 58.902 107.366 58.6438 107.917 58.5121 108.468 58.4617 109.019 57.8907 109.569 57.8661 110.12 57.4053 110.671 57.3531 111.222 57.2316 111.773 56.9211 112.323 56.7879 112.874 56.5492 113.425 56.1452 113.976 56.1157 114.526 55.815 115.077 55.7713 115.628 55.4483 116.179 55.1454 116.73 54.6675 117.281 54.6398 117.831 54.503 118.382 54.2267 118.933 54.0368 119.484 53.7353 120.035 53.6397 120.585 53.4276 121.136 53.0969 121.687 52.8235 122.238 52.6194 122.789 52.2636 123.339 52.2651 123.89 52.1289 124.441 51.5256 124.992 51.5012 125.542 51.2762 126.093 50.8757 126.644 50.5876 127.195 50.5885 127.746 50.1915 128.296 49.7542 128.847 49.7918 129.398 49.6898 129.949 49.541 130.107 49.3971" stroke="#A5C5DF" stroke-width="0.119787" stroke-linejoin="round" stroke-miterlimit="10" fill="none" fill-rule="evenodd" transform="matrix(1.00174 0 0 1 58 797)"/><path d="M18.6875 90.2451 19.2383 90.4781 19.7891 90.1001 20.3399 90.1075 20.8908 89.6171 21.4415 89.4043 21.9923 89.2351 22.5432 88.8453 23.0939 88.8609 23.6447 88.6176 24.1954 88.321 24.7463 88.0548 25.2971 87.7377 25.8478 87.61 26.3987 87.2935 26.9495 87.1286 27.5002 86.8793 28.0511 86.824 28.6019 86.3499 29.1526 86.0739 29.7035 86.0318 30.2543 85.6608 30.805 85.375 31.3559 85.2271 31.9067 85.0419 32.4575 84.6054 33.0083 84.5142 33.559 84.2241 34.1099 83.9389 34.6607 83.5705 35.2114 83.5965 35.7623 83.3989 36.3131 83.0744 36.8638 82.8109 37.4147 82.6718 37.9655 82.3502 38.5162 81.8947 39.0671 81.8707 39.6179 81.702 40.1686 81.4535 40.7195 81.2837 41.2702 80.8638 41.821 80.7445 42.3719 80.6895 42.9226 80.3046 43.4734 80.0949 44.0243 79.79 44.575 79.645 45.1259 79.3526 45.6767 79.123 46.2274 78.985 46.7783 78.9179 47.3291 78.689 47.8798 78.432 48.4307 78.1715 48.9815 77.9221 49.5322 77.8426 50.0831 77.6191 50.6338 77.3434 51.1846 77.1672 51.7355 76.8968 52.2862 76.589 52.837 76.3807 53.3879 76.4715 53.9386 76.0042 54.4894 75.817 55.0403 75.5817 55.591 75.5334 56.1418 75.3789 56.6927 74.9352 57.2434 74.9561 57.7943 74.8265 58.345 74.6403 58.8958 74.2454 59.4467 74.0505 59.9974 73.9558 60.5482 73.7542 61.0991 73.4095 61.6498 73.4259 62.2006 73.3453 62.7515 72.9557 63.3022 72.7394 63.853 72.5876 64.4039 72.4369 64.9546 72.3018 65.5054 72.0413 66.0563 71.6564 66.607 71.367 67.1578 71.4011 67.7085 70.9495 68.2594 70.9544 68.8102 70.7635 69.361 70.7668 69.9118 70.5624 70.4627 70.3951 71.0134 69.9316 71.5642 69.6975 72.1151 69.5567 72.6658 69.4609 73.2166 69.2063 73.7675 68.9721 74.3182 68.9194 74.869 68.5565 75.4197 68.4159 75.9706 68.2151 76.5214 68.2008 77.0721 68.1562 77.623 67.58 78.1738 67.5759 78.7245 67.6199 79.2754 67.2233 79.8262 66.7831 80.3769 66.4622 80.9278 66.4627 81.4786 65.8522 82.0294 65.9607 82.5802 65.5963 83.1309 65.3324 83.6818 64.9438 84.2326 64.857 84.7833 64.726 85.3342 64.4137 85.885 64.1634 86.4357 63.7511 86.9866 63.7369 87.5374 63.4648 88.0881 63.1048 88.639 62.9309 89.1898 62.8544 89.7405 62.7128 90.2914 62.3306 90.8422 62.0411 91.3929 61.6969 91.9438 61.6795 92.4945 61.3496 93.0453 61.1116 93.5962 61.0364 94.1469 60.6889 94.6978 60.3583 95.2486 60.1367 95.7993 59.8992 96.3502 59.7807 96.901 59.3805 97.4517 59.2123 98.0026 58.9503 98.5534 58.6192 99.1041 58.4132 99.655 58.3902 100.206 57.8152 100.757 57.8299 101.307 57.43 101.858 57.2694 102.409 56.9441 102.96 56.7756 103.51 56.61 104.061 56.1466 104.612 55.9475 105.163 55.7859 105.714 55.4317 106.265 55.1367 106.815 54.8883 107.366 54.7357 107.917 54.4985 108.468 54.2416 109.019 54.0905 109.569 53.8459 110.12 53.5196 110.671 53.3246 111.222 52.9356 111.773 52.8099 112.323 52.7353 112.874 52.3039 113.425 52.0497 113.976 51.8702 114.526 51.587 115.077 51.2114 115.628 51.112 116.179 50.8048 116.73 50.6595 117.281 50.2796 117.831 50.1685 118.382 49.823 118.933 49.7726 119.484 49.5154 120.035 49.1483 120.585 48.8931 121.136 48.66 121.687 48.4308 122.238 48.4215 122.789 47.959 123.339 47.9342 123.89 47.5909 124.441 47.4536 124.992 46.969 125.542 46.8153 126.093 46.6423 126.644 46.3382 127.195 46.064 127.746 46.1301 128.296 45.8295 128.847 45.5065 129.398 45.2101 129.949 44.9452 130.107 44.9097" stroke="#A5C5DF" stroke-width="0.119787" stroke-linejoin="round" stroke-miterlimit="10" fill="none" fill-rule="evenodd" transform="matrix(1.00174 0 0 1 58 797)"/><path d="M18.6875 91.2646 19.2383 91.2606 19.7891 91.0852 20.3399 90.8933 20.8908 90.5858 21.4415 90.3901 21.9923 90.1485 22.5432 89.8793 23.0939 89.6366 23.6447 89.4556 24.1954 89.2488 24.7463 88.9593 25.2971 88.78 25.8478 88.5327 26.3987 88.326 26.9495 88.1239 27.5002 87.8364 28.0511 87.6148 28.6019 87.3658 29.1526 87.1461 29.7035 86.944 30.2543 86.7455 30.805 86.5305 31.3559 86.2457 31.9067 86.0142 32.4575 85.7408 33.0083 85.5962 33.559 85.3314 34.1099 85.0873 34.6607 84.846 35.2114 84.6255 35.7623 84.3808 36.3131 84.1272 36.8638 83.9207 37.4147 83.7533 37.9655 83.5031 38.5162 83.2396 39.0671 83.028 39.6179 82.8614 40.1686 82.6108 40.7195 82.356 41.2702 82.1132 41.821 81.903 42.3719 81.6652 42.9226 81.4283 43.4734 81.2141 44.0243 80.9942 44.575 80.8106 45.1259 80.5743 45.6767 80.3137 46.2274 80.0749 46.7783 79.9157 47.3291 79.6537 47.8798 79.5124 48.4307 79.2712 48.9815 79.103 49.5322 78.8395 50.0831 78.6634 50.6338 78.4665 51.1846 78.2757 51.7355 78.0686 52.2862 77.8564 52.837 77.6733 53.3879 77.4424 53.9386 77.2972 54.4894 77.1478 55.0403 76.9619 55.591 76.7835 56.1418 76.5045 56.6927 76.3166 57.2434 76.1355 57.7943 75.9943 58.345 75.7751 58.8958 75.5804 59.4467 75.4426 59.9974 75.2753 60.5482 75.0474 61.0991 74.7733 61.6498 74.6797 62.2006 74.4783 62.7515 74.3098 63.3022 74.1467 63.853 73.8702 64.4039 73.7735 64.9546 73.5652 65.5054 73.3842 66.0563 73.1445 66.607 73.0065 67.1578 72.842 67.7085 72.6359 68.2594 72.4322 68.8102 72.2541 69.361 72.0481 69.9118 71.9101 70.4627 71.7163 71.0134 71.5025 71.5642 71.2797 72.1151 71.0947 72.6658 71.0101 73.2166 70.7609 73.7675 70.546 74.3182 70.2847 74.869 70.1615 75.4197 69.9692 75.9706 69.76 76.5214 69.6351 77.0721 69.4656 77.623 69.1759 78.1738 69.0237 78.7245 68.7867 79.2754 68.6025 79.8262 68.4003 80.3769 68.1575 80.9278 67.9715 81.4786 67.6206 82.0294 67.5194 82.5802 67.2441 83.1309 67.044 83.6818 66.8387 84.2326 66.5527 84.7833 66.3643 85.3342 66.1056 85.885 65.9209 86.4357 65.6342 86.9866 65.474 87.5374 65.2379 88.0881 65.0125 88.639 64.6973 89.1898 64.5315 89.7405 64.3214 90.2914 64.0176 90.8422 63.7629 91.3929 63.5871 91.9438 63.3193 92.4945 63.0457 93.0453 62.8643 93.5962 62.6582 94.1469 62.4469 94.6978 62.1714 95.2486 61.9059 95.7993 61.7572 96.3502 61.5024 96.901 61.2463 97.4517 61.0074 98.0026 60.7371 98.5534 60.5304 99.1041 60.3069 99.655 60.1401 100.206 59.8276 100.757 59.6126 101.307 59.3278 101.858 59.1626 102.409 58.9121 102.96 58.6534 103.51 58.4715 104.061 58.2213 104.612 57.9787 105.163 57.7037 105.714 57.459 106.265 57.2328 106.815 56.9812 107.366 56.7525 107.917 56.5663 108.468 56.3494 109.019 56.0385 109.569 55.8667 110.12 55.6028 110.671 55.3482 111.222 55.0749 111.773 54.8646 112.323 54.6318 112.874 54.4081 113.425 54.1615 113.976 53.9472 114.526 53.707 115.077 53.4253 115.628 53.3009 116.179 53.0189 116.73 52.7085 117.281 52.5875 117.831 52.3147 118.382 52.1026 118.933 51.8929 119.484 51.6032 120.035 51.3788 120.585 51.1885 121.136 50.9847 121.687 50.7246 122.238 50.4936 122.789 50.203 123.339 50.0315 123.89 49.8712 124.441 49.5943 124.992 49.3465 125.542 49.0459 126.093 48.8869 126.644 48.6607 127.195 48.4179 127.746 48.2201 128.296 47.9058 128.847 47.7326 129.398 47.5141 129.949 47.214 130.107 47.1488" stroke="#377EB8" stroke-width="1.4375" stroke-linejoin="round" stroke-miterlimit="10" fill="none" fill-rule="evenodd" transform="matrix(1.00174 0 0 1 58 797)"/><path d="M18.6875 97.0256 19.2358 96.9161 19.784 96.5004 20.3323 96.1863 20.8805 95.6326 21.4288 95.2512 21.9769 94.6558 22.5252 94.2577 23.0735 93.9961 23.6217 93.699 24.17 93.2025 24.7182 92.7813 25.2665 92.4235 25.8148 92.1767 26.363 91.6025 26.9113 91.3353 27.4596 90.9772 28.0077 90.7807 28.5559 90.295 29.1042 89.9122 29.6525 89.7609 30.2007 89.2608 30.749 88.6848 31.2972 88.2189 31.8455 88.0214 32.3938 87.3678 32.942 86.9804 33.4902 86.7564 34.0384 86.3084 34.5867 86.0834 35.1349 85.786 35.6832 85.2 36.2315 84.6864 36.7797 84.6105 37.328 84.2062 37.8763 83.6897 38.4245 83.4242 38.9728 83.2771 39.5209 82.8073 40.0692 82.4668 40.6174 82.1833 41.1657 81.8216 41.7139 81.5533 42.2622 80.9979 42.8105 80.6305 43.3587 80.4209 43.907 80.1641 44.4553 79.6951 45.0035 79.5682 45.5516 79.0119 46.0999 78.7634 46.6482 78.5476 47.1964 78.2277 47.7447 77.6798 48.293 77.3179 48.8412 77.0345 49.3895 76.6169 49.9377 76.2553 50.486 75.9144 51.0343 75.6072 51.5824 75.365 52.1306 74.7253 52.6789 74.5319 53.2272 74.2026 53.7754 73.9423 54.3237 73.5084 54.872 73.1732 55.4202 72.8302 55.9685 72.5321 56.5166 72.0823 57.065 71.9002 57.6131 71.5368 58.1614 71.2357 58.7097 70.9113 59.2579 70.4486 59.8062 70.0077 60.3544 69.6467 60.9027 69.4839 61.451 69.1656 61.9992 68.8643 62.5473 68.3566 63.0956 67.9663 63.6439 67.6786 64.1921 67.3493 64.7404 67.2432 65.2887 66.675 65.8369 66.2841 66.3852 66.1106 66.9334 65.4581 67.4817 65.1995 68.03 64.8902 68.5781 64.5831 69.1264 64.2249 69.6746 63.737 70.2229 63.7413 70.7711 63.1106 71.3194 62.7209 71.8677 62.4352 72.4159 61.9591 72.9642 61.7814 73.5125 61.4708 74.0607 61.1658 74.6088 60.7036 75.1571 60.4497 75.7054 59.9705 76.2536 59.6238 76.8019 59.4395 77.3502 59.0225 77.8984 58.8224 78.4467 58.2193 78.9949 58.1129 79.5432 57.5545 80.0913 57.2483 80.6396 56.6744 81.1878 56.4515 81.7361 55.989 82.2844 55.7835 82.8326 55.4271 83.3809 55.1375 83.9292 54.7442 84.4774 54.2869 85.0257 54.1074 85.5739 53.6301 86.1221 53.2694 86.6703 53.0006 87.2186 52.549 87.7668 52.2109 88.3151 51.769 88.8634 51.445 89.4116 51.2584 89.9599 50.9322 90.5082 50.49 91.0564 50.2432 91.6047 50.0201 92.1528 49.6479 92.7011 49.2784 93.2493 48.8635 93.7976 48.4123 94.3458 48.3384 94.8941 47.8358 95.4424 47.4384 95.9906 47.2611 96.5389 47.0248 97.0872 46.5014 97.6354 46.2271 98.1835 45.697 98.7318 45.4103 99.2801 44.9746 99.8283 44.6722 100.377 44.3822 100.925 44.0367 101.473 43.6734 102.021 43.4244 102.57 43.0242 103.118 42.6288 103.666 42.5943 104.214 42.1152 104.763 41.8685 105.311 41.393 105.859 41.2386 106.407 40.9054 106.956 40.5202 107.504 40.1625 108.052 39.7405 108.6 39.2552 109.149 38.9608 109.697 38.5441 110.245 38.5414 110.793 38.1885 111.342 37.8714 111.89 37.4946 112.438 37.0759 112.986 36.7991 113.535 36.2263 114.083 35.8843 114.631 35.8893 115.179 35.3996 115.728 34.8299 116.276 34.815 116.824 34.4251 117.372 34.0289 117.921 33.762 118.469 33.5231 119.017 33.42 119.565 32.7575 120.114 32.5311 120.662 32.2677 121.21 31.7118 121.758 31.5099 122.307 31.2462 122.855 30.8601 123.403 30.4556 123.951 30.2899 124.5 29.812 125.048 29.6023 125.596 28.9853 126.144 28.8368 126.693 28.5424 127.241 28.1176 127.789 27.6714 128.337 27.4357 128.886 27.4343 128.886 14.0353 128.337 14.0468 127.789 14.5721 127.241 14.742 126.693 15.3631 126.144 15.541 125.596 15.7275 125.048 16.254 124.5 16.6128 123.951 17.0318 123.403 17.1768 122.855 17.4178 122.307 17.7155 121.758 18.2424 121.21 18.7174 120.662 18.8455 120.114 19.0561 119.565 19.5178 119.017 19.9992 118.469 20.0802 117.921 20.6549 117.372 20.7819 116.824 21.2028 116.276 21.7449 115.728 21.8372 115.179 22.2499 114.631 22.5913 114.083 22.9309 113.535 23.3785 112.986 23.853 112.438 24.1928 111.89 24.6813 111.342 24.9848 110.793 25.2149 110.245 25.7006 109.697 26.0459 109.149 26.4159 108.6 26.7657 108.052 27.1702 107.504 27.3847 106.956 27.8845 106.407 28.3354 105.859 28.7629 105.311 28.9705 104.763 29.554 104.214 29.8353 103.666 30.253 103.118 30.5256 102.57 30.7013 102.021 31.0805 101.473 31.4453 100.925 31.8406 100.377 32.2116 99.8283 32.4747 99.2801 32.8899 98.7318 33.2409 98.1835 33.5202 97.6354 34.0248 97.0872 34.2247 96.5389 34.6046 95.9906 34.9716 95.4424 35.3304 94.8941 35.7194 94.3458 36.0689 93.7976 36.2125 93.2493 36.9412 92.7011 36.9192 92.1528 37.5934 91.6047 37.7623 91.0564 38.2395 90.5082 38.4916 89.9599 38.7908 89.4116 39.0303 88.8634 39.4433 88.3151 39.6839 87.7668 39.9859 87.2186 40.4557 86.6703 40.8914 86.1221 41.2028 85.5739 41.6408 85.0257 41.8488 84.4774 42.3798 83.9292 42.6582 83.3809 42.9314 82.8326 43.5312 82.2844 43.6684 81.7361 44.0072 81.1878 44.457 80.6396 44.545 80.0913 45.1851 79.5432 45.7923 78.9949 46.0223 78.4467 46.186 77.8984 46.6809 77.3502 46.9314 76.8019 47.5455 76.2536 47.7867 75.7054 47.9454 75.1571 48.5051 74.6088 48.7616 74.0607 49.0771 73.5125 49.458 72.9642 49.8421 72.4159 50.4594 71.8677 50.527 71.3194 51.0725 70.7711 51.2759 70.2229 51.6671 69.6746 51.9458 69.1264 52.3339 68.5781 52.6023 68.03 53.0281 67.4817 53.5975 66.9334 53.662 66.3852 53.9834 65.8369 54.3039 65.2887 54.4739 64.7404 55.1595 64.1921 55.4587 63.6439 55.8306 63.0956 56.3215 62.5473 56.6765 61.9992 56.7456 61.451 57.2676 60.9027 57.5464 60.3544 57.9581 59.8062 58.139 59.2579 58.6913 58.7097 58.8847 58.1614 59.437 57.6131 59.6071 57.065 60.2136 56.5166 60.3513 55.9685 60.6277 55.4202 61.1822 54.872 61.4625 54.3237 61.8513 53.7754 62.1191 53.2272 62.5264 52.6789 62.9711 52.1306 63.4849 51.5824 63.687 51.0343 64.0103 50.486 64.3533 49.9377 64.6681 49.3895 64.9983 48.8412 65.6774 48.293 65.622 47.7447 66.0636 47.1964 66.4542 46.6482 66.9145 46.0999 67.1985 45.5516 67.4291 45.0035 68.0528 44.4553 68.3369 43.907 68.7149 43.3587 68.9725 42.8105 69.5437 42.2622 69.7773 41.7139 70.0899 41.1657 70.4076 40.6174 70.7458 40.0692 71.1321 39.5209 71.5621 38.9728 71.7146 38.4245 72.1885 37.8763 72.4041 37.328 73.0676 36.7797 73.0818 36.2315 73.5518 35.6832 73.8316 35.1349 74.2076 34.5867 74.5053 34.0384 74.9807 33.4902 75.2793 32.942 75.5182 32.3938 76.0172 31.8455 76.338 31.2972 76.8186 30.749 77.0534 30.2007 77.4513 29.6525 77.6105 29.1042 78.2456 28.5559 78.4117 28.0077 78.7819 27.4596 79.254 26.9113 79.4486 26.363 79.8686 25.8148 80.1961 25.2665 80.5684 24.7182 81.1272 24.17 81.2301 23.6217 81.7687 23.0735 82.2346 22.5252 82.7063 21.9769 83.1305 21.4288 83.4539 20.8805 83.8834 20.3323 84.2277 19.784 84.357 19.2358 85.0171 18.6875 85.1126Z" fill="#E41A1C" fill-opacity="0.2" transform="matrix(1.00174 0 0 1 58 797)"/><path d="M18.6875 97.0256 19.2358 96.9161 19.784 96.5004 20.3323 96.1863 20.8805 95.6326 21.4288 95.2512 21.9769 94.6558 22.5252 94.2577 23.0735 93.9961 23.6217 93.699 24.17 93.2025 24.7182 92.7813 25.2665 92.4235 25.8148 92.1767 26.363 91.6025 26.9113 91.3353 27.4596 90.9772 28.0077 90.7807 28.5559 90.295 29.1042 89.9122 29.6525 89.7609 30.2007 89.2608 30.749 88.6848 31.2972 88.2189 31.8455 88.0214 32.3938 87.3678 32.942 86.9804 33.4902 86.7564 34.0384 86.3084 34.5867 86.0834 35.1349 85.786 35.6832 85.2 36.2315 84.6864 36.7797 84.6105 37.328 84.2062 37.8763 83.6897 38.4245 83.4242 38.9728 83.2771 39.5209 82.8073 40.0692 82.4668 40.6174 82.1833 41.1657 81.8216 41.7139 81.5533 42.2622 80.9979 42.8105 80.6305 43.3587 80.4209 43.907 80.1641 44.4553 79.6951 45.0035 79.5682 45.5516 79.0119 46.0999 78.7634 46.6482 78.5476 47.1964 78.2277 47.7447 77.6798 48.293 77.3179 48.8412 77.0345 49.3895 76.6169 49.9377 76.2553 50.486 75.9144 51.0343 75.6072 51.5824 75.365 52.1306 74.7253 52.6789 74.5319 53.2272 74.2026 53.7754 73.9423 54.3237 73.5084 54.872 73.1732 55.4202 72.8302 55.9685 72.5321 56.5166 72.0823 57.065 71.9002 57.6131 71.5368 58.1614 71.2357 58.7097 70.9113 59.2579 70.4486 59.8062 70.0077 60.3544 69.6467 60.9027 69.4839 61.451 69.1656 61.9992 68.8643 62.5473 68.3566 63.0956 67.9663 63.6439 67.6786 64.1921 67.3493 64.7404 67.2432 65.2887 66.675 65.8369 66.2841 66.3852 66.1106 66.9334 65.4581 67.4817 65.1995 68.03 64.8902 68.5781 64.5831 69.1264 64.2249 69.6746 63.737 70.2229 63.7413 70.7711 63.1106 71.3194 62.7209 71.8677 62.4352 72.4159 61.9591 72.9642 61.7814 73.5125 61.4708 74.0607 61.1658 74.6088 60.7036 75.1571 60.4497 75.7054 59.9705 76.2536 59.6238 76.8019 59.4395 77.3502 59.0225 77.8984 58.8224 78.4467 58.2193 78.9949 58.1129 79.5432 57.5545 80.0913 57.2483 80.6396 56.6744 81.1878 56.4515 81.7361 55.989 82.2844 55.7835 82.8326 55.4271 83.3809 55.1375 83.9292 54.7442 84.4774 54.2869 85.0257 54.1074 85.5739 53.6301 86.1221 53.2694 86.6703 53.0006 87.2186 52.549 87.7668 52.2109 88.3151 51.769 88.8634 51.445 89.4116 51.2584 89.9599 50.9322 90.5082 50.49 91.0564 50.2432 91.6047 50.0201 92.1528 49.6479 92.7011 49.2784 93.2493 48.8635 93.7976 48.4123 94.3458 48.3384 94.8941 47.8358 95.4424 47.4384 95.9906 47.2611 96.5389 47.0248 97.0872 46.5014 97.6354 46.2271 98.1835 45.697 98.7318 45.4103 99.2801 44.9746 99.8283 44.6722 100.377 44.3822 100.925 44.0367 101.473 43.6734 102.021 43.4244 102.57 43.0242 103.118 42.6288 103.666 42.5943 104.214 42.1152 104.763 41.8685 105.311 41.393 105.859 41.2386 106.407 40.9054 106.956 40.5202 107.504 40.1625 108.052 39.7405 108.6 39.2552 109.149 38.9608 109.697 38.5441 110.245 38.5414 110.793 38.1885 111.342 37.8714 111.89 37.4946 112.438 37.0759 112.986 36.7991 113.535 36.2263 114.083 35.8843 114.631 35.8893 115.179 35.3996 115.728 34.8299 116.276 34.815 116.824 34.4251 117.372 34.0289 117.921 33.762 118.469 33.5231 119.017 33.42 119.565 32.7575 120.114 32.5311 120.662 32.2677 121.21 31.7118 121.758 31.5099 122.307 31.2462 122.855 30.8601 123.403 30.4556 123.951 30.2899 124.5 29.812 125.048 29.6023 125.596 28.9853 126.144 28.8368 126.693 28.5424 127.241 28.1176 127.789 27.6714 128.337 27.4357 128.886 27.4343" stroke="#F39899" stroke-width="0.119787" stroke-linejoin="round" stroke-miterlimit="10" fill="none" fill-rule="evenodd" transform="matrix(1.00174 0 0 1 58 797)"/><path d="M18.6875 85.1126 19.2358 85.0171 19.784 84.357 20.3323 84.2277 20.8805 83.8834 21.4288 83.4539 21.9769 83.1305 22.5252 82.7063 23.0735 82.2346 23.6217 81.7687 24.17 81.2301 24.7182 81.1272 25.2665 80.5684 25.8148 80.1961 26.363 79.8686 26.9113 79.4486 27.4596 79.254 28.0077 78.7819 28.5559 78.4117 29.1042 78.2456 29.6525 77.6105 30.2007 77.4513 30.749 77.0534 31.2972 76.8186 31.8455 76.338 32.3938 76.0172 32.942 75.5182 33.4902 75.2793 34.0384 74.9807 34.5867 74.5053 35.1349 74.2076 35.6832 73.8316 36.2315 73.5518 36.7797 73.0818 37.328 73.0676 37.8763 72.4041 38.4245 72.1885 38.9728 71.7146 39.5209 71.5621 40.0692 71.1321 40.6174 70.7458 41.1657 70.4076 41.7139 70.0899 42.2622 69.7773 42.8105 69.5437 43.3587 68.9725 43.907 68.7149 44.4553 68.3369 45.0035 68.0528 45.5516 67.4291 46.0999 67.1985 46.6482 66.9145 47.1964 66.4542 47.7447 66.0636 48.293 65.622 48.8412 65.6774 49.3895 64.9983 49.9377 64.6681 50.486 64.3533 51.0343 64.0103 51.5824 63.687 52.1306 63.4849 52.6789 62.9711 53.2272 62.5264 53.7754 62.1191 54.3237 61.8513 54.872 61.4625 55.4202 61.1822 55.9685 60.6277 56.5166 60.3513 57.065 60.2136 57.6131 59.6071 58.1614 59.437 58.7097 58.8847 59.2579 58.6913 59.8062 58.139 60.3544 57.9581 60.9027 57.5464 61.451 57.2676 61.9992 56.7456 62.5473 56.6765 63.0956 56.3215 63.6439 55.8306 64.1921 55.4587 64.7404 55.1595 65.2887 54.4739 65.8369 54.3039 66.3852 53.9834 66.9334 53.662 67.4817 53.5975 68.03 53.0281 68.5781 52.6023 69.1264 52.3339 69.6746 51.9458 70.2229 51.6671 70.7711 51.2759 71.3194 51.0725 71.8677 50.527 72.4159 50.4594 72.9642 49.8421 73.5125 49.458 74.0607 49.0771 74.6088 48.7616 75.1571 48.5051 75.7054 47.9454 76.2536 47.7867 76.8019 47.5455 77.3502 46.9314 77.8984 46.6809 78.4467 46.186 78.9949 46.0223 79.5432 45.7923 80.0913 45.1851 80.6396 44.545 81.1878 44.457 81.7361 44.0072 82.2844 43.6684 82.8326 43.5312 83.3809 42.9314 83.9292 42.6582 84.4774 42.3798 85.0257 41.8488 85.5739 41.6408 86.1221 41.2028 86.6703 40.8914 87.2186 40.4557 87.7668 39.9859 88.3151 39.6839 88.8634 39.4433 89.4116 39.0303 89.9599 38.7908 90.5082 38.4916 91.0564 38.2395 91.6047 37.7623 92.1528 37.5934 92.7011 36.9192 93.2493 36.9412 93.7976 36.2125 94.3458 36.0689 94.8941 35.7194 95.4424 35.3304 95.9906 34.9716 96.5389 34.6046 97.0872 34.2247 97.6354 34.0248 98.1835 33.5202 98.7318 33.2409 99.2801 32.8899 99.8283 32.4747 100.377 32.2116 100.925 31.8406 101.473 31.4453 102.021 31.0805 102.57 30.7013 103.118 30.5256 103.666 30.253 104.214 29.8353 104.763 29.554 105.311 28.9705 105.859 28.7629 106.407 28.3354 106.956 27.8845 107.504 27.3847 108.052 27.1702 108.6 26.7657 109.149 26.4159 109.697 26.0459 110.245 25.7006 110.793 25.2149 111.342 24.9848 111.89 24.6813 112.438 24.1928 112.986 23.853 113.535 23.3785 114.083 22.9309 114.631 22.5913 115.179 22.2499 115.728 21.8372 116.276 21.7449 116.824 21.2028 117.372 20.7819 117.921 20.6549 118.469 20.0802 119.017 19.9992 119.565 19.5178 120.114 19.0561 120.662 18.8455 121.21 18.7174 121.758 18.2424 122.307 17.7155 122.855 17.4178 123.403 17.1768 123.951 17.0318 124.5 16.6128 125.048 16.254 125.596 15.7275 126.144 15.541 126.693 15.3631 127.241 14.742 127.789 14.5721 128.337 14.0468 128.886 14.0353" stroke="#F39899" stroke-width="0.119787" stroke-linejoin="round" stroke-miterlimit="10" fill="none" fill-rule="evenodd" transform="matrix(1.00174 0 0 1 58 797)"/><path d="M18.6875 91.2646 19.2358 91.2222 19.784 90.7767 20.3323 90.4338 20.8805 90.0653 21.4288 89.6711 21.9769 89.2456 22.5252 88.7835 23.0735 88.4133 23.6217 88.0802 24.17 87.6542 24.7182 87.2769 25.2665 86.9716 25.8148 86.5966 26.363 86.2116 26.9113 85.7605 27.4596 85.4206 28.0077 85.0015 28.5559 84.6575 29.1042 84.2793 29.6525 83.8964 30.2007 83.5938 30.749 83.2144 31.2972 82.8355 31.8455 82.5331 32.3938 82.1306 32.942 81.7584 33.4902 81.4486 34.0384 81.0941 34.5867 80.7064 35.1349 80.3723 35.6832 80.0505 36.2315 79.6921 36.7797 79.3299 37.328 79.0129 37.8763 78.611 38.4245 78.3341 38.9728 77.9611 39.5209 77.6572 40.0692 77.2735 40.6174 76.9403 41.1657 76.6308 41.7139 76.274 42.2622 75.8787 42.8105 75.5763 43.3587 75.194 43.907 74.8403 44.4553 74.468 45.0035 74.1661 45.5516 73.7616 46.0999 73.4186 46.6482 73.1482 47.1964 72.7911 47.7447 72.3977 48.293 71.9592 48.8412 71.6975 49.3895 71.303 49.9377 70.9113 50.486 70.5811 51.0343 70.2562 51.5824 69.9447 52.1306 69.5362 52.6789 69.2439 53.2272 68.8445 53.7754 68.4592 54.3237 68.1282 54.872 67.7577 55.4202 67.4239 55.9685 67.085 56.5166 66.7528 57.065 66.3734 57.6131 65.9792 58.1614 65.7017 58.7097 65.2567 59.2579 65.0191 59.8062 64.589 60.3544 64.2544 60.9027 63.9601 61.451 63.5877 61.9992 63.2378 62.5473 62.8981 63.0956 62.4864 63.6439 62.1861 64.1921 61.8814 64.7404 61.5256 65.2887 61.1201 65.8369 60.7936 66.3852 60.4617 66.9334 60.0901 67.4817 59.801 68.03 59.4431 68.5781 59.0672 69.1264 58.7804 69.6746 58.3233 70.2229 58.0746 70.7711 57.7046 71.3194 57.3746 71.8677 56.9806 72.4159 56.6818 72.9642 56.274 73.5125 55.9908 74.0607 55.5345 74.6088 55.2671 75.1571 54.8554 75.7054 54.5439 76.2536 54.1492 76.8019 53.8384 77.3502 53.4573 77.8984 53.0913 78.4467 52.7082 78.9949 52.4367 79.5432 52.0859 80.0913 51.7303 80.6396 51.2651 81.1878 50.9381 81.7361 50.6124 82.2844 50.257 82.8326 49.9285 83.3809 49.5413 83.9292 49.1434 84.4774 48.8494 85.0257 48.5043 85.5739 48.1854 86.1221 47.8245 86.6703 47.4913 87.2186 47.1588 87.7668 46.7489 88.3151 46.3795 88.8634 46.0516 89.4116 45.7338 89.9599 45.4213 90.5082 45.0648 91.0564 44.7295 91.6047 44.4047 92.1528 44.0673 92.7011 43.6723 93.2493 43.3186 93.7976 42.9601 94.3458 42.6361 94.8941 42.2875 95.4424 41.9381 95.9906 41.6442 96.5389 41.2508 97.0872 40.8489 97.6354 40.6052 98.1835 40.1908 98.7318 39.8278 99.2801 39.4913 99.8283 39.1976 100.377 38.7994 100.925 38.4321 101.473 38.1073 102.021 37.7923 102.57 37.3925 103.118 37.029 103.666 36.7455 104.214 36.3514 104.763 36.019 105.311 35.6451 105.859 35.3197 106.407 34.959 106.956 34.5936 107.504 34.2366 108.052 33.9233 108.6 33.4965 109.149 33.1088 109.697 32.7943 110.245 32.505 110.793 32.0995 111.342 31.7472 111.89 31.4584 112.438 31.0684 112.986 30.7227 113.535 30.3502 114.083 29.9587 114.631 29.695 115.179 29.2947 115.728 28.8827 116.276 28.6212 116.824 28.2023 117.372 27.8567 117.921 27.4907 118.469 27.187 119.017 26.8324 119.565 26.4418 120.114 26.0561 120.662 25.7256 121.21 25.4478 121.758 25.0921 122.307 24.6015 122.855 24.3911 123.403 23.9693 123.951 23.72 124.5 23.4026 125.048 23.008 125.596 22.59 126.144 22.3237 126.693 21.9587 127.241 21.6256 127.789 21.2388 128.337 21.0541 128.886 21.047" stroke="#E41A1C" stroke-width="1.4375" stroke-linejoin="round" stroke-miterlimit="10" fill="none" fill-rule="evenodd" transform="matrix(1.00174 0 0 1 58 797)"/><path d="M21.2756 17.7669 28.4681 17.7669" stroke="#377EB8" stroke-width="1.4375" stroke-linejoin="round" stroke-miterlimit="10" fill="none" transform="matrix(1.00174 0 0 1 58 797)"/><path d="M21.2756 31.6831 28.4681 31.6831" stroke="#E41A1C" stroke-width="1.4375" stroke-linejoin="round" stroke-miterlimit="10" fill="none" transform="matrix(1.00174 0 0 1 58 797)"/></g></svg>