<svg width="144" height="115" xmlns="http://www.w3.org/2000/svg" xmlns:xlink="http://www.w3.org/1999/xlink" xml:space="preserve" overflow="hidden"><defs><clipPath id="clip0"><rect x="57" y="629" width="144" height="115"/></clipPath></defs><g clip-path="url(#clip0)" transform="translate(-57 -629)"><path d="M0 0 143.75 0 143.75 115 0 115Z" fill="#FFFFFF" transform="matrix(1.00174 0 0 1 57 629)"/><path d="M0 0 143.75 0 143.75 115 0 115Z" fill="#FFFFFF" transform="matrix(1.00174 0 0 1 57 629)"/><path d="M19.9812 97.4625 130.094 97.4625 130.094 8.625 19.9812 8.625Z" fill="#FFFFFF" transform="matrix(1.00174 0 0 1 57 629)"/><path d="M19.9812 97.4625 130.094 97.4625" stroke="#262626" stroke-width="0.119787" stroke-linecap="square" stroke-linejoin="round" stroke-miterlimit="10" fill="none" transform="matrix(1.00174 0 0 1 57 629)"/><path d="M19.9812 97.4625 19.9812 96.3618" stroke="#262626" stroke-width="0.119787" stroke-linecap="square" stroke-linejoin="round" stroke-miterlimit="10" fill="none" transform="matrix(1.00174 0 0 1 57 629)"/><path d="M51.4419 97.4625 51.4419 96.3618" stroke="#262626" stroke-width="0.119787" stroke-linecap="square" stroke-linejoin="round" stroke-miterlimit="10" fill="none" transform="matrix(1.00174 0 0 1 57 629)"/><path d="M82.9026 97.4625 82.9026 96.3618" stroke="#262626" stroke-width="0.119787" stroke-linecap="square" stroke-linejoin="round" stroke-miterlimit="10" fill="none" transform="matrix(1.00174 0 0 1 57 629)"/><path d="M114.363 97.4625 114.363 96.3618" stroke="#262626" stroke-width="0.119787" stroke-linecap="square" stroke-linejoin="round" stroke-miterlimit="10" fill="none" transform="matrix(1.00174 0 0 1 57 629)"/><path d="M-2.40333 6.92695-2.40333 6.73154C-2.40333 6.43207-2.39771 6.17189-2.38648 5.95102-2.37525 5.73016-2.33855 5.43704-2.27641 5.07167-2.21427 4.70632-2.13004 4.39562-2.02373 4.13955-1.91742 3.88349-1.7527 3.63081-1.52959 3.38149-1.30648 3.13218-1.04144 2.94988-0.734476 2.83458-0.499377 2.74023-0.258294 2.69307-0.0112269 2.69307 0.202893 2.69307 0.409907 2.72227 0.609816 2.78067 0.809715 2.83906 1.02122 2.95436 1.24433 3.12656 1.46744 3.29876 1.66136 3.51963 1.82607 3.78916 1.99079 4.05869 2.12631 4.4293 2.23261 4.90098 2.33893 5.37266 2.39209 5.91321 2.39209 6.52266L2.39209 6.76523C2.39209 7.05723 2.38647 7.31815 2.37524 7.548 2.36401 7.77784 2.3277 8.06984 2.2663 8.42398 2.20491 8.77811 2.11882 9.0832 2.00801 9.33926 1.8972 9.59531 1.73062 9.84426 1.50825 10.0861 1.28589 10.3279 1.02123 10.5072 0.714265 10.624 0.459702 10.7094 0.217872 10.7506-0.0112269 10.7476-0.223862 10.7476-0.428634 10.7202-0.625543 10.6656-0.822441 10.6109-1.03395 10.5012-1.26005 10.3365-1.48616 10.1718-1.6797 9.95543-1.84068 9.6874-2.00165 9.41938-2.13566 9.04764-2.24273 8.57222-2.34979 8.09679-2.40333 7.54837-2.40333 6.92695ZM-1.50489 6.92695C-1.50489 7.44056-1.47007 7.8909-1.40044 8.27797-1.33081 8.66505-1.24658 8.96828-1.14776 9.18765-1.04893 9.40701-0.928385 9.58409-0.78614 9.71885-0.643885 9.85362-0.511736 9.94158-0.389692 9.98276-0.267658 10.0239-0.13776 10.0445 0 10.0445 0.176697 10.0445 0.341784 10.0041 0.495262 9.92323 0.648748 9.84237 0.805978 9.70088 0.966949 9.49873 1.12791 9.29659 1.25593 8.97464 1.35102 8.53291 1.44611 8.09118 1.49365 7.55212 1.49365 6.91573L1.49365 6.2374C1.49365 5.65341 1.44611 5.16303 1.35102 4.7662 1.25593 4.3694 1.12604 4.07816 0.961328 3.89248 0.796619 3.70679 0.637521 3.57952 0.484035 3.51065 0.330549 3.44176 0.165834 3.40732-0.0101056 3.40732-0.186046 3.40732-0.35076 3.44176-0.504246 3.51065-0.657732 3.57952-0.814962 3.70679-0.975933 3.89248-1.1369 4.07816-1.26531 4.37201-1.36114 4.77407-1.45698 5.17612-1.50489 5.66389-1.50489 6.2374L-1.50489 6.92695Z" fill="#262626" transform="matrix(1.00174 0 0 1 77.016 729.242)"/><path d="M-6.93145 6.92695-6.93145 6.73154C-6.93145 6.43207-6.92583 6.17189-6.91461 5.95102-6.90338 5.73016-6.86668 5.43704-6.80454 5.07167-6.74239 4.70632-6.65817 4.39562-6.55185 4.13955-6.44555 3.88349-6.28083 3.63081-6.05771 3.38149-5.8346 3.13218-5.56956 2.94988-5.2626 2.83458-5.0275 2.74023-4.78641 2.69307-4.53935 2.69307-4.32524 2.69307-4.11822 2.72227-3.91831 2.78067-3.71841 2.83906-3.50691 2.95436-3.2838 3.12656-3.06068 3.29876-2.86676 3.51963-2.70205 3.78916-2.53733 4.05869-2.40182 4.4293-2.29551 4.90098-2.1892 5.37266-2.13604 5.91321-2.13604 6.52266L-2.13604 6.76523C-2.13604 7.05723-2.14166 7.31815-2.15289 7.548-2.16411 7.77784-2.20042 8.06984-2.26182 8.42398-2.32322 8.77811-2.40931 9.0832-2.52011 9.33926-2.63093 9.59531-2.7975 9.84426-3.01987 10.0861-3.24224 10.3279-3.5069 10.5072-3.81386 10.624-4.06843 10.7094-4.31026 10.7506-4.53935 10.7476-4.75199 10.7476-4.95676 10.7202-5.15367 10.6656-5.35056 10.6109-5.56208 10.5012-5.78818 10.3365-6.01428 10.1718-6.20783 9.95543-6.3688 9.6874-6.52977 9.41938-6.66379 9.04764-6.77085 8.57222-6.87792 8.09679-6.93145 7.54837-6.93145 6.92695ZM-6.03301 6.92695C-6.03301 7.44056-5.9982 7.8909-5.92857 8.27797-5.85893 8.66505-5.77471 8.96828-5.67588 9.18765-5.57705 9.40701-5.45651 9.58409-5.31426 9.71885-5.17201 9.85362-5.03986 9.94158-4.91782 9.98276-4.79579 10.0239-4.66588 10.0445-4.52812 10.0445-4.35143 10.0445-4.18635 10.0041-4.03286 9.92323-3.87938 9.84237-3.72215 9.70088-3.56118 9.49873-3.40022 9.29659-3.2722 8.97464-3.1771 8.53291-3.08201 8.09118-3.03448 7.55212-3.03448 6.91573L-3.03448 6.2374C-3.03448 5.65341-3.08201 5.16303-3.1771 4.7662-3.2722 4.3694-3.40209 4.07816-3.5668 3.89248-3.73151 3.70679-3.89061 3.57952-4.04409 3.51065-4.19757 3.44176-4.36229 3.40732-4.53823 3.40732-4.71417 3.40732-4.87889 3.44176-5.03237 3.51065-5.18585 3.57952-5.34309 3.70679-5.50406 3.89248-5.66503 4.07816-5.79343 4.37201-5.88926 4.77407-5.9851 5.17612-6.03301 5.66389-6.03301 6.2374L-6.03301 6.92695ZM-0.545804 10.4937-0.545804 9.52792 0.420023 9.52792 0.420023 10.4937-0.545804 10.4937ZM2.57515 4.11933 2.57515 3.45674C3.49604 3.45674 4.22826 3.20219 4.77182 2.69307L4.98969 2.69307 4.98969 9.81318 6.42719 9.81318 6.42719 10.4937 2.63804 10.4937 2.63804 9.81318 4.07554 9.81318 4.07554 3.85654C3.61883 4.03173 3.1187 4.11933 2.57515 4.11933Z" fill="#262626" transform="matrix(1.00174 0 0 1 108.531 729.242)"/><path d="M-6.93145 6.92695-6.93145 6.73154C-6.93145 6.43207-6.92583 6.17189-6.91461 5.95102-6.90338 5.73016-6.86668 5.43704-6.80454 5.07167-6.74239 4.70632-6.65817 4.39562-6.55185 4.13955-6.44555 3.88349-6.28083 3.63081-6.05771 3.38149-5.8346 3.13218-5.56956 2.94988-5.2626 2.83458-5.0275 2.74023-4.78641 2.69307-4.53935 2.69307-4.32524 2.69307-4.11822 2.72227-3.91831 2.78067-3.71841 2.83906-3.50691 2.95436-3.2838 3.12656-3.06068 3.29876-2.86676 3.51963-2.70205 3.78916-2.53733 4.05869-2.40182 4.4293-2.29551 4.90098-2.1892 5.37266-2.13604 5.91321-2.13604 6.52266L-2.13604 6.76523C-2.13604 7.05723-2.14166 7.31815-2.15289 7.548-2.16411 7.77784-2.20042 8.06984-2.26182 8.42398-2.32322 8.77811-2.40931 9.0832-2.52011 9.33926-2.63093 9.59531-2.7975 9.84426-3.01987 10.0861-3.24224 10.3279-3.5069 10.5072-3.81386 10.624-4.06843 10.7094-4.31026 10.7506-4.53935 10.7476-4.75199 10.7476-4.95676 10.7202-5.15367 10.6656-5.35056 10.6109-5.56208 10.5012-5.78818 10.3365-6.01428 10.1718-6.20783 9.95543-6.3688 9.6874-6.52977 9.41938-6.66379 9.04764-6.77085 8.57222-6.87792 8.09679-6.93145 7.54837-6.93145 6.92695ZM-6.03301 6.92695C-6.03301 7.44056-5.9982 7.8909-5.92857 8.27797-5.85893 8.66505-5.77471 8.96828-5.67588 9.18765-5.57705 9.40701-5.45651 9.58409-5.31426 9.71885-5.17201 9.85362-5.03986 9.94158-4.91782 9.98276-4.79579 10.0239-4.66588 10.0445-4.52812 10.0445-4.35143 10.0445-4.18635 10.0041-4.03286 9.92323-3.87938 9.84237-3.72215 9.70088-3.56118 9.49873-3.40022 9.29659-3.2722 8.97464-3.1771 8.53291-3.08201 8.09118-3.03448 7.55212-3.03448 6.91573L-3.03448 6.2374C-3.03448 5.65341-3.08201 5.16303-3.1771 4.7662-3.2722 4.3694-3.40209 4.07816-3.5668 3.89248-3.73151 3.70679-3.89061 3.57952-4.04409 3.51065-4.19757 3.44176-4.36229 3.40732-4.53823 3.40732-4.71417 3.40732-4.87889 3.44176-5.03237 3.51065-5.18585 3.57952-5.34309 3.70679-5.50406 3.89248-5.66503 4.07816-5.79343 4.37201-5.88926 4.77407-5.9851 5.17612-6.03301 5.66389-6.03301 6.2374L-6.03301 6.92695ZM-0.545804 10.4937-0.545804 9.52792 0.420023 9.52792 0.420023 10.4937-0.545804 10.4937ZM2.01362 4.57979C2.38797 3.32198 3.13144 2.69307 4.24399 2.69307 4.98071 2.69307 5.57554 2.93565 6.02852 3.4208 6.48149 3.90596 6.70796 4.48545 6.70796 5.15927 6.70796 5.4288 6.67165 5.674 6.59902 5.89487 6.52639 6.11574 6.38414 6.35046 6.17227 6.59902 5.96039 6.84759 5.77396 7.04862 5.61299 7.20211 5.45202 7.35559 5.17687 7.60452 4.78755 7.94893 4.58241 8.13312 3.96474 8.71335 2.93453 9.68964L6.70796 9.67841 6.70796 10.4937 2.10347 10.4937 2.10347 9.7458 3.60386 8.26338C3.66376 8.20348 3.79552 8.08108 3.99917 7.89614 4.20282 7.71121 4.33833 7.5858 4.40571 7.51992 4.4731 7.45404 4.58915 7.33874 4.75386 7.17402 4.91858 7.00931 5.032 6.88315 5.09414 6.79555 5.15628 6.70796 5.2435 6.5893 5.35581 6.43955 5.46812 6.28981 5.54299 6.15767 5.58042 6.04312 5.61785 5.92857 5.65603 5.79642 5.69497 5.64667 5.7339 5.49694 5.75336 5.3457 5.75336 5.19297 5.75336 4.70182 5.59801 4.28779 5.2873 3.95088 4.9766 3.61398 4.58016 3.44551 4.098 3.44551 3.83595 3.44551 3.60273 3.50465 3.39834 3.62295 3.19394 3.74124 3.04046 3.8865 2.93789 4.05869 2.83533 4.23089 2.75109 4.40309 2.68521 4.57529 2.61933 4.74749 2.57515 4.89499 2.55268 5.01777L2.50776 5.21542 2.01362 4.57979Z" fill="#262626" transform="matrix(1.00174 0 0 1 140.047 729.242)"/><path d="M-6.93145 6.92695-6.93145 6.73154C-6.93145 6.43207-6.92583 6.17189-6.91461 5.95102-6.90338 5.73016-6.86668 5.43704-6.80454 5.07167-6.74239 4.70632-6.65817 4.39562-6.55185 4.13955-6.44555 3.88349-6.28083 3.63081-6.05771 3.38149-5.8346 3.13218-5.56956 2.94988-5.2626 2.83458-5.0275 2.74023-4.78641 2.69307-4.53935 2.69307-4.32524 2.69307-4.11822 2.72227-3.91831 2.78067-3.71841 2.83906-3.50691 2.95436-3.2838 3.12656-3.06068 3.29876-2.86676 3.51963-2.70205 3.78916-2.53733 4.05869-2.40182 4.4293-2.29551 4.90098-2.1892 5.37266-2.13604 5.91321-2.13604 6.52266L-2.13604 6.76523C-2.13604 7.05723-2.14166 7.31815-2.15289 7.548-2.16411 7.77784-2.20042 8.06984-2.26182 8.42398-2.32322 8.77811-2.40931 9.0832-2.52011 9.33926-2.63093 9.59531-2.7975 9.84426-3.01987 10.0861-3.24224 10.3279-3.5069 10.5072-3.81386 10.624-4.06843 10.7094-4.31026 10.7506-4.53935 10.7476-4.75199 10.7476-4.95676 10.7202-5.15367 10.6656-5.35056 10.6109-5.56208 10.5012-5.78818 10.3365-6.01428 10.1718-6.20783 9.95543-6.3688 9.6874-6.52977 9.41938-6.66379 9.04764-6.77085 8.57222-6.87792 8.09679-6.93145 7.54837-6.93145 6.92695ZM-6.03301 6.92695C-6.03301 7.44056-5.9982 7.8909-5.92857 8.27797-5.85893 8.66505-5.77471 8.96828-5.67588 9.18765-5.57705 9.40701-5.45651 9.58409-5.31426 9.71885-5.17201 9.85362-5.03986 9.94158-4.91782 9.98276-4.79579 10.0239-4.66588 10.0445-4.52812 10.0445-4.35143 10.0445-4.18635 10.0041-4.03286 9.92323-3.87938 9.84237-3.72215 9.70088-3.56118 9.49873-3.40022 9.29659-3.2722 8.97464-3.1771 8.53291-3.08201 8.09118-3.03448 7.55212-3.03448 6.91573L-3.03448 6.2374C-3.03448 5.65341-3.08201 5.16303-3.1771 4.7662-3.2722 4.3694-3.40209 4.07816-3.5668 3.89248-3.73151 3.70679-3.89061 3.57952-4.04409 3.51065-4.19757 3.44176-4.36229 3.40732-4.53823 3.40732-4.71417 3.40732-4.87889 3.44176-5.03237 3.51065-5.18585 3.57952-5.34309 3.70679-5.50406 3.89248-5.66503 4.07816-5.79343 4.37201-5.88926 4.77407-5.9851 5.17612-6.03301 5.66389-6.03301 6.2374L-6.03301 6.92695ZM-0.545804 10.4937-0.545804 9.52792 0.420023 9.52792 0.420023 10.4937-0.545804 10.4937ZM2.01362 9.56162 2.13716 8.85859C2.38422 9.18803 2.67435 9.44932 3.00752 9.64248 3.34069 9.83565 3.60386 9.94908 3.79703 9.98276 3.99018 10.0165 4.17437 10.0333 4.34956 10.0333 4.77332 10.0333 5.1151 9.87982 5.3749 9.57286 5.6347 9.26588 5.76461 8.87432 5.76461 8.39815 5.76461 7.95341 5.6392 7.57194 5.38838 7.25375 5.13757 6.93556 4.77108 6.77646 4.28891 6.77646L3.45112 6.77646 3.45112 6.06895C3.63531 6.05397 3.79477 6.03974 3.92954 6.02627 4.0643 6.01279 4.15041 6.00418 4.18784 6.00044 4.22527 5.99669 4.25522 5.99482 4.27768 5.99482 4.64455 5.92744 4.94589 5.74401 5.18174 5.44453 5.41758 5.14506 5.5355 4.81562 5.5355 4.45625 5.5355 4.13431 5.42768 3.87526 5.21206 3.67911 4.99643 3.48295 4.71642 3.38487 4.37203 3.38487 3.6982 3.38487 3.16512 3.67311 2.77281 4.24961 2.72789 4.31699 2.66574 4.42705 2.58638 4.57979L2.17758 3.95088C2.70467 3.11683 3.44363 2.69756 4.39448 2.69307 4.97847 2.69307 5.47186 2.86639 5.87466 3.21304 6.27746 3.5597 6.47886 3.9741 6.47886 4.45625 6.47886 5.28431 6.0521 5.93942 5.19859 6.42159 5.72568 6.60577 6.12398 6.87829 6.39351 7.23916 6.66304 7.60003 6.79781 7.99385 6.79781 8.4206 6.79781 9.04202 6.56571 9.58521 6.10151 10.0502 5.63733 10.5151 5.05708 10.7476 4.36079 10.7476 3.41743 10.7476 2.63504 10.3522 2.01362 9.56162Z" fill="#262626" transform="matrix(1.00174 0 0 1 171.562 729.242)"/><path d="M19.9812 97.4625 19.9812 8.625" stroke="#262626" stroke-width="0.119787" stroke-linecap="square" stroke-linejoin="round" stroke-miterlimit="10" fill="none" transform="matrix(1.00174 0 0 1 57 629)"/><path d="M19.9812 95.145 21.0819 95.145" stroke="#262626" stroke-width="0.119787" stroke-linecap="square" stroke-linejoin="round" stroke-miterlimit="10" fill="none" transform="matrix(1.00174 0 0 1 57 629)"/><path d="M19.9812 56.5201 21.0819 56.5201" stroke="#262626" stroke-width="0.119787" stroke-linecap="square" stroke-linejoin="round" stroke-miterlimit="10" fill="none" transform="matrix(1.00174 0 0 1 57 629)"/><path d="M19.9812 17.895 21.0819 17.895" stroke="#262626" stroke-width="0.119787" stroke-linecap="square" stroke-linejoin="round" stroke-miterlimit="10" fill="none" transform="matrix(1.00174 0 0 1 57 629)"/><path d="M-5.27833-0.476172-5.27833-0.671586C-5.27833-0.971064-5.27271-1.23124-5.26148-1.4521-5.25025-1.67296-5.21355-1.96608-5.15141-2.33145-5.08927-2.69681-5.00504-3.00751-4.89873-3.26357-4.79242-3.51963-4.6277-3.77232-4.40459-4.02164-4.18147-4.27094-3.91644-4.45325-3.60948-4.56855-3.37437-4.66289-3.13329-4.71005-2.88623-4.71005-2.67211-4.71005-2.4651-4.68086-2.26518-4.62245-2.06528-4.56406-1.85379-4.44876-1.63067-4.27656-1.40755-4.10436-1.21364-3.88349-1.04893-3.61396-0.884211-3.34443-0.748697-2.97383-0.64239-2.50214-0.536072-2.03047-0.482914-1.48991-0.482914-0.880469L-0.482914-0.637891C-0.482914-0.345896-0.48853-0.0849754-0.499761 0.144871-0.510992 0.374717-0.547304 0.666712-0.608695 1.02085-0.670086 1.37499-0.756182 1.68008-0.866985 1.93614-0.977798 2.19219-1.14438 2.44113-1.36675 2.68296-1.58911 2.92479-1.85377 3.10409-2.16074 3.22089-2.4153 3.30625-2.65713 3.34743-2.88623 3.34443-3.09886 3.34443-3.30363 3.3171-3.50054 3.26245-3.69744 3.2078-3.90895 3.09811-4.13506 2.93339-4.36116 2.76868-4.5547 2.55231-4.71568 2.28427-4.87665 2.01625-5.01066 1.64451-5.11773 1.16909-5.22479 0.69367-5.27833 0.145249-5.27833-0.476172ZM-4.37989-0.476172C-4.37989 0.0374372-4.34507 0.487777-4.27544 0.874848-4.20581 1.26193-4.12159 1.56515-4.02276 1.78453-3.92393 2.00389-3.80338 2.18096-3.66114 2.31573-3.51888 2.45049-3.38674 2.53845-3.26469 2.57964-3.14266 2.62082-3.01276 2.64141-2.875 2.64141-2.6983 2.64141-2.53322 2.60097-2.37974 2.52011-2.22626 2.43925-2.06902 2.29776-1.90805 2.0956-1.74709 1.89346-1.61907 1.57152-1.52398 1.12979-1.42889 0.688055-1.38135 0.148993-1.38135-0.487399L-1.38135-1.16573C-1.38135-1.74971-1.42889-2.2401-1.52398-2.63692-1.61907-3.03373-1.74896-3.32497-1.91367-3.51065-2.07838-3.69633-2.23748-3.82361-2.39096-3.89248-2.54445-3.96136-2.70917-3.9958-2.88511-3.9958-3.06104-3.9958-3.22576-3.96136-3.37925-3.89248-3.53273-3.82361-3.68996-3.69633-3.85093-3.51065-4.0119-3.32497-4.1403-3.03111-4.23614-2.62906-4.33198-2.227-4.37989-1.73923-4.37989-1.16573L-4.37989-0.476172Z" fill="#262626" transform="matrix(1.00174 0 0 1 74.232 724.145)"/><path d="M-11.062 2.21464-10.6734 1.57451C-10.2437 2.27829-9.64472 2.63018-8.87656 2.63018-8.49472 2.63018-8.14845 2.4823-7.83774 2.18657-7.52702 1.89083-7.37167 1.40606-7.37167 0.732234-7.37167 0.103318-7.48511-0.362749-7.71196-0.665965-7.93881-0.969191-8.21695-1.1208-8.54638-1.1208-9.06598-1.1208-9.48675-0.813836-9.80869-0.199899L-10.5903-0.199899-10.5903-4.44052-6.71583-4.44052-6.71583-3.7038-9.75255-3.7038-9.75255-1.35214C-9.36321-1.66659-8.95367-1.82159-8.52393-1.81709-7.93246-1.81709-7.4196-1.57002-6.98536-1.07588-6.5511-0.581738-6.33398 0.0247106-6.33398 0.743461-6.33398 1.48018-6.58555 2.09786-7.08867 2.59648-7.5918 3.09511-8.18402 3.34443-8.86534 3.34443-9.30407 3.34443-9.7181 3.24224-10.1074 3.03784-10.4967 2.83344-10.8149 2.55905-11.062 2.21464ZM-5.27833-0.476172-5.27833-0.671586C-5.27833-0.971064-5.27271-1.23124-5.26148-1.4521-5.25025-1.67296-5.21355-1.96608-5.15141-2.33145-5.08927-2.69681-5.00504-3.00751-4.89873-3.26357-4.79242-3.51963-4.6277-3.77232-4.40459-4.02164-4.18147-4.27094-3.91644-4.45325-3.60948-4.56855-3.37437-4.66289-3.13329-4.71005-2.88623-4.71005-2.67211-4.71005-2.4651-4.68086-2.26518-4.62245-2.06528-4.56406-1.85379-4.44876-1.63067-4.27656-1.40755-4.10436-1.21364-3.88349-1.04893-3.61396-0.884211-3.34443-0.748697-2.97383-0.64239-2.50214-0.536072-2.03047-0.482914-1.48991-0.482914-0.880469L-0.482914-0.637891C-0.482914-0.345896-0.48853-0.0849754-0.499761 0.144871-0.510992 0.374717-0.547304 0.666712-0.608695 1.02085-0.670086 1.37499-0.756182 1.68008-0.866985 1.93614-0.977798 2.19219-1.14438 2.44113-1.36675 2.68296-1.58911 2.92479-1.85377 3.10409-2.16074 3.22089-2.4153 3.30625-2.65713 3.34743-2.88623 3.34443-3.09886 3.34443-3.30363 3.3171-3.50054 3.26245-3.69744 3.2078-3.90895 3.09811-4.13506 2.93339-4.36116 2.76868-4.5547 2.55231-4.71568 2.28427-4.87665 2.01625-5.01066 1.64451-5.11773 1.16909-5.22479 0.69367-5.27833 0.145249-5.27833-0.476172ZM-4.37989-0.476172C-4.37989 0.0374372-4.34507 0.487777-4.27544 0.874848-4.20581 1.26193-4.12159 1.56515-4.02276 1.78453-3.92393 2.00389-3.80338 2.18096-3.66114 2.31573-3.51888 2.45049-3.38674 2.53845-3.26469 2.57964-3.14266 2.62082-3.01276 2.64141-2.875 2.64141-2.6983 2.64141-2.53322 2.60097-2.37974 2.52011-2.22626 2.43925-2.06902 2.29776-1.90805 2.0956-1.74709 1.89346-1.61907 1.57152-1.52398 1.12979-1.42889 0.688055-1.38135 0.148993-1.38135-0.487399L-1.38135-1.16573C-1.38135-1.74971-1.42889-2.2401-1.52398-2.63692-1.61907-3.03373-1.74896-3.32497-1.91367-3.51065-2.07838-3.69633-2.23748-3.82361-2.39096-3.89248-2.54445-3.96136-2.70917-3.9958-2.88511-3.9958-3.06104-3.9958-3.22576-3.96136-3.37925-3.89248-3.53273-3.82361-3.68996-3.69633-3.85093-3.51065-4.0119-3.32497-4.1403-3.03111-4.23614-2.62906-4.33198-2.227-4.37989-1.73923-4.37989-1.16573L-4.37989-0.476172Z" fill="#262626" transform="matrix(1.00174 0 0 1 74.232 685.52)"/><path d="M-16.2167-3.2838-16.2167-3.94638C-15.2959-3.94638-14.5636-4.20094-14.0201-4.71005L-13.8022-4.71005-13.8022 2.41005-12.3647 2.41005-12.3647 3.09063-16.1539 3.09063-16.1539 2.41005-14.7164 2.41005-14.7164-3.54659C-15.1731-3.3714-15.6732-3.2838-16.2167-3.2838ZM-11.0283-0.476172-11.0283-0.671586C-11.0283-0.971064-11.0227-1.23124-11.0115-1.4521-11.0003-1.67296-10.9636-1.96608-10.9014-2.33145-10.8393-2.69681-10.755-3.00751-10.6487-3.26357-10.5424-3.51963-10.3777-3.77232-10.1546-4.02164-9.93147-4.27094-9.66644-4.45325-9.35948-4.56855-9.12437-4.66289-8.88329-4.71005-8.63623-4.71005-8.42211-4.71005-8.2151-4.68086-8.01518-4.62245-7.81528-4.56406-7.60379-4.44876-7.38067-4.27656-7.15756-4.10436-6.96364-3.88349-6.79893-3.61396-6.63421-3.34443-6.49869-2.97383-6.39239-2.50214-6.28607-2.03047-6.23291-1.48991-6.23291-0.880469L-6.23291-0.637891C-6.23291-0.345896-6.23853-0.0849754-6.24976 0.144871-6.26099 0.374717-6.2973 0.666712-6.3587 1.02085-6.42009 1.37499-6.50618 1.68008-6.61698 1.93614-6.7278 2.19219-6.89438 2.44113-7.11675 2.68296-7.33911 2.92479-7.60377 3.10409-7.91074 3.22089-8.1653 3.30625-8.40713 3.34743-8.63623 3.34443-8.84886 3.34443-9.05363 3.3171-9.25054 3.26245-9.44744 3.2078-9.65895 3.09811-9.88506 2.93339-10.1112 2.76868-10.3047 2.55231-10.4657 2.28427-10.6266 2.01625-10.7607 1.64451-10.8677 1.16909-10.9748 0.69367-11.0283 0.145249-11.0283-0.476172ZM-10.1299-0.476172C-10.1299 0.0374372-10.0951 0.487777-10.0254 0.874848-9.95581 1.26193-9.87158 1.56515-9.77276 1.78453-9.67393 2.00389-9.55338 2.18096-9.41114 2.31573-9.26888 2.45049-9.13673 2.53845-9.01469 2.57964-8.89266 2.62082-8.76276 2.64141-8.625 2.64141-8.4483 2.64141-8.28322 2.60097-8.12974 2.52011-7.97626 2.43925-7.81902 2.29776-7.65805 2.0956-7.49709 1.89346-7.36907 1.57152-7.27398 1.12979-7.17889 0.688055-7.13135 0.148993-7.13135-0.487399L-7.13135-1.16573C-7.13135-1.74971-7.17889-2.2401-7.27398-2.63692-7.36907-3.03373-7.49896-3.32497-7.66367-3.51065-7.82838-3.69633-7.98748-3.82361-8.14096-3.89248-8.29445-3.96136-8.45917-3.9958-8.63511-3.9958-8.81104-3.9958-8.97576-3.96136-9.12925-3.89248-9.28273-3.82361-9.43996-3.69633-9.60093-3.51065-9.7619-3.32497-9.8903-3.03111-9.98614-2.62906-10.082-2.227-10.1299-1.73923-10.1299-1.16573L-10.1299-0.476172ZM-5.27833-0.476172-5.27833-0.671586C-5.27833-0.971064-5.27271-1.23124-5.26148-1.4521-5.25025-1.67296-5.21355-1.96608-5.15141-2.33145-5.08927-2.69681-5.00504-3.00751-4.89873-3.26357-4.79242-3.51963-4.6277-3.77232-4.40459-4.02164-4.18147-4.27094-3.91644-4.45325-3.60948-4.56855-3.37437-4.66289-3.13329-4.71005-2.88623-4.71005-2.67211-4.71005-2.4651-4.68086-2.26518-4.62245-2.06528-4.56406-1.85379-4.44876-1.63067-4.27656-1.40755-4.10436-1.21364-3.88349-1.04893-3.61396-0.884211-3.34443-0.748697-2.97383-0.64239-2.50214-0.536072-2.03047-0.482914-1.48991-0.482914-0.880469L-0.482914-0.637891C-0.482914-0.345896-0.48853-0.0849754-0.499761 0.144871-0.510992 0.374717-0.547304 0.666712-0.608695 1.02085-0.670086 1.37499-0.756182 1.68008-0.866985 1.93614-0.977798 2.19219-1.14438 2.44113-1.36675 2.68296-1.58911 2.92479-1.85377 3.10409-2.16074 3.22089-2.4153 3.30625-2.65713 3.34743-2.88623 3.34443-3.09886 3.34443-3.30363 3.3171-3.50054 3.26245-3.69744 3.2078-3.90895 3.09811-4.13506 2.93339-4.36116 2.76868-4.5547 2.55231-4.71568 2.28427-4.87665 2.01625-5.01066 1.64451-5.11773 1.16909-5.22479 0.69367-5.27833 0.145249-5.27833-0.476172ZM-4.37989-0.476172C-4.37989 0.0374372-4.34507 0.487777-4.27544 0.874848-4.20581 1.26193-4.12159 1.56515-4.02276 1.78453-3.92393 2.00389-3.80338 2.18096-3.66114 2.31573-3.51888 2.45049-3.38674 2.53845-3.26469 2.57964-3.14266 2.62082-3.01276 2.64141-2.875 2.64141-2.6983 2.64141-2.53322 2.60097-2.37974 2.52011-2.22626 2.43925-2.06902 2.29776-1.90805 2.0956-1.74709 1.89346-1.61907 1.57152-1.52398 1.12979-1.42889 0.688055-1.38135 0.148993-1.38135-0.487399L-1.38135-1.16573C-1.38135-1.74971-1.42889-2.2401-1.52398-2.63692-1.61907-3.03373-1.74896-3.32497-1.91367-3.51065-2.07838-3.69633-2.23748-3.82361-2.39096-3.89248-2.54445-3.96136-2.70917-3.9958-2.88511-3.9958-3.06104-3.9958-3.22576-3.96136-3.37925-3.89248-3.53273-3.82361-3.68996-3.69633-3.85093-3.51065-4.0119-3.32497-4.1403-3.03111-4.23614-2.62906-4.33198-2.227-4.37989-1.73923-4.37989-1.16573L-4.37989-0.476172Z" fill="#262626" transform="matrix(1.00174 0 0 1 74.232 646.895)"/><path d="M23.7918 95.0564 24.3362 95.0173 24.8805 94.9326 25.4249 94.9282 25.9693 94.9375 26.5137 94.8911 27.0581 94.7804 27.6024 94.8066 28.1468 94.7988 28.6911 94.7216 29.2354 94.6233 29.7798 94.6342 30.3242 94.5848 30.8686 94.5553 31.413 94.5234 31.9573 94.4906 32.5017 94.4325 33.0461 94.4029 33.5905 94.4501 34.1349 94.354 34.6793 94.3338 35.2235 94.3355 35.7679 94.3059 36.3123 94.2127 36.8566 94.2293 37.401 94.2057 37.9454 94.0982 38.4898 94.0226 39.0342 94.0342 39.5785 93.9914 40.1229 93.9967 40.6672 93.8775 41.2115 93.8036 41.7559 93.7878 42.3003 93.725 42.8447 93.6605 43.3891 93.6359 43.9334 93.655 44.4778 93.5322 45.0222 93.4686 45.5666 93.4582 46.111 93.4003 46.6554 93.3905 47.1996 93.3301 47.744 93.3241 48.2884 93.3512 48.8327 93.2864 49.3771 93.2876 49.9215 93.2417 50.4659 93.1864 51.0103 93.1451 51.5546 93.1033 52.099 93.0705 52.6433 93.0241 53.1876 93.0084 53.732 92.973 54.2764 92.8759 54.8208 92.96 55.3652 92.8898 55.9095 92.8642 56.4539 92.8622 56.9983 92.7482 57.5427 92.7465 58.0869 92.8314 58.6313 92.6565 59.1757 92.6746 59.7201 92.7489 60.2645 92.572 60.8088 92.6968 61.3532 92.6798 61.8976 92.6094 62.442 92.5973 62.9864 92.4879 63.5307 92.458 64.0751 92.4646 64.6194 92.4876 65.1637 92.4965 65.7081 92.4545 66.2525 92.3898 66.7969 92.3907 67.3413 92.2681 67.8856 92.2623 68.43 92.3338 68.9744 92.2281 69.5188 92.2842 70.0632 92.3165 70.6074 92.2228 71.1518 92.2179 71.6962 92.2268 72.2406 92.11 72.7849 92.0564 73.3293 92.0748 73.8737 92.0595 74.4181 91.9935 74.9625 91.9127 75.5068 91.8774 76.0512 91.9114 76.5955 91.9064 77.1398 91.8335 77.6842 91.8229 78.2286 91.7931 78.773 91.6735 79.3174 91.6981 79.8617 91.6146 80.4061 91.5583 80.9505 91.5269 81.4949 91.5867 82.0393 91.5337 82.5835 91.5685 83.1279 91.5102 83.6723 91.4644 84.2167 91.4115 84.761 91.3275 85.3054 91.445 85.8498 91.3308 86.3942 91.3188 86.9386 91.219 87.4828 91.1652 88.0272 91.1716 88.5716 91.2048 89.1159 91.1204 89.6603 91.1099 90.2047 91.1819 90.7491 91.0495 91.2935 91.014 91.8379 91.0031 92.3822 90.9638 92.9266 90.9226 93.4708 90.9191 94.0152 90.895 94.5596 90.9305 95.104 90.8815 95.6484 90.8212 96.1928 90.825 96.7371 90.7722 97.2815 90.8234 97.8259 90.7153 98.3703 90.6286 98.9147 90.7175 99.4589 90.6275 100.003 90.6426 100.548 90.5041 101.092 90.4558 101.636 90.433 102.181 90.4412 102.725 90.3677 103.27 90.3945 103.814 90.3451 104.358 90.2747 104.903 90.3237 105.447 90.2432 105.991 90.2845 106.536 90.2264 107.08 90.1929 107.624 90.2152 108.169 90.18 108.713 90.1691 109.258 90.0473 109.802 90.0388 110.346 90.0762 110.891 90.0694 111.435 89.9937 111.979 89.924 112.524 89.9138 113.068 89.8731 113.613 89.8637 114.157 89.8154 114.701 89.7924 115.246 89.765 115.79 89.674 116.334 89.6309 116.879 89.6297 117.423 89.6102 117.967 89.5626 118.512 89.5407 119.056 89.4837 119.601 89.5043 120.145 89.409 120.689 89.3954 121.234 89.356 121.778 89.3705 122.322 89.3669 122.867 89.2764 123.411 89.2585 123.955 89.3593 124.5 89.2502 125.044 89.2616 125.589 89.1558 126.133 89.1947 126.677 89.2065 127.222 89.2733 127.766 89.1283 128.311 89.0975 128.855 89.0899 129.399 88.9709 129.944 89.0494 130.107 89.0104 130.107 88.9373 130.107 88.9193 130.107 88.8989 130.107 88.8913 130.107 88.8458 130.107 88.8351 130.107 88.827 130.107 88.8248 130.107 88.7547 130.107 88.733 130.107 88.7297 130.107 88.6923 130.107 88.6478 130.107 88.6365 130.107 88.6197 130.107 88.5878 130.107 88.5133 130.107 88.5103 130.107 88.489 130.107 88.4517 130.107 88.4252 130.107 88.4029 130.107 88.3482 129.944 88.322 129.399 88.3914 128.855 88.363 128.311 88.5008 127.766 88.4504 127.222 88.4847 126.677 88.5983 126.133 88.4376 125.589 88.5933 125.044 88.6196 124.5 88.6397 123.955 88.6189 123.411 88.734 122.867 88.7429 122.322 88.7012 121.778 88.7304 121.234 88.8075 120.689 88.8355 120.145 88.8756 119.601 88.9225 119.056 88.8486 118.512 88.9174 117.967 89.0697 117.423 88.9726 116.879 89.1228 116.334 89.2315 115.79 89.0275 115.246 89.0988 114.701 89.1378 114.157 89.2821 113.613 89.1894 113.068 89.257 112.524 89.3636 111.979 89.2854 111.435 89.3411 110.891 89.4063 110.346 89.3997 109.802 89.4798 109.258 89.4047 108.713 89.5045 108.169 89.5729 107.624 89.5038 107.08 89.5836 106.536 89.6327 105.991 89.7075 105.447 89.5768 104.903 89.7183 104.358 89.7747 103.814 89.7611 103.27 89.7528 102.725 89.8337 102.181 89.766 101.636 89.855 101.092 89.818 100.548 89.9565 100.003 89.903 99.4589 89.9787 98.9147 89.9976 98.3703 90.0424 97.8259 89.9757 97.2815 90.0398 96.7371 90.087 96.1928 90.1242 95.6484 90.0459 95.104 90.1818 94.5596 90.1351 94.0152 90.131 93.4708 90.2634 92.9266 90.2618 92.3822 90.325 91.8379 90.3558 91.2935 90.3311 90.7491 90.3758 90.2047 90.4106 89.6603 90.4071 89.1159 90.4098 88.5716 90.5507 88.0272 90.389 87.4828 90.5166 86.9386 90.548 86.3942 90.5992 85.8498 90.4844 85.3054 90.6499 84.761 90.5727 84.2167 90.6924 83.6723 90.6643 83.1279 90.6923 82.5835 90.7524 82.0393 90.7556 81.4949 90.7965 80.9505 90.8122 80.4061 90.8277 79.8617 90.9294 79.3174 90.9051 78.773 90.968 78.2286 91.0638 77.6842 91.064 77.1398 91.1424 76.5955 91.1167 76.0512 91.1026 75.5068 91.103 74.9625 91.1259 74.4181 91.2634 73.8737 91.234 73.3293 91.3296 72.7849 91.3882 72.2406 91.4355 71.6962 91.4734 71.1518 91.5232 70.6074 91.4644 70.0632 91.569 69.5188 91.4815 68.9744 91.5647 68.43 91.4885 67.8856 91.6015 67.3413 91.685 66.7969 91.6429 66.2525 91.6091 65.7081 91.6789 65.1637 91.7305 64.6194 91.7213 64.0751 91.6684 63.5307 91.8371 62.9864 91.7931 62.442 91.7848 61.8976 91.8036 61.3532 91.9086 60.8088 91.8318 60.2645 91.9367 59.7201 92.0085 59.1757 91.8994 58.6313 91.9349 58.0869 91.9632 57.5427 91.9487 56.9983 92.0267 56.4539 92.0457 55.9095 92.0154 55.3652 92.0681 54.8208 92.144 54.2764 92.1264 53.732 92.204 53.1876 92.1814 52.6433 92.2304 52.099 92.3219 51.5546 92.3493 51.0103 92.4039 50.4659 92.4268 49.9215 92.4826 49.3771 92.5473 48.8327 92.488 48.2884 92.5386 47.744 92.5438 47.1996 92.6462 46.6554 92.6559 46.111 92.7228 45.5666 92.8441 45.0222 92.7912 44.4778 92.8123 43.9334 92.9232 43.3891 92.8694 42.8447 92.9269 42.3003 92.9335 41.7559 93.0146 41.2115 93.0449 40.6672 93.1585 40.1229 93.2638 39.5785 93.2413 39.0342 93.2085 38.4898 93.3912 37.9454 93.3231 37.401 93.3349 36.8566 93.4655 36.3123 93.4461 35.7679 93.5019 35.2235 93.5214 34.6793 93.5994 34.1349 93.6764 33.5905 93.6783 33.0461 93.7513 32.5017 93.7435 31.9573 93.7799 31.413 93.9058 30.8686 93.8591 30.3242 93.9488 29.7798 93.9837 29.2354 94.0174 28.6911 94.0574 28.1468 94.085 27.6024 94.1501 27.0581 94.1626 26.5137 94.2309 25.9693 94.2241 25.4249 94.2967 24.8805 94.2836 24.3362 94.3392 23.7918 94.4108 23.2474 94.4826 22.703 94.6217 22.1588 94.5465 21.6144 94.5445 21.07 94.6827 20.5256 94.8442 19.9812 94.8284 19.9812 95.5088 20.5256 95.4681 21.07 95.4404 21.6144 95.2157 22.1588 95.1805 22.703 95.1659 23.2474 95.107Z" fill="#377EB8" fill-opacity="0.2" transform="matrix(1.00174 0 0 1 57 629)"/><path d="M19.9812 95.5088 20.5256 95.4681 21.07 95.4404 21.6144 95.2157 22.1588 95.1805 22.703 95.1659 23.2474 95.107 23.7918 95.0564 24.3362 95.0173 24.8805 94.9326 25.4249 94.9282 25.9693 94.9375 26.5137 94.8911 27.0581 94.7804 27.6024 94.8066 28.1468 94.7988 28.6911 94.7216 29.2354 94.6233 29.7798 94.6342 30.3242 94.5848 30.8686 94.5553 31.413 94.5234 31.9573 94.4906 32.5017 94.4325 33.0461 94.4029 33.5905 94.4501 34.1349 94.354 34.6793 94.3338 35.2235 94.3355 35.7679 94.3059 36.3123 94.2127 36.8566 94.2293 37.401 94.2057 37.9454 94.0982 38.4898 94.0226 39.0342 94.0342 39.5785 93.9914 40.1229 93.9967 40.6672 93.8775 41.2115 93.8036 41.7559 93.7878 42.3003 93.725 42.8447 93.6605 43.3891 93.6359 43.9334 93.655 44.4778 93.5322 45.0222 93.4686 45.5666 93.4582 46.111 93.4003 46.6554 93.3905 47.1996 93.3301 47.744 93.3241 48.2884 93.3512 48.8327 93.2864 49.3771 93.2876 49.9215 93.2417 50.4659 93.1864 51.0103 93.1451 51.5546 93.1033 52.099 93.0705 52.6433 93.0241 53.1876 93.0084 53.732 92.973 54.2764 92.8759 54.8208 92.96 55.3652 92.8898 55.9095 92.8642 56.4539 92.8622 56.9983 92.7482 57.5427 92.7465 58.0869 92.8314 58.6313 92.6565 59.1757 92.6746 59.7201 92.7489 60.2645 92.572 60.8088 92.6968 61.3532 92.6798 61.8976 92.6094 62.442 92.5973 62.9864 92.4879 63.5307 92.458 64.0751 92.4646 64.6194 92.4876 65.1637 92.4965 65.7081 92.4545 66.2525 92.3898 66.7969 92.3907 67.3413 92.2681 67.8856 92.2623 68.43 92.3338 68.9744 92.2281 69.5188 92.2842 70.0632 92.3165 70.6074 92.2228 71.1518 92.2179 71.6962 92.2268 72.2406 92.11 72.7849 92.0564 73.3293 92.0748 73.8737 92.0595 74.4181 91.9935 74.9625 91.9127 75.5068 91.8774 76.0512 91.9114 76.5955 91.9064 77.1398 91.8335 77.6842 91.8229 78.2286 91.7931 78.773 91.6735 79.3174 91.6981 79.8617 91.6146 80.4061 91.5583 80.9505 91.5269 81.4949 91.5867 82.0393 91.5337 82.5835 91.5685 83.1279 91.5102 83.6723 91.4644 84.2167 91.4115 84.761 91.3275 85.3054 91.445 85.8498 91.3308 86.3942 91.3188 86.9386 91.219 87.4828 91.1652 88.0272 91.1716 88.5716 91.2048 89.1159 91.1204 89.6603 91.1099 90.2047 91.1819 90.7491 91.0495 91.2935 91.014 91.8379 91.0031 92.3822 90.9638 92.9266 90.9226 93.4708 90.9191 94.0152 90.895 94.5596 90.9305 95.104 90.8815 95.6484 90.8212 96.1928 90.825 96.7371 90.7722 97.2815 90.8234 97.8259 90.7153 98.3703 90.6286 98.9147 90.7175 99.4589 90.6275 100.003 90.6426 100.548 90.5041 101.092 90.4558 101.636 90.433 102.181 90.4412 102.725 90.3677 103.27 90.3945 103.814 90.3451 104.358 90.2747 104.903 90.3237 105.447 90.2432 105.991 90.2845 106.536 90.2264 107.08 90.1929 107.624 90.2152 108.169 90.18 108.713 90.1691 109.258 90.0473 109.802 90.0388 110.346 90.0762 110.891 90.0694 111.435 89.9937 111.979 89.924 112.524 89.9138 113.068 89.8731 113.613 89.8637 114.157 89.8154 114.701 89.7924 115.246 89.765 115.79 89.674 116.334 89.6309 116.879 89.6297 117.423 89.6102 117.967 89.5626 118.512 89.5407 119.056 89.4837 119.601 89.5043 120.145 89.409 120.689 89.3954 121.234 89.356 121.778 89.3705 122.322 89.3669 122.867 89.2764 123.411 89.2585 123.955 89.3593 124.5 89.2502 125.044 89.2616 125.589 89.1558 126.133 89.1947 126.677 89.2065 127.222 89.2733 127.766 89.1283 128.311 89.0975 128.855 89.0899 129.399 88.9709 129.944 89.0494 130.107 89.0104" stroke="#A5C5DF" stroke-width="0.119787" stroke-linejoin="round" stroke-miterlimit="10" fill="none" fill-rule="evenodd" transform="matrix(1.00174 0 0 1 57 629)"/><path d="M19.9812 94.8284 20.5256 94.8442 21.07 94.6827 21.6144 94.5445 22.1588 94.5465 22.703 94.6217 23.2474 94.4826 23.7918 94.4108 24.3362 94.3392 24.8805 94.2836 25.4249 94.2967 25.9693 94.2241 26.5137 94.2309 27.0581 94.1626 27.6024 94.1501 28.1468 94.085 28.6911 94.0574 29.2354 94.0174 29.7798 93.9837 30.3242 93.9488 30.8686 93.8591 31.413 93.9058 31.9573 93.7799 32.5017 93.7435 33.0461 93.7513 33.5905 93.6783 34.1349 93.6764 34.6793 93.5994 35.2235 93.5214 35.7679 93.5019 36.3123 93.4461 36.8566 93.4655 37.401 93.3349 37.9454 93.3231 38.4898 93.3912 39.0342 93.2085 39.5785 93.2413 40.1229 93.2638 40.6672 93.1585 41.2115 93.0449 41.7559 93.0146 42.3003 92.9335 42.8447 92.9269 43.3891 92.8694 43.9334 92.9232 44.4778 92.8123 45.0222 92.7912 45.5666 92.8441 46.111 92.7228 46.6554 92.6559 47.1996 92.6462 47.744 92.5438 48.2884 92.5386 48.8327 92.488 49.3771 92.5473 49.9215 92.4826 50.4659 92.4268 51.0103 92.4039 51.5546 92.3493 52.099 92.3219 52.6433 92.2304 53.1876 92.1814 53.732 92.204 54.2764 92.1264 54.8208 92.144 55.3652 92.0681 55.9095 92.0154 56.4539 92.0457 56.9983 92.0267 57.5427 91.9487 58.0869 91.9632 58.6313 91.9349 59.1757 91.8994 59.7201 92.0085 60.2645 91.9367 60.8088 91.8318 61.3532 91.9086 61.8976 91.8036 62.442 91.7848 62.9864 91.7931 63.5307 91.8371 64.0751 91.6684 64.6194 91.7213 65.1637 91.7305 65.7081 91.6789 66.2525 91.6091 66.7969 91.6429 67.3413 91.685 67.8856 91.6015 68.43 91.4885 68.9744 91.5647 69.5188 91.4815 70.0632 91.569 70.6074 91.4644 71.1518 91.5232 71.6962 91.4734 72.2406 91.4355 72.7849 91.3882 73.3293 91.3296 73.8737 91.234 74.4181 91.2634 74.9625 91.1259 75.5068 91.103 76.0512 91.1026 76.5955 91.1167 77.1398 91.1424 77.6842 91.064 78.2286 91.0638 78.773 90.968 79.3174 90.9051 79.8617 90.9294 80.4061 90.8277 80.9505 90.8122 81.4949 90.7965 82.0393 90.7556 82.5835 90.7524 83.1279 90.6923 83.6723 90.6643 84.2167 90.6924 84.761 90.5727 85.3054 90.6499 85.8498 90.4844 86.3942 90.5992 86.9386 90.548 87.4828 90.5166 88.0272 90.389 88.5716 90.5507 89.1159 90.4098 89.6603 90.4071 90.2047 90.4106 90.7491 90.3758 91.2935 90.3311 91.8379 90.3558 92.3822 90.325 92.9266 90.2618 93.4708 90.2634 94.0152 90.131 94.5596 90.1351 95.104 90.1818 95.6484 90.0459 96.1928 90.1242 96.7371 90.087 97.2815 90.0398 97.8259 89.9757 98.3703 90.0424 98.9147 89.9976 99.4589 89.9787 100.003 89.903 100.548 89.9565 101.092 89.818 101.636 89.855 102.181 89.766 102.725 89.8337 103.27 89.7528 103.814 89.7611 104.358 89.7747 104.903 89.7183 105.447 89.5768 105.991 89.7075 106.536 89.6327 107.08 89.5836 107.624 89.5038 108.169 89.5729 108.713 89.5045 109.258 89.4047 109.802 89.4798 110.346 89.3997 110.891 89.4063 111.435 89.3411 111.979 89.2854 112.524 89.3636 113.068 89.257 113.613 89.1894 114.157 89.2821 114.701 89.1378 115.246 89.0988 115.79 89.0275 116.334 89.2315 116.879 89.1228 117.423 88.9726 117.967 89.0697 118.512 88.9174 119.056 88.8486 119.601 88.9225 120.145 88.8756 120.689 88.8355 121.234 88.8075 121.778 88.7304 122.322 88.7012 122.867 88.7429 123.411 88.734 123.955 88.6189 124.5 88.6397 125.044 88.6196 125.589 88.5933 126.133 88.4376 126.677 88.5983 127.222 88.4847 127.766 88.4504 128.311 88.5008 128.855 88.363 129.399 88.3914 129.944 88.322 130.107 88.3482" stroke="#A5C5DF" stroke-width="0.119787" stroke-linejoin="round" stroke-miterlimit="10" fill="none" fill-rule="evenodd" transform="matrix(1.00174 0 0 1 57 629)"/><path d="M19.9812 95.145 20.5256 95.1366 21.07 95.0131 21.6144 94.8421 22.1588 94.8218 22.703 94.859 23.2474 94.7889 23.7918 94.72 24.3362 94.6772 24.8805 94.6165 25.4249 94.5807 25.9693 94.5366 26.5137 94.5048 27.0581 94.4393 27.6024 94.412 28.1468 94.3737 28.6911 94.3533 29.2354 94.3036 29.7798 94.2776 30.3242 94.253 30.8686 94.2129 31.413 94.1928 31.9573 94.132 32.5017 94.1206 33.0461 94.0957 33.5905 94.0595 34.1349 94.0206 34.6793 93.983 35.2235 93.9343 35.7679 93.9231 36.3123 93.8581 36.8566 93.8361 37.401 93.7789 37.9454 93.7479 38.4898 93.6856 39.0342 93.6528 39.5785 93.5984 40.1229 93.5526 40.6672 93.5087 41.2115 93.4297 41.7559 93.3919 42.3003 93.3379 42.8447 93.2945 43.3891 93.2588 43.9334 93.2469 44.4778 93.1851 45.0222 93.1339 45.5666 93.1227 46.111 93.06 46.6554 93.0146 47.1996 92.9914 47.744 92.9493 48.2884 92.9265 48.8327 92.8989 49.3771 92.8668 49.9215 92.8231 50.4659 92.764 51.0103 92.745 51.5546 92.6894 52.099 92.6794 52.6433 92.6378 53.1876 92.6027 53.732 92.5769 54.2764 92.5192 54.8208 92.5102 55.3652 92.4928 55.9095 92.4596 56.4539 92.4379 56.9983 92.3927 57.5427 92.3532 58.0869 92.3722 58.6313 92.3497 59.1757 92.316 59.7201 92.3098 60.2645 92.2654 60.8088 92.2467 61.3532 92.247 61.8976 92.2069 62.442 92.1678 62.9864 92.158 63.5307 92.1413 64.0751 92.1069 64.6194 92.0949 65.1637 92.0735 65.7081 92.0401 66.2525 91.976 66.7969 92.0032 67.3413 91.9697 67.8856 91.9379 68.43 91.9097 68.9744 91.8831 69.5188 91.8751 70.0632 91.8534 70.6074 91.8248 71.1518 91.8032 71.6962 91.7721 72.2406 91.7418 72.7849 91.6873 73.3293 91.6653 73.8737 91.6119 74.4181 91.5795 74.9625 91.5409 75.5068 91.492 76.0512 91.4766 76.5955 91.4509 77.1398 91.3787 77.6842 91.3485 78.2286 91.3399 78.773 91.2765 79.3174 91.2588 79.8617 91.2121 80.4061 91.1543 80.9505 91.1276 81.4949 91.1213 82.0393 91.1064 82.5835 91.0742 83.1279 91.039 83.6723 91.014 84.2167 90.9929 84.761 90.9252 85.3054 90.916 85.8498 90.8631 86.3942 90.867 86.9386 90.8093 87.4828 90.7836 88.0272 90.758 88.5716 90.7336 89.1159 90.7039 89.6603 90.668 90.2047 90.6782 90.7491 90.6232 91.2935 90.6148 91.8379 90.5831 92.3822 90.5713 92.9266 90.5227 93.4708 90.5286 94.0152 90.4893 94.5596 90.4416 95.104 90.4425 95.6484 90.4034 96.1928 90.3817 96.7371 90.3706 97.2815 90.3338 97.8259 90.2846 98.3703 90.3184 98.9147 90.2517 99.4589 90.2319 100.003 90.2263 100.548 90.2028 101.092 90.135 101.636 90.1321 102.181 90.135 102.725 90.0996 103.27 90.0726 103.814 90.0676 104.358 90.0069 104.903 90.0075 105.447 89.9493 105.991 89.9264 106.536 89.9161 107.08 89.88 107.624 89.8669 108.169 89.8383 108.713 89.7956 109.258 89.7677 109.802 89.7322 110.346 89.7119 110.891 89.7239 111.435 89.6551 111.979 89.6221 112.524 89.6171 113.068 89.5771 113.613 89.548 114.157 89.5182 114.701 89.5059 115.246 89.4637 115.79 89.3997 116.334 89.432 116.879 89.3564 117.423 89.3526 117.967 89.3287 118.512 89.2524 119.056 89.221 119.601 89.2305 120.145 89.1719 120.689 89.1604 121.234 89.1033 121.778 89.0698 122.322 89.0495 122.867 89.0045 123.411 89.0047 123.955 88.9846 124.5 88.9335 125.044 88.8869 125.589 88.8785 126.133 88.83 126.677 88.8207 127.222 88.7832 127.766 88.7632 128.311 88.7293 128.855 88.7277 129.399 88.6367 129.944 88.6301 130.107 88.6214" stroke="#377EB8" stroke-width="1.4375" stroke-linejoin="round" stroke-miterlimit="10" fill="none" fill-rule="evenodd" transform="matrix(1.00174 0 0 1 57 629)"/><path d="M27.0272 93.9901 27.5692 93.587 28.1112 93.2567 28.6533 92.7683 29.1952 92.5444 29.7371 92.0568 30.2792 91.7483 30.8211 91.2923 31.3631 91.0303 31.9052 90.5457 32.4471 90.1083 32.9892 89.9629 33.5311 89.5803 34.0732 89.172 34.6151 88.8566 35.1571 88.4834 35.6992 88.0485 36.2411 87.7387 36.7832 87.3372 37.3251 86.9892 37.8671 86.5617 38.4091 86.2224 38.9511 85.8176 39.4932 85.4092 40.0351 85.0638 40.577 84.6137 41.1191 84.2685 41.661 83.9612 42.2031 83.487 42.7451 83.2693 43.287 82.8566 43.8291 82.5237 44.371 82.2323 44.9131 81.9044 45.455 81.4569 45.997 81.1253 46.5391 80.7159 47.081 80.2555 47.6231 79.8691 48.165 79.5025 48.7071 79.2261 49.249 78.7293 49.791 78.2993 50.3331 77.8757 50.875 77.3808 51.4171 76.9683 51.959 76.5173 52.5009 76.0745 53.043 75.6618 53.585 75.2521 54.1271 74.796 54.669 74.9708 55.2109 74.1823 55.753 73.7028 56.2949 73.2551 56.837 72.8626 57.379 72.3804 57.9209 71.9167 58.463 71.4738 59.0049 71.192 59.547 70.7039 60.0889 70.2935 60.6309 69.7774 61.173 69.4233 61.7149 69.0946 62.257 68.5978 62.7989 68.1171 63.3408 68.3242 63.8829 67.7672 64.4249 67.1675 64.9669 66.7231 65.5089 66.3012 66.0508 65.8662 66.5929 65.3625 67.1348 64.9751 67.6769 64.5331 68.2189 64.2747 68.7608 63.818 69.3029 63.6912 69.8448 63.2688 70.3869 62.7119 70.9288 62.2699 71.4709 61.8056 72.0129 61.4497 72.5548 61.0035 73.0969 60.5967 73.6388 60.1568 74.1809 59.7724 74.7228 59.3193 75.2648 58.977 75.8068 58.5254 76.3488 58.1482 76.8909 57.8484 77.4328 57.4326 77.9747 57.1354 78.5168 56.7127 79.0588 56.3588 79.6008 55.9609 80.1428 55.7291 80.6849 55.3366 81.2268 54.7951 81.7687 54.4352 82.3108 53.9915 82.8528 53.5273 83.3948 53.0225 83.9368 52.7252 84.4787 52.3286 85.0208 51.9484 85.5627 51.5416 86.1048 51.0603 86.6468 50.6139 87.1887 50.3617 87.7308 50.0128 88.2727 49.6074 88.8146 49.2809 89.3567 48.8014 89.8987 48.4305 90.4407 48.043 90.9827 47.5286 91.5246 47.1627 92.0667 46.7403 92.6086 46.3697 93.1507 45.9792 93.6927 45.6024 94.2347 45.2137 94.7767 44.7199 95.3186 44.3776 95.8607 44.0253 96.4026 43.7062 96.9447 43.1808 97.4866 42.7264 98.0286 42.4169 98.5707 42.3249 99.1126 41.9123 99.6547 41.3859 100.197 40.9981 100.739 40.555 101.281 40.0893 101.823 39.6414 102.365 39.2064 102.907 38.8481 103.449 38.3114 103.991 37.8619 104.533 37.5491 105.075 37.1574 105.617 36.7189 106.159 36.27 106.701 35.8686 107.243 35.3931 107.785 35.0501 108.327 34.5825 108.868 34.1445 109.411 33.7534 109.953 33.412 110.495 32.9797 111.037 32.6084 111.578 32.1996 112.121 31.7942 112.662 31.4663 113.205 31.1025 113.746 30.6377 114.289 30.2395 114.831 29.828 115.372 29.5314 115.915 29.0987 116.456 28.6722 116.999 28.375 117.54 28.0097 118.082 27.5899 118.625 27.1872 119.166 26.8811 119.709 26.4684 120.25 26.0903 120.792 25.7406 121.334 25.328 121.876 24.9376 122.419 24.5216 122.96 24.1522 123.503 23.8461 124.044 23.4205 124.586 23.0283 125.128 22.633 125.67 22.3008 126.212 22.7815 126.754 22.169 127.296 21.6421 127.838 21.1741 128.38 20.9871 128.922 20.9846 128.922 8.88582 128.38 8.89958 127.838 9.13751 127.296 8.89371 126.754 9.33248 126.212 9.66234 125.67 10.1234 125.128 10.4645 124.586 10.9238 124.044 11.3618 123.503 11.6564 122.96 12.0728 122.419 12.4678 121.876 12.7273 121.334 13.1989 120.792 13.6525 120.25 14.008 119.709 14.4125 119.166 14.8032 118.625 15.2385 118.082 15.5726 117.54 15.9827 116.999 16.4605 116.456 16.7771 115.915 17.2818 115.372 17.645 114.831 17.968 114.289 18.407 113.746 18.7967 113.205 19.1261 112.662 19.6171 112.121 20.039 111.578 20.4617 111.037 20.8992 110.495 21.2884 109.953 21.6109 109.411 22.0316 108.868 22.5696 108.327 22.9179 107.785 23.458 107.243 23.7863 106.701 24.2472 106.159 24.6143 105.617 25.0644 105.075 25.5122 104.533 25.8885 103.991 26.3305 103.449 26.7835 102.907 27.1452 102.365 27.5623 101.823 28.0491 101.281 28.4547 100.739 28.9165 100.197 29.2428 99.6547 29.7722 99.1126 30.1705 98.5707 30.6826 98.0286 31.0327 97.4866 31.5284 96.9447 32.1849 96.4026 32.067 95.8607 32.5 95.3186 32.8727 94.7767 33.3913 94.2347 33.7088 93.6927 34.2013 93.1507 34.6271 92.6086 35.0974 92.0667 35.5826 91.5246 35.954 90.9827 36.4477 90.4407 36.8816 89.8987 37.3306 89.3567 37.8403 88.8146 38.2739 88.2727 38.7162 87.7308 39.0968 87.1887 39.6612 86.6468 40.0756 86.1048 40.808 85.5627 41.241 85.0208 40.8257 84.4787 41.3388 83.9368 41.765 83.3948 42.2162 82.8528 42.706 82.3108 43.1016 81.7687 43.5184 81.2268 44.0171 80.6849 44.5018 80.1428 44.9557 79.6008 45.3626 79.0588 45.8187 78.5168 46.1968 77.9747 46.6542 77.4328 47.1085 76.8909 47.6698 76.3488 48.3581 75.8068 48.0936 75.2648 48.4609 74.7228 48.9247 74.1809 49.3136 73.6388 49.8124 73.0969 50.2718 72.5548 50.6582 72.0129 51.0978 71.4709 51.5056 70.9288 51.9408 70.3869 52.2461 69.8448 52.6999 69.3029 53.228 68.7608 53.5646 68.2189 53.9939 67.6769 54.4227 67.1348 54.8964 66.5929 55.3167 66.0508 55.6501 65.5089 56.297 64.9669 56.4436 64.4249 56.8037 63.8829 57.1109 63.3408 57.6343 62.7989 58.0142 62.257 58.3087 61.7149 58.7488 61.173 59.1214 60.6309 59.6193 60.0889 60.031 59.547 60.5238 59.0049 61.0394 58.463 61.4068 57.9209 61.8375 57.379 62.2936 56.837 62.6971 56.2949 63.1658 55.753 63.5647 55.2109 63.9311 54.669 64.4358 54.1271 64.8176 53.585 65.2645 53.043 65.776 52.5009 66.1704 51.959 66.5872 51.4171 66.9876 50.875 67.3295 50.3331 67.9075 49.791 68.4115 49.249 68.8347 48.7071 69.3604 48.165 69.7014 47.6231 70.2269 47.081 70.6163 46.5391 71.0874 45.997 71.5576 45.455 72.0775 44.9131 72.4907 44.371 72.9559 43.8291 73.389 43.287 73.9421 42.7451 74.3655 42.2031 74.8094 41.661 75.2244 41.1191 75.7034 40.577 76.1393 40.0351 76.6179 39.4932 77.157 38.9511 77.5783 38.4091 78.0785 37.8671 78.6394 37.3251 78.8894 36.7832 79.3944 36.2411 79.8376 35.6992 80.3261 35.1571 80.844 34.6151 81.2409 34.0732 81.624 33.5311 82.1216 32.9892 82.5424 32.4471 83.0115 31.9052 83.4382 31.3631 83.8893 30.8211 84.4514 30.2792 84.4147 29.7371 84.8342 29.1952 85.2721 28.6533 85.6981 28.1112 86.0992 27.5692 86.4136 27.0272 86.8443 26.4852 87.1619 25.9433 87.5551 25.4012 87.9603 24.8593 88.359 24.3172 88.7215 23.7752 89.0718 23.2332 89.5721 22.6912 89.9392 22.1493 90.3644 21.6072 90.7856 21.0653 91.037 20.5232 91.3898 19.9812 91.3546 19.9812 97.4731 22.1434 97.4731 22.2666 97.4731 22.6912 97.1516 23.2332 96.7762 23.7752 96.3336 24.3172 95.9945 24.8593 95.5191 25.4012 95.0784 25.9433 94.7485 26.4852 94.3691Z" fill="#E41A1C" fill-opacity="0.2" transform="matrix(1.00174 0 0 1 57 629)"/><path d="M22.2666 97.4731 22.6912 97.1516 23.2332 96.7762 23.7752 96.3336 24.3172 95.9945 24.8593 95.5191 25.4012 95.0784 25.9433 94.7485 26.4852 94.3691 27.0272 93.9901 27.5692 93.587 28.1112 93.2567 28.6533 92.7683 29.1952 92.5444 29.7371 92.0568 30.2792 91.7483 30.8211 91.2923 31.3631 91.0303 31.9052 90.5457 32.4471 90.1083 32.9892 89.9629 33.5311 89.5803 34.0732 89.172 34.6151 88.8566 35.1571 88.4834 35.6992 88.0485 36.2411 87.7387 36.7832 87.3372 37.3251 86.9892 37.8671 86.5617 38.4091 86.2224 38.9511 85.8176 39.4932 85.4092 40.0351 85.0638 40.577 84.6137 41.1191 84.2685 41.661 83.9612 42.2031 83.487 42.7451 83.2693 43.287 82.8566 43.8291 82.5237 44.371 82.2323 44.9131 81.9044 45.455 81.4569 45.997 81.1253 46.5391 80.7159 47.081 80.2555 47.6231 79.8691 48.165 79.5025 48.7071 79.2261 49.249 78.7293 49.791 78.2993 50.3331 77.8757 50.875 77.3808 51.4171 76.9683 51.959 76.5173 52.5009 76.0745 53.043 75.6618 53.585 75.2521 54.1271 74.796 54.669 74.9708 55.2109 74.1823 55.753 73.7028 56.2949 73.2551 56.837 72.8626 57.379 72.3804 57.9209 71.9167 58.463 71.4738 59.0049 71.192 59.547 70.7039 60.0889 70.2935 60.6309 69.7774 61.173 69.4233 61.7149 69.0946 62.257 68.5978 62.7989 68.1171 63.3408 68.3242 63.8829 67.7672 64.4249 67.1675 64.9669 66.7231 65.5089 66.3012 66.0508 65.8662 66.5929 65.3625 67.1348 64.9751 67.6769 64.5331 68.2189 64.2747 68.7608 63.818 69.3029 63.6912 69.8448 63.2688 70.3869 62.7119 70.9288 62.2699 71.4709 61.8056 72.0129 61.4497 72.5548 61.0035 73.0969 60.5967 73.6388 60.1568 74.1809 59.7724 74.7228 59.3193 75.2648 58.977 75.8068 58.5254 76.3488 58.1482 76.8909 57.8484 77.4328 57.4326 77.9747 57.1354 78.5168 56.7127 79.0588 56.3588 79.6008 55.9609 80.1428 55.7291 80.6849 55.3366 81.2268 54.7951 81.7687 54.4352 82.3108 53.9915 82.8528 53.5273 83.3948 53.0225 83.9368 52.7252 84.4787 52.3286 85.0208 51.9484 85.5627 51.5416 86.1048 51.0603 86.6468 50.6139 87.1887 50.3617 87.7308 50.0128 88.2727 49.6074 88.8146 49.2809 89.3567 48.8014 89.8987 48.4305 90.4407 48.043 90.9827 47.5286 91.5246 47.1627 92.0667 46.7403 92.6086 46.3697 93.1507 45.9792 93.6927 45.6024 94.2347 45.2137 94.7767 44.7199 95.3186 44.3776 95.8607 44.0253 96.4026 43.7062 96.9447 43.1808 97.4866 42.7264 98.0286 42.4169 98.5707 42.3249 99.1126 41.9123 99.6547 41.3859 100.197 40.9981 100.739 40.555 101.281 40.0893 101.823 39.6414 102.365 39.2064 102.907 38.8481 103.449 38.3114 103.991 37.8619 104.533 37.5491 105.075 37.1574 105.617 36.7189 106.159 36.27 106.701 35.8686 107.243 35.3931 107.785 35.0501 108.327 34.5825 108.868 34.1445 109.411 33.7534 109.953 33.412 110.495 32.9797 111.037 32.6084 111.578 32.1996 112.121 31.7942 112.662 31.4663 113.205 31.1025 113.746 30.6377 114.289 30.2395 114.831 29.828 115.372 29.5314 115.915 29.0987 116.456 28.6722 116.999 28.375 117.54 28.0097 118.082 27.5899 118.625 27.1872 119.166 26.8811 119.709 26.4684 120.25 26.0903 120.792 25.7406 121.334 25.328 121.876 24.9376 122.419 24.5216 122.96 24.1522 123.503 23.8461 124.044 23.4205 124.586 23.0283 125.128 22.633 125.67 22.3008 126.212 22.7815 126.754 22.169 127.296 21.6421 127.838 21.1741 128.38 20.9871 128.922 20.9846" stroke="#F39899" stroke-width="0.119787" stroke-linejoin="round" stroke-miterlimit="10" fill="none" fill-rule="evenodd" transform="matrix(1.00174 0 0 1 57 629)"/><path d="M19.9812 91.3546 20.5232 91.3898 21.0653 91.037 21.6072 90.7856 22.1493 90.3644 22.6912 89.9392 23.2332 89.5721 23.7752 89.0718 24.3172 88.7215 24.8593 88.359 25.4012 87.9603 25.9433 87.5551 26.4852 87.1619 27.0272 86.8443 27.5692 86.4136 28.1112 86.0992 28.6533 85.6981 29.1952 85.2721 29.7371 84.8342 30.2792 84.4147 30.8211 84.4514 31.3631 83.8893 31.9052 83.4382 32.4471 83.0115 32.9892 82.5424 33.5311 82.1216 34.0732 81.624 34.6151 81.2409 35.1571 80.844 35.6992 80.3261 36.2411 79.8376 36.7832 79.3944 37.3251 78.8894 37.8671 78.6394 38.4091 78.0785 38.9511 77.5783 39.4932 77.157 40.0351 76.6179 40.577 76.1393 41.1191 75.7034 41.661 75.2244 42.2031 74.8094 42.7451 74.3655 43.287 73.9421 43.8291 73.389 44.371 72.9559 44.9131 72.4907 45.455 72.0775 45.997 71.5576 46.5391 71.0874 47.081 70.6163 47.6231 70.2269 48.165 69.7014 48.7071 69.3604 49.249 68.8347 49.791 68.4115 50.3331 67.9075 50.875 67.3295 51.4171 66.9876 51.959 66.5872 52.5009 66.1704 53.043 65.776 53.585 65.2645 54.1271 64.8176 54.669 64.4358 55.2109 63.9311 55.753 63.5647 56.2949 63.1658 56.837 62.6971 57.379 62.2936 57.9209 61.8375 58.463 61.4068 59.0049 61.0394 59.547 60.5238 60.0889 60.031 60.6309 59.6193 61.173 59.1214 61.7149 58.7488 62.257 58.3087 62.7989 58.0142 63.3408 57.6343 63.8829 57.1109 64.4249 56.8037 64.9669 56.4436 65.5089 56.297 66.0508 55.6501 66.5929 55.3167 67.1348 54.8964 67.6769 54.4227 68.2189 53.9939 68.7608 53.5646 69.3029 53.228 69.8448 52.6999 70.3869 52.2461 70.9288 51.9408 71.4709 51.5056 72.0129 51.0978 72.5548 50.6582 73.0969 50.2718 73.6388 49.8124 74.1809 49.3136 74.7228 48.9247 75.2648 48.4609 75.8068 48.0936 76.3488 48.3581 76.8909 47.6698 77.4328 47.1085 77.9747 46.6542 78.5168 46.1968 79.0588 45.8187 79.6008 45.3626 80.1428 44.9557 80.6849 44.5018 81.2268 44.0171 81.7687 43.5184 82.3108 43.1016 82.8528 42.706 83.3948 42.2162 83.9368 41.765 84.4787 41.3388 85.0208 40.8257 85.5627 41.241 86.1048 40.808 86.6468 40.0756 87.1887 39.6612 87.7308 39.0968 88.2727 38.7162 88.8146 38.2739 89.3567 37.8403 89.8987 37.3306 90.4407 36.8816 90.9827 36.4477 91.5246 35.954 92.0667 35.5826 92.6086 35.0974 93.1507 34.6271 93.6927 34.2013 94.2347 33.7088 94.7767 33.3913 95.3186 32.8727 95.8607 32.5 96.4026 32.067 96.9447 32.1849 97.4866 31.5284 98.0286 31.0327 98.5707 30.6826 99.1126 30.1705 99.6547 29.7722 100.197 29.2428 100.739 28.9165 101.281 28.4547 101.823 28.0491 102.365 27.5623 102.907 27.1452 103.449 26.7835 103.991 26.3305 104.533 25.8885 105.075 25.5122 105.617 25.0644 106.159 24.6143 106.701 24.2472 107.243 23.7863 107.785 23.458 108.327 22.9179 108.868 22.5696 109.411 22.0316 109.953 21.6109 110.495 21.2884 111.037 20.8992 111.578 20.4617 112.121 20.039 112.662 19.6171 113.205 19.1261 113.746 18.7967 114.289 18.407 114.831 17.968 115.372 17.645 115.915 17.2818 116.456 16.7771 116.999 16.4605 117.54 15.9827 118.082 15.5726 118.625 15.2385 119.166 14.8032 119.709 14.4125 120.25 14.008 120.792 13.6525 121.334 13.1989 121.876 12.7273 122.419 12.4678 122.96 12.0728 123.503 11.6564 124.044 11.3618 124.586 10.9238 125.128 10.4645 125.67 10.1234 126.212 9.66234 126.754 9.33248 127.296 8.89371 127.838 9.13751 128.38 8.89958 128.922 8.88582" stroke="#F39899" stroke-width="0.119787" stroke-linejoin="round" stroke-miterlimit="10" fill="none" fill-rule="evenodd" transform="matrix(1.00174 0 0 1 57 629)"/><path d="M19.9812 95.145 20.5232 95.1325 21.0653 94.7735 21.6072 94.324 22.1493 93.9103 22.6912 93.5276 23.2332 93.129 23.7752 92.7039 24.3172 92.3446 24.8593 91.9202 25.4012 91.5577 25.9433 91.1806 26.4852 90.7942 27.0272 90.4209 27.5692 90.0374 28.1112 89.6809 28.6533 89.2692 29.1952 88.8924 29.7371 88.5228 30.2792 88.1422 30.8211 87.7808 31.3631 87.4024 31.9052 87.0202 32.4471 86.6161 32.9892 86.2392 33.5311 85.8498 34.0732 85.4568 34.6151 85.0871 35.1571 84.6828 35.6992 84.2823 36.2411 83.9201 36.7832 83.5173 37.3251 83.1441 37.8671 82.73 38.4091 82.3404 38.9511 81.9522 39.4932 81.5902 40.0351 81.1693 40.577 80.7576 41.1191 80.3663 41.661 79.9928 42.2031 79.5206 42.7451 79.1283 43.287 78.6972 43.8291 78.2681 44.371 77.8648 44.9131 77.4108 45.455 77.03 45.997 76.6113 46.5391 76.2309 47.081 75.7732 47.6231 75.3443 48.165 74.8861 48.7071 74.5542 49.249 74.1076 49.791 73.6315 50.3331 73.2297 50.875 72.7451 51.4171 72.2843 51.959 71.8419 52.5009 71.4052 53.043 70.9573 53.585 70.5532 54.1271 70.1143 54.669 69.7691 55.2109 69.3214 55.753 68.924 56.2949 68.4916 56.837 68.1047 57.379 67.6827 57.9209 67.253 58.463 66.8672 59.0049 66.4428 59.547 66.061 60.0889 65.6554 60.6309 65.1922 61.173 64.784 61.7149 64.4036 62.257 63.9838 62.7989 63.5819 63.3408 63.2418 63.8829 62.7496 64.4249 62.3254 64.9669 61.8983 65.5089 61.5136 66.0508 61.0868 66.5929 60.7538 67.1348 60.3369 67.6769 59.9452 68.2189 59.5474 68.7608 59.138 69.3029 58.7526 69.8448 58.3319 70.3869 58.055 70.9288 57.66 71.4709 57.1993 72.0129 56.8061 72.5548 56.3996 73.0969 56.0165 73.6388 55.6587 74.1809 55.2184 74.7228 54.7962 75.2648 54.4432 75.8068 53.9925 76.3488 53.6534 76.8909 53.2007 77.4328 52.7488 77.9747 52.3844 78.5168 51.9546 79.0588 51.5775 79.6008 51.1437 80.1428 50.7649 80.6849 50.3515 81.2268 49.9518 81.7687 49.5189 82.3108 49.0629 82.8528 48.7255 83.3948 48.3321 83.9368 47.9038 84.4787 47.5305 85.0208 47.1103 85.5627 46.744 86.1048 46.2793 86.6468 45.858 87.1887 45.4027 87.7308 45.0028 88.2727 44.5417 88.8146 44.1357 89.3567 43.6988 89.8987 43.2491 90.4407 42.9345 90.9827 42.534 91.5246 42.1344 92.0667 41.6609 92.6086 41.2209 93.1507 40.7885 93.6927 40.4009 94.2347 40.0309 94.7767 39.6129 95.3186 39.1671 95.8607 38.7265 96.4026 38.3078 96.9447 37.9014 97.4866 37.4472 98.0286 37.0107 98.5707 36.8243 99.1126 36.3831 99.6547 36.1048 100.197 35.609 100.739 35.1784 101.281 34.7066 101.823 34.2635 102.365 33.8373 102.907 33.4611 103.449 33.1242 103.991 32.631 104.533 32.2132 105.075 31.7876 105.617 31.3616 106.159 30.9356 106.701 30.5518 107.243 30.1247 107.785 29.7317 108.327 29.2885 108.868 28.8716 109.411 28.455 109.953 28.034 110.495 27.6404 111.037 27.2727 111.578 26.8869 112.121 26.512 112.662 26.0876 113.205 25.6495 113.746 25.2707 114.289 24.846 114.831 24.4353 115.372 24.0563 115.915 23.7008 116.456 23.2889 116.999 22.9035 117.54 22.5091 118.082 22.1103 118.625 21.7271 119.166 21.3019 119.709 20.8903 120.25 20.4952 120.792 20.1054 121.334 19.7129 121.876 19.3673 122.419 18.9381 122.96 18.5767 123.503 18.1865 124.044 17.7856 124.586 17.4087 125.128 17.037 125.67 16.6442 126.212 16.3287 126.754 15.9514 127.296 15.5811 127.838 15.2054 128.38 14.9629 128.922 14.9546" stroke="#E41A1C" stroke-width="1.4375" stroke-linejoin="round" stroke-miterlimit="10" fill="none" fill-rule="evenodd" transform="matrix(1.00174 0 0 1 57 629)"/><path d="M22.7131 17.7669 29.9056 17.7669" stroke="#377EB8" stroke-width="1.4375" stroke-linejoin="round" stroke-miterlimit="10" fill="none" transform="matrix(1.00174 0 0 1 57 629)"/><path d="M22.7131 31.6831 29.9056 31.6831" stroke="#E41A1C" stroke-width="1.4375" stroke-linejoin="round" stroke-miterlimit="10" fill="none" transform="matrix(1.00174 0 0 1 57 629)"/></g></svg>