<svg width="144" height="115" xmlns="http://www.w3.org/2000/svg" xmlns:xlink="http://www.w3.org/1999/xlink" xml:space="preserve" overflow="hidden"><defs><clipPath id="clip0"><rect x="425" y="804" width="144" height="115"/></clipPath></defs><g clip-path="url(#clip0)" transform="translate(-425 -804)"><path d="M0 0 143.75 0 143.75 115 0 115Z" fill="#FFFFFF" transform="matrix(1.00174 0 0 1 425 804)"/><path d="M0 0 143.75 0 143.75 115 0 115Z" fill="#FFFFFF" transform="matrix(1.00174 0 0 1 425 804)"/><path d="M18.6875 97.4625 130.094 97.4625 130.094 8.625 18.6875 8.625Z" fill="#FFFFFF" transform="matrix(1.00174 0 0 1 425 804)"/><path d="M29.0323 97.4625 29.0323 8.625" stroke="#1A1A1A" stroke-width="0.119787" stroke-linejoin="bevel" stroke-miterlimit="1" stroke-dasharray="0.14375 0.43125" stroke-opacity="0.702" fill="none" transform="matrix(1.00174 0 0 1 425 804)"/><path d="M39.3773 97.4625 39.3773 8.625" stroke="#1A1A1A" stroke-width="0.119787" stroke-linejoin="bevel" stroke-miterlimit="1" stroke-dasharray="0.14375 0.43125" stroke-opacity="0.702" fill="none" transform="matrix(1.00174 0 0 1 425 804)"/><path d="M49.7221 97.4625 49.7221 8.625" stroke="#1A1A1A" stroke-width="0.119787" stroke-linejoin="bevel" stroke-miterlimit="1" stroke-dasharray="0.14375 0.43125" stroke-opacity="0.702" fill="none" transform="matrix(1.00174 0 0 1 425 804)"/><path d="M60.0669 97.4625 60.0669 8.625" stroke="#1A1A1A" stroke-width="0.119787" stroke-linejoin="bevel" stroke-miterlimit="1" stroke-dasharray="0.14375 0.43125" stroke-opacity="0.702" fill="none" transform="matrix(1.00174 0 0 1 425 804)"/><path d="M80.7567 97.4625 80.7567 8.625" stroke="#1A1A1A" stroke-width="0.119787" stroke-linejoin="bevel" stroke-miterlimit="1" stroke-dasharray="0.14375 0.43125" stroke-opacity="0.702" fill="none" transform="matrix(1.00174 0 0 1 425 804)"/><path d="M91.1016 97.4625 91.1016 8.625" stroke="#1A1A1A" stroke-width="0.119787" stroke-linejoin="bevel" stroke-miterlimit="1" stroke-dasharray="0.14375 0.43125" stroke-opacity="0.702" fill="none" transform="matrix(1.00174 0 0 1 425 804)"/><path d="M101.446 97.4625 101.446 8.625" stroke="#1A1A1A" stroke-width="0.119787" stroke-linejoin="bevel" stroke-miterlimit="1" stroke-dasharray="0.14375 0.43125" stroke-opacity="0.702" fill="none" transform="matrix(1.00174 0 0 1 425 804)"/><path d="M111.791 97.4625 111.791 8.625" stroke="#1A1A1A" stroke-width="0.119787" stroke-linejoin="bevel" stroke-miterlimit="1" stroke-dasharray="0.14375 0.43125" stroke-opacity="0.702" fill="none" transform="matrix(1.00174 0 0 1 425 804)"/><path d="M18.6875 97.4625 18.6875 8.625" stroke="#262626" stroke-width="0.119787" stroke-linejoin="round" stroke-miterlimit="10" fill="none" transform="matrix(1.00174 0 0 1 425 804)"/><path d="M70.4118 97.4625 70.4118 8.625" stroke="#262626" stroke-width="0.119787" stroke-linejoin="round" stroke-miterlimit="10" fill="none" transform="matrix(1.00174 0 0 1 425 804)"/><path d="M122.136 97.4625 122.136 8.625" stroke="#262626" stroke-width="0.119787" stroke-linejoin="round" stroke-miterlimit="10" fill="none" transform="matrix(1.00174 0 0 1 425 804)"/><path d="M130.094 90.7324 18.6875 90.7324" stroke="#1A1A1A" stroke-width="0.119787" stroke-linejoin="bevel" stroke-miterlimit="1" stroke-dasharray="0.14375 0.43125" stroke-opacity="0.702" fill="none" transform="matrix(1.00174 0 0 1 425 804)"/><path d="M130.094 84.0023 18.6875 84.0023" stroke="#1A1A1A" stroke-width="0.119787" stroke-linejoin="bevel" stroke-miterlimit="1" stroke-dasharray="0.14375 0.43125" stroke-opacity="0.702" fill="none" transform="matrix(1.00174 0 0 1 425 804)"/><path d="M130.094 77.2721 18.6875 77.2721" stroke="#1A1A1A" stroke-width="0.119787" stroke-linejoin="bevel" stroke-miterlimit="1" stroke-dasharray="0.14375 0.43125" stroke-opacity="0.702" fill="none" transform="matrix(1.00174 0 0 1 425 804)"/><path d="M130.094 63.8119 18.6875 63.8119" stroke="#1A1A1A" stroke-width="0.119787" stroke-linejoin="bevel" stroke-miterlimit="1" stroke-dasharray="0.14375 0.43125" stroke-opacity="0.702" fill="none" transform="matrix(1.00174 0 0 1 425 804)"/><path d="M130.094 57.0818 18.6875 57.0818" stroke="#1A1A1A" stroke-width="0.119787" stroke-linejoin="bevel" stroke-miterlimit="1" stroke-dasharray="0.14375 0.43125" stroke-opacity="0.702" fill="none" transform="matrix(1.00174 0 0 1 425 804)"/><path d="M130.094 50.3517 18.6875 50.3517" stroke="#1A1A1A" stroke-width="0.119787" stroke-linejoin="bevel" stroke-miterlimit="1" stroke-dasharray="0.14375 0.43125" stroke-opacity="0.702" fill="none" transform="matrix(1.00174 0 0 1 425 804)"/><path d="M130.094 36.8914 18.6875 36.8914" stroke="#1A1A1A" stroke-width="0.119787" stroke-linejoin="bevel" stroke-miterlimit="1" stroke-dasharray="0.14375 0.43125" stroke-opacity="0.702" fill="none" transform="matrix(1.00174 0 0 1 425 804)"/><path d="M130.094 30.1613 18.6875 30.1613" stroke="#1A1A1A" stroke-width="0.119787" stroke-linejoin="bevel" stroke-miterlimit="1" stroke-dasharray="0.14375 0.43125" stroke-opacity="0.702" fill="none" transform="matrix(1.00174 0 0 1 425 804)"/><path d="M130.094 23.4312 18.6875 23.4312" stroke="#1A1A1A" stroke-width="0.119787" stroke-linejoin="bevel" stroke-miterlimit="1" stroke-dasharray="0.14375 0.43125" stroke-opacity="0.702" fill="none" transform="matrix(1.00174 0 0 1 425 804)"/><path d="M130.094 9.97102 18.6875 9.97102" stroke="#1A1A1A" stroke-width="0.119787" stroke-linejoin="bevel" stroke-miterlimit="1" stroke-dasharray="0.14375 0.43125" stroke-opacity="0.702" fill="none" transform="matrix(1.00174 0 0 1 425 804)"/><path d="M130.094 97.4625 18.6875 97.4625" stroke="#262626" stroke-width="0.119787" stroke-linejoin="round" stroke-miterlimit="10" fill="none" transform="matrix(1.00174 0 0 1 425 804)"/><path d="M130.094 70.542 18.6875 70.542" stroke="#262626" stroke-width="0.119787" stroke-linejoin="round" stroke-miterlimit="10" fill="none" transform="matrix(1.00174 0 0 1 425 804)"/><path d="M130.094 43.6217 18.6875 43.6217" stroke="#262626" stroke-width="0.119787" stroke-linejoin="round" stroke-miterlimit="10" fill="none" transform="matrix(1.00174 0 0 1 425 804)"/><path d="M130.094 16.7012 18.6875 16.7012" stroke="#262626" stroke-width="0.119787" stroke-linejoin="round" stroke-miterlimit="10" fill="none" transform="matrix(1.00174 0 0 1 425 804)"/><path d="M18.6875 97.4625 130.094 97.4625" stroke="#262626" stroke-width="0.119787" stroke-linecap="square" stroke-linejoin="round" stroke-miterlimit="10" fill="none" transform="matrix(1.00174 0 0 1 425 804)"/><path d="M18.6875 97.4625 18.6875 96.3484" stroke="#262626" stroke-width="0.119787" stroke-linecap="square" stroke-linejoin="round" stroke-miterlimit="10" fill="none" transform="matrix(1.00174 0 0 1 425 804)"/><path d="M70.4118 97.4625 70.4118 96.3484" stroke="#262626" stroke-width="0.119787" stroke-linecap="square" stroke-linejoin="round" stroke-miterlimit="10" fill="none" transform="matrix(1.00174 0 0 1 425 804)"/><path d="M122.136 97.4625 122.136 96.3484" stroke="#262626" stroke-width="0.119787" stroke-linecap="square" stroke-linejoin="round" stroke-miterlimit="10" fill="none" transform="matrix(1.00174 0 0 1 425 804)"/><text fill="#262626" font-family="Arial,Arial_MSFontService,sans-serif" font-weight="400" font-size="80" transform="matrix(0.144 0 0 0.14375 440.84 915)">0</text><text fill="#262626" font-family="Arial,Arial_MSFontService,sans-serif" font-weight="400" font-size="80" transform="matrix(0.144 0 0 0.14375 488.118 915)">0</text><text fill="#262626" font-family="Arial,Arial_MSFontService,sans-serif" font-weight="400" font-size="80" transform="matrix(0.144 0 0 0.14375 494.454 915)">.</text><text fill="#262626" font-family="Arial,Arial_MSFontService,sans-serif" font-weight="400" font-size="80" transform="matrix(0.144 0 0 0.14375 497.622 915)">1</text><text fill="#262626" font-family="Arial,Arial_MSFontService,sans-serif" font-weight="400" font-size="80" transform="matrix(0.144 0 0 0.14375 539.933 915)">0</text><text fill="#262626" font-family="Arial,Arial_MSFontService,sans-serif" font-weight="400" font-size="80" transform="matrix(0.144 0 0 0.14375 546.269 915)">.</text><text fill="#262626" font-family="Arial,Arial_MSFontService,sans-serif" font-weight="400" font-size="80" transform="matrix(0.144 0 0 0.14375 549.437 915)">2</text><path d="M18.6875 97.4625 18.6875 8.625" stroke="#262626" stroke-width="0.119787" stroke-linecap="square" stroke-linejoin="round" stroke-miterlimit="10" fill="none" transform="matrix(1.00174 0 0 1 425 804)"/><path d="M18.6875 97.4625 19.8016 97.4625" stroke="#262626" stroke-width="0.119787" stroke-linecap="square" stroke-linejoin="round" stroke-miterlimit="10" fill="none" transform="matrix(1.00174 0 0 1 425 804)"/><path d="M18.6875 70.542 19.8016 70.542" stroke="#262626" stroke-width="0.119787" stroke-linecap="square" stroke-linejoin="round" stroke-miterlimit="10" fill="none" transform="matrix(1.00174 0 0 1 425 804)"/><path d="M18.6875 43.6217 19.8016 43.6217" stroke="#262626" stroke-width="0.119787" stroke-linecap="square" stroke-linejoin="round" stroke-miterlimit="10" fill="none" transform="matrix(1.00174 0 0 1 425 804)"/><path d="M18.6875 16.7012 19.8016 16.7012" stroke="#262626" stroke-width="0.119787" stroke-linecap="square" stroke-linejoin="round" stroke-miterlimit="10" fill="none" transform="matrix(1.00174 0 0 1 425 804)"/><text fill="#262626" font-family="Arial,Arial_MSFontService,sans-serif" font-weight="400" font-size="80" transform="matrix(0.144 0 0 0.14375 435.176 905)">0</text><text fill="#262626" font-family="Arial,Arial_MSFontService,sans-serif" font-weight="400" font-size="80" transform="matrix(0.144 0 0 0.14375 429.416 878)">20</text><text fill="#262626" font-family="Arial,Arial_MSFontService,sans-serif" font-weight="400" font-size="80" transform="matrix(0.144 0 0 0.14375 429.416 851)">40</text><text fill="#262626" font-family="Arial,Arial_MSFontService,sans-serif" font-weight="400" font-size="80" transform="matrix(0.144 0 0 0.14375 429.416 824)">60</text><path d="M18.6875 13.3495 26.6451 12.5065 34.6026 12.7813 42.5602 12.8752 50.5179 13.2057 58.4755 13.7779 66.4331 14.5905 74.3906 15.6088 82.3482 16.7991 90.3058 18.1553 98.2633 19.6344 106.221 20.9557 114.179 22.681 122.136 24.4878 130.094 26.3535 130.094 25.7084 122.136 23.8806 114.179 22.2053 106.221 20.4076 98.2633 18.7623 90.3058 17.2062 82.3482 15.7768 74.3906 14.5633 66.4331 13.4125 58.4755 12.4432 50.5179 11.7872 42.5602 11.2899 34.6026 10.9623 26.6451 10.3482 18.6875 10.4208Z" fill="#984EA3" fill-opacity="0.2" transform="matrix(1.00174 0 0 1 425 804)"/><path d="M18.6875 13.3495 26.6451 12.5065 34.6026 12.7813 42.5602 12.8752 50.5179 13.2057 58.4755 13.7779 66.4331 14.5905 74.3906 15.6088 82.3482 16.7991 90.3058 18.1553 98.2633 19.6344 106.221 20.9557 114.179 22.681 122.136 24.4878 130.094 26.3535" stroke="#D1AFD6" stroke-width="0.119787" stroke-linejoin="round" stroke-miterlimit="10" fill="none" fill-rule="evenodd" transform="matrix(1.00174 0 0 1 425 804)"/><path d="M18.6875 10.4208 26.6451 10.3482 34.6026 10.9623 42.5602 11.2899 50.5179 11.7872 58.4755 12.4432 66.4331 13.4125 74.3906 14.5633 82.3482 15.7768 90.3058 17.2062 98.2633 18.7623 106.221 20.4076 114.179 22.2053 122.136 23.8806 130.094 25.7084" stroke="#D1AFD6" stroke-width="0.119787" stroke-linejoin="round" stroke-miterlimit="10" fill="none" fill-rule="evenodd" transform="matrix(1.00174 0 0 1 425 804)"/><path d="M18.6875 11.9786 26.6451 11.4812 34.6026 11.8461 42.5602 12.1641 50.5179 12.5824 58.4755 13.1438 66.4331 14.0133 74.3906 15.0953 82.3482 16.2908 90.3058 17.6237 98.2633 19.114 106.221 20.631 114.179 22.3902 122.136 24.1123 130.094 25.9766" stroke="#984EA3" stroke-width="1.4375" stroke-linejoin="round" stroke-miterlimit="10" fill="none" fill-rule="evenodd" transform="matrix(1.00174 0 0 1 425 804)"/></g></svg>