<svg width="144" height="115" xmlns="http://www.w3.org/2000/svg" xmlns:xlink="http://www.w3.org/1999/xlink" xml:space="preserve" overflow="hidden"><defs><clipPath id="clip0"><rect x="215" y="797" width="144" height="115"/></clipPath></defs><g clip-path="url(#clip0)" transform="translate(-215 -797)"><path d="M0 0 143.87 0 143.87 115 0 115Z" fill="#FFFFFF" transform="matrix(1.00091 0 0 1 215 797)"/><path d="M0 0 143.87 0 143.87 115 0 115Z" fill="#FFFFFF" transform="matrix(1.00091 0 0 1 215 797)"/><path d="M18.6875 97.3906 130.214 97.3906 130.214 8.625 18.6875 8.625Z" fill="#FFFFFF" transform="matrix(1.00091 0 0 1 215 797)"/><path d="M18.6875 97.3906 130.214 97.3906" stroke="#262626" stroke-width="0.119792" stroke-linecap="square" stroke-linejoin="round" stroke-miterlimit="10" fill="none" transform="matrix(1.00091 0 0 1 215 797)"/><path d="M18.6875 97.3906 18.6875 96.2754" stroke="#262626" stroke-width="0.119792" stroke-linecap="square" stroke-linejoin="round" stroke-miterlimit="10" fill="none" transform="matrix(1.00091 0 0 1 215 797)"/><path d="M55.8628 97.3906 55.8628 96.2754" stroke="#262626" stroke-width="0.119792" stroke-linecap="square" stroke-linejoin="round" stroke-miterlimit="10" fill="none" transform="matrix(1.00091 0 0 1 215 797)"/><path d="M93.0382 97.3906 93.0382 96.2754" stroke="#262626" stroke-width="0.119792" stroke-linecap="square" stroke-linejoin="round" stroke-miterlimit="10" fill="none" transform="matrix(1.00091 0 0 1 215 797)"/><path d="M130.214 97.3906 130.214 96.2754" stroke="#262626" stroke-width="0.119792" stroke-linecap="square" stroke-linejoin="round" stroke-miterlimit="10" fill="none" transform="matrix(1.00091 0 0 1 215 797)"/><text fill="#262626" font-family="Arial,Arial_MSFontService,sans-serif" font-weight="400" font-size="96" transform="matrix(0.1199 0 0 0.119792 230.827 908)">0</text><text fill="#262626" font-family="Arial,Arial_MSFontService,sans-serif" font-weight="400" font-size="96" transform="matrix(0.1199 0 0 0.119792 268.036 908)">5</text><text fill="#262626" font-family="Arial,Arial_MSFontService,sans-serif" font-weight="400" font-size="96" transform="matrix(0.1199 0 0 0.119792 302.367 908)">10</text><text fill="#262626" font-family="Arial,Arial_MSFontService,sans-serif" font-weight="400" font-size="96" transform="matrix(0.1199 0 0 0.119792 339.576 908)">15</text><path d="M18.6875 97.3906 18.6875 8.625" stroke="#262626" stroke-width="0.119792" stroke-linecap="square" stroke-linejoin="round" stroke-miterlimit="10" fill="none" transform="matrix(1.00091 0 0 1 215 797)"/><path d="M18.6875 96.9098 19.8028 96.9098" stroke="#262626" stroke-width="0.119792" stroke-linecap="square" stroke-linejoin="round" stroke-miterlimit="10" fill="none" transform="matrix(1.00091 0 0 1 215 797)"/><path d="M18.6875 52.7674 19.8028 52.7674" stroke="#262626" stroke-width="0.119792" stroke-linecap="square" stroke-linejoin="round" stroke-miterlimit="10" fill="none" transform="matrix(1.00091 0 0 1 215 797)"/><path d="M18.6875 8.625 19.8028 8.625" stroke="#262626" stroke-width="0.119792" stroke-linecap="square" stroke-linejoin="round" stroke-miterlimit="10" fill="none" transform="matrix(1.00091 0 0 1 215 797)"/><text fill="#262626" font-family="Arial,Arial_MSFontService,sans-serif" font-weight="400" font-size="96" transform="matrix(0.1199 0 0 0.119792 225.168 897)">0</text><text fill="#262626" font-family="Arial,Arial_MSFontService,sans-serif" font-weight="400" font-size="96" transform="matrix(0.1199 0 0 0.119792 225.168 853)">5</text><text fill="#262626" font-family="Arial,Arial_MSFontService,sans-serif" font-weight="400" font-size="96" transform="matrix(0.1199 0 0 0.119792 219.412 809)">10</text><path d="M18.9347 96.8732 19.182 96.6619 19.4292 96.1993 19.6765 96.109 19.9237 95.6994 20.171 95.3785 20.4182 95.0522 20.6655 94.6572 20.9128 94.4775 21.16 94.3339 21.4072 94.079 21.6545 93.6966 21.9016 93.4707 22.1489 93.1439 22.3961 93.0261 22.6434 92.6374 22.8906 92.5341 23.1379 92.3534 23.3851 91.9224 23.6324 91.7765 23.8796 91.5002 24.1269 91.3998 24.3741 91.0435 24.6214 91.0788 24.8686 90.743 25.1159 90.5179 25.3631 90.2845 25.6104 90.123 25.8576 90.0966 26.1049 90.0454 26.3521 89.5709 26.5994 89.2098 26.8466 89.0076 27.0939 88.762 27.3411 88.6581 27.5884 88.4049 27.8356 88.1439 28.0828 87.9496 28.33 87.6898 28.5773 87.6211 28.8245 87.277 29.0718 87.123 29.319 87.2716 29.5663 86.692 29.8135 86.5588 30.0608 86.5128 30.308 86.0979 30.5553 85.9163 30.8025 85.7596 31.0498 85.5291 31.297 85.3117 31.5443 85.2265 31.7915 84.8972 32.0388 84.8731 32.286 84.4863 32.5333 84.3339 32.7805 84.0563 33.0278 83.8254 33.275 83.6742 33.5223 83.4676 33.7695 83.8482 34.0168 83.3761 34.264 83.0737 34.5111 82.7223 34.7584 82.5351 35.0056 82.2615 35.2529 82.0795 35.5001 81.9223 35.7474 81.7498 35.9946 81.5218 36.2419 81.3554 36.4891 81.143 36.7364 80.9973 36.9836 80.7949 37.2309 80.6378 37.4781 80.379 37.7254 80.2578 37.9726 80.0716 38.2199 80.0298 38.4671 79.7282 38.7144 79.6901 38.9616 79.4912 39.2089 79.4228 39.4561 79.1635 39.7034 79.0523 39.9506 78.9216 40.1979 78.6141 40.4451 78.5839 40.6924 78.3972 40.9395 78.2912 41.1868 78.0037 41.434 77.991 41.6813 77.7123 41.9285 77.6009 42.1758 77.4385 42.423 77.3144 42.6703 77.1203 42.9175 77.0307 43.1648 76.8268 43.412 76.7124 43.6593 76.5362 43.9065 76.3655 44.1538 76.2742 44.401 76.1665 44.6483 75.9984 44.8955 75.8669 45.1428 75.7394 45.39 75.6214 45.6373 75.4084 45.8845 75.2923 46.1318 75.1258 46.379 74.9909 46.6263 74.91 46.8735 74.6593 47.1207 74.5157 47.3679 74.457 47.6152 74.3326 47.8624 74.0764 48.1096 74.0075 48.3569 73.6574 48.6042 73.6906 48.8514 73.393 49.0987 73.4074 49.3459 73.162 49.5932 73.1426 49.8404 73.0169 50.0876 72.6935 50.3349 72.7319 50.5821 72.3585 50.8294 72.317 51.0766 72.1436 51.3239 72.0942 51.5711 71.8821 51.8184 71.7116 52.0657 71.5941 52.3129 71.4597 52.5602 71.2257 52.8074 71.1341 53.0546 70.9121 53.3018 70.7819 53.549 70.6606 53.7963 70.6131 54.0435 70.3751 54.2908 70.2585 54.538 69.9743 54.7853 69.8449 55.0325 69.6598 55.2798 69.4804 55.527 69.3194 55.7743 69.2785 56.0215 69.0131 56.2688 68.9656 56.516 68.8198 56.7633 68.7196 57.0105 68.5152 57.2578 68.402 57.505 68.319 57.7523 67.9933 57.9995 68.0322 58.2468 67.7108 58.494 67.7678 58.7413 67.394 58.9885 67.4001 59.2358 67.1338 59.4829 67.0579 59.7302 66.8535 59.9774 66.7056 60.2247 66.6312 60.4719 66.2579 60.7192 66.3074 60.9664 65.981 61.2137 65.8986 61.4609 65.6823 61.7082 65.4913 61.9554 65.4101 62.2027 65.2306 62.4499 65.1779 62.6972 64.8262 62.9444 64.8081 63.1917 64.5006 63.4389 64.4373 63.6862 64.2251 63.9334 64.0077 64.1807 63.9145 64.4279 63.7046 64.6752 63.7264 64.9224 63.3748 65.1695 63.4202 65.4169 63.1797 65.6642 63.1083 65.9113 62.8832 66.1585 62.7662 66.4058 62.6089 66.653 62.3633 66.9003 62.2738 67.1475 61.9553 67.3948 61.9283 67.642 61.5825 67.8893 61.6369 68.1365 61.3019 68.3838 61.2367 68.631 60.9883 68.8783 60.8923 69.1255 60.7349 69.3728 60.3851 69.62 60.3894 69.8673 60.0379 70.1145 60.0564 70.3618 59.8108 70.609 59.6856 70.8563 59.4797 71.1035 59.336 71.3507 59.2099 71.598 59.0097 71.8453 59.0013 72.0924 58.6895 72.3397 58.6437 72.5869 58.3732 72.8342 58.2112 73.0814 58.0939 73.3287 57.8813 73.5759 57.6687 73.8232 57.5703 74.0704 57.4218 74.3177 57.1655 74.5649 57.2214 74.8122 56.884 75.0594 56.8071 75.3067 56.5582 75.5539 56.4079 75.8012 56.2108 76.0484 56.1261 76.2957 55.9131 76.5429 55.7455 76.7902 55.675 77.0374 55.5297 77.2847 55.2089 77.5318 55.2314 77.7791 54.9157 78.0264 54.9517 78.2736 54.6196 78.5208 54.5582 78.7681 54.3756 79.0153 54.1202 79.2626 54.0308 79.5098 53.9436 79.757 53.7813 80.0043 53.6035 80.2516 53.5131 80.4988 53.2799 80.7461 53.1626 80.9933 53.0142 81.2406 52.7971 81.4878 52.7007 81.735 52.3875 81.9823 52.3535 82.2295 52.1866 82.4768 52.0615 82.724 51.9449 82.9713 51.7928 83.2185 51.6284 83.4658 51.3924 83.7129 51.24 83.9603 50.9664 84.2076 50.8489 84.4547 50.7529 84.7019 50.6279 84.9492 50.5227 85.1964 50.2326 85.4437 50.2678 85.6909 49.9609 85.9382 49.9595 86.1854 49.6601 86.4327 49.7224 86.6799 49.4447 86.9272 49.3568 87.1744 49.1276 87.4217 48.9611 87.6689 48.8636 87.9162 48.53 88.1634 48.525 88.4107 48.1536 88.6579 48.1479 88.9052 47.8866 89.1524 47.8134 89.3997 47.518 89.6469 47.3535 89.8941 47.2819 90.1413 47.0926 90.3887 47.0112 90.6358 46.7827 90.8831 46.5887 91.1303 46.4097 91.3776 46.3274 91.6248 46.0392 91.8721 46.0355 92.1193 45.7218 92.3666 45.7635 92.6138 45.4321 92.8611 45.4075 93.1083 45.1022 93.3556 45.0479 93.6028 44.861 93.8501 44.6842 94.0973 44.5308 94.3446 44.2718 94.5918 44.2722 94.8391 43.9131 95.0863 43.935 95.3336 43.6763 95.5808 43.6335 95.8281 43.341 96.0753 43.1974 96.3224 43.1292 96.5698 42.8568 96.8169 42.7104 97.0642 42.5433 97.3114 42.4404 97.5587 42.2766 97.8059 42.0784 98.0532 41.997 98.3004 41.668 98.5477 41.5899 98.7949 41.3415 99.0422 41.2026 99.2894 40.9371 99.5367 40.9388 99.7839 40.6392 100.031 40.5316 100.278 40.3138 100.526 40.1142 100.773 39.9627 101.02 39.7148 101.267 39.5981 101.515 39.3738 101.762 39.3149 102.009 39.0432 102.256 39.0908 102.504 38.8587 102.751 38.729 102.998 38.471 103.245 38.4836 103.493 38.22 103.74 38.0716 103.987 37.8684 104.234 37.6916 104.482 37.6552 104.729 37.3096 104.976 37.4314 105.223 37.0332 105.471 36.9981 105.718 36.6589 105.965 36.5421 106.212 36.4035 106.46 36.1441 106.707 36.0043 106.954 35.7763 107.201 35.7039 107.449 35.3504 107.696 35.3469 107.943 34.9594 108.19 34.8836 108.438 34.5976 108.685 34.4975 108.932 34.342 109.179 33.9969 109.426 33.9829 109.674 33.8397 109.921 33.6543 110.168 33.3135 110.415 33.2485 110.663 33.2218 110.91 32.9199 111.157 32.7187 111.404 32.4932 111.652 32.4628 111.899 32.8093 112.146 32.4283 112.393 32.2771 112.641 32.4965 112.888 31.993 113.135 31.7927 113.382 31.534 113.63 31.3376 113.877 31.2092 114.124 30.8579 114.371 30.8056 114.619 30.5374 114.866 30.4985 115.113 30.1845 115.36 30.2572 115.608 30.0481 115.855 29.6684 116.102 29.4466 116.349 29.273 116.597 29.2486 116.844 28.9324 117.091 28.8775 117.338 28.5559 117.586 28.58 117.833 28.2557 118.08 28.2535 118.327 28.0061 118.575 27.8082 118.822 27.7294 119.069 27.4453 119.316 27.4469 119.564 27.257 119.811 27.168 120.058 26.8569 120.306 26.8387 120.552 26.5595 120.8 26.3764 121.047 26.3218 121.294 26.0458 121.542 25.9518 121.789 25.6256 122.037 25.6109 122.283 25.3632 122.53 25.3443 122.778 24.9988 123.025 24.8854 123.273 24.6746 123.52 24.4398 123.766 24.2828 124.014 24.0275 124.261 24.1306 124.509 23.7722 124.756 23.6901 125.003 23.3967 125.251 23.366 125.497 23.0944 125.744 22.9795 125.992 22.771 126.239 22.5308 126.487 22.3827 126.734 22.1797 126.98 21.9975 127.228 21.7584 127.475 21.6199 127.723 21.4421 127.97 21.1721 128.217 21.0572 128.465 20.7799 128.711 20.7056 128.959 20.4791 129.206 20.3985 129.453 20.1149 129.701 19.9851 129.948 19.8564 130.196 19.8526 130.196 18.8237 129.948 18.8267 129.701 19.1786 129.453 19.1912 129.206 19.5792 128.959 19.7395 128.711 19.8013 128.465 20.0874 128.217 20.1926 127.97 20.5225 127.723 20.4493 127.475 20.8458 127.228 20.907 126.98 21.0855 126.734 21.3188 126.487 21.5036 126.239 21.8323 125.992 21.7827 125.744 22.1531 125.497 22.0959 125.251 22.3431 125.003 22.4972 124.756 22.6042 124.509 22.7675 124.261 22.9236 124.014 23.2582 123.766 23.3167 123.52 23.6078 123.273 23.7028 123.025 23.9119 122.778 24.1827 122.53 24.1917 122.283 24.6031 122.037 24.6028 121.789 24.8405 121.542 25.0435 121.294 25.3073 121.047 25.434 120.8 25.5179 120.552 25.8928 120.306 25.9126 120.058 26.2333 119.811 26.1947 119.564 26.3326 119.316 26.4881 119.069 26.4966 118.822 26.8465 118.575 26.8835 118.327 27.1667 118.08 27.2284 117.833 27.4754 117.586 27.6393 117.338 27.8346 117.091 28.0035 116.844 28.0425 116.597 28.3802 116.349 28.2898 116.102 28.7075 115.855 28.6727 115.608 28.91 115.36 29.0688 115.113 29.2203 114.866 29.5578 114.619 29.4226 114.371 29.7775 114.124 29.7973 113.877 30.1289 113.63 30.2517 113.382 30.4304 113.135 30.6867 112.888 30.6721 112.641 31.0033 112.393 31.0865 112.146 31.3622 111.899 31.4624 111.652 31.6835 111.404 31.8728 111.157 32.0004 110.91 32.2574 110.663 32.3079 110.415 32.623 110.168 32.6492 109.921 32.9952 109.674 33.1493 109.426 33.2701 109.179 33.5293 108.932 33.5345 108.685 33.9188 108.438 33.9082 108.19 34.2047 107.943 34.328 107.696 34.5697 107.449 34.7172 107.201 34.8492 106.954 35.0998 106.707 35.0261 106.46 35.397 106.212 35.455 105.965 35.667 105.718 35.8503 105.471 35.9709 105.223 36.3023 104.976 36.2995 104.729 36.6172 104.482 36.5568 104.234 36.9071 103.987 36.9949 103.74 37.2048 103.493 37.4859 103.245 37.5258 102.998 37.6887 102.751 37.798 102.504 38.1154 102.256 38.156 102.009 38.3582 101.762 38.559 101.515 38.6631 101.267 38.9082 101.02 38.9041 100.773 39.2956 100.526 39.1834 100.278 39.5205 100.031 39.7557 99.7839 39.8435 99.5367 40.0892 99.2894 40.1249 99.0422 40.5216 98.7949 40.4509 98.5477 40.7263 98.3004 40.8425 98.0532 41.097 97.8059 41.2371 97.5587 41.4762 97.3114 41.6789 97.0642 41.7782 96.8169 42.0476 96.5698 42.1093 96.3224 42.4424 96.0753 42.5069 95.8281 42.7327 95.5808 42.88 95.3336 43.044 95.0863 43.3134 94.8391 43.3318 94.5918 43.589 94.3446 43.6844 94.0973 43.8792 93.8501 44.0321 93.6028 44.1612 93.3556 44.4146 93.1083 44.4663 92.8611 44.8609 92.6138 44.897 92.3666 45.0376 92.1193 45.129 91.8721 45.3166 91.6248 45.5789 91.3776 45.6612 91.1303 45.9715 90.8831 46.0374 90.6358 46.2441 90.3887 46.3593 90.1413 46.544 89.8941 46.6965 89.6469 46.7638 89.3997 47.0503 89.1524 47.0821 88.9052 47.3679 88.6579 47.4785 88.4107 47.6081 88.1634 47.7039 87.9162 47.859 87.6689 48.0976 87.4217 48.1323 87.1744 48.4483 86.9272 48.6137 86.6799 48.6956 86.4327 48.8976 86.1854 48.9573 85.9382 49.1681 85.6909 49.3144 85.4437 49.5172 85.1964 49.586 84.9492 49.8418 84.7019 49.9537 84.4547 50.0976 84.2076 50.3845 83.9603 50.2623 83.7129 50.5124 83.4658 50.5954 83.2185 50.8909 82.9713 50.9311 82.724 51.0468 82.4768 51.3419 82.2295 51.3179 81.9823 51.6265 81.735 51.6762 81.4878 51.908 81.2406 52.0046 80.9933 52.3003 80.7461 52.4135 80.4988 52.5826 80.2516 52.843 80.0043 52.8278 79.757 53.037 79.5098 53.2295 79.2626 53.3093 79.0153 53.5728 78.7681 53.7334 78.5208 54.0242 78.2736 54.0216 78.0264 54.2374 77.7791 54.4588 77.5318 54.441 77.2847 54.7519 77.0374 54.8663 76.7902 55.0976 76.5429 55.173 76.2957 55.4048 76.0484 55.5379 75.8012 55.7527 75.5539 55.8355 75.3067 55.9367 75.0594 56.2629 74.8122 56.3246 74.5649 56.5616 74.3177 56.6804 74.0704 56.8691 73.8232 56.9551 73.5759 57.2447 73.3287 57.3487 73.0814 57.482 72.8342 57.744 72.5869 57.7743 72.3397 58.0428 72.0924 57.9788 71.8453 58.3199 71.598 58.3582 71.3507 58.6078 71.1035 58.7993 70.8563 58.9121 70.609 59.1952 70.3618 59.1706 70.1145 59.5707 69.8673 59.5291 69.62 59.8299 69.3728 59.8619 69.1255 60.169 68.8783 60.3503 68.631 60.4388 68.3838 60.7213 68.1365 60.7828 67.8893 61.0043 67.642 60.9966 67.3948 61.1861 67.1475 61.3675 66.9003 61.5514 66.653 61.8509 66.4058 61.9067 66.1585 62.2158 65.9113 62.1644 65.6642 62.4702 65.4169 62.5094 65.1695 62.696 64.9224 62.8997 64.6752 62.9409 64.4279 63.1937 64.1807 63.203 63.9334 63.4412 63.6862 63.5673 63.4389 63.6989 63.1917 63.8339 62.9444 64.0797 62.6972 64.3383 62.4499 64.4316 62.2027 64.6401 61.9554 64.7112 61.7082 64.9533 61.4609 65.0946 61.2137 65.2693 60.9664 65.5637 60.7192 65.5232 60.4719 65.7956 60.2247 65.8816 59.9774 66.0657 59.7302 66.1563 59.4829 66.2953 59.2358 66.5426 58.9885 66.6566 58.7413 66.7936 58.494 66.8533 58.2468 67.2147 57.9995 67.2472 57.7523 67.3571 57.505 67.5226 57.2578 67.7857 57.0105 67.7901 56.7633 68.0596 56.516 68.2811 56.2688 68.2834 56.0215 68.5849 55.7743 68.5864 55.527 68.6742 55.2798 68.8597 55.0325 69.0418 54.7853 69.0769 54.538 69.1978 54.2908 69.4102 54.0435 69.5353 53.7963 69.8572 53.549 69.7879 53.3018 70.1986 53.0546 70.3396 52.8074 70.3457 52.5602 70.7848 52.3129 70.6813 52.0657 71.0634 51.8184 71.0813 51.5711 71.2977 51.3239 71.4184 51.0766 71.5135 50.8294 71.6549 50.5821 71.7853 50.3349 72.079 50.0876 72.0832 49.8404 72.3766 49.5932 72.401 49.3459 72.6934 49.0987 72.6111 48.8514 72.9673 48.6042 73.0782 48.3569 73.1915 48.1096 73.4199 47.8624 73.5363 47.6152 73.7454 47.3679 73.8499 47.1207 74.0081 46.8735 74.0781 46.6263 74.3724 46.379 74.3574 46.1318 74.6354 45.8845 74.7213 45.6373 74.9096 45.39 75.0352 45.1428 75.1427 44.8955 75.4162 44.6483 75.3724 44.401 75.7477 44.1538 75.7571 43.9065 75.9755 43.6593 76.2091 43.412 76.2345 43.1648 76.5256 42.9175 76.4527 42.6703 76.7675 42.423 76.9218 42.1758 77.0012 41.9285 77.3042 41.6813 77.2868 41.434 77.6322 41.1868 77.6067 40.9395 77.9548 40.6924 78.0822 40.4451 78.1431 40.1979 78.4008 39.9506 78.4754 39.7034 78.6617 39.4561 78.7046 39.2089 78.9501 38.9616 78.9916 38.7144 79.1503 38.4671 79.3172 38.2199 79.4366 37.9726 79.661 37.7254 79.8316 37.4781 79.8877 37.2309 80.1303 36.9836 80.2 36.7364 80.3788 36.4891 80.3995 36.2419 80.7633 35.9946 80.9036 35.7474 81.1049 35.5001 81.4057 35.2529 81.462 35.0056 81.7712 34.7584 81.8951 34.5111 82.0828 34.264 82.398 34.0168 82.423 33.7695 82.6955 33.5223 82.8837 33.275 83.0099 33.0278 83.2583 32.7805 83.4093 32.5333 83.589 32.286 83.7924 32.0388 83.9555 31.7915 84.1845 31.5443 84.2763 31.297 84.6593 31.0498 84.6583 30.8025 85.0447 30.5553 85.1553 30.308 85.4491 30.0608 85.7143 29.8135 85.9129 29.5663 85.9867 29.319 86.3458 29.0718 86.3091 28.8245 86.659 28.5773 86.8892 28.33 87.171 28.0828 87.4248 27.8356 87.672 27.5884 87.6869 27.3411 87.696 27.0939 88.0635 26.8466 88.2206 26.5994 88.5696 26.3521 88.9028 26.1049 89.1209 25.8576 89.2175 25.6104 89.2739 25.3631 89.6044 25.1159 89.6874 24.8686 89.9265 24.6214 90.0523 24.3741 90.3329 24.1269 90.5855 23.8796 90.7175 23.6324 91.0243 23.3851 91.0895 23.1379 91.4497 22.8906 91.7593 22.6434 91.793 22.3961 92.1061 22.1489 92.3289 21.9016 92.4037 21.6545 92.7959 21.4072 92.8709 21.16 93.3719 20.9128 93.6094 20.6655 93.9977 20.4182 94.2948 20.171 94.6711 19.9237 94.9302 19.6765 95.2933 19.4292 95.4457 19.182 95.8194 18.9347 96.1152 18.6875 96.476 18.6875 97.3906Z" fill="#4DAF4A" fill-opacity="0.2" transform="matrix(1.00091 0 0 1 215 797)"/><path d="M18.6875 97.3906 18.9347 96.8732 19.182 96.6619 19.4292 96.1993 19.6765 96.109 19.9237 95.6994 20.171 95.3785 20.4182 95.0522 20.6655 94.6572 20.9128 94.4775 21.16 94.3339 21.4072 94.079 21.6545 93.6966 21.9016 93.4707 22.1489 93.1439 22.3961 93.0261 22.6434 92.6374 22.8906 92.5341 23.1379 92.3534 23.3851 91.9224 23.6324 91.7765 23.8796 91.5002 24.1269 91.3998 24.3741 91.0435 24.6214 91.0788 24.8686 90.743 25.1159 90.5179 25.3631 90.2845 25.6104 90.123 25.8576 90.0966 26.1049 90.0454 26.3521 89.5709 26.5994 89.2098 26.8466 89.0076 27.0939 88.762 27.3411 88.6581 27.5884 88.4049 27.8356 88.1439 28.0828 87.9496 28.33 87.6898 28.5773 87.6211 28.8245 87.277 29.0718 87.123 29.319 87.2716 29.5663 86.692 29.8135 86.5588 30.0608 86.5128 30.308 86.0979 30.5553 85.9163 30.8025 85.7596 31.0498 85.5291 31.297 85.3117 31.5443 85.2265 31.7915 84.8972 32.0388 84.8731 32.286 84.4863 32.5333 84.3339 32.7805 84.0563 33.0278 83.8254 33.275 83.6742 33.5223 83.4676 33.7695 83.8482 34.0168 83.3761 34.264 83.0737 34.5111 82.7223 34.7584 82.5351 35.0056 82.2615 35.2529 82.0795 35.5001 81.9223 35.7474 81.7498 35.9946 81.5218 36.2419 81.3554 36.4891 81.143 36.7364 80.9973 36.9836 80.7949 37.2309 80.6378 37.4781 80.379 37.7254 80.2578 37.9726 80.0716 38.2199 80.0298 38.4671 79.7282 38.7144 79.6901 38.9616 79.4912 39.2089 79.4228 39.4561 79.1635 39.7034 79.0523 39.9506 78.9216 40.1979 78.6141 40.4451 78.5839 40.6924 78.3972 40.9395 78.2912 41.1868 78.0037 41.434 77.991 41.6813 77.7123 41.9285 77.6009 42.1758 77.4385 42.423 77.3144 42.6703 77.1203 42.9175 77.0307 43.1648 76.8268 43.412 76.7124 43.6593 76.5362 43.9065 76.3655 44.1538 76.2742 44.401 76.1665 44.6483 75.9984 44.8955 75.8669 45.1428 75.7394 45.39 75.6214 45.6373 75.4084 45.8845 75.2923 46.1318 75.1258 46.379 74.9909 46.6263 74.91 46.8735 74.6593 47.1207 74.5157 47.3679 74.457 47.6152 74.3326 47.8624 74.0764 48.1096 74.0075 48.3569 73.6574 48.6042 73.6906 48.8514 73.393 49.0987 73.4074 49.3459 73.162 49.5932 73.1426 49.8404 73.0169 50.0876 72.6935 50.3349 72.7319 50.5821 72.3585 50.8294 72.317 51.0766 72.1436 51.3239 72.0942 51.5711 71.8821 51.8184 71.7116 52.0657 71.5941 52.3129 71.4597 52.5602 71.2257 52.8074 71.1341 53.0546 70.9121 53.3018 70.7819 53.549 70.6606 53.7963 70.6131 54.0435 70.3751 54.2908 70.2585 54.538 69.9743 54.7853 69.8449 55.0325 69.6598 55.2798 69.4804 55.527 69.3194 55.7743 69.2785 56.0215 69.0131 56.2688 68.9656 56.516 68.8198 56.7633 68.7196 57.0105 68.5152 57.2578 68.402 57.505 68.319 57.7523 67.9933 57.9995 68.0322 58.2468 67.7108 58.494 67.7678 58.7413 67.394 58.9885 67.4001 59.2358 67.1338 59.4829 67.0579 59.7302 66.8535 59.9774 66.7056 60.2247 66.6312 60.4719 66.2579 60.7192 66.3074 60.9664 65.981 61.2137 65.8986 61.4609 65.6823 61.7082 65.4913 61.9554 65.4101 62.2027 65.2306 62.4499 65.1779 62.6972 64.8262 62.9444 64.8081 63.1917 64.5006 63.4389 64.4373 63.6862 64.2251 63.9334 64.0077 64.1807 63.9145 64.4279 63.7046 64.6752 63.7264 64.9224 63.3748 65.1695 63.4202 65.4169 63.1797 65.6642 63.1083 65.9113 62.8832 66.1585 62.7662 66.4058 62.6089 66.653 62.3633 66.9003 62.2738 67.1475 61.9553 67.3948 61.9283 67.642 61.5825 67.8893 61.6369 68.1365 61.3019 68.3838 61.2367 68.631 60.9883 68.8783 60.8923 69.1255 60.7349 69.3728 60.3851 69.62 60.3894 69.8673 60.0379 70.1145 60.0564 70.3618 59.8108 70.609 59.6856 70.8563 59.4797 71.1035 59.336 71.3507 59.2099 71.598 59.0097 71.8453 59.0013 72.0924 58.6895 72.3397 58.6437 72.5869 58.3732 72.8342 58.2112 73.0814 58.0939 73.3287 57.8813 73.5759 57.6687 73.8232 57.5703 74.0704 57.4218 74.3177 57.1655 74.5649 57.2214 74.8122 56.884 75.0594 56.8071 75.3067 56.5582 75.5539 56.4079 75.8012 56.2108 76.0484 56.1261 76.2957 55.9131 76.5429 55.7455 76.7902 55.675 77.0374 55.5297 77.2847 55.2089 77.5318 55.2314 77.7791 54.9157 78.0264 54.9517 78.2736 54.6196 78.5208 54.5582 78.7681 54.3756 79.0153 54.1202 79.2626 54.0308 79.5098 53.9436 79.757 53.7813 80.0043 53.6035 80.2516 53.5131 80.4988 53.2799 80.7461 53.1626 80.9933 53.0142 81.2406 52.7971 81.4878 52.7007 81.735 52.3875 81.9823 52.3535 82.2295 52.1866 82.4768 52.0615 82.724 51.9449 82.9713 51.7928 83.2185 51.6284 83.4658 51.3924 83.7129 51.24 83.9603 50.9664 84.2076 50.8489 84.4547 50.7529 84.7019 50.6279 84.9492 50.5227 85.1964 50.2326 85.4437 50.2678 85.6909 49.9609 85.9382 49.9595 86.1854 49.6601 86.4327 49.7224 86.6799 49.4447 86.9272 49.3568 87.1744 49.1276 87.4217 48.9611 87.6689 48.8636 87.9162 48.53 88.1634 48.525 88.4107 48.1536 88.6579 48.1479 88.9052 47.8866 89.1524 47.8134 89.3997 47.518 89.6469 47.3535 89.8941 47.2819 90.1413 47.0926 90.3887 47.0112 90.6358 46.7827 90.8831 46.5887 91.1303 46.4097 91.3776 46.3274 91.6248 46.0392 91.8721 46.0355 92.1193 45.7218 92.3666 45.7635 92.6138 45.4321 92.8611 45.4075 93.1083 45.1022 93.3556 45.0479 93.6028 44.861 93.8501 44.6842 94.0973 44.5308 94.3446 44.2718 94.5918 44.2722 94.8391 43.9131 95.0863 43.935 95.3336 43.6763 95.5808 43.6335 95.8281 43.341 96.0753 43.1974 96.3224 43.1292 96.5698 42.8568 96.8169 42.7104 97.0642 42.5433 97.3114 42.4404 97.5587 42.2766 97.8059 42.0784 98.0532 41.997 98.3004 41.668 98.5477 41.5899 98.7949 41.3415 99.0422 41.2026 99.2894 40.9371 99.5367 40.9388 99.7839 40.6392 100.031 40.5316 100.278 40.3138 100.526 40.1142 100.773 39.9627 101.02 39.7148 101.267 39.5981 101.515 39.3738 101.762 39.3149 102.009 39.0432 102.256 39.0908 102.504 38.8587 102.751 38.729 102.998 38.471 103.245 38.4836 103.493 38.22 103.74 38.0716 103.987 37.8684 104.234 37.6916 104.482 37.6552 104.729 37.3096 104.976 37.4314 105.223 37.0332 105.471 36.9981 105.718 36.6589 105.965 36.5421 106.212 36.4035 106.46 36.1441 106.707 36.0043 106.954 35.7763 107.201 35.7039 107.449 35.3504 107.696 35.3469 107.943 34.9594 108.19 34.8836 108.438 34.5976 108.685 34.4975 108.932 34.342 109.179 33.9969 109.426 33.9829 109.674 33.8397 109.921 33.6543 110.168 33.3135 110.415 33.2485 110.663 33.2218 110.91 32.9199 111.157 32.7187 111.404 32.4932 111.652 32.4628 111.899 32.8093 112.146 32.4283 112.393 32.2771 112.641 32.4965 112.888 31.993 113.135 31.7927 113.382 31.534 113.63 31.3376 113.877 31.2092 114.124 30.8579 114.371 30.8056 114.619 30.5374 114.866 30.4985 115.113 30.1845 115.36 30.2572 115.608 30.0481 115.855 29.6684 116.102 29.4466 116.349 29.273 116.597 29.2486 116.844 28.9324 117.091 28.8775 117.338 28.5559 117.586 28.58 117.833 28.2557 118.08 28.2535 118.327 28.0061 118.575 27.8082 118.822 27.7294 119.069 27.4453 119.316 27.4469 119.564 27.257 119.811 27.168 120.058 26.8569 120.306 26.8387 120.552 26.5595 120.8 26.3764 121.047 26.3218 121.294 26.0458 121.542 25.9518 121.789 25.6256 122.037 25.6109 122.283 25.3632 122.53 25.3443 122.778 24.9988 123.025 24.8854 123.273 24.6746 123.52 24.4398 123.766 24.2828 124.014 24.0275 124.261 24.1306 124.509 23.7722 124.756 23.6901 125.003 23.3967 125.251 23.366 125.497 23.0944 125.744 22.9795 125.992 22.771 126.239 22.5308 126.487 22.3827 126.734 22.1797 126.98 21.9975 127.228 21.7584 127.475 21.6199 127.723 21.4421 127.97 21.1721 128.217 21.0572 128.465 20.7799 128.711 20.7056 128.959 20.4791 129.206 20.3985 129.453 20.1149 129.701 19.9851 129.948 19.8564 130.196 19.8526" stroke="#AFDBAE" stroke-width="0.119792" stroke-linejoin="round" stroke-miterlimit="10" fill="none" fill-rule="evenodd" transform="matrix(1.00091 0 0 1 215 797)"/><path d="M18.6875 96.476 18.9347 96.1152 19.182 95.8194 19.4292 95.4457 19.6765 95.2933 19.9237 94.9302 20.171 94.6711 20.4182 94.2948 20.6655 93.9977 20.9128 93.6094 21.16 93.3719 21.4072 92.8709 21.6545 92.7959 21.9016 92.4037 22.1489 92.3289 22.3961 92.1061 22.6434 91.793 22.8906 91.7593 23.1379 91.4497 23.3851 91.0895 23.6324 91.0243 23.8796 90.7175 24.1269 90.5855 24.3741 90.3329 24.6214 90.0523 24.8686 89.9265 25.1159 89.6874 25.3631 89.6044 25.6104 89.2739 25.8576 89.2175 26.1049 89.1209 26.3521 88.9028 26.5994 88.5696 26.8466 88.2206 27.0939 88.0635 27.3411 87.696 27.5884 87.6869 27.8356 87.672 28.0828 87.4248 28.33 87.171 28.5773 86.8892 28.8245 86.659 29.0718 86.3091 29.319 86.3458 29.5663 85.9867 29.8135 85.9129 30.0608 85.7143 30.308 85.4491 30.5553 85.1553 30.8025 85.0447 31.0498 84.6583 31.297 84.6593 31.5443 84.2763 31.7915 84.1845 32.0388 83.9555 32.286 83.7924 32.5333 83.589 32.7805 83.4093 33.0278 83.2583 33.275 83.0099 33.5223 82.8837 33.7695 82.6955 34.0168 82.423 34.264 82.398 34.5111 82.0828 34.7584 81.8951 35.0056 81.7712 35.2529 81.462 35.5001 81.4057 35.7474 81.1049 35.9946 80.9036 36.2419 80.7633 36.4891 80.3995 36.7364 80.3788 36.9836 80.2 37.2309 80.1303 37.4781 79.8877 37.7254 79.8316 37.9726 79.661 38.2199 79.4366 38.4671 79.3172 38.7144 79.1503 38.9616 78.9916 39.2089 78.9501 39.4561 78.7046 39.7034 78.6617 39.9506 78.4754 40.1979 78.4008 40.4451 78.1431 40.6924 78.0822 40.9395 77.9548 41.1868 77.6067 41.434 77.6322 41.6813 77.2868 41.9285 77.3042 42.1758 77.0012 42.423 76.9218 42.6703 76.7675 42.9175 76.4527 43.1648 76.5256 43.412 76.2345 43.6593 76.2091 43.9065 75.9755 44.1538 75.7571 44.401 75.7477 44.6483 75.3724 44.8955 75.4162 45.1428 75.1427 45.39 75.0352 45.6373 74.9096 45.8845 74.7213 46.1318 74.6354 46.379 74.3574 46.6263 74.3724 46.8735 74.0781 47.1207 74.0081 47.3679 73.8499 47.6152 73.7454 47.8624 73.5363 48.1096 73.4199 48.3569 73.1915 48.6042 73.0782 48.8514 72.9673 49.0987 72.6111 49.3459 72.6934 49.5932 72.401 49.8404 72.3766 50.0876 72.0832 50.3349 72.079 50.5821 71.7853 50.8294 71.6549 51.0766 71.5135 51.3239 71.4184 51.5711 71.2977 51.8184 71.0813 52.0657 71.0634 52.3129 70.6813 52.5602 70.7848 52.8074 70.3457 53.0546 70.3396 53.3018 70.1986 53.549 69.7879 53.7963 69.8572 54.0435 69.5353 54.2908 69.4102 54.538 69.1978 54.7853 69.0769 55.0325 69.0418 55.2798 68.8597 55.527 68.6742 55.7743 68.5864 56.0215 68.5849 56.2688 68.2834 56.516 68.2811 56.7633 68.0596 57.0105 67.7901 57.2578 67.7857 57.505 67.5226 57.7523 67.3571 57.9995 67.2472 58.2468 67.2147 58.494 66.8533 58.7413 66.7936 58.9885 66.6566 59.2358 66.5426 59.4829 66.2953 59.7302 66.1563 59.9774 66.0657 60.2247 65.8816 60.4719 65.7956 60.7192 65.5232 60.9664 65.5637 61.2137 65.2693 61.4609 65.0946 61.7082 64.9533 61.9554 64.7112 62.2027 64.6401 62.4499 64.4316 62.6972 64.3383 62.9444 64.0797 63.1917 63.8339 63.4389 63.6989 63.6862 63.5673 63.9334 63.4412 64.1807 63.203 64.4279 63.1937 64.6752 62.9409 64.9224 62.8997 65.1695 62.696 65.4169 62.5094 65.6642 62.4702 65.9113 62.1644 66.1585 62.2158 66.4058 61.9067 66.653 61.8509 66.9003 61.5514 67.1475 61.3675 67.3948 61.1861 67.642 60.9966 67.8893 61.0043 68.1365 60.7828 68.3838 60.7213 68.631 60.4388 68.8783 60.3503 69.1255 60.169 69.3728 59.8619 69.62 59.8299 69.8673 59.5291 70.1145 59.5707 70.3618 59.1706 70.609 59.1952 70.8563 58.9121 71.1035 58.7993 71.3507 58.6078 71.598 58.3582 71.8453 58.3199 72.0924 57.9788 72.3397 58.0428 72.5869 57.7743 72.8342 57.744 73.0814 57.482 73.3287 57.3487 73.5759 57.2447 73.8232 56.9551 74.0704 56.8691 74.3177 56.6804 74.5649 56.5616 74.8122 56.3246 75.0594 56.2629 75.3067 55.9367 75.5539 55.8355 75.8012 55.7527 76.0484 55.5379 76.2957 55.4048 76.5429 55.173 76.7902 55.0976 77.0374 54.8663 77.2847 54.7519 77.5318 54.441 77.7791 54.4588 78.0264 54.2374 78.2736 54.0216 78.5208 54.0242 78.7681 53.7334 79.0153 53.5728 79.2626 53.3093 79.5098 53.2295 79.757 53.037 80.0043 52.8278 80.2516 52.843 80.4988 52.5826 80.7461 52.4135 80.9933 52.3003 81.2406 52.0046 81.4878 51.908 81.735 51.6762 81.9823 51.6265 82.2295 51.3179 82.4768 51.3419 82.724 51.0468 82.9713 50.9311 83.2185 50.8909 83.4658 50.5954 83.7129 50.5124 83.9603 50.2623 84.2076 50.3845 84.4547 50.0976 84.7019 49.9537 84.9492 49.8418 85.1964 49.586 85.4437 49.5172 85.6909 49.3144 85.9382 49.1681 86.1854 48.9573 86.4327 48.8976 86.6799 48.6956 86.9272 48.6137 87.1744 48.4483 87.4217 48.1323 87.6689 48.0976 87.9162 47.859 88.1634 47.7039 88.4107 47.6081 88.6579 47.4785 88.9052 47.3679 89.1524 47.0821 89.3997 47.0503 89.6469 46.7638 89.8941 46.6965 90.1413 46.544 90.3887 46.3593 90.6358 46.2441 90.8831 46.0374 91.1303 45.9715 91.3776 45.6612 91.6248 45.5789 91.8721 45.3166 92.1193 45.129 92.3666 45.0376 92.6138 44.897 92.8611 44.8609 93.1083 44.4663 93.3556 44.4146 93.6028 44.1612 93.8501 44.0321 94.0973 43.8792 94.3446 43.6844 94.5918 43.589 94.8391 43.3318 95.0863 43.3134 95.3336 43.044 95.5808 42.88 95.8281 42.7327 96.0753 42.5069 96.3224 42.4424 96.5698 42.1093 96.8169 42.0476 97.0642 41.7782 97.3114 41.6789 97.5587 41.4762 97.8059 41.2371 98.0532 41.097 98.3004 40.8425 98.5477 40.7263 98.7949 40.4509 99.0422 40.5216 99.2894 40.1249 99.5367 40.0892 99.7839 39.8435 100.031 39.7557 100.278 39.5205 100.526 39.1834 100.773 39.2956 101.02 38.9041 101.267 38.9082 101.515 38.6631 101.762 38.559 102.009 38.3582 102.256 38.156 102.504 38.1154 102.751 37.798 102.998 37.6887 103.245 37.5258 103.493 37.4859 103.74 37.2048 103.987 36.9949 104.234 36.9071 104.482 36.5568 104.729 36.6172 104.976 36.2995 105.223 36.3023 105.471 35.9709 105.718 35.8503 105.965 35.667 106.212 35.455 106.46 35.397 106.707 35.0261 106.954 35.0998 107.201 34.8492 107.449 34.7172 107.696 34.5697 107.943 34.328 108.19 34.2047 108.438 33.9082 108.685 33.9188 108.932 33.5345 109.179 33.5293 109.426 33.2701 109.674 33.1493 109.921 32.9952 110.168 32.6492 110.415 32.623 110.663 32.3079 110.91 32.2574 111.157 32.0004 111.404 31.8728 111.652 31.6835 111.899 31.4624 112.146 31.3622 112.393 31.0865 112.641 31.0033 112.888 30.6721 113.135 30.6867 113.382 30.4304 113.63 30.2517 113.877 30.1289 114.124 29.7973 114.371 29.7775 114.619 29.4226 114.866 29.5578 115.113 29.2203 115.36 29.0688 115.608 28.91 115.855 28.6727 116.102 28.7075 116.349 28.2898 116.597 28.3802 116.844 28.0425 117.091 28.0035 117.338 27.8346 117.586 27.6393 117.833 27.4754 118.08 27.2284 118.327 27.1667 118.575 26.8835 118.822 26.8465 119.069 26.4966 119.316 26.4881 119.564 26.3326 119.811 26.1947 120.058 26.2333 120.306 25.9126 120.552 25.8928 120.8 25.5179 121.047 25.434 121.294 25.3073 121.542 25.0435 121.789 24.8405 122.037 24.6028 122.283 24.6031 122.53 24.1917 122.778 24.1827 123.025 23.9119 123.273 23.7028 123.52 23.6078 123.766 23.3167 124.014 23.2582 124.261 22.9236 124.509 22.7675 124.756 22.6042 125.003 22.4972 125.251 22.3431 125.497 22.0959 125.744 22.1531 125.992 21.7827 126.239 21.8323 126.487 21.5036 126.734 21.3188 126.98 21.0855 127.228 20.907 127.475 20.8458 127.723 20.4493 127.97 20.5225 128.217 20.1926 128.465 20.0874 128.711 19.8013 128.959 19.7395 129.206 19.5792 129.453 19.1912 129.701 19.1786 129.948 18.8267 130.196 18.8237" stroke="#AFDBAE" stroke-width="0.119792" stroke-linejoin="round" stroke-miterlimit="10" fill="none" fill-rule="evenodd" transform="matrix(1.00091 0 0 1 215 797)"/><path d="M18.6875 96.9098 18.9347 96.5285 19.182 96.2316 19.4292 95.8747 19.6765 95.6674 19.9237 95.2612 20.171 94.9591 20.4182 94.6823 20.6655 94.3406 20.9128 94.0874 21.16 93.7836 21.4072 93.5959 21.6545 93.2477 21.9016 93.0699 22.1489 92.8134 22.3961 92.603 22.6434 92.365 22.8906 92.1487 23.1379 91.9817 23.3851 91.6425 23.6324 91.5102 23.8796 91.2351 24.1269 91.1133 24.3741 90.8393 24.6214 90.664 24.8686 90.4545 25.1159 90.2011 25.3631 90.0555 25.6104 89.7791 25.8576 89.6745 26.1049 89.4486 26.3521 89.2844 26.5994 88.9307 26.8466 88.6838 27.0939 88.4687 27.3411 88.2335 27.5884 88.0881 27.8356 87.8557 28.0828 87.7079 28.33 87.4419 28.5773 87.2786 28.8245 86.9994 29.0718 86.8188 29.319 86.6805 29.5663 86.4046 29.8135 86.2662 30.0608 86.0544 30.308 85.8558 30.5553 85.6182 30.8025 85.4392 31.0498 85.2424 31.297 85.0396 31.5443 84.8101 31.7915 84.5881 32.0388 84.4056 32.286 84.1564 32.5333 83.953 32.7805 83.7638 33.0278 83.5453 33.275 83.3393 33.5223 83.1575 33.7695 83.004 34.0168 82.8263 34.264 82.5904 34.5111 82.4342 34.7584 82.2243 35.0056 81.9883 35.2529 81.8175 35.5001 81.6397 35.7474 81.4378 35.9946 81.2477 36.2419 81.069 36.4891 80.8893 36.7364 80.7203 36.9836 80.5604 37.2309 80.4249 37.4781 80.2241 37.7254 80.0503 37.9726 79.9074 38.2199 79.7629 38.4671 79.5589 38.7144 79.4297 38.9616 79.2556 39.2089 79.1692 39.4561 78.9582 39.7034 78.8554 39.9506 78.6813 40.1979 78.498 40.4451 78.3696 40.6924 78.2105 40.9395 78.0858 41.1868 77.8713 41.434 77.7913 41.6813 77.593 41.9285 77.4475 42.1758 77.2735 42.423 77.114 42.6703 77.0147 42.9175 76.7993 43.1648 76.7236 43.412 76.5376 43.6593 76.4047 43.9065 76.2518 44.1538 76.0973 44.401 76.0035 44.6483 75.7536 44.8955 75.7016 45.1428 75.4895 45.39 75.3872 45.6373 75.1599 45.8845 75.0652 46.1318 74.8747 46.379 74.6998 46.6263 74.5794 46.8735 74.37 47.1207 74.2739 47.3679 74.0798 47.6152 73.987 47.8624 73.7906 48.1096 73.6634 48.3569 73.4597 48.6042 73.3278 48.8514 73.2046 49.0987 72.974 49.3459 72.9119 49.5932 72.684 49.8404 72.6351 50.0876 72.4094 50.3349 72.3424 50.5821 72.1613 50.8294 72.0106 51.0766 71.8885 51.3239 71.7474 51.5711 71.6369 51.8184 71.4248 52.0657 71.3428 52.3129 71.1194 52.5602 70.9961 52.8074 70.7776 53.0546 70.6913 53.3018 70.5057 53.549 70.2911 53.7963 70.1789 54.0435 70.0012 54.2908 69.8667 54.538 69.7029 54.7853 69.5887 55.0325 69.3718 55.2798 69.2464 55.527 69.0678 55.7743 68.9239 56.0215 68.7868 56.2688 68.5396 56.516 68.4709 56.7633 68.2773 57.0105 68.1207 57.2578 67.946 57.505 67.8759 57.7523 67.6708 57.9995 67.5282 58.2468 67.4308 58.494 67.2306 58.7413 67.1129 58.9885 66.9239 59.2358 66.8128 59.4829 66.6631 59.7302 66.4744 59.9774 66.3441 60.2247 66.1969 60.4719 66.0277 60.7192 65.8145 60.9664 65.7467 61.2137 65.5355 61.4609 65.3414 61.7082 65.2399 61.9554 65.0192 62.2027 64.9197 62.4499 64.7045 62.6972 64.5886 62.9444 64.4043 63.1917 64.1803 63.4389 64.0392 63.6862 63.8258 63.9334 63.7222 64.1807 63.4711 64.4279 63.423 64.6752 63.2478 64.9224 63.109 65.1695 62.9524 65.4169 62.7895 65.6642 62.6952 65.9113 62.4557 66.1585 62.4095 66.4058 62.1827 66.653 62.058 66.9003 61.8454 67.1475 61.6871 67.3948 61.5442 67.642 61.3187 67.8893 61.2551 68.1365 61.0143 68.3838 60.9318 68.631 60.6916 68.8783 60.5814 69.1255 60.4266 69.3728 60.1873 69.62 60.0835 69.8673 59.8549 70.1145 59.7574 70.3618 59.5045 70.609 59.3981 70.8563 59.2068 71.1035 59.062 71.3507 58.8934 71.598 58.7116 71.8453 58.6263 72.0924 58.3729 72.3397 58.2798 72.5869 58.0975 72.8342 57.9588 73.0814 57.7838 73.3287 57.5944 73.5759 57.4488 73.8232 57.2187 74.0704 57.103 74.3177 56.9016 74.5649 56.7864 74.8122 56.5302 75.0594 56.453 75.3067 56.2518 75.5539 56.0474 75.8012 55.9492 76.0484 55.7231 76.2957 55.6504 76.5429 55.3833 76.7902 55.3055 77.0374 55.0963 77.2847 54.9545 77.5318 54.7473 77.7791 54.6121 78.0264 54.5096 78.2736 54.2474 78.5208 54.1955 78.7681 53.964 79.0153 53.8189 79.2626 53.6201 79.5098 53.4976 79.757 53.3683 80.0043 53.1046 80.2516 53.0603 80.4988 52.8526 80.7461 52.721 80.9933 52.4985 81.2406 52.4229 81.4878 52.2056 81.735 51.9989 81.9823 51.9489 82.2295 51.712 82.4768 51.6169 82.724 51.3997 82.9713 51.2925 83.2185 51.1312 83.4658 50.962 83.7129 50.8302 83.9603 50.6328 84.2076 50.5891 84.4547 50.322 84.7019 50.2649 84.9492 50.0819 85.1964 49.8965 85.4437 49.7465 85.6909 49.5995 85.9382 49.4652 86.1854 49.254 86.4327 49.1803 86.6799 48.9529 86.9272 48.8527 87.1744 48.6452 87.4217 48.4761 87.6689 48.3546 87.9162 48.1356 88.1634 48.0107 88.4107 47.8321 88.6579 47.6795 88.9052 47.5336 89.1524 47.3518 89.3997 47.2111 89.6469 47.0245 89.8941 46.9031 90.1413 46.7798 90.3887 46.6105 90.6358 46.4701 90.8831 46.2675 91.1303 46.176 91.3776 45.9727 91.6248 45.8069 91.8721 45.6562 92.1193 45.4476 92.3666 45.331 92.6138 45.1189 92.8611 45.0322 93.1083 44.7564 93.3556 44.6292 93.6028 44.4536 93.8501 44.2796 94.0973 44.14 94.3446 43.9099 94.5918 43.8683 94.8391 43.6099 95.0863 43.5273 95.3336 43.3161 95.5808 43.1655 95.8281 42.9973 96.0753 42.7881 96.3224 42.7041 96.5698 42.4215 96.8169 42.3216 97.0642 42.0713 97.3114 41.9926 97.5587 41.7555 97.8059 41.5878 98.0532 41.4452 98.3004 41.1865 98.5477 41.0693 98.7949 40.8764 99.0422 40.8218 99.2894 40.5708 99.5367 40.4193 99.7839 40.2339 100.031 40.0527 100.278 39.8887 100.526 39.6253 100.773 39.5601 101.02 39.3191 101.267 39.193 101.515 38.9939 101.762 38.8453 102.009 38.6895 102.256 38.4783 102.504 38.3912 102.751 38.1479 102.998 38.0368 103.245 37.8732 103.493 37.7667 103.74 37.53 103.987 37.3566 104.234 37.2168 104.482 36.9947 104.729 36.8843 104.976 36.7135 105.223 36.5906 105.471 36.3859 105.718 36.2008 105.965 36.0112 106.212 35.8508 106.46 35.6678 106.707 35.4649 106.954 35.323 107.201 35.1296 107.449 34.9878 107.696 34.8327 107.943 34.6525 108.19 34.4431 108.438 34.2628 108.685 34.1582 108.932 33.9599 109.179 33.7693 109.426 33.6062 109.674 33.4809 109.921 33.2856 110.168 33.0854 110.415 32.9317 110.663 32.7845 110.91 32.6092 111.157 32.3894 111.404 32.2399 111.652 32.0627 111.899 31.9808 112.146 31.8389 112.393 31.6576 112.641 31.5114 112.888 31.2931 113.135 31.1731 113.382 30.9968 113.63 30.7817 113.877 30.6685 114.124 30.4727 114.371 30.3237 114.619 30.1278 114.866 29.9801 115.113 29.8353 115.36 29.6835 115.608 29.5633 115.855 29.3491 116.102 29.188 116.349 28.96 116.597 28.863 116.844 28.6451 117.091 28.4195 117.338 28.2641 117.586 28.0652 117.833 27.9446 118.08 27.7493 118.327 27.6299 118.575 27.435 118.822 27.2992 119.069 27.1097 119.316 26.977 119.564 26.8145 119.811 26.6237 120.058 26.4996 120.306 26.2958 120.552 26.1455 120.8 25.9251 121.047 25.7808 121.294 25.6131 121.542 25.4181 121.789 25.2339 122.037 25.0742 122.283 24.8894 122.53 24.6983 122.778 24.5426 123.025 24.36 123.273 24.1454 123.52 23.9933 123.766 23.7725 124.014 23.6378 124.261 23.4637 124.509 23.3249 124.756 23.1863 125.003 22.9539 125.251 22.8161 125.497 22.6289 125.744 22.4773 125.992 22.261 126.239 22.1173 126.487 21.9489 126.734 21.7345 126.98 21.5458 127.228 21.3549 127.475 21.2146 127.723 20.9647 127.97 20.8315 128.217 20.6502 128.465 20.4298 128.711 20.2789 128.959 20.0658 129.206 19.9411 129.453 19.6791 129.701 19.5456 129.948 19.3424 130.196 19.3392" stroke="#4DAF4A" stroke-width="1.4375" stroke-linejoin="round" stroke-miterlimit="10" fill="none" fill-rule="evenodd" transform="matrix(1.00091 0 0 1 215 797)"/></g></svg>