<svg width="144" height="115" xmlns="http://www.w3.org/2000/svg" xmlns:xlink="http://www.w3.org/1999/xlink" xml:space="preserve" overflow="hidden"><defs><clipPath id="clip0"><rect x="219" y="629" width="144" height="115"/></clipPath></defs><g clip-path="url(#clip0)" transform="translate(-219 -629)"><path d="M0 0 143.75 0 143.75 115 0 115Z" fill="#FFFFFF" transform="matrix(1.00174 0 0 1 219 629)"/><path d="M0 0 143.75 0 143.75 115 0 115Z" fill="#FFFFFF" transform="matrix(1.00174 0 0 1 219 629)"/><path d="M18.6875 97.3906 130.214 97.3906 130.214 8.625 18.6875 8.625Z" fill="#FFFFFF" transform="matrix(1.00174 0 0 1 219 629)"/><path d="M18.6875 97.3906 130.214 97.3906" stroke="#262626" stroke-width="0.119792" stroke-linecap="square" stroke-linejoin="round" stroke-miterlimit="10" fill="none" transform="matrix(1.00174 0 0 1 219 629)"/><path d="M18.6875 97.3906 18.6875 96.2754" stroke="#262626" stroke-width="0.119792" stroke-linecap="square" stroke-linejoin="round" stroke-miterlimit="10" fill="none" transform="matrix(1.00174 0 0 1 219 629)"/><path d="M55.8628 97.3906 55.8628 96.2754" stroke="#262626" stroke-width="0.119792" stroke-linecap="square" stroke-linejoin="round" stroke-miterlimit="10" fill="none" transform="matrix(1.00174 0 0 1 219 629)"/><path d="M93.0382 97.3906 93.0382 96.2754" stroke="#262626" stroke-width="0.119792" stroke-linecap="square" stroke-linejoin="round" stroke-miterlimit="10" fill="none" transform="matrix(1.00174 0 0 1 219 629)"/><path d="M130.214 97.3906 130.214 96.2754" stroke="#262626" stroke-width="0.119792" stroke-linecap="square" stroke-linejoin="round" stroke-miterlimit="10" fill="none" transform="matrix(1.00174 0 0 1 219 629)"/><text fill="#262626" font-family="Arial,Arial_MSFontService,sans-serif" font-weight="400" font-size="96" transform="matrix(0.12 0 0 0.119792 234.84 740)">0</text><text fill="#262626" font-family="Arial,Arial_MSFontService,sans-serif" font-weight="400" font-size="96" transform="matrix(0.12 0 0 0.119792 272.08 740)">5</text><text fill="#262626" font-family="Arial,Arial_MSFontService,sans-serif" font-weight="400" font-size="96" transform="matrix(0.12 0 0 0.119792 306.44 740)">10</text><text fill="#262626" font-family="Arial,Arial_MSFontService,sans-serif" font-weight="400" font-size="96" transform="matrix(0.12 0 0 0.119792 343.68 740)">15</text><path d="M18.6875 97.3906 18.6875 8.625" stroke="#262626" stroke-width="0.119792" stroke-linecap="square" stroke-linejoin="round" stroke-miterlimit="10" fill="none" transform="matrix(1.00174 0 0 1 219 629)"/><path d="M18.6875 97.1939 19.8028 97.1939" stroke="#262626" stroke-width="0.119792" stroke-linecap="square" stroke-linejoin="round" stroke-miterlimit="10" fill="none" transform="matrix(1.00174 0 0 1 219 629)"/><path d="M18.6875 56.6516 19.8028 56.6516" stroke="#262626" stroke-width="0.119792" stroke-linecap="square" stroke-linejoin="round" stroke-miterlimit="10" fill="none" transform="matrix(1.00174 0 0 1 219 629)"/><path d="M18.6875 16.1092 19.8028 16.1092" stroke="#262626" stroke-width="0.119792" stroke-linecap="square" stroke-linejoin="round" stroke-miterlimit="10" fill="none" transform="matrix(1.00174 0 0 1 219 629)"/><text fill="#262626" font-family="Arial,Arial_MSFontService,sans-serif" font-weight="400" font-size="96" transform="matrix(0.12 0 0 0.119792 229.176 729)">0</text><text fill="#262626" font-family="Arial,Arial_MSFontService,sans-serif" font-weight="400" font-size="96" transform="matrix(0.12 0 0 0.119792 229.176 689)">5</text><text fill="#262626" font-family="Arial,Arial_MSFontService,sans-serif" font-weight="400" font-size="96" transform="matrix(0.12 0 0 0.119792 223.416 648)">10</text><path d="M19.1819 96.5244 18.9347 96.8578 18.6875 96.9987 18.6875 97.3906 18.9347 97.1337 19.1819 96.898 19.4291 96.6001 19.6763 96.3429 19.9235 96.1128 20.1706 95.8452 20.4179 95.5626 20.665 95.2262 20.9123 95.0156 21.1594 94.6385 21.4067 94.3412 21.6538 94.088 21.901 93.8436 22.1483 93.7426 22.3954 93.385 22.6427 93.2251 22.8898 92.9511 23.137 92.6736 23.3842 92.5521 23.6314 92.253 23.8786 92.0483 24.1258 91.7754 24.3731 91.6256 24.6202 91.3731 24.8674 91.1105 25.1146 90.8264 25.3618 90.5576 25.6089 90.3454 25.8562 90.2034 26.1033 89.9852 26.3506 89.8678 26.5977 89.6627 26.845 89.3653 27.0921 89.232 27.3393 89.4368 27.5866 88.985 27.8337 88.6379 28.081 88.3293 28.3281 88.0911 28.5753 88.0263 28.8225 87.8734 29.0697 87.6179 29.3169 87.3444 29.5641 87.073 29.8112 86.8905 30.0585 86.6963 30.3056 86.3645 30.5529 86.1315 30.8001 86.0093 31.0472 85.8756 31.2945 85.6769 31.5416 85.2902 31.7889 85.145 32.036 84.9396 32.2833 84.836 32.5304 84.638 32.7776 84.4456 33.0248 84.093 33.272 83.8611 33.5191 83.9333 33.7664 83.7637 34.0136 83.4169 34.2608 83.3145 34.508 83.0681 34.7552 82.923 35.0024 82.6468 35.2495 82.3957 35.4968 82.2479 35.7439 82.0097 35.9912 82.0037 36.2384 81.7937 36.4855 81.4797 36.7327 81.4724 36.9799 81.2579 37.2272 81.6605 37.4743 81.1738 37.7216 80.9195 37.9687 80.6185 38.2159 80.2377 38.4631 80.0953 38.7103 80.0042 38.9574 79.849 39.2047 79.6208 39.4518 79.3109 39.6991 79.1083 39.9463 79.0706 40.1935 78.82 40.4407 78.6014 40.6878 78.4661 40.9351 78.2983 41.1822 78.2983 41.4295 78.0128 41.6766 77.7894 41.9238 77.6194 42.171 77.4421 42.4182 77.3559 42.6655 77.0686 42.9126 76.7671 43.1599 76.6167 43.407 76.4116 43.6542 76.2648 43.9014 76.1373 44.1486 75.8351 44.3957 75.7059 44.643 75.5623 44.8901 75.4136 45.1374 75.2094 45.3845 74.899 45.6318 74.7026 45.879 74.4469 46.1261 74.3214 46.3734 74.1329 46.6205 73.8005 46.8678 73.575 47.1149 73.3829 47.3622 73.2908 47.6093 73.1189 47.8565 72.8444 48.1037 72.5752 48.3509 72.3514 48.5982 72.1843 48.8453 72.073 49.0925 71.8453 49.3397 71.7481 49.5869 71.5256 49.8341 71.357 50.0813 71.1231 50.3284 70.9098 50.5757 70.8531 50.8228 70.7194 51.0701 70.498 51.3173 70.2407 51.5644 70.0909 51.8117 69.9231 52.0588 69.8227 52.3061 69.6011 52.5532 69.3422 52.8005 69.0873 53.0476 68.9347 53.2948 68.9725 53.542 68.7769 53.7892 68.516 54.0363 68.4952 54.2836 68.1244 54.5308 67.9124 54.778 67.8906 55.0252 67.6838 55.2724 67.5151 55.5196 67.2976 55.7667 67.0219 56.014 66.9794 56.2611 66.7582 56.5084 66.5529 56.7555 66.3309 57.0027 66.2458 57.25 66.1258 57.4971 65.901 57.7444 65.7562 57.9915 65.5478 58.2388 65.3225 58.4859 65.2774 58.7331 65.1149 58.9803 64.8874 59.2275 64.9473 59.4746 64.7013 59.7219 64.5263 59.9691 64.3541 60.2163 64.1538 60.4635 63.9803 60.7107 63.7362 60.9579 63.4965 61.205 63.4213 61.4523 63.2107 61.6994 63.1443 61.9467 63.0041 62.1938 62.7028 62.441 62.6078 62.6882 62.3656 62.9354 62.2284 63.1827 62.0668 63.4298 61.9186 63.6771 61.7348 63.9242 61.5212 64.1714 61.3158 64.4186 61.2483 64.6658 61.0509 64.9129 60.8361 65.1602 60.6896 65.4073 60.4714 65.6546 60.3157 65.9017 60.2834 66.149 60.1442 66.3962 60.0803 66.6433 59.8219 66.8906 59.5993 67.1377 59.5233 67.385 59.2021 67.6321 59.0145 67.8793 58.8612 68.1265 58.6201 68.3737 58.5941 68.6209 58.3588 68.8681 58.1971 69.1154 57.9145 69.3625 57.7423 69.6097 57.6809 69.8569 57.4972 70.1041 57.2418 70.3512 57.1548 70.5985 56.9014 70.8456 56.9736 71.0929 56.7506 71.34 56.5395 71.5873 56.3351 71.8344 56.1327 72.0816 56.0478 72.3289 55.8549 72.576 55.6885 72.8233 55.5413 73.0704 55.37 73.3176 55.1502 73.5648 54.929 73.812 54.7976 74.0592 54.6109 74.3064 54.5136 74.5535 54.3489 74.8008 54.055 75.0479 53.9283 75.2952 53.7504 75.5424 53.5895 75.7896 53.3868 76.0368 53.173 76.2839 53.0658 76.5312 52.7973 76.7783 52.6404 77.0256 52.5339 77.2727 52.2706 77.5199 52.0787 77.7672 51.9173 78.0143 51.709 78.2616 51.5539 78.5087 51.3168 78.756 51.0938 79.0031 50.937 79.2503 50.6535 79.4975 50.6011 79.7447 50.3767 79.9918 50.1682 80.2391 50.0366 80.4862 49.7663 80.7335 49.6738 80.9807 49.4329 81.2279 49.2667 81.4751 49.1135 81.7222 48.7744 81.9695 48.7233 82.2166 48.4677 82.4639 48.2938 82.711 48.1382 82.9582 47.9156 83.2054 47.7811 83.4526 47.6108 83.6998 47.3796 83.947 47.2006 84.1943 46.9223 84.4414 46.7976 84.6886 46.5817 84.9358 46.5355 85.183 46.4304 85.4301 46.1865 85.6774 45.913 85.9245 45.6702 86.1718 45.6071 86.419 45.5214 86.6662 45.3166 86.9133 45.0231 87.1605 44.7794 87.4078 44.7955 87.6549 44.5833 87.9022 44.3517 88.1493 44.0972 88.3965 43.7583 88.6437 43.7721 88.8909 43.5758 89.1381 43.2682 89.3853 43.0169 89.6326 42.8349 89.8797 42.6815 90.1269 42.4954 90.3741 42.3077 90.6213 42.0082 90.8684 41.845 91.1157 41.6895 91.3628 41.5441 91.6101 41.3978 91.8572 41.1208 92.1045 40.9799 92.3516 40.76 92.5988 40.6452 92.8461 40.5854 93.0932 40.299 93.3405 40.0697 93.5876 39.9242 93.8348 39.7977 94.082 39.5509 94.3292 39.4112 94.5764 39.2889 94.8236 39.0346 95.0709 38.9368 95.318 38.5422 95.5651 38.4883 95.8124 38.3632 96.0596 38.2918 96.3067 37.9879 96.554 37.6149 96.8011 37.4738 97.0484 37.3134 97.2955 37.0611 97.5428 36.8862 97.7899 36.6217 98.0371 36.481 98.2843 36.4191 98.5315 36.1877 98.7788 35.984 99.0259 35.7269 99.2732 35.3879 99.5203 35.3111 99.7675 35.1537 100.015 35.0516 100.262 34.746 100.509 34.6506 100.756 34.4336 101.003 34.21 101.251 33.8933 101.498 33.7747 101.745 33.4957 101.992 33.4492 102.239 33.1691 102.487 32.9901 102.734 33.3819 102.981 32.6769 103.228 32.4457 103.475 32.0634 103.723 31.9383 103.97 31.7819 104.217 31.5789 104.464 31.2074 104.711 31.1613 104.959 30.7745 105.206 30.6122 105.453 30.5702 105.7 30.2857 105.947 30.265 106.195 29.9287 106.442 29.5581 106.689 29.2617 106.936 29.1508 107.183 28.9871 107.431 28.8491 107.678 28.5865 107.925 28.4323 108.172 28.3067 108.419 28.3871 108.666 27.986 108.914 27.652 109.161 27.4765 109.408 27.1356 109.655 26.9677 109.903 27.0203 110.15 26.9595 110.397 26.6616 110.644 26.5558 110.891 26.2333 111.139 26.117 111.386 25.68 111.633 25.5588 111.88 25.2741 112.127 25.2977 112.374 25.4279 112.622 24.9362 112.869 24.621 113.116 24.3041 113.363 24.5035 113.61 24.2533 113.858 23.8916 114.105 23.6831 114.352 23.4423 114.599 23.2356 114.846 23.0586 115.094 22.7974 115.341 22.6688 115.588 22.4995 115.835 22.3069 116.082 22.0249 116.33 21.7869 116.577 21.6904 116.824 21.4013 117.071 21.1376 117.318 21.0174 117.566 20.8358 117.813 20.6841 118.06 20.3368 118.307 20.0507 118.554 19.9622 118.801 19.7672 119.049 19.8455 119.296 19.4947 119.543 19.1985 119.79 18.8842 120.037 18.6307 120.285 18.5493 120.532 18.1586 120.779 18.1111 121.027 17.9172 121.273 17.8262 121.52 17.3646 121.768 17.0731 122.015 16.6982 122.262 16.6391 122.51 16.6419 122.757 16.2731 123.003 15.9004 123.251 15.6516 123.498 15.688 123.746 15.4383 123.993 15.1933 124.24 14.9445 124.487 14.762 124.734 14.4744 124.981 14.3891 125.229 14.1856 125.476 13.8573 125.723 13.5642 125.971 13.3141 126.217 13.4089 126.464 13.162 126.712 12.8061 126.959 12.5073 127.206 12.23 127.454 12.1852 127.7 11.9346 127.948 11.7378 128.195 11.3282 128.442 11.081 128.69 11.0392 128.937 10.8037 129.183 10.4611 129.431 10.1973 129.678 9.90448 129.925 9.85709 130.173 9.84969 130.173 8.62905 129.925 8.625 129.678 8.77384 129.431 9.02304 129.183 9.30884 128.937 9.68995 128.69 9.94379 128.442 10.0507 128.195 10.1025 127.948 10.5091 127.7 10.6835 127.454 11.0239 127.206 11.2118 126.959 11.264 126.712 11.5401 126.464 11.6995 126.217 12.0474 125.971 12.2208 125.723 12.6159 125.476 12.5047 125.229 12.8665 124.981 13.0683 124.734 13.3241 124.487 13.6052 124.24 13.696 123.993 13.8253 123.746 14.1863 123.498 14.4373 123.251 14.7043 123.003 14.9186 122.757 14.8733 122.51 15.125 122.262 15.4106 122.015 15.6472 121.768 15.9802 121.52 16.1924 121.273 16.269 121.027 16.5232 120.779 16.8336 120.532 17.3075 120.285 17.526 120.037 17.5395 119.79 17.6773 119.543 18.0125 119.296 18.2881 119.049 18.5457 118.801 18.726 118.554 19.0113 118.307 18.964 118.06 19.158 117.813 19.5217 117.566 19.7262 117.318 19.9944 117.071 20.2771 116.824 20.2753 116.577 20.5119 116.33 20.7827 116.082 21.3036 115.835 21.4887 115.588 21.4836 115.341 21.7913 115.094 21.7808 114.846 22.0419 114.599 22.4306 114.352 22.4874 114.105 22.5744 113.858 23.0299 113.61 23.2137 113.363 23.489 113.116 23.5593 112.869 23.5654 112.622 23.8657 112.374 24.1246 112.127 24.5095 111.88 24.7009 111.633 25.0686 111.386 25.0379 111.139 25.2266 110.891 25.5665 110.644 25.5027 110.397 25.8949 110.15 26.0233 109.903 26.1512 109.655 26.4976 109.408 26.8076 109.161 26.9332 108.914 27.2211 108.666 27.4033 108.419 27.1677 108.172 27.4404 107.925 27.7221 107.678 28.0263 107.431 28.3762 107.183 28.271 106.936 28.7863 106.689 28.8285 106.442 28.9932 106.195 29.3424 105.947 29.4077 105.7 29.5496 105.453 30.0339 105.206 30.138 104.959 30.3439 104.711 30.6724 104.464 30.6207 104.217 30.6499 103.97 30.9364 103.723 31.2854 103.475 31.6361 103.228 31.8623 102.981 31.7271 102.734 31.9681 102.487 32.2791 102.239 32.6747 101.992 32.9062 101.745 32.9485 101.498 33.0282 101.251 33.3345 101.003 33.607 100.756 33.8386 100.509 34.064 100.262 34.087 100.015 34.3489 99.7675 34.5137 99.5203 34.8355 99.2732 34.9211 99.0259 35.1118 98.7788 35.3443 98.5315 35.7128 98.2843 35.7583 98.0371 36.0628 97.7899 36.1497 97.5428 36.2825 97.2955 36.6682 97.0484 36.8647 96.8011 36.9626 96.554 37.2257 96.3067 37.4378 96.0596 37.4578 95.8124 37.7378 95.5651 38.1455 95.318 38.1418 95.0709 38.2398 94.8236 38.373 94.5764 38.6003 94.3292 38.8882 94.082 39.1071 93.8348 39.2907 93.5876 39.4724 93.3405 39.5453 93.0932 39.7247 92.8461 39.697 92.5988 39.9643 92.3516 40.1404 92.1045 40.4014 91.8572 40.5695 91.6101 40.5615 91.3628 40.8306 91.1157 41.0314 90.8684 41.2312 90.6213 41.4588 90.3741 41.5648 90.1269 41.7628 89.8797 42.0174 89.6326 42.2139 89.3853 42.4076 89.1381 42.4877 88.8909 42.7075 88.6437 42.9899 88.3965 43.1359 88.1493 43.4494 87.9022 43.5386 87.6549 43.6842 87.4078 43.9122 87.1605 44.163 86.9133 44.4434 86.6662 44.6654 86.419 44.5818 86.1718 44.8407 85.9245 45.0544 85.6774 45.3615 85.4301 45.64 85.183 45.7587 84.9358 45.817 84.6886 46.0484 84.4414 46.3214 84.1943 46.538 83.947 46.7269 83.6998 46.8066 83.4526 46.997 83.2054 47.1802 82.9582 47.3805 82.711 47.584 82.4639 47.6983 82.2166 47.8826 81.9695 47.976 81.7222 48.2823 81.4751 48.4876 81.2279 48.6852 80.9807 48.8857 80.7335 48.9996 80.4862 49.1878 80.2391 49.3926 79.9918 49.6219 79.7447 49.9263 79.4975 49.9988 79.2503 50.1302 79.0031 50.3614 78.756 50.6429 78.5087 50.901 78.2616 50.9851 78.0143 51.1427 77.7672 51.4038 77.5199 51.5952 77.2727 51.8194 77.0256 52.0064 76.7783 52.0072 76.5312 52.2252 76.2839 52.4429 76.0368 52.6399 75.7896 52.8939 75.5424 53.1779 75.2952 53.1567 75.0479 53.3085 74.8008 53.5659 74.5535 53.7916 74.3064 54.0419 74.0592 54.1339 73.812 54.1721 73.5648 54.4046 73.3176 54.6167 73.0704 54.8304 72.8233 55.0487 72.576 55.0362 72.3289 55.2343 72.0816 55.4924 71.8344 55.7258 71.5873 55.9788 71.34 56.1097 71.0929 56.0861 70.8456 56.328 70.5985 56.5638 70.3512 56.6978 70.1041 56.9724 69.8569 56.8583 69.6097 57.0353 69.3625 57.3416 69.1154 57.4908 68.8681 57.7301 68.6209 57.9778 68.3737 57.9062 68.1265 58.08 67.8793 58.2777 67.6321 58.51 67.385 58.7255 67.1377 58.7707 66.8906 58.854 66.6433 59.0851 66.3962 59.2396 66.149 59.4569 65.9017 59.6993 65.6546 59.6967 65.4073 59.7905 65.1602 60.0231 64.9129 60.3628 64.6658 60.5801 64.4186 60.7605 64.1714 60.7271 63.9242 60.971 63.6771 61.2313 63.4298 61.4266 63.1827 61.6883 62.9354 61.7598 62.6882 61.865 62.441 62.1428 62.1938 62.3522 61.9467 62.6363 61.6994 62.8407 61.4523 62.8096 61.205 62.9746 60.9579 63.2084 60.7107 63.4134 60.4635 63.6455 60.2163 63.732 59.9691 63.8081 59.7219 64.0503 59.4746 64.2137 59.2275 64.4845 58.9803 64.6913 58.7331 64.6778 58.4859 64.8074 58.2388 65.027 57.9915 65.2702 57.7444 65.3604 57.4971 65.531 57.25 65.6046 57.0027 65.8078 56.7555 66.0367 56.5084 66.2763 56.2611 66.3322 56.014 66.5618 55.7667 66.5969 55.5196 66.866 55.2724 67.1266 55.0252 67.1442 54.778 67.3355 54.5308 67.5159 54.2836 67.7419 54.0363 68.0042 53.7892 68.0845 53.542 68.2297 53.2948 68.4207 53.0476 68.5623 52.8005 68.8734 52.5532 69.0477 52.3061 69.1883 52.0588 69.4214 51.8117 69.4981 51.5644 69.7117 51.3173 69.9673 51.0701 70.0987 50.8228 70.3288 50.5757 70.3925 50.3284 70.5057 50.0813 70.7378 49.8341 71.0374 49.5869 71.2122 49.3397 71.2045 49.0925 71.3762 48.8453 71.5698 48.5982 71.8643 48.3509 72.0864 48.1037 72.0156 47.8565 72.3006 47.6093 72.5842 47.3622 72.819 47.1149 73.0452 46.8678 73.0591 46.6205 73.3235 46.3734 73.535 46.1261 73.8184 45.879 74.0221 45.6318 74.1001 45.3845 74.3996 45.1374 74.6924 44.8901 74.8869 44.643 75.0789 44.3957 75.2205 44.1486 75.5058 43.9014 75.6982 43.6542 75.8128 43.407 75.9317 43.1599 75.945 42.9126 76.2013 42.6655 76.3057 42.4182 76.5105 42.171 76.885 41.9238 76.855 41.6766 77.1289 41.4295 77.4162 41.1822 77.5054 40.9351 77.8785 40.6878 77.8883 40.4407 78.1326 40.1935 78.3167 39.9463 78.3853 39.6991 78.6196 39.4518 78.9128 39.2047 79.1081 38.9574 79.1056 38.7103 79.3274 38.4631 79.4845 38.2159 79.4003 37.9687 79.6047 37.7216 79.8367 37.4743 80.1594 37.2272 80.4015 36.9799 80.4093 36.7327 80.7093 36.4855 80.9807 36.2384 81.1383 35.9912 81.3453 35.7439 81.5125 35.4968 81.7621 35.2495 81.836 35.0024 82.0813 34.7552 82.2975 34.508 82.49 34.2608 82.6961 34.0136 82.9773 33.7664 83.0656 33.5191 83.26 33.272 83.5293 33.0248 83.7418 32.7776 84.0301 32.5304 84.1681 32.2833 84.3957 32.036 84.5962 31.7889 84.7812 31.5416 85.0565 31.2945 85.227 31.0472 85.4161 30.8001 85.6821 30.5529 85.8685 30.3056 86.0315 30.0585 86.2706 29.8112 86.4304 29.5641 86.5732 29.3169 86.9078 29.0697 87.1056 28.8225 87.3599 28.5753 87.4327 28.3281 87.6264 28.081 87.9133 27.8337 88.2106 27.5866 88.4748 27.3393 88.5658 27.0921 88.7418 26.845 88.966 26.5977 89.1973 26.3506 89.4306 26.1033 89.5769 25.8562 89.7125 25.6089 89.9605 25.3618 90.2604 25.1146 90.5476 24.8674 90.6786 24.6202 90.8958 24.3731 91.1171 24.1258 91.336 23.8786 91.6855 23.6314 91.867 23.3842 92.0732 23.137 92.2658 22.8898 92.5501 22.6427 92.8577 22.3954 92.9522 22.1483 93.0675 21.901 93.4668 21.6538 93.7376 21.4067 94.0046 21.1594 94.1443 20.9123 94.4512 20.665 94.7896 20.4179 95.1163 20.1706 95.4664 19.9235 95.5582 19.6763 95.8156 19.4291 96.1753Z" fill="#4DAF4A" fill-opacity="0.2" transform="matrix(1.00174 0 0 1 219 629)"/><path d="M18.6875 97.3906 18.9347 97.1337 19.1819 96.898 19.4291 96.6001 19.6763 96.3429 19.9235 96.1128 20.1706 95.8452 20.4179 95.5626 20.665 95.2262 20.9123 95.0156 21.1594 94.6385 21.4067 94.3412 21.6538 94.088 21.901 93.8436 22.1483 93.7426 22.3954 93.385 22.6427 93.2251 22.8898 92.9511 23.137 92.6736 23.3842 92.5521 23.6314 92.253 23.8786 92.0483 24.1258 91.7754 24.3731 91.6256 24.6202 91.3731 24.8674 91.1105 25.1146 90.8264 25.3618 90.5576 25.6089 90.3454 25.8562 90.2034 26.1033 89.9852 26.3506 89.8678 26.5977 89.6627 26.845 89.3653 27.0921 89.232 27.3393 89.4368 27.5866 88.985 27.8337 88.6379 28.081 88.3293 28.3281 88.0911 28.5753 88.0263 28.8225 87.8734 29.0697 87.6179 29.3169 87.3444 29.5641 87.073 29.8112 86.8905 30.0585 86.6963 30.3056 86.3645 30.5529 86.1315 30.8001 86.0093 31.0472 85.8756 31.2945 85.6769 31.5416 85.2902 31.7889 85.145 32.036 84.9396 32.2833 84.836 32.5304 84.638 32.7776 84.4456 33.0248 84.093 33.272 83.8611 33.5191 83.9333 33.7664 83.7637 34.0136 83.4169 34.2608 83.3145 34.508 83.0681 34.7552 82.923 35.0024 82.6468 35.2495 82.3957 35.4968 82.2479 35.7439 82.0097 35.9912 82.0037 36.2384 81.7937 36.4855 81.4797 36.7327 81.4724 36.9799 81.2579 37.2272 81.6605 37.4743 81.1738 37.7216 80.9195 37.9687 80.6185 38.2159 80.2377 38.4631 80.0953 38.7103 80.0042 38.9574 79.849 39.2047 79.6208 39.4518 79.3109 39.6991 79.1083 39.9463 79.0706 40.1935 78.82 40.4407 78.6014 40.6878 78.4661 40.9351 78.2983 41.1822 78.2983 41.4295 78.0128 41.6766 77.7894 41.9238 77.6194 42.171 77.4421 42.4182 77.3559 42.6655 77.0686 42.9126 76.7671 43.1599 76.6167 43.407 76.4116 43.6542 76.2648 43.9014 76.1373 44.1486 75.8351 44.3957 75.7059 44.643 75.5623 44.8901 75.4136 45.1374 75.2094 45.3845 74.899 45.6318 74.7026 45.879 74.4469 46.1261 74.3214 46.3734 74.1329 46.6205 73.8005 46.8678 73.575 47.1149 73.3829 47.3622 73.2908 47.6093 73.1189 47.8565 72.8444 48.1037 72.5752 48.3509 72.3514 48.5982 72.1843 48.8453 72.073 49.0925 71.8453 49.3397 71.7481 49.5869 71.5256 49.8341 71.357 50.0813 71.1231 50.3284 70.9098 50.5757 70.8531 50.8228 70.7194 51.0701 70.498 51.3173 70.2407 51.5644 70.0909 51.8117 69.9231 52.0588 69.8227 52.3061 69.6011 52.5532 69.3422 52.8005 69.0873 53.0476 68.9347 53.2948 68.9725 53.542 68.7769 53.7892 68.516 54.0363 68.4952 54.2836 68.1244 54.5308 67.9124 54.778 67.8906 55.0252 67.6838 55.2724 67.5151 55.5196 67.2976 55.7667 67.0219 56.014 66.9794 56.2611 66.7582 56.5084 66.5529 56.7555 66.3309 57.0027 66.2458 57.25 66.1258 57.4971 65.901 57.7444 65.7562 57.9915 65.5478 58.2388 65.3225 58.4859 65.2774 58.7331 65.1149 58.9803 64.8874 59.2275 64.9473 59.4746 64.7013 59.7219 64.5263 59.9691 64.3541 60.2163 64.1538 60.4635 63.9803 60.7107 63.7362 60.9579 63.4965 61.205 63.4213 61.4523 63.2107 61.6994 63.1443 61.9467 63.0041 62.1938 62.7028 62.441 62.6078 62.6882 62.3656 62.9354 62.2284 63.1827 62.0668 63.4298 61.9186 63.6771 61.7348 63.9242 61.5212 64.1714 61.3158 64.4186 61.2483 64.6658 61.0509 64.9129 60.8361 65.1602 60.6896 65.4073 60.4714 65.6546 60.3157 65.9017 60.2834 66.149 60.1442 66.3962 60.0803 66.6433 59.8219 66.8906 59.5993 67.1377 59.5233 67.385 59.2021 67.6321 59.0145 67.8793 58.8612 68.1265 58.6201 68.3737 58.5941 68.6209 58.3588 68.8681 58.1971 69.1154 57.9145 69.3625 57.7423 69.6097 57.6809 69.8569 57.4972 70.1041 57.2418 70.3512 57.1548 70.5985 56.9014 70.8456 56.9736 71.0929 56.7506 71.34 56.5395 71.5873 56.3351 71.8344 56.1327 72.0816 56.0478 72.3289 55.8549 72.576 55.6885 72.8233 55.5413 73.0704 55.37 73.3176 55.1502 73.5648 54.929 73.812 54.7976 74.0592 54.6109 74.3064 54.5136 74.5535 54.3489 74.8008 54.055 75.0479 53.9283 75.2952 53.7504 75.5424 53.5895 75.7896 53.3868 76.0368 53.173 76.2839 53.0658 76.5312 52.7973 76.7783 52.6404 77.0256 52.5339 77.2727 52.2706 77.5199 52.0787 77.7672 51.9173 78.0143 51.709 78.2616 51.5539 78.5087 51.3168 78.756 51.0938 79.0031 50.937 79.2503 50.6535 79.4975 50.6011 79.7447 50.3767 79.9918 50.1682 80.2391 50.0366 80.4862 49.7663 80.7335 49.6738 80.9807 49.4329 81.2279 49.2667 81.4751 49.1135 81.7222 48.7744 81.9695 48.7233 82.2166 48.4677 82.4639 48.2938 82.711 48.1382 82.9582 47.9156 83.2054 47.7811 83.4526 47.6108 83.6998 47.3796 83.947 47.2006 84.1943 46.9223 84.4414 46.7976 84.6886 46.5817 84.9358 46.5355 85.183 46.4304 85.4301 46.1865 85.6774 45.913 85.9245 45.6702 86.1718 45.6071 86.419 45.5214 86.6662 45.3166 86.9133 45.0231 87.1605 44.7794 87.4078 44.7955 87.6549 44.5833 87.9022 44.3517 88.1493 44.0972 88.3965 43.7583 88.6437 43.7721 88.8909 43.5758 89.1381 43.2682 89.3853 43.0169 89.6326 42.8349 89.8797 42.6815 90.1269 42.4954 90.3741 42.3077 90.6213 42.0082 90.8684 41.845 91.1157 41.6895 91.3628 41.5441 91.6101 41.3978 91.8572 41.1208 92.1045 40.9799 92.3516 40.76 92.5988 40.6452 92.8461 40.5854 93.0932 40.299 93.3405 40.0697 93.5876 39.9242 93.8348 39.7977 94.082 39.5509 94.3292 39.4112 94.5764 39.2889 94.8236 39.0346 95.0709 38.9368 95.318 38.5422 95.5651 38.4883 95.8124 38.3632 96.0596 38.2918 96.3067 37.9879 96.554 37.6149 96.8011 37.4738 97.0484 37.3134 97.2955 37.0611 97.5428 36.8862 97.7899 36.6217 98.0371 36.481 98.2843 36.4191 98.5315 36.1877 98.7788 35.984 99.0259 35.7269 99.2732 35.3879 99.5203 35.3111 99.7675 35.1537 100.015 35.0516 100.262 34.746 100.509 34.6506 100.756 34.4336 101.003 34.21 101.251 33.8933 101.498 33.7747 101.745 33.4957 101.992 33.4492 102.239 33.1691 102.487 32.9901 102.734 33.3819 102.981 32.6769 103.228 32.4457 103.475 32.0634 103.723 31.9383 103.97 31.7819 104.217 31.5789 104.464 31.2074 104.711 31.1613 104.959 30.7745 105.206 30.6122 105.453 30.5702 105.7 30.2857 105.947 30.265 106.195 29.9287 106.442 29.5581 106.689 29.2617 106.936 29.1508 107.183 28.9871 107.431 28.8491 107.678 28.5865 107.925 28.4323 108.172 28.3067 108.419 28.3871 108.666 27.986 108.914 27.652 109.161 27.4765 109.408 27.1356 109.655 26.9677 109.903 27.0203 110.15 26.9595 110.397 26.6616 110.644 26.5558 110.891 26.2333 111.139 26.117 111.386 25.68 111.633 25.5588 111.88 25.2741 112.127 25.2977 112.374 25.4279 112.622 24.9362 112.869 24.621 113.116 24.3041 113.363 24.5035 113.61 24.2533 113.858 23.8916 114.105 23.6831 114.352 23.4423 114.599 23.2356 114.846 23.0586 115.094 22.7974 115.341 22.6688 115.588 22.4995 115.835 22.3069 116.082 22.0249 116.33 21.7869 116.577 21.6904 116.824 21.4013 117.071 21.1376 117.318 21.0174 117.566 20.8358 117.813 20.6841 118.06 20.3368 118.307 20.0507 118.554 19.9622 118.801 19.7672 119.049 19.8455 119.296 19.4947 119.543 19.1985 119.79 18.8842 120.037 18.6307 120.285 18.5493 120.532 18.1586 120.779 18.1111 121.027 17.9172 121.273 17.8262 121.52 17.3646 121.768 17.0731 122.015 16.6982 122.262 16.6391 122.51 16.6419 122.757 16.2731 123.003 15.9004 123.251 15.6516 123.498 15.688 123.746 15.4383 123.993 15.1933 124.24 14.9445 124.487 14.762 124.734 14.4744 124.981 14.3891 125.229 14.1856 125.476 13.8573 125.723 13.5642 125.971 13.3141 126.217 13.4089 126.464 13.162 126.712 12.8061 126.959 12.5073 127.206 12.23 127.454 12.1852 127.7 11.9346 127.948 11.7378 128.195 11.3282 128.442 11.081 128.69 11.0392 128.937 10.8037 129.183 10.4611 129.431 10.1973 129.678 9.90448 129.925 9.85709 130.173 9.84969" stroke="#AFDBAE" stroke-width="0.119792" stroke-linejoin="round" stroke-miterlimit="10" fill="none" fill-rule="evenodd" transform="matrix(1.00174 0 0 1 219 629)"/><path d="M18.6875 96.9987 18.9347 96.8578 19.1819 96.5244 19.4291 96.1753 19.6763 95.8156 19.9235 95.5582 20.1706 95.4664 20.4179 95.1163 20.665 94.7896 20.9123 94.4512 21.1594 94.1443 21.4067 94.0046 21.6538 93.7376 21.901 93.4668 22.1483 93.0675 22.3954 92.9522 22.6427 92.8577 22.8898 92.5501 23.137 92.2658 23.3842 92.0732 23.6314 91.867 23.8786 91.6855 24.1258 91.336 24.3731 91.1171 24.6202 90.8958 24.8674 90.6786 25.1146 90.5476 25.3618 90.2604 25.6089 89.9605 25.8562 89.7125 26.1033 89.5769 26.3506 89.4306 26.5977 89.1973 26.845 88.966 27.0921 88.7418 27.3393 88.5658 27.5866 88.4748 27.8337 88.2106 28.081 87.9133 28.3281 87.6264 28.5753 87.4327 28.8225 87.3599 29.0697 87.1056 29.3169 86.9078 29.5641 86.5732 29.8112 86.4304 30.0585 86.2706 30.3056 86.0315 30.5529 85.8685 30.8001 85.6821 31.0472 85.4161 31.2945 85.227 31.5416 85.0565 31.7889 84.7812 32.036 84.5962 32.2833 84.3957 32.5304 84.1681 32.7776 84.0301 33.0248 83.7418 33.272 83.5293 33.5191 83.26 33.7664 83.0656 34.0136 82.9773 34.2608 82.6961 34.508 82.49 34.7552 82.2975 35.0024 82.0813 35.2495 81.836 35.4968 81.7621 35.7439 81.5125 35.9912 81.3453 36.2384 81.1383 36.4855 80.9807 36.7327 80.7093 36.9799 80.4093 37.2272 80.4015 37.4743 80.1594 37.7216 79.8367 37.9687 79.6047 38.2159 79.4003 38.4631 79.4845 38.7103 79.3274 38.9574 79.1056 39.2047 79.1081 39.4518 78.9128 39.6991 78.6196 39.9463 78.3853 40.1935 78.3167 40.4407 78.1326 40.6878 77.8883 40.9351 77.8785 41.1822 77.5054 41.4295 77.4162 41.6766 77.1289 41.9238 76.855 42.171 76.885 42.4182 76.5105 42.6655 76.3057 42.9126 76.2013 43.1599 75.945 43.407 75.9317 43.6542 75.8128 43.9014 75.6982 44.1486 75.5058 44.3957 75.2205 44.643 75.0789 44.8901 74.8869 45.1374 74.6924 45.3845 74.3996 45.6318 74.1001 45.879 74.0221 46.1261 73.8184 46.3734 73.535 46.6205 73.3235 46.8678 73.0591 47.1149 73.0452 47.3622 72.819 47.6093 72.5842 47.8565 72.3006 48.1037 72.0156 48.3509 72.0864 48.5982 71.8643 48.8453 71.5698 49.0925 71.3762 49.3397 71.2045 49.5869 71.2122 49.8341 71.0374 50.0813 70.7378 50.3284 70.5057 50.5757 70.3925 50.8228 70.3288 51.0701 70.0987 51.3173 69.9673 51.5644 69.7117 51.8117 69.4981 52.0588 69.4214 52.3061 69.1883 52.5532 69.0477 52.8005 68.8734 53.0476 68.5623 53.2948 68.4207 53.542 68.2297 53.7892 68.0845 54.0363 68.0042 54.2836 67.7419 54.5308 67.5159 54.778 67.3355 55.0252 67.1442 55.2724 67.1266 55.5196 66.866 55.7667 66.5969 56.014 66.5618 56.2611 66.3322 56.5084 66.2763 56.7555 66.0367 57.0027 65.8078 57.25 65.6046 57.4971 65.531 57.7444 65.3604 57.9915 65.2702 58.2388 65.027 58.4859 64.8074 58.7331 64.6778 58.9803 64.6913 59.2275 64.4845 59.4746 64.2137 59.7219 64.0503 59.9691 63.8081 60.2163 63.732 60.4635 63.6455 60.7107 63.4134 60.9579 63.2084 61.205 62.9746 61.4523 62.8096 61.6994 62.8407 61.9467 62.6363 62.1938 62.3522 62.441 62.1428 62.6882 61.865 62.9354 61.7598 63.1827 61.6883 63.4298 61.4266 63.6771 61.2313 63.9242 60.971 64.1714 60.7271 64.4186 60.7605 64.6658 60.5801 64.9129 60.3628 65.1602 60.0231 65.4073 59.7905 65.6546 59.6967 65.9017 59.6993 66.149 59.4569 66.3962 59.2396 66.6433 59.0851 66.8906 58.854 67.1377 58.7707 67.385 58.7255 67.6321 58.51 67.8793 58.2777 68.1265 58.08 68.3737 57.9062 68.6209 57.9778 68.8681 57.7301 69.1154 57.4908 69.3625 57.3416 69.6097 57.0353 69.8569 56.8583 70.1041 56.9724 70.3512 56.6978 70.5985 56.5638 70.8456 56.328 71.0929 56.0861 71.34 56.1097 71.5873 55.9788 71.8344 55.7258 72.0816 55.4924 72.3289 55.2343 72.576 55.0362 72.8233 55.0487 73.0704 54.8304 73.3176 54.6167 73.5648 54.4046 73.812 54.1721 74.0592 54.1339 74.3064 54.0419 74.5535 53.7916 74.8008 53.5659 75.0479 53.3085 75.2952 53.1567 75.5424 53.1779 75.7896 52.8939 76.0368 52.6399 76.2839 52.4429 76.5312 52.2252 76.7783 52.0072 77.0256 52.0064 77.2727 51.8194 77.5199 51.5952 77.7672 51.4038 78.0143 51.1427 78.2616 50.9851 78.5087 50.901 78.756 50.6429 79.0031 50.3614 79.2503 50.1302 79.4975 49.9988 79.7447 49.9263 79.9918 49.6219 80.2391 49.3926 80.4862 49.1878 80.7335 48.9996 80.9807 48.8857 81.2279 48.6852 81.4751 48.4876 81.7222 48.2823 81.9695 47.976 82.2166 47.8826 82.4639 47.6983 82.711 47.584 82.9582 47.3805 83.2054 47.1802 83.4526 46.997 83.6998 46.8066 83.947 46.7269 84.1943 46.538 84.4414 46.3214 84.6886 46.0484 84.9358 45.817 85.183 45.7587 85.4301 45.64 85.6774 45.3615 85.9245 45.0544 86.1718 44.8407 86.419 44.5818 86.6662 44.6654 86.9133 44.4434 87.1605 44.163 87.4078 43.9122 87.6549 43.6842 87.9022 43.5386 88.1493 43.4494 88.3965 43.1359 88.6437 42.9899 88.8909 42.7075 89.1381 42.4877 89.3853 42.4076 89.6326 42.2139 89.8797 42.0174 90.1269 41.7628 90.3741 41.5648 90.6213 41.4588 90.8684 41.2312 91.1157 41.0314 91.3628 40.8306 91.6101 40.5615 91.8572 40.5695 92.1045 40.4014 92.3516 40.1404 92.5988 39.9643 92.8461 39.697 93.0932 39.7247 93.3405 39.5453 93.5876 39.4724 93.8348 39.2907 94.082 39.1071 94.3292 38.8882 94.5764 38.6003 94.8236 38.373 95.0709 38.2398 95.318 38.1418 95.5651 38.1455 95.8124 37.7378 96.0596 37.4578 96.3067 37.4378 96.554 37.2257 96.8011 36.9626 97.0484 36.8647 97.2955 36.6682 97.5428 36.2825 97.7899 36.1497 98.0371 36.0628 98.2843 35.7583 98.5315 35.7128 98.7788 35.3443 99.0259 35.1118 99.2732 34.9211 99.5203 34.8355 99.7675 34.5137 100.015 34.3489 100.262 34.087 100.509 34.064 100.756 33.8386 101.003 33.607 101.251 33.3345 101.498 33.0282 101.745 32.9485 101.992 32.9062 102.239 32.6747 102.487 32.2791 102.734 31.9681 102.981 31.7271 103.228 31.8623 103.475 31.6361 103.723 31.2854 103.97 30.9364 104.217 30.6499 104.464 30.6207 104.711 30.6724 104.959 30.3439 105.206 30.138 105.453 30.0339 105.7 29.5496 105.947 29.4077 106.195 29.3424 106.442 28.9932 106.689 28.8285 106.936 28.7863 107.183 28.271 107.431 28.3762 107.678 28.0263 107.925 27.7221 108.172 27.4404 108.419 27.1677 108.666 27.4033 108.914 27.2211 109.161 26.9332 109.408 26.8076 109.655 26.4976 109.903 26.1512 110.15 26.0233 110.397 25.8949 110.644 25.5027 110.891 25.5665 111.139 25.2266 111.386 25.0379 111.633 25.0686 111.88 24.7009 112.127 24.5095 112.374 24.1246 112.622 23.8657 112.869 23.5654 113.116 23.5593 113.363 23.489 113.61 23.2137 113.858 23.0299 114.105 22.5744 114.352 22.4874 114.599 22.4306 114.846 22.0419 115.094 21.7808 115.341 21.7913 115.588 21.4836 115.835 21.4887 116.082 21.3036 116.33 20.7827 116.577 20.5119 116.824 20.2753 117.071 20.2771 117.318 19.9944 117.566 19.7262 117.813 19.5217 118.06 19.158 118.307 18.964 118.554 19.0113 118.801 18.726 119.049 18.5457 119.296 18.2881 119.543 18.0125 119.79 17.6773 120.037 17.5395 120.285 17.526 120.532 17.3075 120.779 16.8336 121.027 16.5232 121.273 16.269 121.52 16.1924 121.768 15.9802 122.015 15.6472 122.262 15.4106 122.51 15.125 122.757 14.8733 123.003 14.9186 123.251 14.7043 123.498 14.4373 123.746 14.1863 123.993 13.8253 124.24 13.696 124.487 13.6052 124.734 13.3241 124.981 13.0683 125.229 12.8665 125.476 12.5047 125.723 12.6159 125.971 12.2208 126.217 12.0474 126.464 11.6995 126.712 11.5401 126.959 11.264 127.206 11.2118 127.454 11.0239 127.7 10.6835 127.948 10.5091 128.195 10.1025 128.442 10.0507 128.69 9.94379 128.937 9.68995 129.183 9.30884 129.431 9.02304 129.678 8.77384 129.925 8.625 130.173 8.62905" stroke="#AFDBAE" stroke-width="0.119792" stroke-linejoin="round" stroke-miterlimit="10" fill="none" fill-rule="evenodd" transform="matrix(1.00174 0 0 1 219 629)"/><path d="M18.6875 97.1939 18.9347 96.9668 19.1819 96.6981 19.4291 96.4443 19.6763 96.1593 19.9235 95.8901 20.1706 95.5922 20.4179 95.3265 20.665 95.0371 20.9123 94.7548 21.1594 94.4748 21.4067 94.1798 21.6538 93.9192 21.901 93.6891 22.1483 93.455 22.3954 93.2166 22.6427 93.0058 22.8898 92.7577 23.137 92.541 23.3842 92.2888 23.6314 92.0755 23.8786 91.8634 24.1258 91.6082 24.3731 91.3617 24.6202 91.1577 24.8674 90.9243 25.1146 90.6629 25.3618 90.434 25.6089 90.1859 25.8562 90.0172 26.1033 89.8265 26.3506 89.6129 26.5977 89.3798 26.845 89.1965 27.0921 88.9998 27.3393 88.8394 27.5866 88.5996 27.8337 88.3265 28.081 88.0984 28.3281 87.883 28.5753 87.7541 28.8225 87.5552 29.0697 87.2794 29.3169 87.0461 29.5641 86.8467 29.8112 86.6681 30.0585 86.4899 30.3056 86.2354 30.5529 86.0041 30.8001 85.8033 31.0472 85.6497 31.2945 85.4599 31.5416 85.2082 31.7889 84.9809 32.036 84.753 32.2833 84.5608 32.5304 84.3866 32.7776 84.1786 33.0248 83.9271 33.272 83.6717 33.5191 83.4826 33.7664 83.369 34.0136 83.1617 34.2608 82.9484 34.508 82.699 34.7552 82.5245 35.0024 82.3253 35.2495 82.131 35.4968 81.9842 35.7439 81.7488 35.9912 81.5388 36.2384 81.37 36.4855 81.1825 36.7327 81.1166 36.9799 80.9044 37.2272 80.906 37.4743 80.7059 37.7216 80.3844 37.9687 80.2081 38.2159 80.0341 38.4631 79.834 38.7103 79.6488 38.9574 79.4618 39.2047 79.3253 39.4518 79.1277 39.6991 78.9241 39.9463 78.7303 40.1935 78.5419 40.4407 78.3593 40.6878 78.2516 40.9351 78.1172 41.1822 77.921 41.4295 77.6986 41.6766 77.487 41.9238 77.2757 42.171 77.1288 42.4182 77.0081 42.6655 76.7722 42.9126 76.5707 43.1599 76.3598 43.407 76.1857 43.6542 76.0854 43.9014 75.8881 44.1486 75.6793 44.3957 75.4828 44.643 75.3004 44.8901 75.1166 45.1374 74.9581 45.3845 74.7097 45.6318 74.4837 45.879 74.2674 46.1261 74.0518 46.3734 73.852 46.6205 73.6107 46.8678 73.4416 47.1149 73.252 47.3622 73.0147 47.6093 72.822 47.8565 72.6384 48.1037 72.4327 48.3509 72.2462 48.5982 72.0281 48.8453 71.8071 49.0925 71.6056 49.3397 71.4706 49.5869 71.3601 49.8341 71.174 50.0813 70.9475 50.3284 70.7174 50.5757 70.5772 50.8228 70.4733 51.0701 70.2875 51.3173 70.107 51.5644 69.8814 51.8117 69.6469 52.0588 69.586 52.3061 69.4072 52.5532 69.2071 52.8005 68.9753 53.0476 68.7589 53.2948 68.6498 53.542 68.5206 53.7892 68.3535 54.0363 68.1704 54.2836 67.9235 54.5308 67.7496 54.778 67.6531 55.0252 67.4898 55.2724 67.2799 55.5196 67.0536 55.7667 66.8288 56.014 66.7105 56.2611 66.5989 56.5084 66.4029 56.7555 66.1711 57.0027 65.9612 57.25 65.8256 57.4971 65.7529 57.7444 65.5765 57.9915 65.3711 58.2388 65.1597 58.4859 65.0212 58.7331 64.8735 58.9803 64.7832 59.2275 64.608 59.4746 64.3862 59.7219 64.2268 59.9691 64.0877 60.2163 63.9667 60.4635 63.7879 60.7107 63.5452 60.9579 63.3688 61.205 63.2221 61.4523 63.0386 61.6994 62.9617 61.9467 62.7664 62.1938 62.5316 62.441 62.3696 62.6882 62.1444 62.9354 62.0411 63.1827 61.8827 63.4298 61.6709 63.6771 61.5214 63.9242 61.2944 64.1714 61.1066 64.4186 61.0109 64.6658 60.8107 64.9129 60.6282 65.1602 60.3949 65.4073 60.1947 65.6546 60.0506 65.9017 59.8988 66.149 59.7339 66.3962 59.5462 66.6433 59.3443 66.8906 59.1746 67.1377 59.0724 67.385 58.8847 67.6321 58.6859 67.8793 58.4842 68.1265 58.3269 68.3737 58.1999 68.6209 58.0825 68.8681 57.9375 69.1154 57.7076 69.3625 57.5204 69.6097 57.3782 69.8569 57.2934 70.1041 57.1234 70.3512 56.8949 70.5985 56.7217 70.8456 56.555 71.0929 56.4244 71.34 56.2752 71.5873 56.1253 71.8344 55.9013 72.0816 55.7389 72.3289 55.551 72.576 55.432 72.8233 55.241 73.0704 55.0456 73.3176 54.8873 73.5648 54.6932 73.812 54.5226 74.0592 54.3824 74.3064 54.22 74.5535 54.0327 74.8008 53.8113 75.0479 53.6279 75.2952 53.4686 75.5424 53.319 75.7896 53.132 76.0368 52.9331 76.2839 52.7543 76.5312 52.5574 76.7783 52.398 77.0256 52.2706 77.2727 52.0329 77.5199 51.8595 77.7672 51.6417 78.0143 51.4462 78.2616 51.3087 78.5087 51.0853 78.756 50.8977 79.0031 50.6486 79.2503 50.4311 79.4975 50.3159 79.7447 50.1142 79.9918 49.9089 80.2391 49.6983 80.4862 49.4663 80.7335 49.3187 80.9807 49.132 81.2279 48.9531 81.4751 48.7666 81.7222 48.5044 81.9695 48.3679 82.2166 48.1718 82.4639 47.9935 82.711 47.8269 82.9582 47.6082 83.2054 47.4382 83.4526 47.2652 83.6998 47.1011 83.947 46.9686 84.1943 46.7329 84.4414 46.5192 84.6886 46.3443 84.9358 46.2198 85.183 46.0399 85.4301 45.8509 85.6774 45.6528 85.9245 45.4595 86.1718 45.2689 86.419 45.0927 86.6662 44.9123 86.9133 44.726 87.1605 44.5185 87.4078 44.3648 87.6549 44.1578 87.9022 43.9208 88.1493 43.7606 88.3965 43.5203 88.6437 43.3393 88.8909 43.0992 89.1381 42.9004 89.3853 42.751 89.6326 42.5714 89.8797 42.3692 90.1269 42.1329 90.3741 41.9197 90.6213 41.7318 90.8684 41.5852 91.1157 41.4031 91.3628 41.1922 91.6101 40.9925 91.8572 40.8104 92.1045 40.6762 92.3516 40.5097 92.5988 40.3416 92.8461 40.1775 93.0932 39.9826 93.3405 39.8037 93.5876 39.6992 93.8348 39.5176 94.082 39.3258 94.3292 39.1261 94.5764 38.9515 94.8236 38.7288 95.0709 38.5884 95.318 38.3754 95.5651 38.2358 95.8124 38.0109 96.0596 37.8114 96.3067 37.7285 96.554 37.4533 96.8011 37.2407 97.0484 37.0326 97.2955 36.8431 97.5428 36.6152 97.7899 36.4562 98.0371 36.2941 98.2843 36.0441 98.5315 35.8648 98.7788 35.6619 99.0259 35.4133 99.2732 35.2389 99.5203 35.0194 99.7675 34.7743 100.015 34.679 100.262 34.4184 100.509 34.32 100.756 34.126 101.003 33.8691 101.251 33.6492 101.498 33.4691 101.745 33.27 101.992 33.1479 102.239 32.8931 102.487 32.615 102.734 32.5079 102.981 32.2177 103.228 32.1318 103.475 31.9311 103.723 31.597 103.97 31.3757 104.217 31.2153 104.464 31.0166 104.711 30.9188 104.959 30.5759 105.206 30.3668 105.453 30.2123 105.7 29.9577 105.947 29.7552 106.195 29.6429 106.442 29.2917 106.689 29.1157 106.936 28.966 107.183 28.7041 107.431 28.5685 107.678 28.2883 107.925 28.104 108.172 27.9682 108.419 27.7884 108.666 27.6864 108.914 27.4778 109.161 27.1671 109.408 26.9499 109.655 26.7594 109.903 26.542 110.15 26.4101 110.397 26.2921 110.644 26.056 110.891 25.9196 111.139 25.7767 111.386 25.4917 111.633 25.2948 111.88 24.9851 112.127 24.959 112.374 24.7172 112.622 24.4769 112.869 24.1868 113.116 23.961 113.363 23.9037 113.61 23.7358 113.858 23.487 114.105 23.2349 114.352 23.0437 114.599 22.8525 114.846 22.643 115.094 22.4252 115.341 22.2093 115.588 21.9529 115.835 21.816 116.082 21.6511 116.33 21.315 116.577 21.1114 116.824 20.8799 117.071 20.6384 117.318 20.5231 117.566 20.3151 117.813 20.0893 118.06 19.7747 118.307 19.5336 118.554 19.475 118.801 19.2403 119.049 19.0211 119.296 18.8413 119.543 18.5926 119.79 18.3239 120.037 18.1299 120.285 17.9553 120.532 17.6581 120.779 17.4358 121.027 17.2159 121.273 17.0291 121.52 16.7822 121.768 16.5262 122.015 16.2187 122.262 16.0212 122.51 15.8786 122.757 15.6643 123.003 15.4167 123.251 15.1438 123.498 15.0029 123.746 14.8128 123.993 14.5506 124.24 14.2745 124.487 14.0623 124.734 13.8259 124.981 13.6413 125.229 13.3959 125.476 13.1396 125.723 12.9258 125.971 12.6925 126.217 12.547 126.464 12.3122 126.712 12.0504 126.959 11.8374 127.206 11.6438 127.454 11.4686 127.7 11.1704 127.948 10.938 128.195 10.7102 128.442 10.5102 128.69 10.3075 128.937 10.1475 129.183 9.82411 129.431 9.55712 129.678 9.30217 129.925 9.17694 130.173 9.17324" stroke="#4DAF4A" stroke-width="1.4375" stroke-linejoin="round" stroke-miterlimit="10" fill="none" fill-rule="evenodd" transform="matrix(1.00174 0 0 1 219 629)"/></g></svg>